<?xml version="1.0" encoding="UTF-8"?>
<svg width="70px" height="70px" viewBox="0 0 70 70" version="1.1" xmlns="http://www.w3.org/2000/svg" xmlns:xlink="http://www.w3.org/1999/xlink">
    <!-- Generator: Sketch 53.2 (72643) - https://sketchapp.com -->
    <title>pack1_ loop</title>
    <desc>Created with Sketch.</desc>
    <g id="pack1_-loop" stroke="none" stroke-width="1" fill="none" fill-rule="evenodd">
        <g id="baseline-loop-24px" transform="translate(11.000000, 2.000000)" fill="#000000" fill-rule="nonzero">
            <path d="M24,9.66666667 L24,0.916666667 L12.3333333,12.5833333 L24,24.25 L24,15.5 C33.6541667,15.5 41.5,23.3458333 41.5,33 C41.5,35.9458333 40.7708333,38.7458333 39.4583333,41.1666667 L43.7166667,45.425 C45.9916667,41.8375 47.3333333,37.5791667 47.3333333,33 C47.3333333,20.1083333 36.8916667,9.66666667 24,9.66666667 Z M24,50.5 C14.3458333,50.5 6.5,42.6541667 6.5,33 C6.5,30.0541667 7.22916667,27.2541667 8.54166667,24.8333333 L4.28333333,20.575 C2.00833333,24.1625 0.666666667,28.4208333 0.666666667,33 C0.666666667,45.8916667 11.1083333,56.3333333 24,56.3333333 L24,65.0833333 L35.6666667,53.4166667 L24,41.75 L24,50.5 Z" id="Shape"></path>
        </g>
    </g>
</svg>
