<?xml version="1.0" encoding="UTF-8"?>
<svg width="70px" height="70px" viewBox="0 0 70 70" version="1.1" xmlns="http://www.w3.org/2000/svg" xmlns:xlink="http://www.w3.org/1999/xlink">
    <!-- Generator: Sketch 53.2 (72643) - https://sketchapp.com -->
    <title>pack1_ loyalty</title>
    <desc>Created with Sketch.</desc>
    <g id="pack1_-loyalty" stroke="none" stroke-width="1" fill="none" fill-rule="evenodd">
        <g id="baseline-loyalty-24px" transform="translate(5.000000, 5.000000)" fill="#000000" fill-rule="nonzero">
            <path d="M57.4458333,28.775 L31.1958333,2.525 C30.1458333,1.475 28.6875,0.833333333 27.0833333,0.833333333 L6.66666667,0.833333333 C3.45833333,0.833333333 0.833333333,3.45833333 0.833333333,6.66666667 L0.833333333,27.0833333 C0.833333333,28.6875 1.475,30.1458333 2.55416667,31.225 L28.8041667,57.475 C29.8541667,58.525 31.3125,59.1666667 32.9166667,59.1666667 C34.5208333,59.1666667 35.9791667,58.525 37.0291667,57.4458333 L57.4458333,37.0291667 C58.525,35.9791667 59.1666667,34.5208333 59.1666667,32.9166667 C59.1666667,31.3125 58.4958333,29.825 57.4458333,28.775 Z M11.0416667,15.4166667 C8.62083333,15.4166667 6.66666667,13.4625 6.66666667,11.0416667 C6.66666667,8.62083333 8.62083333,6.66666667 11.0416667,6.66666667 C13.4625,6.66666667 15.4166667,8.62083333 15.4166667,11.0416667 C15.4166667,13.4625 13.4625,15.4166667 11.0416667,15.4166667 Z M45.3708333,39.5375 L32.9166667,51.9916667 L20.4625,39.5375 C19.15,38.1958333 18.3333333,36.3875 18.3333333,34.375 C18.3333333,30.35 21.6,27.0833333 25.625,27.0833333 C27.6375,27.0833333 29.475,27.9 30.7875,29.2416667 L32.9166667,31.3416667 L35.0458333,29.2125 C36.3583333,27.9 38.1958333,27.0833333 40.2083333,27.0833333 C44.2333333,27.0833333 47.5,30.35 47.5,34.375 C47.5,36.3875 46.6833333,38.225 45.3708333,39.5375 Z" id="Shape"></path>
        </g>
    </g>
</svg>
