<?xml version="1.0" encoding="UTF-8"?>
<svg width="70px" height="70px" viewBox="0 0 70 70" version="1.1" xmlns="http://www.w3.org/2000/svg" xmlns:xlink="http://www.w3.org/1999/xlink">
    <!-- Generator: Sketch 53.2 (72643) - https://sketchapp.com -->
    <title>pack1_mood</title>
    <desc>Created with Sketch.</desc>
    <g id="pack1_mood" stroke="none" stroke-width="1" fill="none" fill-rule="evenodd">
        <g id="baseline-mood-24px" transform="translate(5.000000, 5.000000)" fill="#000000" fill-rule="nonzero">
            <path d="M29.9708333,0.833333333 C13.8708333,0.833333333 0.833333333,13.9 0.833333333,30 C0.833333333,46.1 13.8708333,59.1666667 29.9708333,59.1666667 C46.1,59.1666667 59.1666667,46.1 59.1666667,30 C59.1666667,13.9 46.1,0.833333333 29.9708333,0.833333333 Z M30,53.3333333 C17.1083333,53.3333333 6.66666667,42.8916667 6.66666667,30 C6.66666667,17.1083333 17.1083333,6.66666667 30,6.66666667 C42.8916667,6.66666667 53.3333333,17.1083333 53.3333333,30 C53.3333333,42.8916667 42.8916667,53.3333333 30,53.3333333 Z M40.2083333,27.0833333 C42.6291667,27.0833333 44.5833333,25.1291667 44.5833333,22.7083333 C44.5833333,20.2875 42.6291667,18.3333333 40.2083333,18.3333333 C37.7875,18.3333333 35.8333333,20.2875 35.8333333,22.7083333 C35.8333333,25.1291667 37.7875,27.0833333 40.2083333,27.0833333 Z M19.7916667,27.0833333 C22.2125,27.0833333 24.1666667,25.1291667 24.1666667,22.7083333 C24.1666667,20.2875 22.2125,18.3333333 19.7916667,18.3333333 C17.3708333,18.3333333 15.4166667,20.2875 15.4166667,22.7083333 C15.4166667,25.1291667 17.3708333,27.0833333 19.7916667,27.0833333 Z M30,46.0416667 C36.7958333,46.0416667 42.5708333,41.7833333 44.9041667,35.8333333 L15.0958333,35.8333333 C17.4291667,41.7833333 23.2041667,46.0416667 30,46.0416667 Z" id="Shape"></path>
        </g>
    </g>
</svg>
