<?xml version="1.0" encoding="UTF-8"?>
<svg width="70px" height="70px" viewBox="0 0 70 70" version="1.1" xmlns="http://www.w3.org/2000/svg" xmlns:xlink="http://www.w3.org/1999/xlink">
    <!-- Generator: Sketch 53.2 (72643) - https://sketchapp.com -->
    <title>pack1_ public</title>
    <desc>Created with Sketch.</desc>
    <g id="pack1_-public" stroke="none" stroke-width="1" fill="none" fill-rule="evenodd">
        <g id="baseline-public-24px" transform="translate(5.000000, 5.000000)" fill="#000000" fill-rule="nonzero">
            <path d="M30,0.833333333 C13.9,0.833333333 0.833333333,13.9 0.833333333,30 C0.833333333,46.1 13.9,59.1666667 30,59.1666667 C46.1,59.1666667 59.1666667,46.1 59.1666667,30 C59.1666667,13.9 46.1,0.833333333 30,0.833333333 Z M27.0833333,53.1291667 C15.5625,51.7 6.66666667,41.9 6.66666667,30 C6.66666667,28.1916667 6.9,26.4708333 7.27916667,24.7791667 L21.25,38.75 L21.25,41.6666667 C21.25,44.875 23.875,47.5 27.0833333,47.5 L27.0833333,53.1291667 Z M47.2083333,45.7208333 C46.45,43.3583333 44.2916667,41.6666667 41.6666667,41.6666667 L38.75,41.6666667 L38.75,32.9166667 C38.75,31.3125 37.4375,30 35.8333333,30 L18.3333333,30 L18.3333333,24.1666667 L24.1666667,24.1666667 C25.7708333,24.1666667 27.0833333,22.8541667 27.0833333,21.25 L27.0833333,15.4166667 L32.9166667,15.4166667 C36.125,15.4166667 38.75,12.7916667 38.75,9.58333333 L38.75,8.3875 C47.2958333,11.8583333 53.3333333,20.2291667 53.3333333,30 C53.3333333,36.0666667 51,41.5791667 47.2083333,45.7208333 Z" id="Shape"></path>
        </g>
    </g>
</svg>