<?xml version="1.0" encoding="UTF-8"?>
<svg width="70px" height="70px" viewBox="0 0 70 70" version="1.1" xmlns="http://www.w3.org/2000/svg" xmlns:xlink="http://www.w3.org/1999/xlink">
    <!-- Generator: Sketch 53.2 (72643) - https://sketchapp.com -->
    <title>pack1_ redeem</title>
    <desc>Created with Sketch.</desc>
    <g id="pack1_-redeem" stroke="none" stroke-width="1" fill="none" fill-rule="evenodd">
        <g id="baseline-redeem-24px" transform="translate(5.000000, 5.000000)" fill="#000000" fill-rule="nonzero">
            <path d="M53.3333333,12.5 L46.975,12.5 C47.2958333,11.5958333 47.5,10.6041667 47.5,9.58333333 C47.5,4.74166667 43.5916667,0.833333333 38.75,0.833333333 C35.6875,0.833333333 33.0333333,2.40833333 31.4583333,4.77083333 L30,6.725 L28.5416667,4.74166667 C26.9666667,2.40833333 24.3125,0.833333333 21.25,0.833333333 C16.4083333,0.833333333 12.5,4.74166667 12.5,9.58333333 C12.5,10.6041667 12.7041667,11.5958333 13.025,12.5 L6.66666667,12.5 C3.42916667,12.5 0.8625,15.0958333 0.8625,18.3333333 L0.833333333,50.4166667 C0.833333333,53.6541667 3.42916667,56.25 6.66666667,56.25 L53.3333333,56.25 C56.5708333,56.25 59.1666667,53.6541667 59.1666667,50.4166667 L59.1666667,18.3333333 C59.1666667,15.0958333 56.5708333,12.5 53.3333333,12.5 Z M38.75,6.66666667 C40.3541667,6.66666667 41.6666667,7.97916667 41.6666667,9.58333333 C41.6666667,11.1875 40.3541667,12.5 38.75,12.5 C37.1458333,12.5 35.8333333,11.1875 35.8333333,9.58333333 C35.8333333,7.97916667 37.1458333,6.66666667 38.75,6.66666667 Z M21.25,6.66666667 C22.8541667,6.66666667 24.1666667,7.97916667 24.1666667,9.58333333 C24.1666667,11.1875 22.8541667,12.5 21.25,12.5 C19.6458333,12.5 18.3333333,11.1875 18.3333333,9.58333333 C18.3333333,7.97916667 19.6458333,6.66666667 21.25,6.66666667 Z M53.3333333,50.4166667 L6.66666667,50.4166667 L6.66666667,44.5833333 L53.3333333,44.5833333 L53.3333333,50.4166667 Z M53.3333333,35.8333333 L6.66666667,35.8333333 L6.66666667,18.3333333 L21.4833333,18.3333333 L15.4166667,26.5875 L20.1416667,30 L27.0833333,20.55 L30,16.5833333 L32.9166667,20.55 L39.8583333,30 L44.5833333,26.5875 L38.5166667,18.3333333 L53.3333333,18.3333333 L53.3333333,35.8333333 Z" id="Shape"></path>
        </g>
    </g>
</svg>
