<?xml version="1.0" encoding="UTF-8"?>
<svg width="70px" height="70px" viewBox="0 0 70 70" version="1.1" xmlns="http://www.w3.org/2000/svg" xmlns:xlink="http://www.w3.org/1999/xlink">
    <!-- Generator: Sketch 53.2 (72643) - https://sketchapp.com -->
    <title>pack1_ thumb</title>
    <desc>Created with Sketch.</desc>
    <g id="pack1_-thumb" stroke="none" stroke-width="1" fill="none" fill-rule="evenodd">
        <g id="baseline-thumb_up-24px" transform="translate(2.000000, 2.000000)" fill="#000000" fill-rule="nonzero">
            <path d="M0.916666667,59.25 L12.5833333,59.25 L12.5833333,24.25 L0.916666667,24.25 L0.916666667,59.25 Z M65.0833333,27.1666667 C65.0833333,23.9583333 62.4583333,21.3333333 59.25,21.3333333 L40.8458333,21.3333333 L43.6166667,8.00416667 L43.7041667,7.07083333 C43.7041667,5.875 43.2083333,4.76666667 42.4208333,3.97916667 L39.3291667,0.916666667 L20.1375,20.1375 C19.0583333,21.1875 18.4166667,22.6458333 18.4166667,24.25 L18.4166667,53.4166667 C18.4166667,56.625 21.0416667,59.25 24.25,59.25 L50.5,59.25 C52.9208333,59.25 54.9916667,57.7916667 55.8666667,55.6916667 L64.675,35.1291667 C64.9375,34.4583333 65.0833333,33.7583333 65.0833333,33 L65.0833333,27.1666667 Z" id="Shape"></path>
        </g>
    </g>
</svg>
