<?xml version="1.0" encoding="UTF-8"?>
<svg width="70px" height="70px" viewBox="0 0 70 70" version="1.1" xmlns="http://www.w3.org/2000/svg" xmlns:xlink="http://www.w3.org/1999/xlink">
    <!-- Generator: Sketch 53.2 (72643) - https://sketchapp.com -->
    <title>pack1_ touch-app</title>
    <desc>Created with Sketch.</desc>
    <g id="pack1_-touch-app" stroke="none" stroke-width="1" fill="none" fill-rule="evenodd">
        <g id="baseline-touch_app-24px" transform="translate(14.000000, 4.000000)" fill="#000000" fill-rule="nonzero">
            <path d="M12.3958333,24.0333333 L12.3958333,13.125 C12.3958333,9.1 15.6625,5.83333333 19.6875,5.83333333 C23.7125,5.83333333 26.9791667,9.1 26.9791667,13.125 L26.9791667,24.0333333 C30.5083333,21.6708333 32.8125,17.675 32.8125,13.125 C32.8125,5.8625 26.95,0 19.6875,0 C12.425,0 6.5625,5.8625 6.5625,13.125 C6.5625,17.675 8.86666667,21.6708333 12.3958333,24.0333333 Z M41.0958333,37.5375 L27.8541667,30.9458333 C27.3583333,30.7416667 26.8333333,30.625 26.2791667,30.625 L24.0625,30.625 L24.0625,13.125 C24.0625,10.7041667 22.1083333,8.75 19.6875,8.75 C17.2666667,8.75 15.3125,10.7041667 15.3125,13.125 L15.3125,44.45 L5.30833333,42.35 C5.075,42.3208333 4.87083333,42.2625 4.60833333,42.2625 C3.70416667,42.2625 2.8875,42.6416667 2.30416667,43.225 L0,45.5583333 L14.4083333,59.9666667 C15.1958333,60.7541667 16.3041667,61.25 17.5,61.25 L37.3041667,61.25 C39.4916667,61.25 41.1833333,59.6458333 41.5041667,57.5166667 L43.6916667,42.1458333 C43.7208333,41.9416667 43.75,41.7375 43.75,41.5625 C43.75,39.7541667 42.6416667,38.1791667 41.0958333,37.5375 L41.0958333,37.5375 Z" id="Shape"></path>
        </g>
    </g>
</svg>
