<?xml version="1.0" encoding="UTF-8"?>
<svg width="70px" height="70px" viewBox="0 0 70 70" version="1.1" xmlns="http://www.w3.org/2000/svg" xmlns:xlink="http://www.w3.org/1999/xlink">
    <!-- Generator: Sketch 53.2 (72643) - https://sketchapp.com -->
    <title>pack2_carrier</title>
    <desc>Created with Sketch.</desc>
    <g id="pack2_carrier" stroke="none" stroke-width="1" fill="none" fill-rule="evenodd">
        <path d="M28.984375,45.3503662 L33.3155515,45.3503662 C33.8624265,44.2566162 34.7426471,43.2190318 36.5119485,43.2190318 C38.28125,43.2190318 39.3581772,44.2566162 39.7083456,45.3503662 L53.046875,45.3503662 L53.046875,21.8347412 L47.4494485,21.8347412 L47.4494485,33.8008906 C47.4494485,34.5012754 46.8733443,35.0690494 46.1626838,35.0690494 C45.8197983,35.0690494 45.4910937,34.9341768 45.2495163,34.6943626 L43.5138893,32.9714037 L41.6590074,31.1715233 L39.8744401,32.9584673 L38.0619353,34.7320645 C37.5576198,35.2255284 36.7428907,35.2226429 36.2421869,34.7256195 C36.0028693,34.488061 35.8685662,34.1668819 35.8685662,33.8321242 L35.8685662,21.8347412 L28.984375,21.8347412 L28.984375,45.3503662 Z M55.8455882,27.3472412 L64.0340909,27.3472412 L70,38.362298 L70,48.1662753 L65.2193963,48.1662753 C64.7238954,49.7045521 63.2637171,50.8191162 61.5395221,50.8191162 C59.815327,50.8191162 58.3551487,49.7045521 57.8596478,48.1662753 L40.2239919,48.1662753 C39.728491,49.7045521 38.2683127,50.8191162 36.5441176,50.8191162 C34.8199226,50.8191162 33.3597443,49.7045521 32.8642434,48.1662753 L26.25,48.1662753 L26.25,22.2722412 C26.25,20.520463 27.6902605,19.1003662 29.4669118,19.1003662 L52.6286765,19.1003662 C54.4053278,19.1003662 55.8455882,20.520463 55.8455882,22.2722412 L55.8455882,27.3472412 Z M38.28125,21.8347412 L38.28125,30.5847412 L41.6184924,27.4653396 L44.84375,30.5238742 L44.84375,21.8347412 L38.28125,21.8347412 Z M58.2495787,45.3503662 C58.5911942,44.2566162 60.1242065,43.110328 61.5209675,43.110328 C62.9177284,43.110328 64.3857193,44.2566162 64.7923563,45.3503662 L67.265625,45.3503662 L67.265625,39.2426972 L62.3681798,30.0378662 L55.78125,30.0378662 L55.78125,45.3503662 L57.8346968,45.3503662 L58.2495787,45.3503662 Z M36.640625,48.0847412 C37.2446864,48.0847412 37.734375,47.5950527 37.734375,46.9909912 C37.734375,46.3869298 37.2446864,45.8972412 36.640625,45.8972412 C36.0365636,45.8972412 35.546875,46.3869298 35.546875,46.9909912 C35.546875,47.5950527 36.0365636,48.0847412 36.640625,48.0847412 Z M61.5234375,48.0847412 C62.1274989,48.0847412 62.6171875,47.5950527 62.6171875,46.9909912 C62.6171875,46.3869298 62.1274989,45.8972412 61.5234375,45.8972412 C60.9193761,45.8972412 60.4296875,46.3869298 60.4296875,46.9909912 C60.4296875,47.5950527 60.9193761,48.0847412 61.5234375,48.0847412 Z" id="color" fill="#000000" fill-rule="nonzero"></path>
        <path d="M20.3910556,36.5241223 L1.25412602,36.5241223 C0.911800873,36.5201533 0.585605642,36.3780215 0.34961853,36.1300047 C0.113631419,35.8819879 -0.0121199988,35.5491345 0.000922140458,35.2070349 C-0.0135552202,34.4984918 0.545738573,33.9106874 1.25412602,33.8899475 C2.1858736,33.8580058 19.4912498,33.8580058 20.3910556,33.8899475 C20.7332622,33.8940983 21.0592811,34.0363097 21.2951207,34.2843061 C21.5309604,34.5323024 21.6566198,34.8650517 21.6435799,35.2070349 C21.6566198,35.5490181 21.5309604,35.8817674 21.2951207,36.1297637 C21.0592811,36.3777601 20.7332622,36.5199715 20.3910556,36.5241223 Z M20.3910556,31.0553723 L6.72287602,31.0553723 C6.38055087,31.0514033 6.05435564,30.9092715 5.81836853,30.6612547 C5.58238142,30.4132379 5.45663,30.0803845 5.46967214,29.7382849 C5.45519478,29.0297418 6.01448857,28.4419374 6.72287602,28.4211975 C7.6546236,28.3892558 19.4912498,28.3892558 20.3910556,28.4211975 C20.7332622,28.4253483 21.0592811,28.5675597 21.2951207,28.8155561 C21.5309604,29.0635524 21.6566198,29.3963017 21.6435799,29.7382849 C21.6566198,30.0802681 21.5309604,30.4130174 21.2951207,30.6610137 C21.0592811,30.9090101 20.7332622,31.0512215 20.3910556,31.0553723 Z M20.3910556,41.9928723 L12.191626,41.9928723 C11.8493009,41.9889033 11.5231056,41.8467715 11.2871185,41.5987547 C11.0511314,41.3507379 10.92538,41.0178845 10.9384221,40.6757849 C10.9239448,39.9672418 11.4832386,39.3794374 12.191626,39.3586975 C13.1233736,39.3267558 19.4912498,39.3267558 20.3910556,39.3586975 C20.7332622,39.3628483 21.0592811,39.5050597 21.2951207,39.7530561 C21.5309604,40.0010524 21.6566198,40.3338017 21.6435799,40.6757849 C21.6566198,41.0177681 21.5309604,41.3505174 21.2951207,41.5985137 C21.0592811,41.8465101 20.7332622,41.9887215 20.3910556,41.9928723 Z M38.828125,22.3816162 L44.84375,22.3816162 L44.84375,30.5238742 L41.6184924,27.4653396 L38.828125,30.5847412 L38.828125,22.3816162 Z M58.2495787,45.3503662 L56.328125,45.3503662 L56.328125,30.5847412 L62.3681798,30.5847412 L67.265625,39.2426972 L67.265625,45.3503662 L64.7923563,45.3503662 C64.3857193,44.2566162 62.9177284,43.110328 61.5209675,43.110328 C60.1242065,43.110328 58.5911942,44.2566162 58.2495787,45.3503662 Z M55.611389,9.43773704 L56.4712859,10.1136559 L55.1194483,11.8334498 L54.2595513,11.157531 C54.1211905,11.048773 53.9819698,10.9412727 53.8419023,10.8350369 L52.9704544,10.1740773 L54.2923737,8.43118151 L55.1638215,9.09214114 C55.3139264,9.20598992 55.4631203,9.32119103 55.611389,9.43773704 Z M50.9938867,6.36784966 L51.9485039,6.9016991 L50.880805,8.81093334 L49.9261879,8.2770839 C49.7728136,8.19131258 49.6187325,8.1068933 49.4639606,8.02383229 L48.5002245,7.50662666 L49.5346357,5.57915433 L50.4983719,6.09635996 C50.6642894,6.18540245 50.8294668,6.27590128 50.9938867,6.36784966 Z M46.3496234,4.23012061 L47.3759416,4.60822125 L46.6197403,6.66085757 L45.5934221,6.28275692 C45.4284472,6.22197935 45.2629565,6.16263123 45.0969684,6.10471759 L44.0642704,5.7444067 L44.7848922,3.67901073 L45.8175902,4.03932162 C45.9954718,4.10138497 46.1728229,4.16498641 46.3496234,4.23012061 Z M41.4701209,2.85057013 L42.5424457,3.06599625 L42.1115935,5.21064601 L41.0392686,4.99521989 C40.8666721,4.96054589 40.6937772,4.92735534 40.5206044,4.89565138 L39.4447358,4.6986846 L39.8386694,2.54694749 L40.9145379,2.74391427 C41.1000354,2.77787458 41.2852369,2.81342763 41.4701209,2.85057013 Z M36.4008037,2.23566666 L37.4935313,2.28294824 L37.3989681,4.46840335 L36.3062406,4.42112178 C36.1305771,4.41352094 35.9548511,4.40742325 35.7790833,4.40282944 L34.6857067,4.37425327 L34.742859,2.1875 L35.8362356,2.21607617 C36.0244771,2.22099599 36.212674,2.22752641 36.4008037,2.23566666 Z M31.2894206,2.41120489 L32.3763218,2.28899683 L32.6207379,4.46279926 L31.5338367,4.58500732 C31.3588818,4.60467875 31.1841015,4.62585256 31.0095164,4.64852703 L29.9248759,4.78939621 L29.6431376,2.62011528 L30.7277781,2.47924611 C30.9147924,2.45495735 31.1020139,2.43227636 31.2894206,2.41120489 Z M26.3339629,3.35806707 L27.3893052,3.07076605 L27.9639072,5.18145048 L26.908565,5.4687515 C26.7386618,5.51500507 26.5691559,5.56272909 26.4000661,5.61191984 L25.3498541,5.91744218 L24.7388094,3.81701826 L25.7890214,3.51149592 C25.9702318,3.45877912 26.1518857,3.40763485 26.3339629,3.35806707 Z M21.5339165,5.07731169 L22.5316199,4.62911879 L23.4280058,6.6245257 L22.4303023,7.0727186 C22.2698967,7.14477676 22.1100861,7.21824146 21.9508871,7.29310756 L20.9611194,7.7585631 L20.0302083,5.7790276 L21.019976,5.31357206 C21.1906402,5.23331428 21.3619596,5.15455896 21.5339165,5.07731169 Z M17.0552505,7.52778385 L17.9707427,6.92931658 L19.1676772,8.760301 L18.252185,9.35876828 C18.1049352,9.45502706 17.958443,9.55260817 17.8127218,9.65150585 L16.9077148,10.2657138 L15.679299,8.45569973 L16.584306,7.84149182 C16.7404621,7.73551216 16.8974486,7.63094069 17.0552505,7.52778385 Z M13.0087298,10.647391 L13.8208282,9.91473475 L15.2861407,11.5389317 L14.4740422,12.2715879 C14.3469937,12.3862081 14.2207713,12.5019787 14.0954125,12.6188685 L14.0843002,12.6292351 L13.2847144,13.375527 L11.7921307,11.7763552 L12.5917165,11.0300634 L12.6035753,11.0190005 C12.7377276,10.8939111 12.8727827,10.7700393 13.0087298,10.647391 Z M9.50225073,14.3349873 L10.1926162,13.486645 L11.8893007,14.8673759 L11.1989353,15.7157182 C11.0879734,15.8520715 10.9782548,15.9892965 10.869786,16.1273804 L10.1941426,16.9874938 L8.47391578,15.6362071 L9.14955916,14.7760936 C9.26578939,14.6281292 9.38335573,14.4810891 9.50225073,14.3349873 Z M6.60450988,18.5249466 L7.15445925,17.579513 L9.04532651,18.6794117 L8.49537714,19.6248454 C8.40688807,19.7769695 8.31974541,19.9298209 8.23395551,20.083384 L7.70051823,21.0382315 L5.79082325,19.9713569 L6.32426053,19.0165094 C6.41622904,18.8518867 6.50964779,18.6880267 6.60450988,18.5249466 Z M4.81956521,47.9608949 L4.38827502,46.9557691 L6.39852658,46.0931887 L6.82981677,47.0983145 C6.89917552,47.2599557 6.96994927,47.4210213 7.042133,47.5814946 L7.49081812,48.5789768 L5.49585374,49.4763471 L5.04716861,48.4788649 C4.96978721,48.3068365 4.8939176,48.1341738 4.81956521,47.9608949 Z M7.19333287,52.4789508 L6.61039091,51.5534954 L8.46130175,50.3876115 L9.04424371,51.3130669 C9.13796289,51.4618517 9.2330135,51.609895 9.32938983,51.757183 L9.92826004,52.6724117 L8.09780269,53.8701521 L7.49893248,52.9549234 C7.39564525,52.7970738 7.29377659,52.6384112 7.19333287,52.4789508 Z M10.2429764,56.5749757 L9.52391747,55.7508136 L11.1722418,54.3126956 L11.8913007,55.1368578 C12.0069686,55.2694325 12.1238649,55.401144 12.2419841,55.5319812 L12.9749172,56.3438298 L11.3512198,57.8096959 L10.6182868,56.9978472 C10.49188,56.8578301 10.3667743,56.7168689 10.2429764,56.5749757 Z M13.8750375,60.1455381 L13.0383684,59.441071 L14.4473026,57.7677328 L15.2839717,58.4721999 C15.4189585,58.5858574 15.5548364,58.6982743 15.6915931,58.8094437 L16.5403018,59.4993587 L15.1604718,61.196776 L14.3117631,60.506861 C14.1652374,60.3877503 14.0196576,60.2673068 13.8750375,60.1455381 Z M18.0126907,63.1115781 L17.0767304,62.5456563 L18.208574,60.6737358 L19.1445343,61.2396576 C19.295319,61.3308286 19.446851,61.4206598 19.5991148,61.5091447 L20.5447787,62.058698 L19.4456722,63.9500259 L18.5000083,63.4004726 C18.3367788,63.3056151 18.174334,63.2093146 18.0126907,63.1115781 Z M22.5766017,65.4032767 L21.5637215,64.9905263 L22.3892223,62.9647661 L23.4021024,63.3775164 C23.565096,63.4439366 23.7286511,63.5089386 23.8927496,63.5725171 L24.9126278,63.9676596 L24.1223427,66.0074159 L23.1024645,65.6122734 C22.9265902,65.5441324 22.7512961,65.474465 22.5766017,65.4032767 Z M27.4125106,66.9486652 L26.3480215,66.6973642 L26.8506235,64.5683862 L27.9151125,64.8196872 C28.0863453,64.8601112 28.2579254,64.8990623 28.4298326,64.9365367 L29.4984858,65.1694947 L29.0325698,67.3068011 L27.9639166,67.0738431 C27.779759,67.0336982 27.5959499,66.9919709 27.4125106,66.9486652 Z M32.4557025,67.7328074 L31.3651746,67.6489152 L31.532959,65.4678593 L32.6234869,65.5517516 C32.7988849,65.5652446 32.9743971,65.5772356 33.1500026,65.5877235 L34.2418072,65.6529303 L34.1113935,67.8365394 L33.019589,67.7713326 C32.8315199,67.7601003 32.6435503,67.7472582 32.4557025,67.7328074 Z M37.5683396,67.7289673 L36.4779419,67.8145354 L36.3068056,65.63374 L37.3972033,65.5481718 C37.5727549,65.5343956 37.7481827,65.5191129 37.9234658,65.502325 L39.0122336,65.3980476 L39.2207885,67.5755832 L38.1320207,67.6798606 C37.9442729,67.6978423 37.7563718,67.7142116 37.5683396,67.7289673 Z M42.5579871,66.9486574 L41.4935642,67.2002384 L40.9904021,65.0713927 L42.0548249,64.8198117 C42.2261526,64.7793176 42.3971301,64.7373443 42.5677382,64.6938951 L43.627656,64.4239632 L44.1675198,66.5437989 L43.107602,66.8137308 C42.9247835,66.8602897 42.7415716,66.9052663 42.5579871,66.9486574 Z M47.4151556,65.3918844 L46.4028678,65.8060854 L45.5744658,63.7815098 L46.5867536,63.3673088 C46.7496513,63.3006554 46.9119931,63.2325777 47.0737619,63.1630807 L48.0786994,62.7313521 L48.9421566,64.7412272 L47.937219,65.1729558 C47.763805,65.2474557 47.5897778,65.3204337 47.4151556,65.3918844 Z M51.9718092,63.0955693 L51.0366129,63.6627526 L49.9022463,61.7923599 L50.8374426,61.2251766 C50.9877997,61.1339872 51.1374311,61.0414561 51.2863227,60.9475891 L52.2115523,60.3642888 L53.378153,62.214748 L52.4529234,62.7980483 C52.2933427,62.8986541 52.1329662,62.9978299 51.9718092,63.0955693 Z M56.1192497,60.1146289 L55.2832563,60.8198976 L53.8727188,59.1479106 L54.7087123,58.4426419 C54.8431876,58.3291946 54.9768104,58.2145067 55.1095693,58.0985838 L55.9334416,57.3791927 L57.3722238,59.0269373 L56.5483515,59.7463284 C56.406246,59.8704125 56.263208,59.9931815 56.1192497,60.1146289 Z M59.7503732,56.5416173 L59.0319866,57.3663656 L57.3824901,55.9295923 L58.1008768,55.104844 C58.2165866,54.9720026 58.3310721,54.8382605 58.4443266,54.7036298 L59.1484184,53.8666448 L60.8223884,55.2748283 L60.1182966,56.1118133 C59.9969675,56.2560426 59.8743239,56.399315 59.7503732,56.5416173 Z M65.5606353,23.0975995 L65.9575648,24.1167835 L63.9191968,24.9106425 L63.5222673,23.8914585 C63.4584521,23.7276022 63.3932082,23.5642801 63.3265401,23.4015093 L62.9119842,22.3893668 L64.9362692,21.5602549 L65.3508251,22.5723975 C65.4222906,22.7468812 65.492229,22.9219548 65.5606353,23.0975995 Z M63.2734902,18.1896983 L63.8247778,19.1343523 L61.93547,20.2369275 L61.3841824,19.2922736 C61.2955151,19.1403386 61.2054953,18.9891133 61.1141288,18.8386123 L60.5465375,17.9036635 L62.416435,16.7684809 L62.9840263,17.7034297 C63.0819585,17.8647458 63.1784486,18.0268406 63.2734902,18.1896983 Z M59.7506688,13.364156 L60.4852922,14.1744754 L58.8646534,15.6437222 L58.13003,14.8334028 C58.0118606,14.7030572 57.8924844,14.5736173 57.7719077,14.4450942 L57.023562,13.6474304 L58.6188897,12.1507388 L59.3672355,12.9484027 C59.4963278,13.0860025 59.6241413,13.2245911 59.7506688,13.364156 Z" id="fill" fill="#000000" fill-rule="nonzero" opacity="0.3"></path>
    </g>
</svg>
