<?xml version="1.0" encoding="UTF-8"?>
<svg width="70px" height="70px" viewBox="0 0 70 70" version="1.1" xmlns="http://www.w3.org/2000/svg" xmlns:xlink="http://www.w3.org/1999/xlink">
    <!-- Generator: Sketch 53.2 (72643) - https://sketchapp.com -->
    <title>pack2_creditcard</title>
    <desc>Created with Sketch.</desc>
    <g id="pack2_creditcard" stroke="none" stroke-width="1" fill="none" fill-rule="evenodd">
        <path d="M16.5663015,52.5 C15.3086607,52.5 14.7497678,51.9738482 14.7851274,50.7081107 L14.7851274,26.4012643 C14.7851274,25.1015473 15.2738288,24.609375 16.5663015,24.609375 L51.1089411,24.609375 C52.6457645,24.609375 53.0648022,25.0309336 53.0648022,26.5770022 L53.0648022,50.6374969 C53.0648022,51.9027036 52.4710775,52.5 51.2487962,52.5 L16.5663015,52.5 Z M50.3304272,37.734375 L17.5529634,37.734375 L17.5179272,49.765625 L50.3304272,49.765625 L50.3304272,37.734375 Z M50.3304272,27.34375 L17.5529634,27.34375 L17.5179272,31.171875 L50.3304272,31.171875 L50.3304272,27.34375 Z M58.5335522,21.875 C52.7949684,21.875 48.1429272,17.2229587 48.1429272,11.484375 C48.1429272,5.74579127 52.7949684,1.09375 58.5335522,1.09375 C64.2721359,1.09375 68.9241772,5.74579127 68.9241772,11.484375 C68.9241772,17.2229587 64.2721359,21.875 58.5335522,21.875 Z M58.5335522,19.1644022 C62.7751141,19.1644022 66.2135794,15.7259369 66.2135794,11.484375 C66.2135794,7.24281311 62.7751141,3.80434783 58.5335522,3.80434783 C54.2919903,3.80434783 50.853525,7.24281311 50.853525,11.484375 C50.853525,15.7259369 54.2919903,19.1644022 58.5335522,19.1644022 Z" id="color" fill="#000000" fill-rule="nonzero"></path>
        <path d="M38.5618816,68.6273901 L37.4810975,68.7953034 L37.1452709,66.6337353 L38.226055,66.465822 C38.3999574,66.4388041 38.5735264,66.4102995 38.7467482,66.3803133 L39.8244695,66.19375 L40.197596,68.3491926 L39.1198747,68.5357559 C38.9342397,68.567891 38.7482369,68.5984375 38.5618816,68.6273901 Z M43.956184,67.3440209 L42.914704,67.6780993 L42.2465473,65.5951391 L43.2880274,65.2610608 C43.4553576,65.2073858 43.6221809,65.1522719 43.7884821,65.0957264 L44.8240088,64.7436277 L45.5282061,66.8146812 L44.4926793,67.1667798 C44.3144023,67.2273974 44.135565,67.2864804 43.956184,67.3440209 Z M48.6870001,65.4053495 L47.7105274,65.898087 L46.7250523,63.9451418 L47.7015249,63.4524043 C47.8584875,63.3731994 48.0147563,63.2926425 48.1703153,63.2107435 L49.1381283,62.7012075 L50.1572004,64.6368335 L49.1893874,65.1463696 C49.0226822,65.2341369 48.8552139,65.3204672 48.6870001,65.4053495 Z M53.0237521,62.7775584 L52.1348756,63.4148869 L50.8602186,61.6371339 L51.7490951,60.9998054 C51.8921646,60.8972239 52.0343527,60.7934125 52.1756431,60.6883839 L53.0534361,60.0358745 L54.3584549,61.7914604 L53.480662,62.4439699 C53.329316,62.5564732 53.177007,62.667674 53.0237521,62.7775584 Z M56.9307301,59.4894577 L56.1509121,60.2563821 L54.6170633,58.6967461 L55.3968813,57.9298218 C55.5222423,57.8065334 55.6465468,57.6821741 55.7697798,57.5567587 L56.5363602,56.7766025 L58.0966725,58.3097633 L57.3300921,59.0899194 C57.1981136,59.2242352 57.0649876,59.3574199 56.9307301,59.4894577 Z M60.2883044,55.6315119 L59.6364169,56.5097669 L57.879907,55.2059918 L58.5317946,54.3277369 C58.6367268,54.186367 58.7404411,54.0441003 58.8429248,53.9009529 L59.4796226,53.0116246 L61.2582793,54.2850202 L60.6215815,55.1743486 C60.5118017,55.3276871 60.4007048,55.4800807 60.2883044,55.6315119 Z M62.9754273,51.3615612 L62.4658043,52.3293284 L60.5302698,51.3100824 L61.0398928,50.3423152 C61.1219387,50.186511 61.2026383,50.0299945 61.2819815,49.8727821 L61.7747794,48.8963399 L63.7276637,49.8819358 L63.2348657,50.8583779 C63.1498352,51.0268596 63.063352,51.1945932 62.9754273,51.3615612 Z M64.9916752,46.6785074 L64.6390306,47.7138484 L62.5683487,47.0085592 L62.9209933,45.9732183 C62.9776897,45.8067614 63.0329515,45.6397806 63.0867714,45.4722913 L63.4213787,44.4309811 L65.5039992,45.1001958 L65.1693918,46.141506 C65.111696,46.3210575 65.0524544,46.5000636 64.9916752,46.6785074 Z M66.2539561,41.7318004 L66.0672832,42.8095028 L63.9118786,42.4361569 L64.0985515,41.3584546 C64.1285764,41.1851146 64.1571176,41.0114268 64.18417,40.837405 L64.35218,39.756636 L66.5137181,40.0926561 L66.345708,41.1734252 C66.3167184,41.3599085 66.2861327,41.5460386 66.2539561,41.7318004 Z M66.7321404,36.6447956 L66.7141214,37.7383972 L64.5269183,37.7023592 L64.5449373,36.6087577 C64.5477563,36.4376695 64.5491705,36.2664009 64.5491772,36.0950006 L64.5491741,36.0798036 L64.548687,34.9860537 L66.7361868,34.9850796 L66.7366739,36.0788295 L66.7366772,36.0950473 C66.7366701,36.2784708 66.7351568,36.4617243 66.7321404,36.6447956 Z M66.4266161,31.5653845 L66.5762263,32.6488539 L64.4092876,32.9480743 L64.2596774,31.8646049 C64.2356307,31.6904598 64.2100986,31.5166294 64.183086,31.3431274 L64.0148266,30.2623971 L66.176287,29.9258782 L66.3445465,31.0066085 C66.373492,31.1925254 66.4008502,31.378789 66.4266161,31.5653845 Z M65.3385284,26.5885657 L65.6549102,27.6355574 L63.5609268,28.268321 L63.244545,27.2213293 C63.1936379,27.0528641 63.1412806,26.8848876 63.0874802,26.717415 L62.7529523,25.6760793 L64.8356238,25.0070235 L65.1701517,26.0483593 C65.2278268,26.2278932 65.2839549,26.4079676 65.3385284,26.5885657 Z M45.027768,5.20787133 L46.0570097,5.57793979 L45.3168728,7.63642311 L44.2876311,7.26635466 C44.1221116,7.2068414 43.9560481,7.14875555 43.7894562,7.09210486 L42.7539414,6.73997116 L43.4582088,4.66894154 L44.4937236,5.02107524 C44.6723112,5.08180513 44.8503316,5.14407328 45.027768,5.20787133 Z M40.1045654,3.86262837 L41.1789662,4.06745069 L40.7693215,6.21625211 L39.6949208,6.01142979 C39.5221901,5.97850064 39.3490937,5.94705095 39.1756456,5.91708598 L38.0978612,5.73088746 L38.4702583,3.5753187 L39.5480427,3.76151721 C39.7339283,3.79363089 39.919441,3.8273365 40.1045654,3.86262837 Z M35.0290705,3.29951419 L36.1222216,3.33570498 L36.04984,5.52200714 L34.9566889,5.48581636 C34.7808447,5.47999471 34.6047939,5.4756603 34.4285485,5.47281645 L33.3349409,5.45517029 L33.3702332,3.267955 L34.4638408,3.28560117 C34.6524522,3.28864455 34.8408665,3.29328335 35.0290705,3.29951419 Z M29.9406668,3.52071783 L31.0264884,3.3892622 L31.2893996,5.56090534 L30.2035781,5.69236097 C30.0283935,5.71356979 29.8535085,5.73627656 29.6789365,5.76047667 L28.5955467,5.91066198 L28.295176,3.74388241 L29.3785658,3.59369709 C29.5656082,3.56776827 29.7529802,3.54344022 29.9406668,3.52071783 Z M24.9495698,4.52397135 L26.0017822,4.2254111 L26.5989027,6.3298358 L25.5466903,6.62839606 C25.3771771,6.67649462 25.2081342,6.72605339 25.0395768,6.77706544 L23.9927177,7.09388584 L23.3590769,5.00016772 L24.405936,4.68334732 C24.5866326,4.62866147 24.7678494,4.57553365 24.9495698,4.52397135 Z M20.1609477,6.29886988 L21.1535968,5.83959131 L22.072154,7.82488953 L21.0795049,8.2841681 C20.9197669,8.35807563 20.7606831,8.43336099 20.6022698,8.51001463 L19.6177256,8.98641971 L18.6649155,7.01733132 L19.6494597,6.54092625 C19.8192408,6.45877188 19.9897427,6.37808299 20.1609477,6.29886988 Z M15.7326402,8.78167732 L16.6424099,8.1745462 L17.8566721,9.99408555 L16.9469025,10.6012167 C16.8005577,10.6988792 16.6550534,10.7978004 16.5104059,10.8979679 L15.6112114,11.5206544 L14.3658385,9.72226553 L15.2650329,9.09957907 C15.4199882,8.99227352 15.5758631,8.8863019 15.7326402,8.78167732 Z M11.7197063,11.9352507 L12.5247994,11.1949034 L14.005494,12.8050897 L13.2004009,13.545437 C13.0709115,13.6645127 12.9424428,13.7846964 12.8150098,13.9059734 L12.0227116,14.6599978 L10.514663,13.0754015 L11.3069611,12.3213771 C11.4434386,12.1914924 11.5810258,12.0627785 11.7197063,11.9352507 Z M8.23570465,15.6770158 L8.91677348,14.821192 L10.628421,16.1833297 L9.94735217,17.0391535 C9.8377016,17.1769392 9.72923717,17.3156617 9.6219722,17.455305 L8.95569804,18.3226964 L7.22091528,16.990148 L7.88718945,16.1227567 C8.00208219,15.9731831 8.11825867,15.8245972 8.23570465,15.6770158 Z M5.4034558,19.858383 L5.9453957,18.9083355 L7.84549065,19.9922153 L7.30355076,20.9422628 C7.21632107,21.0951807 7.13041198,21.2488515 7.04583428,21.4032586 L6.52038775,22.3625266 L4.60185185,21.3116335 L5.12729838,20.3523655 C5.21792929,20.1869075 5.30998562,20.0222408 5.4034558,19.858383 Z M3.2294265,24.4724078 L3.61687768,23.449583 L5.66252736,24.2244853 L5.27507618,25.2473102 C5.21272739,25.4119035 5.15179943,25.5770616 5.09230032,25.7427687 L4.72268083,26.7721717 L2.66387487,26.0329327 L3.03349436,25.0035297 C3.09727662,24.8258939 3.16259023,24.6488476 3.2294265,24.4724078 Z M1.80121479,29.3710164 L2.02420556,28.300239 L4.1657603,28.7462206 L3.94276953,29.8169979 C3.90691798,29.9891532 3.87254252,30.1616927 3.83964867,30.3346022 L3.63524248,31.4090822 L1.48628257,31.0002698 L1.69068876,29.9257899 C1.7259441,29.7404669 1.76278808,29.5555372 1.80121479,29.3710164 Z M1.15278894,34.4372588 L1.20713424,33.3448598 L3.39193231,33.4535504 L3.33758701,34.5459494 C3.3288452,34.7216693 3.32159214,34.8976118 3.31583135,35.0737647 L3.28008116,36.1669303 L1.09375,36.0954299 L1.12950019,35.0022643 C1.13566655,34.8137098 1.14343067,34.6253701 1.15278894,34.4372588 Z M1.28950389,39.5296825 L1.17625974,38.4418108 L3.35200313,38.2153225 L3.46524728,39.3031942 C3.48348741,39.4784166 3.50322127,39.6533579 3.5244445,39.8280049 L3.65638717,40.9137674 L1.48486218,41.1776527 L1.35291951,40.0918903 C1.33018314,39.9047916 1.30904307,39.7173842 1.28950389,39.5296825 Z M2.2085202,44.5371738 L1.92779846,43.4800625 L4.04202113,42.918619 L4.32274286,43.9757303 C4.36800792,44.1461846 4.41474165,44.3161871 4.46293742,44.4857227 L4.76201924,45.537787 L2.6578908,46.1359506 L2.35880897,45.0838864 C2.30714281,44.9021431 2.25704416,44.7199001 2.2085202,44.5371738 Z M3.90193019,49.3544711 L3.45948828,48.354204 L5.46002242,47.4693202 L5.90246433,48.4695873 C5.97364929,48.6305213 6.04622217,48.7908217 6.12017369,48.9504722 L6.57988485,49.942921 L4.59498715,50.8623433 L4.135276,49.8698945 C4.05601397,49.6987794 3.9782287,49.5269658 3.90193019,49.3544711 Z M6.3108786,53.8256292 L5.71904866,52.9058323 L7.55864252,51.7221724 L8.15047245,52.6419694 C8.24571666,52.7899939 8.34223506,52.9371972 8.44001567,53.083563 L9.04759377,53.9930342 L7.22865131,55.2081904 L6.62107321,54.2987192 C6.51631978,54.1419159 6.4129173,53.9842134 6.3108786,53.8256292 Z M9.39645446,57.8899251 L8.66963915,57.0725949 L10.3042994,55.6189643 L11.0311148,56.4362944 C11.1480528,56.5677956 11.266117,56.6982943 11.385293,56.8277751 L12.126004,57.6325336 L10.516487,59.1139556 L9.77577602,58.3091971 C9.64814013,58.1705249 9.52169453,58.0307621 9.39645446,57.8899251 Z M13.0768573,61.4336106 L12.2325991,60.7382566 L13.6233073,59.0497403 L14.4675654,59.7450944 C14.6033943,59.8569668 14.7401782,59.9676712 14.8779012,60.0771942 L15.7339602,60.7579673 L14.372414,62.4700853 L13.516355,61.7893122 C13.3688431,61.6720047 13.2223382,61.5534327 13.0768573,61.4336106 Z M17.2418345,64.3548084 L16.3004505,63.7979555 L17.4141565,61.9151875 L18.3555405,62.4720405 C18.5069392,62.5615967 18.6591085,62.6498468 18.8120319,62.7367798 L19.7628806,63.2773127 L18.6818149,65.1790101 L17.7309662,64.6384773 C17.5671061,64.5453271 17.4040564,64.4507669 17.2418345,64.3548084 Z M21.7863209,66.5878045 L20.7702317,66.1830185 L21.5798036,64.15084 L22.5958929,64.5556259 C22.7592516,64.6207042 22.9231941,64.6843732 23.0877046,64.7466247 L24.1106653,65.1337172 L23.3364802,67.1796384 L22.3135196,66.7925459 C22.1371709,66.7258148 21.9614323,66.6575647 21.7863209,66.5878045 Z M26.9355618,68.262273 L25.8687084,68.0212068 L26.3508408,65.8875 L27.4176942,66.1285662 C27.5892834,66.1673385 27.7612759,66.2046376 27.9336572,66.2404578 L29.0045317,66.4629813 L28.5594846,68.6047304 L27.4886101,68.3822069 C27.3038414,68.3438127 27.1194867,68.3038326 26.9355618,68.262273 Z M32.8672985,68.9768564 L31.7736564,68.9614895 L31.8043904,66.7742054 L32.8980324,66.7895723 C33.0739524,66.7920442 33.2500332,66.7930158 33.4262621,66.7924841 L34.5200071,66.7891841 L34.5266072,68.9766742 L33.4328621,68.9799742 C33.2441872,68.9805434 33.0556614,68.9795031 32.8672985,68.9768564 Z M53.4329837,17.1318184 C52.1857963,15.7769766 51.4241772,13.9681982 51.4241772,11.9815341 C51.4241772,7.78056131 54.8297385,4.375 59.0307113,4.375 C61.0173754,4.375 62.8261538,5.13661915 64.1809956,6.38380656 C65.428183,7.73864839 66.1898022,9.54742681 66.1898022,11.5340909 C66.1898022,15.7350637 62.7842409,19.140625 58.5832681,19.140625 C56.596604,19.140625 54.7878256,18.3790058 53.4329837,17.1318184 L53.4329837,17.1318184 Z M54.0038917,12.607979 L54.7171816,13.3612642 C55.2816146,13.9566889 55.8726456,14.5674449 56.4578072,15.1587815 C56.6560809,15.3762261 56.9521211,15.4981593 57.2663953,15.4918232 C57.3103894,15.482472 57.3589844,15.4931278 57.4039784,15.483564 C57.6046501,15.4385099 57.7853731,15.3328625 57.9167736,15.1837931 C59.7452913,13.0486033 61.572476,10.9136969 63.3757289,8.76289227 C63.5495114,8.57733476 63.6396013,8.33906671 63.6265921,8.09941417 C63.5927984,7.88369859 63.4693205,7.69139032 63.2818689,7.56253188 C63.0888215,7.4277312 62.8410319,7.37399332 62.5966104,7.41392051 C62.3521888,7.45384769 62.1326367,7.5839276 61.9894421,7.77365468 C61.7856053,8.00775448 61.5634572,8.2638699 61.3593617,8.49675286 C61.2661786,8.60081759 61.1775219,8.72617705 61.0620185,8.83339633 L57.2008875,13.3366589 C57.143961,13.285168 57.1128267,13.2501337 57.0562982,13.1988762 C56.850644,12.9901331 56.6712546,12.7967923 56.4652672,12.5881201 C56.0539589,12.170634 55.637985,11.7328366 55.2043463,11.3200969 C55.0566336,11.152168 54.8369776,11.0513648 54.5985283,11.0420787 C54.3600791,11.0327926 54.1245617,11.1158695 53.9489641,11.2712074 C53.5649887,11.579533 53.4944505,12.0997821 53.7873871,12.4629076 C53.8693811,12.497902 53.9428445,12.547127 54.0038917,12.607979 L54.0038917,12.607979 Z" id="fill" fill="#000000" fill-rule="nonzero" opacity="0.3"></path>
    </g>
</svg>
