<?xml version="1.0" encoding="UTF-8"?>
<svg width="70px" height="70px" viewBox="0 0 70 70" version="1.1" xmlns="http://www.w3.org/2000/svg" xmlns:xlink="http://www.w3.org/1999/xlink">
    <!-- Generator: Sketch 53.2 (72643) - https://sketchapp.com -->
    <title>pack2_gift</title>
    <desc>Created with Sketch.</desc>
    <g id="pack2_gift" stroke="none" stroke-width="1" fill="none" fill-rule="evenodd">
        <path d="M35.2815825,20.78125 C36.0152556,16.5294927 38.5901705,14.21875 42.7749213,14.21875 C45.480575,14.21875 46.5190538,14.2895121 47.6854947,14.7098833 C49.4622527,15.3502055 50.4311713,16.7550526 50.4311713,18.8671875 C50.4311713,19.5884453 50.3181852,20.2272258 50.0986272,20.78125 L52.1847639,20.78125 C53.7215873,20.78125 54.140625,21.2028086 54.140625,22.7488772 L54.140625,52.2781219 C54.140625,53.5433286 53.5469003,54.140625 52.324619,54.140625 L17.6421244,54.140625 C16.3844835,54.140625 15.8255906,53.6144732 15.8609503,52.3487357 L15.8609503,22.5731393 C15.8609503,21.2734223 16.3496517,20.78125 17.6421244,20.78125 L20.020044,20.78125 C19.8004861,20.2272258 19.6875,19.5884453 19.6875,18.8671875 C19.6875,16.7550526 20.6564186,15.3502055 22.4331765,14.7098833 C23.5996174,14.2895121 24.6380963,14.21875 27.34375,14.21875 C31.5285007,14.21875 34.1034157,16.5294927 34.8370887,20.78125 L35.2815825,20.78125 L35.2815825,20.78125 Z M38.0614634,20.78125 L42.7749213,20.78125 C46.9332639,20.78125 47.6967963,20.5060822 47.6967963,18.8671875 C47.6967963,17.2282928 46.9332639,16.953125 42.7749213,16.953125 C40.1444966,16.953125 38.6364792,18.1282926 38.0614634,20.78125 L38.0614634,20.78125 Z M38.2952645,23.515625 L38.28125,27.34375 L51.40625,27.34375 L51.40625,23.515625 L38.2952645,23.515625 L38.2952645,23.515625 Z M32.0572079,20.78125 C31.482192,18.1282926 29.9741746,16.953125 27.34375,16.953125 C23.1854073,16.953125 22.421875,17.2282928 22.421875,18.8671875 C22.421875,20.5060822 23.1854073,20.78125 27.34375,20.78125 L32.0572079,20.78125 L32.0572079,20.78125 Z M31.71875,23.515625 L18.6077645,23.515625 L18.59375,27.34375 L31.71875,27.34375 L31.71875,23.515625 Z M31.71875,30.625 L18.6077645,30.625 L18.59375,51.40625 L31.71875,51.40625 L31.71875,30.625 Z M51.40625,30.625 L38.2952645,30.625 L38.28125,51.40625 L51.40625,51.40625 L51.40625,30.625 Z" id="color" fill="#000000" fill-rule="nonzero"></path>
        <path d="M36.4873982,2.34719672 L36.4873982,5.07787633 C36.4834292,5.42020148 36.3412974,5.74639671 36.0932806,5.98238382 C35.8452638,6.21837094 35.5124104,6.34412235 35.1703108,6.33108021 C34.4617677,6.34555757 33.8739632,5.78626378 33.8532234,5.07787633 C33.8212817,4.14612876 33.8212817,3.24700254 33.8532234,2.34719672 C33.8573742,2.00499019 33.9995856,1.6789713 34.2475819,1.44313164 C34.4955783,1.20729198 34.8283276,1.08163257 35.1703108,1.09467245 C35.512294,1.08163257 35.8450433,1.20729198 36.0930396,1.44313164 C36.341036,1.6789713 36.4832473,2.00499019 36.4873982,2.34719672 Z M35.1703108,69.2540801 C34.8198281,69.257941 34.4825739,69.120417 34.2347302,68.8725733 C33.9868865,68.6247296 33.8493625,68.2874754 33.8532234,67.9369927 C33.8212817,67.0691287 33.8212817,66.1700024 33.8532234,65.2701966 C33.8504493,64.9229236 33.9893829,64.5895308 34.2379454,64.3469964 C34.4865079,64.104462 34.8232105,63.9737536 35.1703108,63.985051 L35.2022525,63.985051 C35.9173662,63.9848407 36.5019971,64.5552933 36.5193399,65.2701966 L36.5193399,67.9689345 C36.514434,68.3194237 36.3686484,68.6531838 36.1148544,68.8949593 C35.8610605,69.1367348 35.5206258,69.26617 35.1703108,69.2540801 Z M52.7250302,7.40174242 L51.3596904,9.76658034 C51.1850906,10.0610581 50.8989033,10.2724856 50.5661208,10.352848 C50.2333384,10.4332104 49.8822033,10.3756877 49.5924573,10.193343 C48.9716023,9.85160926 48.7421957,9.07334441 49.0784282,8.44949296 C49.5166396,7.62660502 49.9662027,6.84793887 50.443768,6.08465505 C50.6184659,5.79037091 50.904634,5.57913595 51.237325,5.49889099 C51.570016,5.41864602 51.921015,5.47619644 52.2106612,5.6584809 C52.5133473,5.81817962 52.7386869,6.09337852 52.8355382,6.42161983 C52.9323896,6.74986114 52.8925388,7.10330747 52.7250302,7.40174242 Z M18.1309574,64.6862594 C17.8255001,64.5143618 17.6021913,64.2266353 17.5114742,63.8880746 C17.4207571,63.5495138 17.470285,63.188681 17.64887,62.8870846 C18.0551396,62.1195214 18.5047027,61.3408553 18.982268,60.5775714 C19.1535021,60.2754371 19.4405185,60.0561773 19.7770472,59.9704176 C20.1135758,59.8846579 20.470523,59.9398124 20.765472,60.1231464 L20.7931343,60.1391172 C21.4125461,60.4964919 21.633625,61.2828338 21.2911926,61.9106297 L19.9418237,64.2478052 C19.7623304,64.5488849 19.4691963,64.7650367 19.1285166,64.8475235 C18.7878368,64.9300102 18.4282941,64.8718871 18.1309574,64.6862594 Z M64.2599592,19.8979234 L61.8951213,21.2632632 C61.5966746,21.4309886 61.2431153,21.4709965 60.9147361,21.3742012 C60.5863568,21.2774059 60.3110262,21.0520221 60.1512712,20.7492341 C59.7844619,20.1428564 59.9749223,19.3541559 60.5780339,18.982001 C61.3689801,18.4884648 62.1476463,18.0389017 62.9428718,17.6166612 C63.2413068,17.4491526 63.5947531,17.4093018 63.9229944,17.5061532 C64.2512358,17.6030045 64.5264346,17.8283441 64.6861334,18.1310302 C64.8684178,18.4206764 64.9259683,18.7716754 64.8457233,19.1043664 C64.7654783,19.4370574 64.5542434,19.7232255 64.2599592,19.8979234 Z M5.65835483,52.210734 C5.47976987,51.9091376 5.43024203,51.5483048 5.52095911,51.2097441 C5.6116762,50.8711833 5.83498495,50.5834569 6.14044227,50.4115592 C6.87606373,49.9499648 7.65472988,49.5004017 8.44995545,49.0781611 C8.74931565,48.9021222 9.10750911,48.8557458 9.4418313,48.9497401 C9.77615348,49.0437343 10.0577016,49.2699731 10.2214679,49.5762194 L10.2374388,49.6038818 C10.5951778,50.2230832 10.3934668,51.0146148 9.7830137,51.3870858 L7.44583816,52.7364547 C7.13985263,52.9074507 6.77791511,52.9480766 6.44163441,52.8491724 C6.10535371,52.7502681 5.8230422,52.5201606 5.65835483,52.210734 Z M68.0014103,36.4873982 L65.2707307,36.4873982 C64.9284055,36.4834292 64.6022103,36.3412974 64.3662232,36.0932806 C64.1302361,35.8452638 64.0044846,35.5124104 64.0175268,35.1703108 C64.0030494,34.4617677 64.5623432,33.8739632 65.2707307,33.8532234 C66.2024782,33.8212817 67.1016044,33.8212817 68.0014103,33.8532234 C68.3436168,33.8573742 68.6696357,33.9995856 68.9054754,34.2475819 C69.141315,34.4955783 69.2669744,34.8283276 69.2539345,35.1703108 C69.2669744,35.512294 69.141315,35.8450433 68.9054754,36.0930396 C68.6696357,36.341036 68.3436168,36.4832473 68.0014103,36.4873982 Z M1.09452688,35.1703108 C1.09066598,34.8198281 1.22818999,34.4825739 1.47603367,34.2347302 C1.72387735,33.9868865 2.06113162,33.8493625 2.41161426,33.8532234 C3.27947833,33.8212817 4.17860455,33.8212817 5.07841037,33.8532234 C5.42568338,33.8504493 5.7590762,33.9893829 6.00161058,34.2379454 C6.24414497,34.4865079 6.37485335,34.8232105 6.363556,35.1703108 L6.363556,35.2022525 C6.36376633,35.9173662 5.79331372,36.5019971 5.07841037,36.5193399 L2.37967251,36.5193399 C2.02918329,36.514434 1.6954232,36.3686484 1.45364771,36.1148544 C1.21187221,35.8610605 1.08243702,35.5206258 1.09452688,35.1703108 Z M62.9468646,52.7250302 L60.5820267,51.3596904 C60.2875488,51.1850906 60.0761214,50.8989033 59.995759,50.5661208 C59.9153965,50.2333384 59.9729193,49.8822033 60.1552639,49.5924573 C60.4969977,48.9716023 61.2752626,48.7421957 61.899114,49.0784282 C62.722002,49.5166396 63.5006681,49.9662027 64.2639519,50.443768 C64.5582361,50.6184659 64.769471,50.904634 64.849716,51.237325 C64.929961,51.570016 64.8724105,51.921015 64.6901261,52.2106612 C64.5304274,52.5133473 64.2552285,52.7386869 63.9269872,52.8355382 C63.5987458,52.9323896 63.2452995,52.8925388 62.9468646,52.7250302 Z M5.66234755,18.1309574 C5.83424523,17.8255001 6.12197165,17.6021913 6.46053241,17.5114742 C6.79909318,17.4207571 7.15992595,17.470285 7.46152237,17.64887 C8.22908558,18.0551396 9.00775172,18.5047027 9.77103555,18.982268 C10.0731698,19.1535021 10.2924297,19.4405185 10.3781894,19.7770472 C10.4639491,20.1135758 10.4087946,20.470523 10.2254606,20.765472 L10.2094898,20.7931343 C9.85211507,21.4125461 9.06577315,21.633625 8.4379773,21.2911926 L6.10080175,19.9418237 C5.79972214,19.7623304 5.58357024,19.4691963 5.50108349,19.1285166 C5.41859675,18.7878368 5.47671992,18.4282941 5.66234755,18.1309574 Z M50.4506836,64.2599592 L49.0853437,61.8951213 C48.9176184,61.5966746 48.8776105,61.2431153 48.9744058,60.9147361 C49.0712011,60.5863568 49.2965849,60.3110262 49.5993729,60.1512712 C50.2057506,59.7844619 50.994451,59.9749223 51.366606,60.5780339 C51.8601422,61.3689801 52.3097053,62.1476463 52.7319458,62.9428718 C52.8994544,63.2413068 52.9393051,63.5947531 52.8424538,63.9229944 C52.7456025,64.2512358 52.5202629,64.5264346 52.2175768,64.6861334 C51.9279306,64.8684178 51.5769316,64.9259683 51.2442406,64.8457233 C50.9115496,64.7654783 50.6253815,64.5542434 50.4506836,64.2599592 Z M18.137873,5.65835483 C18.4394694,5.47976987 18.8003022,5.43024203 19.1388629,5.52095911 C19.4774237,5.6116762 19.7651501,5.83498495 19.9370478,6.14044227 C20.3986422,6.87606373 20.8482053,7.65472988 21.2704459,8.44995545 C21.4464848,8.74931565 21.4928612,9.10750911 21.3988669,9.4418313 C21.3048727,9.77615348 21.0786339,10.0577016 20.7723875,10.2214679 L20.7447252,10.2374388 C20.1255238,10.5951778 19.3339922,10.3934668 18.9615212,9.7830137 L17.6121523,7.44583816 C17.4411563,7.13985263 17.4005304,6.77791511 17.4994346,6.44163441 C17.5983389,6.10535371 17.8284464,5.8230422 18.137873,5.65835483 Z M31.71875,30.625 L31.71875,51.40625 L19.140625,51.40625 L19.1546395,30.625 L31.71875,30.625 Z M31.71875,23.515625 L31.71875,27.34375 L19.140625,27.34375 L19.1546395,23.515625 L31.71875,23.515625 Z M51.40625,30.625 L51.40625,51.40625 L38.828125,51.40625 L38.8421395,30.625 L51.40625,30.625 Z M51.40625,23.515625 L51.40625,27.34375 L38.828125,27.34375 L38.8421395,23.515625 L51.40625,23.515625 Z" id="fill" fill="#000000" fill-rule="nonzero" opacity="0.3"></path>
    </g>
</svg>