<?xml version="1.0" encoding="UTF-8"?>
<svg width="70px" height="70px" viewBox="0 0 70 70" version="1.1" xmlns="http://www.w3.org/2000/svg" xmlns:xlink="http://www.w3.org/1999/xlink">
    <!-- Generator: Sketch 53.2 (72643) - https://sketchapp.com -->
    <title>pack2_globe</title>
    <desc>Created with Sketch.</desc>
    <g id="pack2_globe" stroke="none" stroke-width="1" fill="none" fill-rule="evenodd">
        <path d="M59.8829517,35.5546914 C59.3984419,49.6418483 48.0104027,60.3724365 33.9582458,59.783613 C20.3157262,59.1852463 9.71372778,47.6880078 10.2208278,34.0417909 C10.7279278,20.3955741 22.1539935,9.71690909 35.803297,10.1327197 C49.4526005,10.5485303 60.2074543,21.902912 59.8829517,35.5546914 Z M33.5080498,27.7997895 C33.4044223,27.7997895 33.3021674,27.7647895 33.23354,27.7647895 L22.8152066,27.7647895 C22.4720694,27.7647895 22.4034419,27.9020444 22.2963831,28.1799856 C21.0082256,32.8410945 21.055785,37.7703834 22.433638,42.4057699 C22.5372654,42.7866522 22.7452066,42.855966 23.091089,42.855966 L32.9905988,42.855966 C33.16354,42.855966 33.3021674,42.8216522 33.5094223,42.8216522 C33.508736,37.8049856 33.508736,32.8205738 33.508736,27.8018483 L33.5080498,27.7997895 Z M36.588736,42.7873385 C36.6542946,42.8127361 36.7243664,42.8244147 36.7946184,42.8216522 L47.1093243,42.8216522 C47.4208929,42.8216522 47.4902066,42.6843973 47.5938341,42.4064561 C48.7667921,38.5970125 49.0159158,34.5630426 48.3205988,30.6382209 C48.1476576,29.6692012 47.9054027,28.7001816 47.6631478,27.7654758 L36.5866772,27.7654758 L36.588736,42.7873385 Z M19.2822654,27.7654758 C17.7244223,27.7654758 16.2015792,27.7654758 14.7130498,27.7997895 C14.5757949,27.7997895 14.4014811,28.0420444 14.3321674,28.2149856 C12.7894215,32.8553584 12.8619826,37.8811829 14.5380498,42.4750836 C14.5875921,42.7510139 14.8495934,42.935974 15.126187,42.8902797 C16.1988341,42.8552797 17.2378537,42.8902797 18.3105007,42.8902797 L19.4531478,42.8902797 C18.0469531,37.9539596 17.987241,32.7312834 19.2802066,27.7641032 L19.2822654,27.7654758 Z M50.6415792,42.7873385 C50.7197343,42.8137781 50.8020802,42.8256415 50.8845203,42.8223385 L55.0707949,42.8223385 C55.2744251,42.7775793 55.4427231,42.6349756 55.5203047,42.4414561 C55.9752049,40.9406229 56.345235,39.4153656 56.628638,37.8729267 C57.1345259,34.5808794 56.8133073,31.2146874 55.6939321,28.0777307 C55.6596184,27.9404758 55.4880498,27.766162 55.3823635,27.766162 C53.8595203,27.731162 52.3366772,27.766162 50.7788341,27.766162 C52.0840862,32.6952352 52.0366717,37.8849949 50.6415792,42.7893973 L50.6415792,42.7873385 Z M33.5080498,14.5087111 C29.0499008,16.5521639 25.509691,20.1787083 23.5742262,24.6847895 L33.5080498,24.6847895 L33.5080498,14.5087111 Z M36.588736,24.6847895 L46.4882458,24.6847895 C44.5661826,20.18139 41.0374784,16.5541023 36.588736,14.5087111 L36.588736,24.6847895 Z M23.8514811,45.9023385 C25.8115484,50.1479878 29.2415006,53.5411322 33.5080498,55.4552797 L33.5080498,45.9023385 L23.8514811,45.9023385 Z M46.2459909,45.9023385 L36.623736,45.9023385 L36.623736,55.4552797 C40.8597767,53.5088358 44.2689738,50.1241969 46.2459909,45.9023385 L46.2459909,45.9023385 Z M54.2754027,24.7541032 C51.7538415,20.0221232 47.5753531,16.386594 42.5401086,14.5437111 C42.608736,14.6473385 42.608736,14.680966 42.608736,14.7166522 C42.6773635,14.7852797 42.7816772,14.8539071 42.8509909,14.9225346 C45.5697222,17.1531427 47.717437,19.9998234 49.1159909,23.2264561 C49.6355007,24.5070444 50.2929517,24.9222405 51.6078537,24.7492993 C52.4966333,24.6993651 53.387578,24.7016566 54.276089,24.756162 L54.2754027,24.7541032 Z M15.8900105,24.7541032 L16.4438341,24.7541032 C17.4821674,24.7541032 18.5205007,24.7197895 19.5595203,24.7541032 C19.9960307,24.8330067 20.4192226,24.5608691 20.52854,24.130966 C21.9587369,20.556255 24.2541403,17.3925882 27.208736,14.9239071 C27.3123635,14.8552797 27.3816772,14.750966 27.5518733,14.6123385 C22.6052066,16.1715542 17.7944223,20.6714561 15.8906968,24.756162 L15.8900105,24.7541032 Z M53.8602066,45.8680248 C52.7182458,45.8680248 51.6105988,45.9366522 50.5029517,45.8330248 C49.9135215,45.7167197 49.3359434,46.0812839 49.1873635,46.6634169 C47.9995259,49.3862282 46.2815688,51.8453516 44.133638,53.8974365 C43.6148145,54.3819463 43.0953047,54.8664561 42.5414811,55.385966 C46.0723635,54.728515 52.4753047,49.3289071 53.8602066,45.8673385 L53.8602066,45.8680248 Z M27.5203047,55.3866522 C27.4166772,55.3180248 27.3473635,55.2137111 27.2457949,55.1443973 C24.7557355,53.0357849 22.7188263,50.4444161 21.2580498,47.5267503 C20.98354,46.9729267 20.8078537,46.246162 20.3576576,45.9689071 C19.9074615,45.6916522 19.1463831,45.9002797 18.5232458,45.9002797 L16.1693243,45.9002797 C18.7206551,50.2982252 22.7405105,53.656164 27.5223635,55.3839071 L27.5203047,55.3866522 Z" id="color" fill="#000000" fill-rule="nonzero"></path>
        <path d="M34.1655007,28.2863581 C34.1655007,33.3400836 34.1655007,38.3244954 34.1675596,43.3082209 C33.9596184,43.3082209 33.8209909,43.3425346 33.6480498,43.3425346 L23.74854,43.3425346 C23.4026576,43.3425346 23.1947164,43.2732209 23.091089,42.8923385 C21.713236,38.2569521 21.6656766,33.3276631 22.9538341,28.6665542 C23.0574615,28.388613 23.1295203,28.2513581 23.4726576,28.2513581 L33.8909909,28.2513581 C33.9596184,28.2513581 34.0618733,28.2863581 34.1655007,28.2863581 Z M37.2805007,43.2732209 L37.2805007,28.2547895 L48.3549125,28.2547895 C48.6005988,29.1894954 48.8394223,30.158515 49.0123635,31.1275346 C49.7077599,35.0523518 49.458635,39.0863405 48.2855988,42.8957699 C48.1819713,43.1702797 48.1126576,43.3075346 47.801089,43.3075346 L37.4863831,43.3075346 C37.416125,43.3103954 37.3460333,43.2987134 37.2805007,43.2732209 Z M34.1655007,15.0295934 L34.1655007,25.2056718 L24.2316772,25.2056718 C26.1671974,20.6996277 29.7073901,17.0731007 34.1655007,15.0295934 Z M37.2805007,25.2056718 L37.2805007,15.0295934 C41.7292431,17.0749847 45.2579473,20.7022724 47.1800105,25.2056718 L37.2805007,25.2056718 Z M24.5082458,46.4232209 L34.1655007,46.4232209 L34.1655007,55.976162 C29.8986942,54.0621501 26.468482,50.6689897 24.5082458,46.4232209 Z M46.9027556,46.4232209 C44.9257879,50.645114 41.5165758,54.0297678 37.2805007,55.976162 L37.2805007,46.4232209 L46.9027556,46.4232209 Z M51.8178537,43.1002797 L51.8171674,43.1002797 C53.2123471,38.1963568 53.2597622,33.0070144 51.9544223,28.0784169 C53.5122654,28.0784169 55.0351086,28.0434169 56.5579517,28.0784169 C56.663638,28.0784169 56.8345203,28.2527307 56.8695203,28.3899856 C57.9888389,31.5269549 58.3100561,34.8931326 57.8042262,38.1851816 C57.5210517,39.7276075 57.1512507,41.2528649 56.6965792,42.7537111 C56.618865,42.9474032 56.4502728,43.0900384 56.2463831,43.1345934 L52.0601086,43.1345934 C51.9779427,43.1379711 51.8958494,43.1263432 51.8178537,43.1002797 Z M55.4194223,25.0677307 C54.4490301,25.0677307 53.583638,24.9984169 52.7525596,25.0622405 C51.4369713,25.2351816 50.7795203,24.8199856 50.2600105,23.5393973 C48.8615944,20.3126842 46.7138569,17.4659734 43.9950105,15.2354758 C43.9256968,15.1668483 43.8213831,15.0982209 43.7527556,15.0295934 C43.7527556,14.9939071 43.7527556,14.9602797 43.6841282,14.8566522 C48.7194879,16.6997041 52.8979928,20.3354921 55.4194223,25.0677307 Z M55.0028537,46.2166522 C53.6529517,49.6775346 47.2150105,55.0771424 43.6841282,55.7345934 C44.2379517,55.2150836 44.7567752,54.7305738 45.276285,54.246064 C47.424174,52.1939431 49.1421247,49.7348287 50.3300105,47.0120444 C50.4785904,46.4299114 51.0561686,46.0653472 51.6455988,46.1816522 C52.7532458,46.2852797 53.8608929,46.2166522 55.0028537,46.2166522 Z M19.9397164,28.4249856 C18.6467597,33.3909386 18.7059974,38.6123894 20.111285,43.5477307 L18.968638,43.5477307 C17.8959909,43.5477307 16.8569713,43.5134169 15.7843243,43.5477307 C15.5076411,43.5938159 15.245391,43.4086801 15.196187,43.1325346 C13.5200684,38.5384069 13.4475074,33.5123493 14.9903047,28.8717503 C15.0596184,28.7022405 15.2339321,28.4599856 15.371187,28.4599856 C16.8590301,28.4249856 18.3818733,28.4249856 19.9397164,28.4249856 L19.9397164,28.4249856 Z M16.5481478,25.413613 C18.4518733,21.3639071 23.2626576,16.8640052 28.2100105,15.2718483 C28.0398145,15.4104758 27.9705007,15.5147895 27.8668733,15.5834169 C24.9123409,18.0521571 22.61695,21.2158066 21.1866772,24.7904758 C21.0773474,25.2206894 20.6537183,25.4929153 20.2169713,25.413613 C19.178638,25.378613 18.1403047,25.413613 17.1019713,25.413613 L16.5481478,25.413613 Z M28.1777556,56.0454758 C23.3964117,54.3163134 19.3773747,50.9574773 16.8267752,46.5591032 L19.1806968,46.5591032 C19.8038341,46.5591032 20.5655988,46.3504758 21.0151086,46.6277307 C21.4646184,46.9049856 21.6403047,47.6317503 21.9148145,48.1855738 C23.3759859,51.1031791 25.4131037,53.6945162 27.9032458,55.8032209 C28.0048145,55.8725346 28.0741282,55.9768483 28.1777556,56.0454758 Z M53.8952066,10.4953777 C53.3070694,10.0801816 52.7182458,9.62998556 52.0951086,9.21478948 C38.9748108,0.537368136 21.4321515,3.0839975 11.3207949,15.1339071 C8.13469482,18.8927018 5.91312038,23.371656 4.84853995,28.1827307 C4.0995563,31.5435544 3.90069929,35.00362 4.25971642,38.4281228 C4.70843724,42.8261528 6.12693745,47.0699342 8.41304975,50.8538091 C8.51667721,51.0267503 8.58599093,51.1653777 8.68755956,51.3383189 C9.08745045,52.0648974 8.82449001,52.9780482 8.0994223,53.3806718 C7.76118837,53.5711025 7.36012471,53.6160235 6.98814222,53.5051404 C6.61615973,53.3942573 6.30514878,53.1370761 6.12638309,52.7925346 C5.36620666,51.5258392 4.67303116,50.220122 4.04971642,48.8807699 C1.77408144,43.8735378 0.786552374,38.3767802 1.17697132,32.8905738 C1.57791874,26.0653053 4.06711783,19.5282229 8.30736348,14.1648875 C12.7644632,8.28880024 19.0865837,4.102286 26.236285,2.2923385 C37.2777556,-0.511092871 47.4195203,1.59988752 56.418638,8.66096595 C56.5558929,8.7645934 56.6931478,8.86684831 56.9031478,9.04184831 C56.9031478,8.7995934 56.9381478,8.66096595 56.9381478,8.48802478 L56.9381478,4.43900517 C56.9281474,4.03821214 57.0805428,3.65038775 57.3607199,3.36361979 C57.640897,3.07685183 58.0250737,2.91548174 58.4259909,2.91616203 C59.2566671,2.90890571 59.9371603,3.57406564 59.9488341,4.40469144 C59.9831478,7.00063916 59.9831478,9.59658687 59.9488341,12.1925346 C59.9695826,12.5933184 59.8194302,12.9841072 59.5356537,13.2678836 C59.2518772,13.5516601 58.8610885,13.7018125 58.4603047,13.681064 L50.6731478,13.681064 C49.8510557,13.681064 49.1846184,13.0146267 49.1846184,12.1925346 C49.1846184,11.3704425 49.8510557,10.7040052 50.6731478,10.7040052 C51.7457949,10.6696914 52.8191282,10.7040052 53.8917752,10.7040052 C53.8720247,10.6367987 53.8720247,10.5653293 53.8917752,10.4981228 L53.8952066,10.4953777 Z M13.1902066,61.0648875 L13.1902066,65.6684169 C13.1982285,66.3499685 12.7486094,66.9523782 12.0929339,67.1385676 C11.4372583,67.324757 10.7381419,67.0485488 10.3867752,66.4644954 C10.2535797,66.1446923 10.1718174,65.8058305 10.1445203,65.4604758 C10.1095203,64.3878287 10.1095203,63.3144954 10.1095203,62.2068483 C10.1095203,60.7533189 10.0745203,59.2991032 10.0745203,57.8833189 C10.0117591,57.4296173 10.160088,56.9721429 10.4771324,56.6415874 C10.7941768,56.3110318 11.2450664,56.1437513 11.7009909,56.1875346 L19.2122654,56.1875346 C19.6299457,56.150165 20.0441025,56.2900538 20.353579,56.5730336 C20.6630555,56.8560134 20.839357,57.2560291 20.8394223,57.6753777 C20.8587286,58.1035809 20.689647,58.5187812 20.3766885,58.8116766 C20.0637301,59.1045719 19.6382532,59.2458141 19.2122654,59.1982209 L15.6820694,59.1982209 C16.0938341,59.5413581 16.3745203,59.7863581 16.6854027,60.028613 C28.4235152,68.6092098 44.5419093,67.9047659 55.4866772,58.3328287 C60.8653148,53.7168077 64.4238019,47.3358121 65.5241282,40.3339071 C66.8202525,33.0657144 65.4299958,25.5741823 61.6123635,19.2549856 C61.05854,18.285966 61.09354,17.5242012 61.7496184,16.9703777 C62.0849266,16.6772114 62.5356907,16.5530871 62.9738086,16.6332795 C63.4119265,16.7134719 63.7894997,16.9892138 63.9992262,17.3821424 C64.7599128,18.6955904 65.4530374,20.0470231 66.0758929,21.431162 C68.1581565,26.081293 69.1186737,31.1556259 68.8800105,36.2450836 C68.6385219,44.2061449 65.5567317,51.8181179 60.1917752,57.7048875 C55.3326999,63.2290971 48.7655408,66.9693702 41.5354027,68.3304758 C31.1863831,70.338515 21.8756968,67.9873385 13.6040301,61.4430248 C13.571089,61.3414561 13.4324615,61.2378287 13.1902066,61.0648875 Z" id="fill" fill="#000000" fill-rule="nonzero" opacity="0.3"></path>
    </g>
</svg>
