<?xml version="1.0" encoding="UTF-8"?>
<svg width="70px" height="70px" viewBox="0 0 70 70" version="1.1" xmlns="http://www.w3.org/2000/svg" xmlns:xlink="http://www.w3.org/1999/xlink">
    <!-- Generator: Sketch 53.2 (72643) - https://sketchapp.com -->
    <title>pack2_hotline</title>
    <desc>Created with Sketch.</desc>
    <g id="pack2_hotline" stroke="none" stroke-width="1" fill="none" fill-rule="evenodd">
        <path d="M17.6345545,51.883958 L17.6345545,48.6065033 C17.6345545,48.1823857 17.5096525,48.0128759 17.0855349,47.9277778 C14.1167114,47.2916014 11.1904368,46.610817 8.22161332,46.0617974 C7.57690002,46.0258669 7.00385602,45.6391697 6.72927196,45.0547471 C6.4546879,44.4703244 6.52282283,43.7823769 6.90671135,43.26317 C8.89690743,39.9539543 10.7628878,36.6474837 12.6714172,33.2970916 C12.8745502,32.9410914 13.01783,32.5541433 13.0955349,32.1516994 C13.5525871,29.1082026 14.3348411,26.1225232 15.4288682,23.2459151 C17.9866124,15.8833275 24.4270286,10.5544042 32.13828,9.42022881 C32.5623976,9.33307195 32.6474957,9.16562097 32.6474957,8.78405234 L32.6474957,2.84640528 C32.5985177,2.37198175 32.7658336,1.90073208 33.1030181,1.56341449 C33.4402026,1.2260969 33.9113862,1.05859497 34.385829,1.10738567 L41.0426917,1.10738567 C41.5362098,1.04303856 42.0319678,1.20867737 42.3876863,1.55676481 C42.7434049,1.90485225 42.9197542,2.39690219 42.8661231,2.8916994 L42.8661231,9.08326803 C43.0796614,9.12826219 43.2899123,9.18764604 43.4954368,9.26101312 C45.2696998,9.60928804 47.0249706,10.048163 48.7543584,10.5759151 C54.0976917,12.4418955 58.1693584,15.7916014 60.6715153,20.9235621 C63.2172822,26.1751217 64.104826,32.0770012 63.2162212,37.8450327 C62.4095791,43.9838497 59.2647962,49.5744931 54.4373976,53.4516014 C54.1215065,53.6722661 53.9443998,54.042367 53.970731,54.4267974 L53.970731,66.8950327 C53.970731,68.2916014 53.3798486,68.8852288 51.9805349,68.8852288 L31.290731,68.8852288 C30.8040569,68.9345107 30.3210069,68.7624199 29.9751165,68.4165295 C29.6292262,68.0706391 29.4571353,67.5875891 29.5064172,67.1009151 L29.5064172,63.8754249 C29.5064172,63.7079739 29.4638682,63.5384641 29.4638682,63.3264053 L19.5005349,63.3264053 C19.2267849,63.325506 18.9548061,63.2824524 18.6941623,63.1987582 C17.9317114,62.9414053 17.6345545,62.3896406 17.6345545,61.4144445 L17.6345545,56.0500943 C16.745118,56.1202038 15.8117295,56.1575818 14.8324957,56.1575818 L14.8352408,56.1575818 C14.7205023,56.147908 14.6050104,56.1624029 14.4962212,56.2001308 C13.3368022,56.1881917 12.406586,55.2386184 12.4185251,54.0791994 C12.4304642,52.9197804 13.3800375,51.9895642 14.5394565,52.0015033 L14.8784761,52.0015033 C15.8513817,52.0015033 16.7690667,51.9604893 17.6345545,51.883958 Z M31.7348605,42.4712031 C28.4212465,40.5494716 26.3505499,37.0094714 26.3250149,33.1492881 C26.2981468,29.0875847 28.54004,25.3503812 32.1362212,23.4620916 C32.4917809,23.3181678 32.7023332,22.9492757 32.6454368,22.5699347 L32.6454368,12.4329739 C30.9161285,12.7061576 29.2408572,13.2509161 27.6816133,14.0470916 C23.270927,15.99817 20.4297506,19.4755229 18.5637702,23.8436602 C17.3219566,26.8946253 16.4532457,30.0844305 15.9765153,33.3437582 C15.8990224,33.7595035 15.7558594,34.1602671 15.5523976,34.5310131 C13.9828878,37.2870916 12.3722016,40.0438563 10.8026917,42.800621 C10.6713996,42.9876021 10.5576801,43.186324 10.4629859,43.3942484 C11.7353388,43.6509151 12.9651427,43.9453269 14.1949466,44.1999347 C15.8488682,44.5815033 17.5453388,44.9212092 19.1992604,45.3027778 C20.3021035,45.5148367 20.6836721,46.0240523 20.6836721,47.1687582 L20.6836721,51.4322068 C29.7521784,49.4924899 31.5160526,43.2416779 31.5878878,42.8836602 C31.6230261,42.7384829 31.6726528,42.6006092 31.7348605,42.4712031 L31.7348605,42.4712031 Z M35.5489721,44.0942482 C34.844235,46.4539809 33.5210964,48.5840664 31.7148486,50.2624837 C29.65005,52.3251962 26.190471,54.6574314 20.6836721,55.6582166 L20.6836721,60.2766014 L21.3623976,60.2766014 C24.4163192,60.2766014 27.4270055,60.3191504 30.438378,60.2766014 C31.8376917,60.2766014 32.7284761,60.8702288 32.600829,62.4816014 C32.55828,63.5844445 32.600829,64.6866014 32.600829,65.7894445 L50.9243584,65.7894445 L50.9243584,53.5737582 C50.8524589,52.8128036 51.2129223,52.0757089 51.8576917,51.6652288 C56.2181872,48.3705869 59.1480148,43.5281545 60.0428878,38.1366994 C60.8717483,33.5567932 60.4468185,28.8379856 58.8130839,24.4798367 C56.4804368,18.1180719 51.9002408,14.3016994 45.3689663,12.7747386 C44.56328,12.5626798 43.7575937,12.435719 42.9093584,12.2662092 C42.8767817,12.4623355 42.8625372,12.6610691 42.8668094,12.8598367 L42.8668094,22.5294445 C42.8456144,22.8568446 43.0323821,23.1622648 43.3334761,23.2925818 C47.3619074,25.5847386 49.3980839,29.0600327 49.2278878,33.6827778 C49.0809588,36.3910446 47.8780945,38.9337648 45.8774957,40.7651308 C44.1483061,42.5431267 41.9115838,43.742869 39.4738682,44.1999347 C38.1600142,44.4145467 36.8286774,44.3747129 35.5489721,44.0942482 L35.5489721,44.0942482 Z M29.6766133,32.9601308 L29.6766133,32.9580719 C29.6766133,37.285719 33.6624957,41.2722876 37.9043584,41.2729739 C42.3150447,41.2729739 45.9619074,37.0743465 46.0470055,33.2572876 C46.1072887,30.3283915 44.5979417,27.5905205 42.089132,26.0779266 C39.5803222,24.5653327 36.4544868,24.5085922 33.8924344,25.9291394 C31.330382,27.3496865 29.7226659,30.0309763 29.6766133,32.9601308 Z M39.7277898,4.16405234 L35.7837702,4.16405234 L35.7837702,22.1883661 L39.7277898,22.1883661 L39.7277898,4.16405234 Z M34.0872996,33.1715033 C34.030268,32.1277943 34.4260387,31.1101774 35.1732575,30.3792567 C35.9204764,29.6483361 36.9465725,29.2750997 37.9887702,29.3551308 C40.0793444,29.3114416 41.8174676,30.9548025 41.890927,33.0445425 C41.8910406,35.1753508 40.182099,36.9124148 38.0515726,36.9470773 C35.9210463,36.9817398 34.1565019,35.3011876 34.0872996,33.1715033 L34.0872996,33.1715033 Z M37.8618094,31.7721896 L37.8618094,31.7715033 C37.5467603,31.7600163 37.2400781,31.8743035 37.0093799,32.0891669 C36.7786818,32.3040303 36.6429122,32.6018257 36.6320055,32.9168955 C36.6202563,33.6430955 37.1994329,34.2413217 37.9256329,34.2530713 C38.651833,34.2648209 39.2500594,33.6856445 39.2618094,32.9594445 C39.2404539,32.6136682 39.0790265,32.2915503 38.8148084,32.067483 C38.5505903,31.8434157 38.2064297,31.7367751 37.8618094,31.7721896 Z" id="color" fill="#000000" fill-rule="nonzero"></path>
        <path d="M40.3548731,4.8839543 L40.3548731,22.908268 L36.4108535,22.908268 L36.4108535,4.8839543 L40.3548731,4.8839543 Z M30.0490888,33.4261112 C30.0941637,30.4963663 31.7015929,27.8141048 34.263949,26.3929195 C36.8263052,24.9717342 39.9528287,25.0283561 42.4620457,26.5413885 C44.9712626,28.0544208 46.4805172,30.793126 46.419481,33.7225818 C46.3343829,37.5396406 42.6875202,41.738268 38.2768339,41.738268 C34.0356574,41.738268 30.0490888,37.7516994 30.0490888,33.4261112 Z" id="fill" fill="#000000" fill-rule="nonzero" opacity="0.3"></path>
    </g>
</svg>