<?xml version="1.0" encoding="UTF-8"?>
<svg width="70px" height="70px" viewBox="0 0 70 70" version="1.1" xmlns="http://www.w3.org/2000/svg" xmlns:xlink="http://www.w3.org/1999/xlink">
    <!-- Generator: Sketch 53.2 (72643) - https://sketchapp.com -->
    <title>pack2_parcel</title>
    <desc>Created with Sketch.</desc>
    <g id="pack2_parcel" stroke="none" stroke-width="1" fill="none" fill-rule="evenodd">
        <path d="M19.6875,35.6408493 C23.8323243,34.5517156 28.5551351,34.9084354 31.4267056,36.516514 C32.7151791,37.2380588 34.1821369,37.5270916 36.6900435,37.6835808 C36.9319823,37.6986773 37.1133791,37.7090555 37.5709959,37.7344997 C38.830563,37.8045336 39.4051314,37.8451772 40.1030671,37.9267598 C42.2407406,38.1766351 43.6532133,39.4015314 44.2362553,41.431302 L52.3894279,39.6901459 C54.9252702,39.1580916 56.8486068,39.6189939 57.9519146,41.198553 C59.0194043,42.7268329 59.0194043,44.438328 57.9878121,46.1216837 L57.7885153,46.4468969 L57.4302075,46.5776573 C49.5462217,49.4548285 44.1432676,51.3538628 41.2084581,52.2787524 C38.0872708,53.2623781 35.491893,53.2767157 33.4512595,52.2514796 L19.6835142,47.9329411 C19.6426596,48.3477843 19.2927713,48.671875 18.8671875,48.671875 L12.8515625,48.671875 C12.3985164,48.671875 12.03125,48.3046086 12.03125,47.8515625 L12.03125,35.2734375 C12.03125,34.8203914 12.3985164,34.453125 12.8515625,34.453125 L18.8671875,34.453125 C19.3202336,34.453125 19.6875,34.8203914 19.6875,35.2734375 L19.6875,35.6408493 L19.6875,35.6408493 Z M19.6875,37.9138259 L19.6875,45.6416023 L34.2868583,50.2209935 L34.3728522,50.2658553 C35.8399624,51.0312268 37.8892512,51.0312268 40.5509566,50.1924044 C43.3981174,49.2951368 48.6515105,47.4503535 56.2988674,44.6618553 C56.7055208,43.8428613 56.6503809,43.1552838 56.1585743,42.451185 C55.6404831,41.7094557 54.6030044,41.4608376 52.8424479,41.8302192 L44.5606045,43.5988601 C44.4824247,45.9237816 42.6727722,47.1949387 39.5736694,47.1949387 L34.0398979,47.1949387 C33.4358365,47.1949387 32.9461479,46.7052501 32.9461479,46.1011887 C32.9461479,45.4971272 33.4358365,45.0074387 34.0398979,45.0074387 L39.5736694,45.0074387 C41.5439289,45.0074387 42.3414536,44.5674087 42.3738457,43.4868845 L42.2978415,42.864374 C42.0824737,41.1004092 41.3231979,40.2717762 39.8490966,40.0994667 C39.2100464,40.0247673 38.6646555,39.9861876 37.4495551,39.9186262 C36.9868661,39.8929 36.8024226,39.8823475 36.5538122,39.8668346 C33.7406487,39.691298 32.0100165,39.3503136 30.3578861,38.4251211 C27.8915018,37.0439467 23.4364973,36.7754949 19.6875,37.9138259 L19.6875,37.9138259 Z M14.21875,36.640625 L14.21875,46.484375 L17.5,46.484375 L17.5,36.640625 L14.21875,36.640625 Z M23.7890625,35.0320309 L23.7890625,15.859375 C23.7890625,15.4063289 24.1563289,15.0390625 24.609375,15.0390625 L54.6875,15.0390625 C55.1405461,15.0390625 55.5078125,15.4063289 55.5078125,15.859375 L55.5078125,39.6044716 C55.0077348,39.4956284 53.9127655,39.4579926 53.3203125,39.4893487 L53.3203125,17.2265625 L44.0234375,17.2265625 L44.0234375,26.796875 C44.0234375,27.5146254 43.1667739,27.8862587 42.642667,27.3958737 L39.6887534,24.63202 L36.6461289,27.403332 C36.1193641,27.8831249 35.2734375,27.5093933 35.2734375,26.796875 L35.2734375,17.2265625 L25.9765625,17.2265625 L25.9765625,35.0318591 C25.436617,35.009025 24.3411112,35.0089417 23.7890625,35.0320309 Z M37.4609375,17.2265625 L37.4609375,23.84375 L39.2447729,22.0823504 C39.4977136,21.832591 39.8852125,21.8354065 40.1350425,22.0888189 L41.8359375,23.8141038 L41.8359375,17.2265625 L37.4609375,17.2265625 Z" id="color" fill="#000000" fill-rule="nonzero"></path>
        <path d="M67.9813127,35.4493932 C67.7891087,35.4436712 66.911277,35.4858071 65.3478176,35.575801 C64.6245677,35.5909574 64.0207506,35.0274752 63.9859478,34.3049042 C63.9511451,33.5823333 64.4980124,32.9634282 65.219371,32.9090049 C66.1511186,32.8444417 67.0828661,32.8125 67.9500506,32.8125 C68.2886972,32.8180574 68.6116031,32.9564456 68.8491768,33.1978398 C69.1115439,33.4742813 69.2505862,33.845306 69.2345166,34.2260922 C69.2498845,34.560302 69.1217281,34.8851549 68.8823174,35.1188531 C68.6429067,35.3525512 68.315054,35.4728263 67.9813127,35.4493932 Z M2.39496536,35.4467736 C1.66755809,35.4379531 1.08502839,34.8411226 1.09384886,34.1137154 C1.10266933,33.3863081 1.69949984,32.8037784 2.42690711,32.8125989 C3.32603333,32.8125989 4.22583915,32.8452202 5.09302362,32.9091037 C5.44568442,32.9168687 5.7796502,33.0692496 6.01663862,33.330528 C6.25362703,33.5918065 6.37280159,33.9390103 6.3462275,34.2907542 C6.32511604,35.0166193 5.72323354,35.5899996 4.99719837,35.5758998 L2.39496536,35.4467736 Z M36.4274108,2.34719672 L36.4274108,5.07787633 C36.4234418,5.42020148 36.28131,5.74639671 36.0332932,5.98238382 C35.7852764,6.21837094 35.452423,6.34412235 35.1103234,6.33108021 C34.4017803,6.34555757 33.8139758,5.78626378 33.793236,5.07787633 C33.7612942,4.14612876 33.7612942,3.24700254 33.793236,2.34719672 C33.7973868,2.00499019 33.9395982,1.6789713 34.1875945,1.44313164 C34.4355909,1.20729198 34.7683402,1.08163257 35.1103234,1.09467245 C35.4523066,1.08163257 35.7850559,1.20729198 36.0330522,1.44313164 C36.2810486,1.6789713 36.4232599,2.00499019 36.4274108,2.34719672 Z M35.0783816,68.9991749 C34.727899,69.0030358 34.3906447,68.8655118 34.142801,68.6176681 C33.8949574,68.3698244 33.7574333,68.0325701 33.7612942,67.6820875 C33.7293525,66.8142234 33.7293525,65.9150972 33.7612942,65.0152914 C33.7585202,64.6680184 33.8974538,64.3346256 34.1460163,64.0920912 C34.3945787,63.8495568 34.7312813,63.7188484 35.0783816,63.7301457 L35.1103234,63.7301457 C35.825437,63.7299354 36.410068,64.300388 36.4274108,65.0152914 L36.4274108,67.7140292 C36.4225048,68.0645185 36.2767192,68.3982785 36.0229253,68.640054 C35.7691313,68.8818295 35.4286966,69.0112647 35.0783816,68.9991749 Z M63.3834571,51.8037392 C63.2198646,51.7026818 62.438572,51.3002567 61.0395796,50.596464 C60.4056486,50.2479649 60.1644687,49.4580664 60.4956141,48.8149002 C60.8267596,48.171734 61.6098131,47.9091802 62.2617396,48.2227275 C63.1009382,48.632688 63.9238262,49.0708994 64.6748299,49.5044916 C64.9653278,49.6786278 65.1757784,49.9599284 65.2608262,50.2877688 C65.349822,50.6583577 65.2847238,51.0491956 65.080414,51.3709314 C64.9266181,51.6680495 64.653205,51.8853022 64.3290201,51.9679854 C64.0048353,52.0506685 63.660769,51.9909035 63.3834571,51.8037392 Z M6.58532398,19.0082969 C5.95978103,18.6369545 5.75371077,17.8288193 6.12505316,17.2032763 C6.49639554,16.5777334 7.30453078,16.3716631 7.93007372,16.7430055 C8.70873986,17.1925686 9.47168389,17.6707225 10.1907459,18.1596394 C10.4922767,18.3426945 10.705309,18.6416431 10.7799078,18.9864111 C10.8545066,19.3311791 10.7841128,19.6914537 10.5852271,19.9827858 C10.2040115,20.6008477 9.39607579,20.7964683 8.77436076,20.42124 L6.58532398,19.0082969 Z M52.6080747,7.35944514 L51.2427349,9.72428305 C51.0681351,10.0187609 50.7819477,10.2301883 50.4491653,10.3105507 C50.1163829,10.3909132 49.7652477,10.3333904 49.4755018,10.1510458 C48.8546468,9.80931197 48.6252401,9.03104712 48.9614726,8.40719567 C49.399684,7.58430773 49.8492471,6.80564159 50.3268124,6.04235776 C50.5015104,5.74807362 50.7876785,5.53683867 51.1203695,5.4565937 C51.4530604,5.37634873 51.8040595,5.43389915 52.0937057,5.61618361 C52.3963918,5.77588234 52.6217314,6.05108123 52.7185827,6.37932254 C52.815434,6.70756385 52.7755832,7.06101018 52.6080747,7.35944514 Z M18.1137921,64.4072369 C17.8083348,64.2353392 17.585026,63.9476128 17.494309,63.609052 C17.4035919,63.2704912 17.4531197,62.9096585 17.6317047,62.608062 C18.0379743,61.8404988 18.4875375,61.0618327 18.9651027,60.2985489 C19.1363368,59.9964146 19.4233533,59.7771547 19.7598819,59.691395 C20.0964105,59.6056353 20.4533577,59.6607899 20.7483067,59.8441238 L20.775969,59.8600947 C21.3953808,60.2174693 21.6164598,61.0038113 21.2740274,61.6316071 L19.9246584,63.9687827 C19.7451652,64.2698623 19.4520311,64.4860142 19.1113513,64.5685009 C18.7706716,64.6509877 18.4111289,64.5928645 18.1137921,64.4072369 Z M51.2244244,63.6680905 C51.1332778,63.4987759 50.6578711,62.7596193 49.7982045,61.4506207 C49.4234538,60.8318462 49.609535,60.0271841 50.2178985,59.6357585 C50.8262619,59.244333 51.6356831,59.4084815 52.0434944,60.0059846 C52.5652815,60.7806201 53.0588176,61.5715663 53.4924098,62.3225701 C53.6569203,62.6186254 53.6985255,62.9674642 53.6082589,63.2939062 C53.5000371,63.6593435 53.2482415,63.96527 52.9104361,64.1417464 C52.6286859,64.3221602 52.2832768,64.3736001 51.9611829,64.2831134 C51.639089,64.1926266 51.3710013,63.9688355 51.2244244,63.6680905 Z M18.4335193,6.86733775 C18.0774545,6.23297434 18.30306,5.43007356 18.9374234,5.07400868 C19.5717868,4.71794379 20.3746876,4.94354933 20.7307525,5.57791274 C21.1803156,6.35657888 21.6019676,7.15214426 21.9802351,7.93508979 C22.1498408,8.24438548 22.184858,8.60979878 22.0770784,8.945676 C21.9692988,9.28155322 21.7281988,9.55836333 21.4102926,9.71122143 C20.7711192,10.0558709 19.9736161,9.82131552 19.6228093,9.18550075 L18.4335193,6.86733775 Z M64.1148165,19.7905116 L61.7499786,21.1558514 C61.4515318,21.3235767 61.0979726,21.3635846 60.7695933,21.2667893 C60.4412141,21.169994 60.1658835,20.9446102 60.0061285,20.6418222 C59.6393192,20.0354445 59.8297796,19.2467441 60.4328912,18.8745891 C61.2238374,18.381053 62.0025035,17.9314899 62.7977291,17.5092493 C63.0961641,17.3417408 63.4496104,17.30189 63.7778517,17.3987413 C64.106093,17.4955926 64.3812919,17.7209322 64.5409906,18.0236183 C64.7232751,18.3132645 64.7808255,18.6642635 64.7005805,18.9969545 C64.6203356,19.3296455 64.4091006,19.6158136 64.1148165,19.7905116 Z M5.71799563,51.9482071 C5.53941068,51.6466107 5.48988283,51.285778 5.58059992,50.9472172 C5.671317,50.6086564 5.89462576,50.32093 6.20008307,50.1490323 C6.93570454,49.6874379 7.71437068,49.2378748 8.50959626,48.8156343 C8.80895645,48.6395953 9.16714992,48.593219 9.5014721,48.6872132 C9.83579428,48.7812074 10.1173424,49.0074462 10.2811087,49.3136926 L10.2970796,49.3413549 C10.6548186,49.9605564 10.4531076,50.7520879 9.84265451,51.1245589 L7.50547896,52.4739278 C7.19949344,52.6449238 6.83755591,52.6855498 6.50127521,52.5866455 C6.16499451,52.4877413 5.88268301,52.2576338 5.71799563,51.9482071 Z M53.59375,39.5724919 C53.3794745,39.603906 53.1602778,39.6431529 52.9363029,39.6901459 L44.7831303,41.431302 C44.2000883,39.4015314 42.7876156,38.1766351 40.6499421,37.9267598 C39.9520064,37.8451772 39.377438,37.8045336 38.1178709,37.7344997 C37.6602541,37.7090555 37.4788573,37.6986773 37.2369185,37.6835808 C34.7290119,37.5270916 33.2620541,37.2380588 31.9735806,36.516514 C30.5880387,35.740611 28.7715108,35.2560359 26.796875,35.0846367 L26.796875,17.5 L53.59375,17.5 L53.59375,39.5724919 L53.59375,39.5724919 Z" id="fill" fill="#000000" fill-rule="nonzero" opacity="0.3"></path>
    </g>
</svg>