<?xml version="1.0" encoding="UTF-8"?>
<svg width="70px" height="70px" viewBox="0 0 70 70" version="1.1" xmlns="http://www.w3.org/2000/svg" xmlns:xlink="http://www.w3.org/1999/xlink">
    <!-- Generator: Sketch 53.2 (72643) - https://sketchapp.com -->
    <title>pack2_phone</title>
    <desc>Created with Sketch.</desc>
    <g id="pack2_phone" stroke="none" stroke-width="1" fill="none" fill-rule="evenodd">
        <path d="M16.9793362,27.7677755 C16.9801425,24.8186322 18.0593125,21.9715673 20.013567,19.7628717 C20.794427,18.895139 21.8830223,18.3662961 23.0477978,18.2888332 C23.3661631,18.2598909 23.7127978,18.2598909 24.0304901,18.2309486 C26.3425093,17.9711409 27.8165478,18.9531601 28.6255862,21.1500832 C29.2313555,22.8260448 30.0390478,24.4158525 30.7356824,26.0635448 C31.4868362,27.7684486 31.0244324,29.2424871 29.9838555,30.6296986 C29.6327553,31.1022131 29.2566415,31.5556167 28.8571247,31.9879678 C28.731793,32.0872164 28.6540825,32.2346815 28.6430656,32.394171 C28.6320486,32.5536606 28.6887451,32.71041 28.7992401,32.8259486 C31.1652016,36.3230838 34.4295766,39.118263 38.2492401,40.9176794 C38.4030374,41.0317713 38.5981515,41.0749515 38.7857281,41.0364084 C38.9733048,40.9978652 39.1355837,40.881248 39.2319324,40.7157563 C39.9258747,39.8488332 40.6453939,39.0108525 41.3702978,38.1439294 C42.1704121,37.0871706 43.631334,36.7899118 44.7807785,37.4499871 C46.9480862,38.490564 49.0884708,39.5311409 51.2544324,40.5710448 C52.4647318,41.0214172 53.1731013,42.2796977 52.9303939,43.548064 C52.8349175,44.5008124 52.6804869,45.4467281 52.4679901,46.3803717 C52.0641439,47.9957563 50.8209708,48.9811409 49.5488555,49.848064 C46.3988555,51.9292178 42.9883747,52.1890255 39.4338555,51.0044101 C31.0819613,48.359327 24.0339217,42.6634075 19.6952016,35.0524871 C18.5110589,33.225722 17.6415102,31.2133833 17.1227016,29.0991217 C17.0455551,28.658994 16.9976617,28.2142374 16.9793362,27.7677755 Z M20.1003939,27.7098909 C20.1436623,28.856679 20.4607637,29.976458 21.0252016,30.9756601 C24.8974131,38.8654678 30.8521247,44.4715255 39.0872208,47.5925832 C41.0229901,48.3147948 43.017317,48.8929678 45.1274131,48.4002755 C46.5296101,48.0737506 47.8176497,47.3747351 48.8555862,46.3770063 C49.5784708,45.6837371 49.5205862,44.816814 49.693567,43.9781601 C49.7592896,43.8294471 49.7591191,43.6598879 49.6930975,43.5113074 C49.627076,43.3627269 49.5013501,43.248958 49.3469324,43.198064 C47.5841439,42.3600832 45.8213555,41.5221025 44.058567,40.6551794 C43.9343524,40.5670307 43.7786163,40.5356124 43.6299418,40.5687082 C43.4812673,40.601804 43.3535643,40.6963175 43.2784708,40.8288332 C42.6134708,41.6365255 41.9491439,42.4442178 41.284817,43.2270063 C40.1574131,44.6142178 39.2036631,44.816814 37.5566439,44.1228717 C32.7950966,42.0588299 28.7523311,38.6295061 25.9393362,34.2683525 C24.8408747,32.6529678 24.9566439,31.6096986 26.2859708,30.1935448 C26.8126547,29.6422823 27.2859234,29.0423579 27.6994324,28.401814 C27.8721633,28.0511299 27.9032559,27.6474076 27.7862593,27.2744101 C27.1804901,25.7714294 26.5141439,24.2691217 25.849817,22.7950832 C25.2440478,21.436814 25.2440478,21.4078717 23.7114516,21.4946986 C23.1994404,21.4838405 22.7028257,21.6701012 22.3242401,22.0149871 C20.9058365,23.5732683 20.1133443,25.6007636 20.0990478,27.7078717 L20.1003939,27.7098909 Z M55.3581824,23.921814 C49.6759967,23.8723251 44.9255949,19.5874885 44.2923387,13.940483 C43.6590826,8.29347762 47.342422,3.0628798 52.8725093,1.75604476 C53.8821247,1.49623707 54.5484708,1.66921784 54.9826055,2.33421784 C55.3738989,2.99267886 55.2792772,3.83107128 54.751067,4.3857563 C53.5701384,6.00862317 53.2197186,8.09180647 53.8047028,10.0117239 C54.3896869,11.9316413 55.8421881,13.4654884 57.7274131,14.1541217 C59.7792004,14.9646568 62.1061564,14.635303 63.8524131,13.2871986 C64.979817,12.5071025 66.2802016,12.940564 66.4821247,14.183064 C66.5061132,14.4157426 66.4864825,14.6508545 66.4242401,14.8763332 C65.3819571,20.155044 60.7387326,23.9504514 55.3581824,23.921814 Z M50.5322208,6.38008322 C48.162317,7.85412169 46.8619324,11.4375832 47.5552016,14.4428717 C48.297846,17.816861 51.0905899,20.3537563 54.5202016,20.7697948 C57.3807785,21.0585448 60.7912593,19.6134486 61.716067,17.6487371 C58.6277218,18.2159133 55.4585822,17.2208337 53.2487593,14.9900832 C50.9681326,12.7513113 49.9499172,9.52511229 50.5322208,6.38277553 L50.5322208,6.38008322 Z" id="color" fill="#000000" fill-rule="nonzero"></path>
        <path d="M51.312317,6.70046784 C50.7335405,9.84327695 51.7508938,13.0685517 54.0281824,15.3104678 C56.2382145,17.5413317 59.4076073,18.5364117 62.4961631,17.9691217 C61.5713555,19.9338332 58.1615478,21.3789294 55.3002978,21.0901794 C51.870686,20.6741409 49.0779422,18.1372456 48.3352978,14.7632563 C47.6420285,11.7579678 48.9424131,8.1745063 51.312317,6.70046784 Z M6.459817,35.7444101 C6.51770161,29.0136409 8.10683623,23.8376794 11.2857785,19.2136409 C15.4908005,12.8335177 22.1203196,8.44877108 29.6372208,7.07604476 C32.7408614,6.4454453 35.9324929,6.37705319 39.0602978,6.87412169 C39.6095285,6.96094861 40.129817,7.01883322 40.6756824,7.13392938 C41.090346,7.19258554 41.4612182,7.42294303 41.6975837,7.76865643 C41.9339492,8.11436984 42.0140097,8.54355638 41.9181824,8.95123707 C41.8457869,9.35382652 41.6161989,9.71107394 41.2800656,9.94417009 C40.9439324,10.1772662 40.5288735,10.267058 40.1264516,10.1937371 C38.9149131,10.0490255 37.6986631,9.87604476 36.4851055,9.78989092 C32.2782123,9.4780283 28.0631114,10.2752352 24.2606824,12.1019101 C19.7436625,14.1825324 15.9501568,17.5635731 13.3655862,21.8123909 C10.825514,25.7596536 9.54548887,30.3858659 9.69529776,35.0773909 C9.78212469,37.0138332 10.0708747,38.9213332 10.3313555,40.8281601 C10.476067,41.8687371 10.0136631,42.7356601 9.14674007,42.909314 C8.69775959,43.0018379 8.23069064,42.8961389 7.86529367,42.6193191 C7.49989669,42.3424993 7.27170908,41.9214813 7.23924007,41.4642178 C6.89327853,39.2127755 6.63347084,36.9579678 6.459817,35.7444101 Z M34.7781824,63.5169101 C33.4199131,63.4011409 32.0616439,63.2853717 30.6724131,63.1413332 C30.2392373,63.1333837 29.8309021,62.9375607 29.5535176,62.604751 C29.2761331,62.2719412 29.1570878,61.8350059 29.227317,61.4074871 C29.3331,60.5512116 30.1025438,59.9355968 30.9611631,60.0202755 C31.8280862,60.0781601 32.6950093,60.2221986 33.5619324,60.2800832 C46.4604017,60.9620452 57.8102889,51.8396437 59.9182785,39.0963332 C60.5026211,35.6251359 60.3450275,32.0695291 59.4558747,28.6636409 C59.1953939,27.5941217 59.5999131,26.7850832 60.5826055,26.5252755 C61.0134404,26.4342061 61.4627562,26.5253632 61.8240352,26.7771367 C62.1853143,27.0289102 62.4263878,27.4188818 62.4901055,27.8546025 C63.2918436,30.9756791 63.5648556,34.2090506 63.2977978,37.4203717 C61.9498538,52.1770147 49.5921845,63.4831536 34.7741439,63.5169101 L34.7781824,63.5169101 Z M21.8342401,56.0316217 C21.8104626,59.4196773 19.0472582,62.1483779 15.6591713,62.1295833 C12.2710845,62.1107886 9.5383229,59.3516004 9.55213464,55.9634895 C9.56594637,52.5753787 12.3211126,49.8385621 15.7092401,49.8473909 C19.0940469,49.897553 21.8166542,52.6464888 21.8342401,56.0316217 L21.8342401,56.0316217 Z M15.6500093,59.0079678 C17.0656566,59.0062738 18.2838475,58.0068314 18.5620981,56.618798 C18.8403486,55.2307645 18.1015067,53.8390078 16.7958944,53.2917996 C15.4902821,52.7445914 13.9799139,53.1936592 13.1853548,54.3652975 C12.3907958,55.5369357 12.5323579,57.1062778 13.5237593,58.116814 C14.083899,58.6876921 14.8502231,59.0091164 15.6500093,59.0086409 L15.6500093,59.0079678 Z M5.93952853,57.5924871 C5.53568238,57.5924871 5.10154776,57.6214294 4.69702853,57.5924871 C3.87207999,57.5138315 3.25162527,56.8054566 3.2823427,55.9773362 C3.31306012,55.1492159 3.98428906,54.4887534 4.81279776,54.4714294 C5.56395161,54.4424871 6.34404776,54.4424871 7.09587469,54.4714294 C7.91178575,54.4904899 8.57733969,55.1308955 8.62779776,55.9454678 C8.66207811,56.7918869 8.02639053,57.516399 7.18270161,57.5924871 C6.76881584,57.6214264 6.35341431,57.6214264 5.93952853,57.5924871 L5.93952853,57.5924871 Z M11.1430862,49.7322948 C11.216361,50.3914715 10.8700815,51.0262276 10.2761631,51.3214294 C9.74873966,51.6317105 9.08059435,51.5615375 8.62914392,51.1484486 C7.97706512,50.5685055 7.35947167,49.950912 6.77952853,49.2988332 C6.28476773,48.7021271 6.32229347,47.8276899 6.86635546,47.275564 C7.34682851,46.6947565 8.19853343,46.5931797 8.80212469,47.0446986 C9.54519564,47.6766032 10.2407895,48.3622986 10.8832785,49.0962371 C11.0286856,49.2791887 11.1188224,49.4998603 11.1430862,49.7322948 L11.1430862,49.7322948 Z M25.4762593,54.5003717 C25.9097208,54.5003717 26.3431824,54.4714294 26.7766439,54.5003717 C27.4946542,54.5850209 28.0519836,55.1666189 28.1059708,55.8875832 C28.2167184,56.6298027 27.7390458,57.3326931 27.0081824,57.5029678 C25.9807043,57.6183123 24.9435451,57.6183123 23.916067,57.5029678 C23.1846598,57.32881 22.6998638,56.6341769 22.7886631,55.8875832 C22.8494063,55.148067 23.4363584,54.5611148 24.1758747,54.5003717 C24.6088537,54.4714461 25.0432803,54.4714461 25.4762593,54.5003717 Z M17.2687593,65.8026794 C17.2687593,66.2065255 17.2977016,66.5827755 17.2687593,66.9872948 C17.2376258,67.810665 16.5607946,68.4619216 15.7368362,68.4613332 C14.9168259,68.4838363 14.2206481,67.8648806 14.1470285,67.0478717 C14.0892804,66.2205448 14.0892804,65.3901985 14.1470285,64.5628717 C14.2114847,63.7379267 14.9075118,63.1060347 15.7348288,63.1213785 C16.5621458,63.1367224 17.2342635,63.7939886 17.2680862,64.6207563 L17.2680862,65.8053717 L17.2687593,65.8026794 Z M23.3957785,65.2514294 C22.3861631,65.2514294 20.2747208,63.1420063 20.2747208,62.1303717 C20.2857771,61.5471542 20.6196177,61.0182637 21.141357,60.757394 C21.6630963,60.4965244 22.2865131,60.5467862 22.7597208,60.8878717 C23.4285368,61.4699248 24.0562255,62.0976134 24.6382785,62.7664294 C25.0436323,63.2240651 25.1023683,63.892835 24.7829901,64.4141217 C24.518786,64.9356549 23.9803494,65.2609114 23.3957785,65.2521025 L23.3957785,65.2514294 Z M17.2687593,46.321814 C17.2687593,46.6973909 17.2977016,47.0729678 17.2687593,47.4202755 C17.234547,48.2416985 16.5705465,48.8965896 15.7487294,48.9194523 C14.9269122,48.942315 14.2275292,48.3253528 14.1477016,47.5071025 C14.1043118,46.6887669 14.1043118,45.8687072 14.1477016,45.0503717 C14.2117939,44.2288697 14.9134651,43.6047657 15.7368362,43.6369101 C16.5653642,43.624856 17.248907,44.2825708 17.2687593,45.1109486 C17.2977016,45.5127755 17.2687593,45.9172948 17.2687593,46.321814 Z M20.2740478,50.1361409 C20.2740478,48.9515255 22.3552016,46.8124871 23.3372208,46.8124871 C23.9405362,46.7882661 24.4987887,47.130661 24.7506824,47.6794101 C25.0825974,48.2267108 24.999339,48.9296893 24.5487593,49.384314 C23.9978248,50.0074625 23.4091193,50.596168 22.7859708,51.1471025 C22.3413773,51.5698548 21.6725012,51.6518584 21.1389516,51.3490255 C20.6534698,51.1297385 20.3231921,50.6665787 20.2740478,50.1361409 L20.2740478,50.1361409 Z M11.1417401,61.9849871 C11.1127978,63.1702755 9.00337469,65.283064 8.02068238,65.2507563 C7.41445411,65.2788616 6.85723865,64.9190102 6.63347084,64.3548909 C6.34714129,63.8179289 6.4278764,63.1591304 6.83539392,62.7071986 C7.38462469,62.1014294 7.99174007,61.5225832 8.59885546,60.9444101 C9.05988175,60.5072925 9.75337877,60.4251571 10.3037593,60.7424871 C10.7916828,60.969448 11.114142,61.4475683 11.1417401,61.9849871 L11.1417401,61.9849871 Z" id="fill" fill="#000000" fill-rule="nonzero" opacity="0.3"></path>
    </g>
</svg>