<?xml version="1.0" encoding="UTF-8"?>
<svg width="70px" height="70px" viewBox="0 0 70 70" version="1.1" xmlns="http://www.w3.org/2000/svg" xmlns:xlink="http://www.w3.org/1999/xlink">
    <!-- Generator: Sketch 53.2 (72643) - https://sketchapp.com -->
    <title>pack2_return</title>
    <desc>Created with Sketch.</desc>
    <g id="pack2_return" stroke="none" stroke-width="1" fill="none" fill-rule="evenodd">
        <path d="M18.7914191,37.689339 C22.4511368,36.7276767 26.6211939,37.0426463 29.1566782,38.4625167 C30.2943499,39.0996125 31.5896163,39.3548173 33.8039997,39.492991 C34.0176222,39.5063207 34.1777884,39.5154842 34.5818461,39.5379505 C35.6939946,39.5997876 36.201316,39.6356743 36.8175659,39.7077086 C38.705048,39.9283387 39.9522061,41.0098742 40.4670094,42.8020822 L47.6659417,41.2647095 C49.9049912,40.7949264 51.6032222,41.2018851 52.5773998,42.596574 C53.5199514,43.9459853 53.5199514,45.4571685 52.6090959,46.9435057 L52.4331246,47.2306562 L52.1167528,47.3461126 C45.1555019,49.8865421 40.3849049,51.563315 37.7935829,52.3799564 C35.0376967,53.2484594 32.7460796,53.2611189 30.9442801,52.3558756 L18.7878998,48.5427751 C18.7518268,48.9090654 18.4428891,49.1952248 18.0671153,49.1952248 L12.7555538,49.1952248 C12.3555319,49.1952248 12.03125,48.8709429 12.03125,48.470921 L12.03125,37.3649288 C12.03125,36.9649069 12.3555319,36.640625 12.7555538,36.640625 L18.0671153,36.640625 C18.4671373,36.640625 18.7914191,36.9649069 18.7914191,37.3649288 L18.7914191,37.689339 L18.7914191,37.689339 Z M18.7914191,39.6962885 L18.7914191,46.5196126 L31.6820812,50.5630358 L31.7580104,50.602647 C33.0534113,51.2784401 34.8628531,51.2784401 37.2130348,50.5377928 C39.7269664,49.7455406 44.3655069,48.1166692 51.1178238,45.6545343 C51.4768828,44.9313947 51.4281965,44.3242906 50.9939505,43.702599 C50.5364963,43.0476811 49.6204431,42.828161 48.0659406,43.1543105 L40.7533971,44.7159512 C40.6843674,46.7687659 39.086515,47.8911478 36.3501285,47.8911478 L31.4640248,47.8911478 C30.9306622,47.8911478 30.4982864,47.458772 30.4982864,46.9254094 C30.4982864,46.3920468 30.9306622,45.9596709 31.4640248,45.9596709 L36.3501285,45.9596709 C38.0897905,45.9596709 38.7939736,45.5711417 38.8225745,44.6170811 L38.7554658,44.0674287 C38.5653045,42.5099168 37.8948937,41.7782663 36.59332,41.6261237 C36.0290637,41.5601671 35.5475048,41.5261028 34.4746187,41.4664486 C34.0660824,41.4437334 33.903226,41.434416 33.6837128,41.4207187 C31.1997995,41.2657267 29.671719,40.9646509 28.2129525,40.1477422 C26.0352316,38.9282191 22.101637,38.6911868 18.7914191,39.6962885 L18.7914191,39.6962885 Z M13.9627269,38.5721019 L13.9627269,47.2637479 L16.8599422,47.2637479 L16.8599422,38.5721019 L13.9627269,38.5721019 Z M51.4500322,32.2968637 C47.7903145,33.2585261 43.6202574,32.9435565 41.0847731,31.523686 C39.9471014,30.8865902 38.651835,30.6313855 36.4374516,30.4932117 C36.2238291,30.4798821 36.0636629,30.4707185 35.6596052,30.4482523 C34.5474567,30.3864151 34.0401353,30.3505284 33.4238854,30.2784942 C31.5364034,30.0578641 30.2892452,28.9763286 29.7744419,27.1841206 L22.5755096,28.7214933 C20.3364601,29.1912764 18.6382291,28.7843177 17.6640515,27.3896288 C16.7214999,26.0402175 16.7214999,24.5290343 17.6323554,23.042697 L17.8083267,22.7555465 L18.1246985,22.6400902 C25.0859494,20.0996607 29.8565464,18.4228877 32.4478684,17.6062463 C35.2037546,16.7377434 37.4953717,16.7250839 39.2971712,17.6303271 L51.4535515,21.4434276 C51.4896245,21.0771374 51.7985622,20.7909779 52.174336,20.7909779 L57.4858975,20.7909779 C57.8859195,20.7909779 58.2102013,21.1152598 58.2102013,21.5152818 L58.2102013,32.6212739 C58.2102013,33.0212959 57.8859195,33.3455778 57.4858975,33.3455778 L52.174336,33.3455778 C51.7743141,33.3455778 51.4500322,33.0212959 51.4500322,32.6212739 L51.4500322,32.2968637 L51.4500322,32.2968637 Z M51.4500322,30.2899143 L51.4500322,23.4665902 L38.5593701,19.423167 L38.4834409,19.3835557 C37.18804,18.7077627 35.3785982,18.7077627 33.0284165,19.44841 C30.5144849,20.2406622 25.8759444,21.8695336 19.1236275,24.3316685 C18.7645685,25.0548081 18.8132548,25.6619121 19.2475008,26.2836038 C19.7049551,26.9385217 20.6210082,27.1580418 22.1755107,26.8318923 L29.4880543,25.2702516 C29.557084,23.2174369 31.1549363,22.0950549 33.8913228,22.0950549 L38.7774265,22.0950549 C39.3107891,22.0950549 39.7431649,22.5274308 39.7431649,23.0607934 C39.7431649,23.594156 39.3107891,24.0265318 38.7774265,24.0265318 L33.8913228,24.0265318 C32.1516608,24.0265318 31.4474777,24.4150611 31.4188768,25.3691216 L31.4859855,25.918774 C31.6761468,27.4762859 32.3465576,28.2079365 33.6481314,28.360079 C34.2123877,28.4260357 34.6939465,28.4601 35.7668326,28.5197541 C36.1753689,28.5424694 36.3382253,28.5517868 36.5577386,28.565484 C39.0416518,28.720476 40.5697324,29.0215518 42.0284988,29.8384606 C44.2062197,31.0579836 48.1398143,31.295016 51.4500322,30.2899143 L51.4500322,30.2899143 Z M56.2787244,31.4141009 L56.2787244,22.7224548 L53.3815091,22.7224548 L53.3815091,31.4141009 L56.2787244,31.4141009 Z" id="color" fill="#000000" fill-rule="nonzero"></path>
        <path d="M53.8952066,10.4953777 C53.3070694,10.0801816 52.7182458,9.62998556 52.0951086,9.21478948 C38.9748108,0.537368136 21.4321515,3.0839975 11.3207949,15.1339071 C8.13469482,18.8927018 5.91312038,23.371656 4.84853995,28.1827307 C4.0995563,31.5435544 3.90069929,35.00362 4.25971642,38.4281228 C4.70843724,42.8261528 6.12693745,47.0699342 8.41304975,50.8538091 C8.51667721,51.0267503 8.58599093,51.1653777 8.68755956,51.3383189 C9.08745045,52.0648974 8.82449001,52.9780482 8.0994223,53.3806718 C7.76118837,53.5711025 7.36012471,53.6160235 6.98814222,53.5051404 C6.61615973,53.3942573 6.30514878,53.1370761 6.12638309,52.7925346 C5.36620666,51.5258392 4.67303116,50.220122 4.04971642,48.8807699 C1.77408144,43.8735378 0.786552374,38.3767802 1.17697132,32.8905738 C1.57791874,26.0653053 4.06711783,19.5282229 8.30736348,14.1648875 C12.7644632,8.28880024 19.0865837,4.102286 26.236285,2.2923385 C37.2777556,-0.511092871 47.4195203,1.59988752 56.418638,8.66096595 C56.5558929,8.7645934 56.6931478,8.86684831 56.9031478,9.04184831 C56.9031478,8.7995934 56.9381478,8.66096595 56.9381478,8.48802478 L56.9381478,4.43900517 C56.9281474,4.03821214 57.0805428,3.65038775 57.3607199,3.36361979 C57.640897,3.07685183 58.0250737,2.91548174 58.4259909,2.91616203 C59.2566671,2.90890571 59.9371603,3.57406564 59.9488341,4.40469144 C59.9831478,7.00063916 59.9831478,9.59658687 59.9488341,12.1925346 C59.9695826,12.5933184 59.8194302,12.9841072 59.5356537,13.2678836 C59.2518772,13.5516601 58.8610885,13.7018125 58.4603047,13.681064 L50.6731478,13.681064 C49.8510557,13.681064 49.1846184,13.0146267 49.1846184,12.1925346 C49.1846184,11.3704425 49.8510557,10.7040052 50.6731478,10.7040052 C51.7457949,10.6696914 52.8191282,10.7040052 53.8917752,10.7040052 C53.8720247,10.6367987 53.8720247,10.5653293 53.8917752,10.4981228 L53.8952066,10.4953777 Z M13.1902066,61.0648875 L13.1902066,65.6684169 C13.1982285,66.3499685 12.7486094,66.9523782 12.0929339,67.1385676 C11.4372583,67.324757 10.7381419,67.0485488 10.3867752,66.4644954 C10.2535797,66.1446923 10.1718174,65.8058305 10.1445203,65.4604758 C10.1095203,64.3878287 10.1095203,63.3144954 10.1095203,62.2068483 C10.1095203,60.7533189 10.0745203,59.2991032 10.0745203,57.8833189 C10.0117591,57.4296173 10.160088,56.9721429 10.4771324,56.6415874 C10.7941768,56.3110318 11.2450664,56.1437513 11.7009909,56.1875346 L19.2122654,56.1875346 C19.6299457,56.150165 20.0441025,56.2900538 20.353579,56.5730336 C20.6630555,56.8560134 20.839357,57.2560291 20.8394223,57.6753777 C20.8587286,58.1035809 20.689647,58.5187812 20.3766885,58.8116766 C20.0637301,59.1045719 19.6382532,59.2458141 19.2122654,59.1982209 L15.6820694,59.1982209 C16.0938341,59.5413581 16.3745203,59.7863581 16.6854027,60.028613 C28.4235152,68.6092098 44.5419093,67.9047659 55.4866772,58.3328287 C60.8653148,53.7168077 64.4238019,47.3358121 65.5241282,40.3339071 C66.8202525,33.0657144 65.4299958,25.5741823 61.6123635,19.2549856 C61.05854,18.285966 61.09354,17.5242012 61.7496184,16.9703777 C62.0849266,16.6772114 62.5356907,16.5530871 62.9738086,16.6332795 C63.4119265,16.7134719 63.7894997,16.9892138 63.9992262,17.3821424 C64.7599128,18.6955904 65.4530374,20.0470231 66.0758929,21.431162 C68.1581565,26.081293 69.1186737,31.1556259 68.8800105,36.2450836 C68.6385219,44.2061449 65.5567317,51.8181179 60.1917752,57.7048875 C55.3326999,63.2290971 48.7655408,66.9693702 41.5354027,68.3304758 C31.1863831,70.338515 21.8756968,67.9873385 13.6040301,61.4430248 C13.571089,61.3414561 13.4324615,61.2378287 13.1902066,61.0648875 Z M51.9969072,30.8367893 C48.6866893,31.841891 44.7530947,31.6048586 42.5753738,30.3853356 C41.1166074,29.5684268 39.5885268,29.267351 37.1046136,29.112359 C36.8851003,29.0986618 36.7222439,29.0893444 36.3137076,29.0666291 C35.2408215,29.006975 34.7592627,28.9729107 34.1950064,28.906954 C32.8934326,28.7548115 32.2230218,28.0231609 32.0328605,26.465649 L31.9657518,25.9159966 C31.9943527,24.9619361 32.6985358,24.5734068 34.4381978,24.5734068 L39.3243015,24.5734068 C39.8576641,24.5734068 40.2900399,24.141031 40.2900399,23.6076684 C40.2900399,23.0743058 39.8576641,22.6419299 39.3243015,22.6419299 L34.4381978,22.6419299 C31.7018113,22.6419299 30.103959,23.7643119 30.0349293,25.8171266 L22.7223857,27.3787673 C21.1678832,27.7049168 20.2518301,27.4853967 19.7943758,26.8304788 C19.3601298,26.2087871 19.3114435,25.6016831 19.6705025,24.8785435 C26.4228194,22.4164086 31.0613599,20.7875372 33.5752915,19.995285 C35.9254732,19.2546377 37.734915,19.2546377 39.0303159,19.9304307 L39.1062451,19.970042 L51.9969072,24.0134652 L51.9969072,30.8367893 L51.9969072,30.8367893 Z M56.8255994,31.9609759 L53.9283841,31.9609759 L53.9283841,23.2693298 L56.8255994,23.2693298 L56.8255994,31.9609759 Z M17.2439769,47.8689769 L14.3467616,47.8689769 L14.3467616,39.1773309 L17.2439769,39.1773309 L17.2439769,47.8689769 Z" id="fill" fill="#000000" fill-rule="nonzero" opacity="0.3"></path>
    </g>
</svg>
