<?xml version="1.0" encoding="UTF-8"?>
<svg width="70px" height="70px" viewBox="0 0 70 70" version="1.1" xmlns="http://www.w3.org/2000/svg" xmlns:xlink="http://www.w3.org/1999/xlink">
    <!-- Generator: Sketch 53.2 (72643) - https://sketchapp.com -->
    <title>pack2_satisfaction</title>
    <desc>Created with Sketch.</desc>
    <g id="pack2_satisfaction" stroke="none" stroke-width="1" fill="none" fill-rule="evenodd">
        <path d="M49.9125359,37.1246572 C49.9785478,36.2463699 49.689129,35.3783583 49.1092349,34.7154339 C49.9544909,33.7440235 50.140055,32.3625709 49.5811056,31.2025402 C49.0221562,30.0425095 47.826087,29.3267833 46.5396233,29.3825212 L40.1145747,29.3825212 C40.3714679,28.5792203 40.658264,27.7759193 40.9178757,26.9732979 C41.2952173,25.9576387 41.3949203,24.8597335 41.2067106,23.7927154 C40.9690529,22.1358491 40.078233,20.6429917 38.7329242,19.6470843 C38.0825745,19.1412401 37.2080635,19.0304931 36.4521475,19.3582494 C35.6812314,19.6710321 35.1319998,20.3666738 35.0066135,21.1891232 C34.9799659,21.4989507 34.9693046,21.8099457 34.9746718,22.1208707 L34.9746718,22.2173756 C34.9957441,23.4618791 34.5877757,24.6757051 33.819332,25.6548513 C33.2409825,26.3935892 32.6639922,27.1330067 32.0842835,27.9036863 L30.7671961,29.6061135 C30.561587,29.4607432 30.311357,29.3924112 30.0604,29.4131038 L24.6636038,29.4131038 C24.3810138,29.4219209 24.100543,29.4650527 23.8283611,29.5415504 C22.8560097,29.886206 22.2191098,30.8212059 22.2543805,31.85223 L22.2543805,44.4780552 C22.230462,45.7801337 23.263118,46.8568295 24.5650601,46.8872785 L28.9023417,46.8872785 C29.4109318,46.8947895 29.9038805,46.7114795 30.2839922,46.3734921 C30.4712448,46.2080704 30.6432029,46.0261042 30.7977786,45.8298028 C30.8374262,45.7931542 30.8701204,45.7496387 30.8942835,45.7013562 C30.9757223,45.7317202 31.0516937,45.7750996 31.1192349,45.8298028 C32.5107329,46.5415271 34.0540281,46.9053138 35.6169048,46.889997 L45.1586524,46.889997 C45.3630779,46.8972858 45.5677485,46.8865974 45.7703029,46.8580552 C46.6270232,46.7564273 47.3865278,46.2589851 47.8220443,45.5142547 C48.2575607,44.7695242 48.3186959,43.8636774 47.9871961,43.0671814 C47.9552543,43.0026183 47.9552543,42.9706766 47.922633,42.9067931 C49.0271601,42.0873397 49.3566072,40.5779786 48.6939922,39.3728125 C49.4135429,38.8412787 49.8599416,38.0176943 49.9125359,37.1246572 L49.9125359,37.1246572 Z M46.5070019,37.8953368 L46.2181669,37.8953368 C45.8298351,37.9219158 45.4859517,38.1556734 45.3183611,38.5069873 C45.1557686,38.8625929 45.1924347,39.2775396 45.414866,39.5991232 C45.6231068,39.8910814 45.95557,40.0692495 46.3139922,40.0809678 C46.5153507,40.085023 46.7042313,40.1793385 46.8284582,40.337861 C46.92416,40.4789439 46.95895,40.6526485 46.9249631,40.8197057 C46.8239629,41.1021815 46.5497018,41.2850222 46.2501087,41.2696086 L45.4787495,41.2696086 C44.8844487,41.2609111 44.3955554,41.7355057 44.3866135,42.3298028 C44.378668,42.9415585 44.8670249,43.4445022 45.4787495,43.4545601 C45.8122138,43.4648168 46.0801432,43.7327462 46.0904,44.0662106 C46.0545169,44.3821983 45.7962494,44.6264045 45.4787495,44.6445601 L35.3273902,44.6445601 C34.3583432,44.6503752 33.401278,44.4302479 32.5321475,44.0016474 C32.3118687,43.9073603 32.0974102,43.8000176 31.8899145,43.6801911 C31.6969048,43.5836863 31.4719534,43.4552397 31.278264,43.3587348 C31.2698249,43.3586507 31.2617621,43.3552301 31.2558368,43.3492203 C31.249724,43.3430862 31.2463011,43.3347733 31.2463223,43.3261135 L31.2463223,32.6283465 C31.2487635,32.5243535 31.2823843,32.4234911 31.3428271,32.3388319 C32.6599145,30.604463 34.0735068,28.8048513 35.4884582,27.0059193 C36.6242636,25.5981546 37.2271065,23.8348691 37.1908854,22.0264047 L37.1908854,21.4827154 C37.1809302,21.4131283 37.2212456,21.3461253 37.2873902,21.3223271 C37.3616188,21.2845411 37.4515659,21.297313 37.5123417,21.3542688 C38.3263868,21.9821936 38.8855152,22.8836553 39.0863223,23.8919387 C39.2395352,24.6527491 39.1841156,25.440835 38.9259339,26.1727154 L38.6364194,27.0398999 C38.3149631,27.9716474 37.9941864,28.9672785 37.6727301,29.9309678 C37.5878449,30.1788212 37.5658924,30.4438861 37.6088466,30.7023271 C37.7216803,31.2049462 38.1875685,31.5476218 38.7009825,31.505628 L46.6041864,31.505628 C47.0741902,31.4774799 47.5112362,31.74754 47.6963223,32.1804824 C47.828765,32.4866542 47.7921985,32.8397015 47.5998174,33.11223 C47.4124742,33.3950495 47.1031895,33.5734733 46.7645747,33.5940746 C46.3538071,33.5973461 45.9752818,33.8172266 45.7689436,34.1724241 C45.5862336,34.4938817 45.5985625,34.8905081 45.8008854,35.199997 C45.9794227,35.5161967 46.3056731,35.7207423 46.6680699,35.7436863 C46.934529,35.7531738 47.191954,35.8426923 47.4068077,36.0005795 C47.7122627,36.2463319 47.8389843,36.6522706 47.7275844,37.0281523 C47.632909,37.4014046 47.3338281,37.6880897 46.9569048,37.7668902 C46.8298867,37.867639 46.6680659,37.9138386 46.5070019,37.8953368 L46.5070019,37.8953368 Z M29.0301087,43.9350455 L29.0301087,44.4168902 C29.0301087,44.6737834 28.9981669,44.7057251 28.7405941,44.7057251 L24.6928271,44.7057251 C24.4998174,44.7057251 24.4678757,44.6418416 24.4678757,44.4488319 L24.4678757,31.9195115 C24.4678757,31.5980552 24.4998174,31.5661135 24.789332,31.5661135 L29.0301087,31.5661135 L29.0301087,43.9350455 L29.0301087,43.9350455 Z" id="color" fill="#000000" fill-rule="nonzero"></path>
        <path d="M29.6723417,45.2208707 C29.6723417,45.477764 29.6404,45.5097057 29.3835068,45.5097057 L25.3357398,45.5097057 C25.1434097,45.5097057 25.1107883,45.4458222 25.1107883,45.2528125 L25.1107883,32.7234921 C25.1107883,32.4020358 25.1427301,32.370094 25.4322446,32.370094 L29.6730213,32.370094 L29.6730213,44.7390261 L29.6723417,45.2208707 Z M25.9512942,41.642758 C25.7521546,41.8540247 25.6457704,42.1361545 25.6558368,42.4263076 C25.6725484,43.0224183 26.1518621,43.5017321 26.7479728,43.5184436 C27.1914249,43.5224418 27.5928735,43.2567428 27.7624835,42.846989 C27.9320935,42.4372351 27.8358768,41.9655368 27.519332,41.6549484 C27.3175731,41.4233738 27.023071,41.2938128 26.716031,41.3015504 C26.4257897,41.308634 26.1504338,41.4314914 25.9512942,41.642758 Z M65.9744776,30.9891232 C67.5165165,43.0359193 63.4687495,52.9983465 54.0534097,60.5773756 C47.6603029,65.6853368 40.0785553,67.8376669 31.500497,66.9704824 C28.8461388,66.7096708 26.2406822,66.0825499 23.7583611,65.1069873 C23.6349845,65.0420763 23.506018,64.9883971 23.3730213,64.9465989 L23.1800116,64.8827154 C23.2438951,65.0431038 23.3410796,65.2041717 23.4049631,65.3645601 C23.5952543,65.7498999 23.788264,66.1352397 23.9486524,66.4886377 C24.1465522,66.8130315 24.2003861,67.2051983 24.0972206,67.5709202 C23.994055,67.9366422 23.7432144,68.2428641 23.4049631,68.4160164 C23.1931748,68.5145727 22.9635927,68.569136 22.7301087,68.5764047 C22.2105223,68.5652994 21.7455477,68.2510627 21.5414679,67.7731038 C20.5132155,65.8131038 19.6779728,64.1752397 18.9392349,62.6970843 C18.7113829,62.2812252 18.6878171,61.783585 18.8753514,61.3480552 C19.093149,60.8985722 19.509387,60.57746 19.9994291,60.4808707 C21.7018563,60.0608707 23.4369048,59.6429096 25.1073902,59.2575698 L25.5572932,59.1610649 C25.8897903,59.0593305 26.2494199,59.0978882 26.5527928,59.2677975 C26.8561656,59.4377068 27.0769296,59.7242088 27.1638951,60.0608707 C27.4189432,60.7261046 27.0888935,61.4724359 26.4251572,61.7313562 C26.2002058,61.8271814 25.9433126,61.8917445 25.6864194,61.9882494 C25.312871,62.0879824 24.9477088,62.216823 24.5942835,62.3735892 L25.8474873,62.758929 C26.843798,63.0484436 27.8713708,63.3692203 28.8996233,63.56223 C37.6380699,65.2646572 45.5732155,63.4337834 52.4481669,58.1328125 C58.08973,53.8939812 61.8855848,47.6483401 63.0501087,40.6885407 C64.5933189,32.6049304 62.5540226,24.2493941 57.4603029,17.785628 C55.6200621,15.4100632 53.4068516,13.3485619 50.9068077,11.6813562 C50.8688,11.6221802 50.8124703,11.5770687 50.7464194,11.5529096 C50.6818563,11.4890261 50.5853514,11.4564047 50.5214679,11.3925212 C50.0780492,11.1278027 49.8156327,10.6411311 49.838117,10.1251946 C49.8606014,9.60925813 50.1643606,9.14726029 50.6291272,8.92212018 C51.0938937,8.69698007 51.644716,8.74500538 52.0635068,9.04718143 C53.9873957,10.3020417 55.7653699,11.7675028 57.3644776,13.4164047 C62.0866593,18.1693155 65.1124595,24.3448711 65.9744776,30.9891232 Z M16.146031,57.3315504 C16.2618832,57.440124 16.3695549,57.5571091 16.4681669,57.6815504 C16.7325421,57.8943551 16.9014454,58.2035538 16.9376503,58.540999 C16.9738552,58.8784443 16.8743899,59.2164366 16.6611767,59.4804824 C16.4464832,59.8476923 16.0580793,60.0787323 15.6329242,60.0921329 C15.3704357,60.0880347 15.1144111,60.0100732 14.8941864,59.8671814 C14.4352755,59.5644329 14.0050926,59.220241 13.6090407,58.838929 C8.35180835,54.0473419 4.87495447,47.6144913 3.74651646,40.5913562 C2.27661555,32.266762 4.32395886,23.7053234 9.40088539,16.9463076 C14.3082932,10.0847397 21.8045793,5.52441919 30.1541864,4.32116201 C34.2097568,3.68081591 38.3534927,3.87764105 42.3301087,4.89951152 C42.3946718,4.89951152 42.4266135,4.93145327 42.5231184,4.93145327 L42.5870019,4.93145327 C42.4585553,4.77038531 42.3620504,4.60999696 42.2655456,4.48155036 C41.976031,4.09621055 41.7510796,3.7428125 41.4941864,3.38941444 C41.2588641,3.09583317 41.1502922,2.72055031 41.1925144,2.34667356 C41.2347366,1.97279681 41.4242686,1.63117904 41.7191378,1.39747269 C42.0416481,1.1573385 42.4455253,1.05337978 42.8438951,1.10795813 C43.2299611,1.16293127 43.5774659,1.37148319 43.8075844,1.68630764 C45.2211767,3.58446298 46.2494291,5.06261832 47.2131184,6.44358919 C47.4896121,6.82342311 47.5728201,7.3106044 47.4380699,7.76067657 C47.2786664,8.23652757 46.9123447,8.6145935 46.4417592,8.788929 C44.6747689,9.46378337 42.8758368,10.1386377 41.2053514,10.7808707 C40.7286031,10.9948969 40.172719,10.928863 39.7593795,10.6091028 C39.3460401,10.2893425 39.1424833,9.76787119 39.2298854,9.252646 C39.3172876,8.73742082 39.6814309,8.31225342 40.177099,8.14669599 L40.3374873,8.08213288 C40.7409185,7.92834837 41.1279579,7.73460102 41.4928271,7.50378337 C41.1713708,7.47184162 40.8505941,7.40727852 40.5291378,7.34339502 C39.7258368,7.18300667 38.8905941,7.05456007 38.0872932,6.95805521 C27.3514038,5.72848882 16.8347588,10.6328769 10.8763223,19.647764 C7.29521245,24.8926843 5.63844711,31.2148047 6.1870019,37.5419387 C6.72735888,45.1328415 10.2501252,52.2013411 15.9856427,57.2031038 C16.0495262,57.2350455 16.0814679,57.2996086 16.146031,57.3315504 Z M13.1910796,48.2383465 C12.5874431,48.2243829 12.0664668,47.8117788 11.916735,47.2275874 C11.7670033,46.6433959 12.0252824,46.0310641 12.5481669,45.7305795 C13.2542835,45.3445601 14.0902058,44.8627154 14.9573902,44.4773756 C15.3784533,44.2716659 15.8755526,44.2960335 16.2744776,44.5419387 C16.6663276,44.7787458 16.9001083,45.2083827 16.8861281,45.6660164 C16.9044871,46.1755526 16.6299359,46.6507375 16.179332,46.8893174 L15.8578757,47.0497057 C15.1830213,47.4031038 14.4762252,47.7565018 13.7694291,48.1098999 C13.5895341,48.1979004 13.3913132,48.2419236 13.1910796,48.2383465 Z M55.2440893,21.6709678 C55.8601461,21.3908399 56.5884153,21.6102506 56.9471961,22.1840746 C57.1698379,22.4895128 57.2622257,22.870796 57.2040893,23.2442688 C57.1554544,23.4886911 57.01822,23.7065234 56.8187495,23.8559193 C56.1119534,24.337764 55.3732155,24.7550455 54.6664194,25.1730067 L53.991565,25.5583465 C53.9147648,25.606137 53.8249411,25.6287118 53.7346718,25.6229096 L53.7027301,25.6229096 C53.0758692,25.6224141 52.5195123,25.2212242 52.3210796,24.6265989 C52.1135737,24.0744494 52.3296315,23.4528544 52.834866,23.1484436 C53.7020504,22.570094 54.4727301,22.088929 55.2440893,21.6709678 Z M25.3663223,16.2109678 C25.459686,16.8298438 25.1120452,17.4308786 24.5290407,17.6585407 C24.3539347,17.7187961 24.170498,17.7513561 23.9853514,17.7550455 C23.5939721,17.7745184 23.2236241,17.5770691 23.0216621,17.2412591 C22.4785513,16.403457 21.9849873,15.5345576 21.5435068,14.6390261 C21.3959007,14.3501898 21.3728202,14.0135579 21.4796233,13.7072785 C21.5936053,13.3788201 21.8376394,13.1116852 22.1544776,12.9685407 C22.8024935,12.6335954 23.599383,12.8744385 23.9534097,13.51223 C24.4352543,14.3474727 24.8205941,14.9890261 25.1420504,15.6006766 C25.2281865,15.7515994 25.2929164,15.9137674 25.3343805,16.0825212 C25.3343805,16.1470843 25.3663223,16.1790261 25.3663223,16.2109678 Z M45.7988466,13.3837834 L45.8002058,13.3865018 C45.9804283,13.1059489 46.2663986,12.9101534 46.5931415,12.8436017 C46.9198845,12.7770501 47.2596551,12.8453935 47.5352543,13.0331038 C48.1368609,13.3352754 48.3922341,14.0587825 48.1136038,14.6716474 C47.6785385,15.5705636 47.1847518,16.4398553 46.6354485,17.2738805 C46.4645144,17.4561734 46.2557434,17.5988335 46.023798,17.6918416 C45.9279728,17.7557251 45.8314679,17.7876669 45.7349631,17.85223 L45.7030213,17.85223 C45.1774234,17.810734 44.7016918,17.5251944 44.4178757,17.0808707 C44.1977088,16.7057453 44.1853928,16.243896 44.3852543,15.8575698 C44.8002237,15.0020913 45.2724958,14.1756153 45.7988466,13.3837834 Z M59.3244776,36.1290261 C59.1322736,36.1233041 58.2544419,36.16544 56.6909825,36.2554339 C55.9677326,36.2705902 55.3639154,35.7071081 55.3291127,34.9845371 C55.29431,34.2619661 55.8411773,33.6430611 56.5625359,33.5886377 C57.4942835,33.5240746 58.426031,33.4921329 59.2932155,33.4921329 C59.6318621,33.4976903 59.954768,33.6360785 60.1923417,33.8774727 C60.4547088,34.1539142 60.5937511,34.5249388 60.5776815,34.9057251 C60.5930494,35.2399348 60.464893,35.5647878 60.2254823,35.7984859 C59.9860715,36.0321841 59.6582188,36.1524592 59.3244776,36.1290261 Z M10.332633,36.0964047 C9.60522569,36.0875843 9.02269599,35.4907537 9.03151646,34.7633465 C9.04033693,34.0359392 9.63716744,33.4534095 10.3645747,33.46223 C11.2637009,33.46223 12.1635068,33.4948513 13.0306912,33.5587348 C13.383352,33.5664998 13.7173178,33.7188807 13.9543062,33.9801591 C14.1912946,34.2414376 14.3104692,34.5886414 14.2838951,34.9403853 C14.2627836,35.6662504 13.6609011,36.2396307 12.934866,36.2255309 L10.332633,36.0964047 Z M16.4681669,25.3673756 C16.4042835,25.3673756 16.3077786,25.3993174 16.2112737,25.3993174 C16.1467106,25.3993174 16.1147689,25.4312591 16.0502058,25.4312591 C15.9863223,25.4312591 15.9217592,25.3993174 15.8578757,25.3993174 C15.688964,25.3750902 15.525766,25.3207676 15.376031,25.238929 C14.5734097,24.7890261 13.8339922,24.3398028 13.1917592,23.9218416 C12.869952,23.7156376 12.6399487,23.3933897 12.5495262,23.0220358 C12.4568635,22.7033142 12.5160154,22.3596819 12.7099145,22.0902882 C12.9054968,21.7822315 13.2180717,21.5670813 13.5756561,21.4943849 C13.9332406,21.4216884 14.3050107,21.4977121 14.6053514,21.7049484 C15.3121475,22.1229096 16.0508854,22.5721329 16.7576815,23.0220358 C17.2096846,23.283263 17.4623539,23.788869 17.3999145,24.3071814 C17.3730724,24.8340131 16.9871881,25.2730936 16.4681669,25.3673756 Z M57.1395262,45.9276669 C57.659285,46.2514434 57.8860349,46.8916452 57.6859339,47.4703853 C57.4598909,48.0415373 56.8839186,48.3948742 56.2723417,48.3375698 C56.045941,48.211248 55.8095477,48.1037345 55.5655456,48.0161135 C54.6472485,47.6796819 53.7979161,47.1787876 53.0591378,46.5379581 C52.6574018,46.0902009 52.6574018,45.4117347 53.0591378,44.9639775 C53.4073012,44.4340153 54.0929796,44.2420022 54.6657398,44.5140746 C55.5329242,44.9639775 56.3688466,45.4458222 57.1395262,45.9276669 Z M21.9934097,53.0914533 C22.2821249,52.6078739 22.8715588,52.3936374 23.4049631,52.5776669 C24.0097709,52.7755612 24.4054489,53.3559634 24.3686524,53.9912591 L24.3686524,54.0232008 C24.3686524,54.0558222 24.336031,54.087764 24.336031,54.1197057 C24.2937311,54.2780872 24.2289634,54.4295933 24.1437009,54.5696086 C23.7257398,55.2437834 23.3084582,55.9505795 22.8585553,56.6254339 C22.5947735,57.069922 22.1219835,57.3486219 21.6053514,57.3641717 C21.3673725,57.3607151 21.1345439,57.2943602 20.930497,57.1718416 C20.6072229,56.9710216 20.3864324,56.6403682 20.3248384,56.2648139 C20.2632443,55.8892596 20.3668492,55.5054027 20.6090407,55.2118416 L20.7701087,54.9549484 C21.1581669,54.3446572 21.5754485,53.7031038 21.9934097,53.0914533 Z M36.1619534,10.9419387 L36.1619534,13.6726183 C36.1579844,14.0149435 36.0158526,14.3411387 35.7678358,14.5771258 C35.519819,14.8131129 35.1869656,14.9388643 34.844866,14.9258222 C34.1363229,14.9402996 33.5485184,14.3810058 33.5277786,13.6726183 C33.4958368,12.7408707 33.4958368,11.8417445 33.5277786,10.9419387 C33.5319294,10.5997322 33.6741408,10.2737133 33.9221371,10.0378736 C34.1701335,9.80203397 34.5028828,9.67637456 34.844866,9.68941444 C35.1868492,9.67637456 35.5195985,9.80203397 35.7675948,10.0378736 C36.0155912,10.2737133 36.1578025,10.5997322 36.1619534,10.9419387 Z M46.7951572,52.5769873 L46.7978757,52.5763076 C47.0931712,52.6016163 47.362833,52.7541848 47.5366135,52.9942688 C48.0055911,53.6198272 48.4348178,54.2742221 48.8217592,54.9535892 C48.9502058,55.1785407 49.0786524,55.3715504 49.207099,55.5965018 C49.2547795,55.6733261 49.2771256,55.763186 49.2709825,55.853395 L49.2709825,55.9179581 C49.3201012,56.4854275 48.9946942,57.0189628 48.4676815,57.2350455 C48.2694447,57.2962235 48.0634739,57.3287211 47.856031,57.3315504 C47.4680076,57.3366373 47.1043778,57.1427698 46.8923417,56.817764 C46.410497,56.1109678 45.9279728,55.3396086 45.4141864,54.4724241 C45.0982143,53.898753 45.2641896,53.1792339 45.7995262,52.8019387 C46.0882127,52.5973786 46.4465666,52.5164127 46.7951572,52.5769873 Z M34.8129242,61.1876669 C34.4624416,61.1915278 34.1251873,61.0540038 33.8773436,60.8061601 C33.6295,60.5583164 33.4919759,60.2210621 33.4958368,59.8705795 C33.4638951,59.0027154 33.4638951,58.1035892 33.4958368,57.2037834 C33.4930628,56.8565104 33.6319964,56.5231175 33.8805589,56.2805832 C34.1291213,56.0380488 34.4658239,55.9073404 34.8129242,55.9186377 L34.844866,55.9186377 C35.5599796,55.9184274 36.1446106,56.48888 36.1619534,57.2037834 L36.1619534,59.9025212 C36.1570474,60.2530105 36.0112618,60.5867705 35.7574679,60.828546 C35.5036739,61.0703215 35.1632392,61.1997567 34.8129242,61.1876669 Z" id="fill" fill="#000000" fill-rule="nonzero" opacity="0.3"></path>
    </g>
</svg>
