<?xml version="1.0" encoding="UTF-8"?>
<svg width="70px" height="70px" viewBox="0 0 70 70" version="1.1" xmlns="http://www.w3.org/2000/svg" xmlns:xlink="http://www.w3.org/1999/xlink">
    <!-- Generator: Sketch 53.2 (72643) - https://sketchapp.com -->
    <title>pack2_security</title>
    <desc>Created with Sketch.</desc>
    <g id="pack2_security" stroke="none" stroke-width="1" fill="none" fill-rule="evenodd">
        <path d="M26.115688,27.7186584 L26.115688,16.8806233 L26.1175074,16.8101129 C26.422874,10.8969727 29.5805327,7.70698547 35.2102124,7.70698547 C40.8497547,7.70698547 43.9637933,10.9118721 44.162563,16.8806233 L44.162563,27.7186584 L48.2378661,27.7186584 L48.2385412,17.047783 C47.9356398,8.45240836 43.7592608,4.375 35.2734375,4.375 C26.7897161,4.375 22.5192031,8.45604204 22.0405579,17.0372705 L22.0405579,27.7186584 L26.115688,27.7186584 Z M28.850063,27.7186584 L41.4283638,27.7186584 L41.4289513,16.9263024 C41.2790015,12.4407741 39.3362648,10.4413605 35.2102124,10.4413605 C31.0848959,10.4413605 29.0906312,12.4453631 28.850063,16.916623 L28.850063,27.7186584 L28.850063,27.7186584 Z M19.3061829,27.7186584 L19.3061829,16.9996332 L19.3082042,16.9253153 C19.8552849,6.87583419 25.3180769,1.640625 35.2734375,1.640625 C45.2387751,1.640625 50.6166915,6.89109709 50.9720681,16.9996332 L50.9720681,27.7186584 L56.875,27.7186584 C58.3851536,27.7186584 59.609375,28.9428798 59.609375,30.4530334 L59.609375,65.9999084 C59.609375,67.5100621 58.3851536,68.7342834 56.875,68.7342834 L13.125,68.7342834 C11.6148464,68.7342834 10.390625,67.5100621 10.390625,65.9999084 L10.390625,30.4530334 C10.390625,28.9428798 11.6148464,27.7186584 13.125,27.7186584 L19.3061829,27.7186584 Z M13.671875,30.9999084 L13.671875,65.4530334 L56.328125,65.4530334 L56.328125,30.9999084 L13.671875,30.9999084 Z M35,58.8905334 C29.2614163,58.8905334 24.609375,54.2384922 24.609375,48.4999084 C24.609375,42.7613247 29.2614163,38.1092834 35,38.1092834 C40.7385837,38.1092834 45.390625,42.7613247 45.390625,48.4999084 C45.390625,54.2384922 40.7385837,58.8905334 35,58.8905334 Z M35,56.1799356 C39.2415619,56.1799356 42.6800272,52.7414703 42.6800272,48.4999084 C42.6800272,44.2583466 39.2415619,40.8198813 35,40.8198813 C30.7584381,40.8198813 27.3199728,44.2583466 27.3199728,48.4999084 C27.3199728,52.7414703 30.7584381,56.1799356 35,56.1799356 Z" id="color" fill="#000000" fill-rule="nonzero"></path>
        <path d="M29.8994316,54.1473519 C28.6522442,52.7925101 27.890625,50.9837316 27.890625,48.9970675 C27.890625,44.7960948 31.2961863,41.3905334 35.4971591,41.3905334 C37.4838232,41.3905334 39.2926016,42.1521526 40.6474434,43.39934 C41.8946308,44.7541818 42.65625,46.5629603 42.65625,48.5496244 C42.65625,52.7505971 39.2506887,56.1561584 35.0497159,56.1561584 C33.0630518,56.1561584 31.2542734,55.3945393 29.8994316,54.1473519 L29.8994316,54.1473519 Z M30.4703395,49.6235125 L31.1836295,50.3767977 C31.7480625,50.9722223 32.3390935,51.5829784 32.924255,52.174315 C33.1225287,52.3917596 33.4185689,52.5136928 33.7328431,52.5073566 C33.7768372,52.4980054 33.8254322,52.5086612 33.8704262,52.4990975 C34.071098,52.4540434 34.2518209,52.348396 34.3832214,52.1993265 C36.2117392,50.0641368 38.0389238,47.9292303 39.8421767,45.7784257 C40.0159592,45.5928682 40.1060492,45.3546002 40.0930399,45.1149476 C40.0592462,44.899232 39.9357683,44.7069238 39.7483167,44.5780653 C39.5552693,44.4432647 39.3074798,44.3895268 39.0630582,44.429454 C38.8186367,44.4693811 38.5990846,44.599461 38.4558899,44.7891881 C38.2520531,45.0232879 38.029905,45.2794034 37.8258095,45.5122863 C37.7326265,45.616351 37.6439697,45.7417105 37.5284663,45.8489298 L33.6673353,50.3521923 C33.6104088,50.3007014 33.5792745,50.2656672 33.522746,50.2144096 C33.3170919,50.0056666 33.1377024,49.8123258 32.931715,49.6036536 C32.5204067,49.1861674 32.1044328,48.74837 31.6707942,48.3356304 C31.5230814,48.1677015 31.3034254,48.0668983 31.0649762,48.0576121 C30.8265269,48.048326 30.5910095,48.1314029 30.4154119,48.2867409 C30.0314365,48.5950665 29.9608984,49.1153155 30.2538349,49.478441 C30.3358289,49.5134355 30.4092923,49.5626605 30.4703395,49.6235125 L30.4703395,49.6235125 Z" id="fill" fill="#000000" fill-rule="nonzero" opacity="0.3"></path>
    </g>
</svg>