<?xml version="1.0" encoding="UTF-8"?>
<svg width="70px" height="70px" viewBox="0 0 70 70" version="1.1" xmlns="http://www.w3.org/2000/svg" xmlns:xlink="http://www.w3.org/1999/xlink">
    <!-- Generator: Sketch 53.2 (72643) - https://sketchapp.com -->
    <title>pack2_support</title>
    <desc>Created with Sketch.</desc>
    <g id="pack2_support" stroke="none" stroke-width="1" fill="none" fill-rule="evenodd">
        <path d="M67.9813127,35.4493932 C67.7891087,35.4436712 66.911277,35.4858071 65.3478176,35.575801 C64.6245677,35.5909574 64.0207506,35.0274752 63.9859478,34.3049042 C63.9511451,33.5823333 64.4980124,32.9634282 65.219371,32.9090049 C66.1511186,32.8444417 67.0828661,32.8125 67.9500506,32.8125 C68.2886972,32.8180574 68.6116031,32.9564456 68.8491768,33.1978398 C69.1115439,33.4742813 69.2505862,33.845306 69.2345166,34.2260922 C69.2498845,34.560302 69.1217281,34.8851549 68.8823174,35.1188531 C68.6429067,35.3525512 68.315054,35.4728263 67.9813127,35.4493932 Z M2.39496536,35.4467736 C1.66755809,35.4379531 1.08502839,34.8411226 1.09384886,34.1137154 C1.10266933,33.3863081 1.69949984,32.8037784 2.42690711,32.8125989 C3.32603333,32.8125989 4.22583915,32.8452202 5.09302362,32.9091037 C5.44568442,32.9168687 5.7796502,33.0692496 6.01663862,33.330528 C6.25362703,33.5918065 6.37280159,33.9390103 6.3462275,34.2907542 C6.32511604,35.0166193 5.72323354,35.5899996 4.99719837,35.5758998 L2.39496536,35.4467736 Z M36.4274108,2.34719672 L36.4274108,5.07787633 C36.4234418,5.42020148 36.28131,5.74639671 36.0332932,5.98238382 C35.7852764,6.21837094 35.452423,6.34412235 35.1103234,6.33108021 C34.4017803,6.34555757 33.8139758,5.78626378 33.793236,5.07787633 C33.7612942,4.14612876 33.7612942,3.24700254 33.793236,2.34719672 C33.7973868,2.00499019 33.9395982,1.6789713 34.1875945,1.44313164 C34.4355909,1.20729198 34.7683402,1.08163257 35.1103234,1.09467245 C35.4523066,1.08163257 35.7850559,1.20729198 36.0330522,1.44313164 C36.2810486,1.6789713 36.4232599,2.00499019 36.4274108,2.34719672 Z M35.0783816,68.9991749 C34.727899,69.0030358 34.3906447,68.8655118 34.142801,68.6176681 C33.8949574,68.3698244 33.7574333,68.0325701 33.7612942,67.6820875 C33.7293525,66.8142234 33.7293525,65.9150972 33.7612942,65.0152914 C33.7585202,64.6680184 33.8974538,64.3346256 34.1460163,64.0920912 C34.3945787,63.8495568 34.7312813,63.7188484 35.0783816,63.7301457 L35.1103234,63.7301457 C35.825437,63.7299354 36.410068,64.300388 36.4274108,65.0152914 L36.4274108,67.7140292 C36.4225048,68.0645185 36.2767192,68.3982785 36.0229253,68.640054 C35.7691313,68.8818295 35.4286966,69.0112647 35.0783816,68.9991749 Z M63.3834571,51.8037392 C63.2198646,51.7026818 62.438572,51.3002567 61.0395796,50.596464 C60.4056486,50.2479649 60.1644687,49.4580664 60.4956141,48.8149002 C60.8267596,48.171734 61.6098131,47.9091802 62.2617396,48.2227275 C63.1009382,48.632688 63.9238262,49.0708994 64.6748299,49.5044916 C64.9653278,49.6786278 65.1757784,49.9599284 65.2608262,50.2877688 C65.349822,50.6583577 65.2847238,51.0491956 65.080414,51.3709314 C64.9266181,51.6680495 64.653205,51.8853022 64.3290201,51.9679854 C64.0048353,52.0506685 63.660769,51.9909035 63.3834571,51.8037392 Z M6.58532398,19.0082969 C5.95978103,18.6369545 5.75371077,17.8288193 6.12505316,17.2032763 C6.49639554,16.5777334 7.30453078,16.3716631 7.93007372,16.7430055 C8.70873986,17.1925686 9.47168389,17.6707225 10.1907459,18.1596394 C10.4922767,18.3426945 10.705309,18.6416431 10.7799078,18.9864111 C10.8545066,19.3311791 10.7841128,19.6914537 10.5852271,19.9827858 C10.2040115,20.6008477 9.39607579,20.7964683 8.77436076,20.42124 L6.58532398,19.0082969 Z M51.2244244,63.6680905 C51.1332778,63.4987759 50.6578711,62.7596193 49.7982045,61.4506207 C49.4234538,60.8318462 49.609535,60.0271841 50.2178985,59.6357585 C50.8262619,59.244333 51.6356831,59.4084815 52.0434944,60.0059846 C52.5652815,60.7806201 53.0588176,61.5715663 53.4924098,62.3225701 C53.6569203,62.6186254 53.6985255,62.9674642 53.6082589,63.2939062 C53.5000371,63.6593435 53.2482415,63.96527 52.9104361,64.1417464 C52.6286859,64.3221602 52.2832768,64.3736001 51.9611829,64.2831134 C51.639089,64.1926266 51.3710013,63.9688355 51.2244244,63.6680905 Z M18.4335193,6.86733775 C18.0774545,6.23297434 18.30306,5.43007356 18.9374234,5.07400868 C19.5717868,4.71794379 20.3746876,4.94354933 20.7307525,5.57791274 C21.1803156,6.35657888 21.6019676,7.15214426 21.9802351,7.93508979 C22.1498408,8.24438548 22.184858,8.60979878 22.0770784,8.945676 C21.9692988,9.28155322 21.7281988,9.55836333 21.4102926,9.71122143 C20.7711192,10.0558709 19.9736161,9.82131552 19.6228093,9.18550075 L18.4335193,6.86733775 Z M27.0094334,54.9363839 C26.243865,54.4969853 25.8540342,53.6099525 26.0480557,52.7488359 C26.2474024,50.8930309 26.4128978,49.0041268 26.5783932,47.1821731 C26.7107895,45.4918635 26.8792939,43.769207 27.0425325,42.0788974 C27.0371362,42.1575974 27.0484151,42.23655 27.0756316,42.310591 C27.1418297,43.1380678 27.2411269,44.0009006 27.3080773,44.8291297 C27.3750277,45.6573589 27.4404736,46.4840835 27.5066718,47.2814704 C27.6390681,49.1372754 27.8075725,51.0592785 28.0039102,52.9481826 C28.0923459,53.7488344 27.7031402,54.5269514 27.0094334,54.9363839 L27.0094334,54.9363839 Z M23.9936562,40.4224391 L24.9211826,40.4224391 L24.7887863,41.9803524 C24.6894891,43.0741265 24.6232909,44.1671482 24.5232414,45.2609222 L24.4239442,46.6194888 C24.2233438,49.0718295 24.0244986,51.5241701 23.8274086,53.9765107 C23.7670252,54.4827483 23.9517382,54.9874256 24.324647,55.3350773 L25.418421,56.4288514 C25.750164,56.7598421 26.0480557,57.0915851 26.3797987,57.3894768 C26.6302094,57.6886545 27.0003043,57.8615109 27.3904489,57.8615109 C27.7805935,57.8615109 28.1506884,57.6886545 28.4010991,57.3894768 C28.666644,57.1246842 28.9314366,56.8629006 29.1962292,56.6274458 L30.2900032,55.5336718 C30.7845228,55.079023 31.0205377,54.4081992 30.9196379,53.7440649 C30.6187372,50.2310494 30.3231023,46.685687 30.0252106,43.2388696 L29.8597152,41.151371 L29.8597152,40.5217363 C30.2569041,40.5217363 30.6871921,40.5217363 31.0858855,40.4886373 C32.0360957,40.4277248 32.9898095,40.4498749 33.9361673,40.5548354 C39.3448573,41.1450817 43.4583314,45.6857032 43.513084,51.1262289 C43.5792822,52.8496376 43.5792822,54.6053932 43.5461831,56.2957028 L43.5461831,58.552458 C43.5513639,58.6203584 43.5400065,58.6885026 43.513084,58.7510524 L43.513084,58.7841515 L39.1056412,58.7841515 L39.1056412,52.6532999 C39.1112468,52.442877 39.1001792,52.2323406 39.0725421,52.0236652 C39.0472616,51.7006313 38.8918416,51.4017247 38.6419243,51.1954933 C38.392007,50.9892619 38.0690348,50.8933999 37.7470746,50.9298912 C37.0810394,50.9800643 36.5785841,51.555543 36.618697,52.2222597 L36.618697,58.7172011 L18.1937954,58.7172011 L18.1937954,52.6525477 C18.1986503,52.4201199 18.1875914,52.1876324 18.1606963,51.9567148 C18.1339849,51.636744 17.9768403,51.341846 17.7261437,51.1412318 C17.4754472,50.9406176 17.1532711,50.8519504 16.8352288,50.8960399 C16.1989458,50.9680725 15.7237161,51.5152077 15.7414548,52.1553093 L15.7414548,58.7164489 L11.3340119,58.7164489 C11.3340119,57.8551206 11.3009128,56.9930402 11.2678138,56.164811 C11.0626214,53.6974004 11.1738541,51.2138776 11.5988045,48.77469 C12.7445107,43.8668681 17.1304691,40.4025446 22.170198,40.4246959 L23.9936562,40.4224391 Z M45.0032947,23.4554014 C45.0619091,23.0447814 44.9237987,22.6305253 44.6305033,22.3372299 C44.3372079,22.0439345 43.9229518,21.9058241 43.5123318,21.9644385 L40.5958518,21.9644385 C40.1776571,22.0167139 39.7587583,21.8729293 39.4608221,21.5748461 C39.1628859,21.2767628 39.0193081,20.8577932 39.0717898,20.4396242 L39.0717898,12.0896301 C39.0164331,11.6945449 39.1473011,11.2961111 39.4261399,11.0107945 C39.7049787,10.7254779 40.1003026,10.5854958 40.4965546,10.6317662 L58.3580196,10.6317662 C58.7573642,10.5842079 59.1564598,10.7224406 59.4408344,11.0068153 C59.7252091,11.2911899 59.8634418,11.6902855 59.8158835,12.0896301 L59.8158835,20.5065747 C59.8672279,20.9128188 59.7253897,21.3196679 59.4326149,21.6059431 C59.1398402,21.8922183 58.7299098,22.0248886 58.3249205,21.9644385 L56.3036201,21.9644385 C54.1499235,21.9644385 51.9292764,21.9644385 49.7093815,21.9313394 C48.94163,21.8652786 48.1891092,22.1733444 47.6880811,22.7588163 C47.0915455,23.4546492 46.4950099,24.1173829 45.8984743,24.7801167 C45.6667807,25.0456616 45.4343349,25.3104542 45.1695423,25.5752468 L44.9378488,25.4428505 L44.9378488,24.8794139 C44.9929415,24.4066032 45.0150609,23.9305314 45.004047,23.4546492 L45.0032947,23.4554014 Z M53.4209915,16.8905006 C54.089612,16.8869182 54.6406127,16.3648829 54.6802609,15.6974294 C54.6932703,15.3622915 54.5704291,15.036095 54.3395856,14.7927887 C54.1087421,14.5494825 53.7894491,14.4096751 53.4540906,14.4050609 C52.7811197,14.4151521 52.2380115,14.9582603 52.2279203,15.6312312 C52.2127741,15.9581568 52.3314118,16.277154 52.5565022,16.5147336 C52.7815926,16.7523133 53.0937249,16.8879876 53.4209915,16.8905006 L53.4209915,16.8905006 Z M48.7811029,16.8935096 C49.4540738,16.8834184 49.997182,16.3403102 50.0072732,15.6673393 C50.0080748,15.3418936 49.8791468,15.0295465 49.6490213,14.7994209 C49.4188957,14.5692954 49.1065485,14.4403674 48.7811029,14.441169 C48.4381658,14.4475501 48.1089593,14.5770433 47.8535765,14.8060111 C47.6164813,15.0405846 47.4953069,15.3680308 47.5225857,15.7004384 C47.584207,16.3571365 48.1220524,16.8670126 48.7811029,16.8935096 L48.7811029,16.8935096 Z M45.3681368,15.7011906 C45.3820564,15.3776925 45.2619504,15.0627731 45.0361448,14.8307029 C44.8103391,14.5986328 44.4988234,14.4699562 44.1750656,14.4750203 C43.5119941,14.4976001 42.9835957,15.0370552 42.9747504,15.7004521 C42.9659051,16.363849 43.4797327,16.9172005 44.1419665,16.957451 C44.8044146,16.8980618 45.324822,16.3648836 45.3681368,15.7011906 L45.3681368,15.7011906 Z" id="fill" fill="#000000" fill-rule="nonzero" opacity="0.3"></path>
        <path d="M33.1618003,37.9321376 C38.8526851,37.9321376 45.4907898,43.691711 45.4907898,50.7835339 L45.4907898,58.6871127 C45.4907898,60.3829466 44.6925941,61.2308636 43.0962026,61.2308636 L10.2682788,61.2308636 C8.83069475,61.2308636 8.11190271,60.3829466 8.11190271,58.6871127 L8.11190271,50.7835339 C8.11190271,42.0273127 16.8243973,37.9321376 20.2381156,37.9321376 C17.7583551,35.7920226 16.4832342,32.5735928 16.8243973,29.3158463 C17.0422626,26.8639019 18.2071918,24.5934098 20.071868,22.9864003 C23.8079369,19.6364771 29.4584077,19.6080454 33.2279984,22.9202022 C35.4216065,24.8112797 36.6604465,27.5800622 36.6086177,30.4758185 C36.5905679,33.3424384 35.3337691,36.0612054 33.1618003,37.9321376 Z M25.8055306,52.5461319 C25.6112539,53.4072731 26.0011492,54.2944527 26.7669083,54.7336799 C27.4833819,54.3458861 27.8807902,53.5513699 27.7613851,52.7454786 C27.5650474,50.8565745 27.396543,48.9345714 27.2641467,47.0787664 C27.1979486,46.2813795 27.1325027,45.4546549 27.0655523,44.6264257 C26.9986019,43.7981966 26.8993046,42.9353639 26.8331065,42.107887 C26.80589,42.033846 26.7946111,41.9548934 26.8000074,41.8761934 C26.6367688,43.5665031 26.4682644,45.2891595 26.3358681,46.9794691 C26.1703727,48.8014228 26.0048773,50.6903269 25.8055306,52.5461319 Z M23.4201404,40.4175773 L21.5974345,40.4220908 C16.5577055,40.3999396 12.1717471,43.8642631 11.026041,48.772085 C10.6010197,51.21126 10.4895353,53.6947599 10.6942979,56.162206 C10.727397,56.9904351 10.7604961,57.8517633 10.7604961,58.7138438 L15.167939,58.7138438 L15.167939,52.151952 C15.1498374,51.5117206 15.6252506,50.9643741 16.261713,50.8926826 C16.5797553,50.8485931 16.9019313,50.9372604 17.1526279,51.1378745 C17.4033245,51.3384887 17.560469,51.6333868 17.5871805,51.9533576 C17.613987,52.1842823 17.6250456,52.4167638 17.6202796,52.6491904 L17.6202796,58.7138438 L36.0459334,58.7138438 L36.0459334,52.2181502 C36.0058206,51.5514335 36.5082758,50.9759547 37.174311,50.9257817 C37.4962713,50.8892904 37.8192434,50.9851523 38.0691607,51.1913837 C38.319078,51.3976151 38.474498,51.6965217 38.4997785,52.0195557 C38.5274156,52.2282311 38.5384832,52.4387675 38.5328776,52.6491904 L38.5328776,58.780042 L42.9403205,58.780042 L42.9403205,58.7469429 C42.9673637,58.6841636 42.9787235,58.6157464 42.9734195,58.5475962 L42.9734195,56.290841 C43.0065186,54.6005314 43.0065186,52.8447759 42.9403205,51.1213671 C42.8855679,45.6808414 38.7720938,41.1402199 33.3634037,40.5499736 C32.4170401,40.445101 31.4633339,40.4229511 30.5131219,40.4837755 C30.1144285,40.5168746 29.6848928,40.5168746 29.2869516,40.5168746 L29.2869516,41.1465092 L29.452447,43.2340078 C29.7503387,46.6808252 30.0459736,50.2269398 30.3468743,53.7392032 C30.4479109,54.4033503 30.2118739,55.0742368 29.7172396,55.52881 L28.6234656,56.622584 C28.3549117,56.8580388 28.0931281,57.1198224 27.8283355,57.384615 C27.5779248,57.6837927 27.2078299,57.8566491 26.8176853,57.8566491 C26.4275408,57.8566491 26.0574458,57.6837927 25.8070351,57.384615 C25.4760444,57.0859711 25.1774004,56.7549803 24.8464097,56.4232373 L23.7526357,55.3294633 C23.3799353,54.9816734 23.1952622,54.4771053 23.2553973,53.9708967 C23.4524872,51.5185561 23.6513324,49.0662154 23.8519329,46.6138748 L23.9512301,45.2553082 C24.0505274,44.1622864 24.1167255,43.0685124 24.2160227,41.9747384 L24.348419,40.4175773 L23.4201404,40.4175773 Z M26.7676606,22.9533012 C26.733057,22.9533012 26.6999579,22.9533012 26.7345615,22.9856481 C22.6467144,23.0321243 19.3544614,26.3538681 19.3444405,30.4419672 C19.3141729,32.4201851 20.0798277,34.3276454 21.4694359,35.735925 C22.859044,37.1442046 24.7561158,37.9352486 26.7345615,37.9313854 C30.8370644,37.9070068 34.1516549,34.577637 34.1577816,30.4750663 C34.1676226,28.4506966 33.3684526,26.5062573 31.9378867,25.0738989 C30.5607832,23.7140561 28.7030119,22.9520806 26.7676606,22.9533012 L26.7676606,22.9533012 Z M61.7940055,11.7530253 C61.7940055,14.573217 61.7940055,17.286589 61.7601542,19.9081862 C61.8401621,21.0117183 61.4365235,22.0955291 60.6541603,22.8778923 C59.8717972,23.6602554 58.7879864,24.0638941 57.6844543,23.9838861 L55.5638567,23.9838861 C53.5749031,23.9838861 51.5536027,23.9838861 49.5323023,24.0169852 C49.2025363,24.0386136 48.8886854,24.1666352 48.637875,24.3818273 C47.5448533,25.4094031 46.4510793,26.5024249 45.3904043,27.5300007 C44.9924632,27.9279419 44.5952743,28.2920317 44.1973331,28.6899729 C43.939705,28.9967271 43.5692221,29.1865792 43.1697572,29.2165491 C43.0463513,29.2077611 42.9242688,29.1855643 42.8056674,29.150351 C42.2322069,28.9748046 41.8594222,28.4223684 41.9112401,27.8248834 L41.9112401,23.947778 L39.9553856,23.947778 C38.9264336,23.9879952 37.9253099,23.6083656 37.1817392,22.8960017 C36.4381686,22.1836378 36.0159909,21.1997001 36.0120821,20.1699699 C35.9458839,17.2873412 35.9458839,14.4039604 36.0120821,11.2557869 C36.0951935,9.25236261 37.7190966,7.65742248 39.7236921,7.61037502 C40.784367,7.57727594 41.878141,7.57727594 42.9049646,7.57727594 L57.6182562,7.57727594 C58.7494345,7.49314574 59.8611404,7.90599492 60.6632134,8.70806798 C61.4652865,9.51014104 61.8781357,10.6218469 61.7940055,11.7530253 Z M44.4297789,22.9209544 L44.4297789,22.9202022 C44.4408856,23.3960855 44.4187658,23.8721637 44.3635807,24.3449669 L44.3635807,24.9084035 L44.5960265,25.0407998 C44.8608191,24.7760072 45.0932649,24.5112146 45.3249584,24.2456697 C45.9214941,23.5829359 46.5180297,22.9202022 47.1145653,22.2243693 C47.6156683,21.6390012 48.3681335,21.3309582 49.1358657,21.3968924 C51.3557605,21.4299915 53.5756554,21.4299915 55.7301043,21.4299915 L57.7514047,21.4299915 C58.156394,21.4904416 58.5663244,21.3577713 58.8590991,21.0714961 C59.1518739,20.7852209 59.2937121,20.3783718 59.2423676,19.9721276 L59.2423676,11.5551831 C59.2902296,11.1557691 59.1520959,10.7564887 58.8676471,10.4720398 C58.5831982,10.1875909 58.1839178,10.0494572 57.7845038,10.0973192 L39.9230388,10.0973192 C39.5266643,10.0507943 39.1311166,10.1906639 38.8520968,10.476015 C38.5730771,10.7613661 38.4421163,11.1599521 38.4975218,11.5551831 L38.4975218,19.9051772 C38.4449915,20.3234935 38.5886628,20.7426157 38.8867802,21.0407331 C39.1848976,21.3388504 39.6040198,21.4825218 40.022336,21.4299915 L42.938816,21.4299915 C43.3494359,21.3713771 43.763692,21.5094875 44.0569875,21.8027829 C44.3502829,22.0960783 44.4883933,22.5103344 44.4297789,22.9209544 Z" id="color" fill="#000000" fill-rule="nonzero"></path>
    </g>
</svg>
