<?xml version="1.0" encoding="UTF-8"?>
<svg width="70px" height="70px" viewBox="0 0 70 70" version="1.1" xmlns="http://www.w3.org/2000/svg" xmlns:xlink="http://www.w3.org/1999/xlink">
    <!-- Generator: Sketch 53.2 (72643) - https://sketchapp.com -->
    <title>pack2_trust</title>
    <desc>Created with Sketch.</desc>
    <g id="pack2_trust" stroke="none" stroke-width="1" fill="none" fill-rule="evenodd">
        <path d="M35.5654481,19.9609375 L42.3157944,23.5098045 L41.026593,15.9931835 L46.4877378,10.669883 L38.9406212,9.57322273 L35.5654481,2.734375 L32.190275,9.57322273 L24.6431584,10.669883 L30.1043033,15.9931835 L28.8151019,23.5098045 L35.5654481,19.9609375 Z M29.8330356,25.4460295 C28.2282257,26.289728 26.3525922,24.9270006 26.6590836,23.1400185 L27.753877,16.7568833 L23.1162579,12.2363219 C21.8179394,10.9707741 22.5343676,8.76583478 24.3285996,8.50511761 L30.7376317,7.57383074 L33.6038379,1.76626251 C34.4062429,0.140412498 36.7246533,0.140412498 37.5270583,1.76626251 L40.3932646,7.57383074 L46.8022966,8.50511761 C48.5965286,8.76583478 49.3129568,10.9707741 48.0146384,12.2363219 L43.3770192,16.7568833 L44.4718126,23.1400185 C44.778304,24.9270006 42.9026706,26.289728 41.2978607,25.4460295 L35.5654481,22.4323219 L29.8330356,25.4460295 Z M44.8843632,62.7993278 C44.5442689,64.6886675 43.5999292,65.5953656 41.6722877,66.0114033 C41.5931516,67.0359305 41.0506196,67.9682783 40.1989858,68.5432901 C38.9403243,69.4754007 37.1892116,69.3468117 36.0802123,68.2408373 L32.9817217,65.1423467 C32.6792689,65.482441 32.4151179,65.7848939 32.1126651,66.0866863 C31.523665,66.7108236 30.7034369,67.0645708 29.8452594,67.0645708 C28.987082,67.0645708 28.1668539,66.7108236 27.5778538,66.0866863 L17.9046462,56.4134788 C16.7234392,55.2936066 16.592497,53.4572641 17.6028538,52.1811203 C17.7917217,51.9169693 17.7534198,51.8033844 17.6028538,51.5385731 C16.2017294,49.5352374 14.6069442,47.674581 12.841533,45.9834788 C11.5570991,44.7743278 10.3479481,43.4892335 9.10049528,42.242441 C8.82019102,42.0447907 8.65038795,41.7257863 8.64296191,41.3828854 C8.63553586,41.0399846 8.79136915,40.713928 9.06285377,40.5043278 L19.4545519,30.1126297 C19.6552051,29.8449188 19.970227,29.6873466 20.3047877,29.6873466 C20.6393484,29.6873466 20.9543704,29.8449188 21.1550236,30.1126297 C23.0820047,32.0396108 25.0089858,33.9672524 26.935967,35.8579127 C27.1356828,36.0644875 27.3820893,36.2200768 27.6544575,36.311592 C29.0901179,36.8781958 30.5257783,37.407158 31.9997406,37.9361203 C32.3749169,38.0720911 32.7723509,38.1361645 33.17125,38.1249882 C34.3048978,38.1628498 35.4383255,38.1628498 36.571533,38.1249882 C36.823166,38.1255531 37.070592,38.060453 37.2893632,37.9361203 C38.3849292,37.2935731 39.4025708,36.6153656 40.5007783,36.0091392 C41.4689581,35.4489286 42.3585419,34.7627544 43.14625,33.9685731 C44.7311557,32.3057429 46.395967,30.7188561 48.0204953,29.0560259 C48.2239315,28.7545705 48.5638456,28.5738856 48.9275236,28.5738856 C49.2912016,28.5738856 49.6311157,28.7545705 49.8345519,29.0560259 L61.1705896,40.3920637 C61.8507783,41.0722524 61.8131368,41.5635731 61.1705896,42.2411203 L55.5025708,47.9091392 C55.2075733,48.1969302 54.942101,48.5135059 54.7101179,48.8541392 C53.500967,50.6681958 52.291816,52.5192335 51.0820047,54.3352712 C50.9114347,54.5775699 50.8693162,54.8876703 50.9690802,55.1666863 C51.2732631,56.075188 51.1691892,57.0708935 50.6837151,57.896858 C50.1982409,58.7228225 49.3789247,59.2981326 48.4371934,59.4743278 C48.1539958,59.4940598 47.9286235,59.7194321 47.9088915,60.0026297 C47.657811,61.2975 46.6639647,62.3208973 45.3770047,62.6097995 C45.233808,62.7179141 45.0630986,62.7835891 44.8843632,62.7993278 L44.8843632,62.7993278 Z M44.4683255,54.4481958 C45.3373821,55.3548939 46.2064387,56.2622524 47.1137972,57.131309 C47.3167645,57.3593849 47.609741,57.4866934 47.9149652,57.4794444 C48.2201894,57.4721953 48.5067919,57.3311218 48.6987028,57.0936675 C48.9550689,56.910372 49.116232,56.6222059 49.1382044,56.3078208 C49.1601769,55.9934356 49.0406649,55.6856531 48.8122877,55.4684788 C47.5271934,54.1477241 46.2420991,52.7853656 44.8823821,51.5762146 C43.0689858,49.9510259 41.1413443,48.4400825 39.2896462,46.8875354 C39.1767217,46.8122524 39.0631368,46.6610259 38.9495519,46.6610259 C38.0033542,46.6036836 37.0537872,46.6417371 36.1152123,46.7746108 C34.3984033,47.1158955 32.8208667,47.957279 31.5810613,49.1929127 C31.3169104,49.4570637 30.9761557,49.6842335 30.6743632,49.9483844 C30.0032964,50.4991164 29.1650455,50.8055436 28.2970047,50.817441 C26.7410519,50.8512021 25.3267226,49.918134 24.7454953,48.4744222 C24.1521649,46.9972343 24.5446567,45.3067233 25.7281368,44.2420637 C26.8613443,43.2217807 27.9952123,42.2391392 29.1284198,41.257158 C29.6567217,40.8034788 30.1850236,40.312158 30.7536085,39.8214976 C29.5820991,39.3678184 28.4482311,38.952441 27.3526651,38.5364033 C27.0891528,38.3988569 26.764417,38.47997 26.596533,38.7252712 L17.7547406,47.5677241 C17.6411557,47.681309 17.5658726,47.7942335 17.4522877,47.9078184 C18.0948349,48.776875 18.7367217,49.6082901 19.3416274,50.4397052 C20.3416357,49.719154 21.6521709,49.5929204 22.7713277,50.1093492 C23.8904846,50.6257779 24.6448409,51.7048442 24.7454953,52.9332901 C24.8207783,52.9709316 24.9343632,52.9709316 25.0096462,53.0092335 C26.486558,53.2322824 27.6401247,54.4014414 27.8433255,55.8812146 C27.9117596,56.0380759 28.0530314,56.1511921 28.2210613,56.1836675 C29.6514732,56.4152182 30.7673145,57.5462865 30.9794575,58.9797052 C31.0177594,59.2438561 31.0923821,59.357441 31.3948349,59.3950825 C33.1746615,59.6708467 34.4131,61.3111781 34.1908726,63.0984788 C34.1828853,63.2747171 34.236079,63.4482966 34.3414387,63.5897995 C35.3617217,64.6100825 36.3820047,65.6680071 37.4029481,66.6506486 C37.6132099,66.898677 37.9196381,67.0447671 38.2447171,67.051963 C38.5697961,67.0591589 38.8823887,66.9267715 39.1034198,66.6882901 C39.3551051,66.4776221 39.5005208,66.1662714 39.5005208,65.8380542 C39.5005208,65.5098371 39.3551051,65.1984864 39.1034198,64.9878184 C38.9145519,64.7989505 38.725684,64.572441 38.4985142,64.3835731 L36.5332311,62.4189505 L38.0448349,60.9073467 C38.87625,61.7387618 39.7453066,62.6454599 40.6143632,63.5145165 C40.8424025,63.7739617 41.1756339,63.9162282 41.5207369,63.9014748 C41.8658399,63.8867213 42.1857136,63.716534 42.3907783,63.4385731 C42.6097547,63.2166642 42.7227658,62.9113272 42.7010298,62.600326 C42.6792939,62.2893247 42.5249087,62.0026762 42.2771934,61.8133844 L39.7076651,59.2438561 L41.2192689,57.7322524 C42.050684,58.5636675 42.9197406,59.4703656 43.7887972,60.3017807 C43.9995924,60.5532545 44.3108962,60.6985136 44.639033,60.6985136 C44.9671698,60.6985136 45.2784736,60.5532545 45.4892689,60.3017807 C45.7439513,60.0900063 45.888101,59.7736081 45.8807708,59.4424619 C45.8734405,59.1113157 45.7154314,58.8016061 45.4516274,58.601309 L42.8444575,55.9941392 C43.4110613,55.4684788 43.9017217,54.977158 44.4683255,54.4481958 Z M52.8194575,47.9864033 C49.2672877,44.471875 45.7904009,40.9580071 42.276533,37.4817807 C40.9161557,38.3131958 39.4804953,39.1822524 38.0441745,40.0136675 C37.6852317,40.2105756 37.2827278,40.3145501 36.8733255,40.3161203 C35.8530425,40.3537618 34.7944575,40.3161203 33.7741745,40.3537618 C33.5624432,40.3453606 33.3527424,40.3978431 33.1699292,40.5049882 C31.1293632,42.2807429 29.0887972,44.057158 27.086533,45.8329127 C26.7543175,46.1126113 26.5474681,46.5133305 26.5118855,46.9461495 C26.4763028,47.3789686 26.6149298,47.8080899 26.8970047,48.1382901 C27.1673376,48.4693546 27.5582629,48.6792835 27.9835604,48.721776 C28.4088579,48.7642686 28.83359,48.6358342 29.1640802,48.3647995 C29.5579408,48.096477 29.9364878,47.8063385 30.2979481,47.4957429 C31.6295223,46.2044274 33.2895132,45.3027152 35.0975708,44.8885731 C35.5165091,44.752032 35.9461589,44.65086 36.3820047,44.5861203 C37.3270047,44.5484788 38.2713443,44.5484788 39.1780425,44.5861203 C39.5245435,44.5769807 39.8618305,44.6983664 40.1230425,44.9262146 C43.1832311,47.4957429 46.3966274,49.9140448 49.1160613,52.861309 L49.4185142,53.1637618 C50.5900236,51.3497052 51.7238915,49.6492335 52.8201179,47.9864033 L52.8194575,47.9864033 Z M59.0164387,41.3733844 L48.9271934,31.2841392 L44.2041745,36.0078184 L54.2934198,46.0970637 C55.8426651,44.5478184 57.4678538,42.9609316 59.0170991,41.3740448 L59.0164387,41.3733844 Z M20.2846462,32.3420637 L11.2916274,41.3357429 L16.0522877,46.0970637 L25.045967,37.1033844 C23.4590802,35.5164976 21.8338915,33.9296108 20.2853066,32.3427241 L20.2846462,32.3420637 Z M23.4207783,58.9447052 C24.100967,58.2645165 24.8187972,57.6239505 25.460684,56.9417807 C25.8134584,56.4827087 25.7862734,55.8367539 25.3961747,55.4089457 C25.006076,54.9811375 24.365363,54.8946308 23.8757783,55.2036675 C23.1579481,55.8838561 22.5154009,56.6016863 21.8352123,57.281875 C22.3635142,57.8484788 22.891816,58.377441 23.4201179,58.9447052 L23.4207783,58.9447052 Z M26.6328538,62.1191392 C27.3130425,61.476592 27.9925708,60.8340448 28.5981368,60.192158 C28.9781065,59.7194924 28.9448984,59.0374295 28.5208087,58.6039118 C28.0967189,58.170394 27.4155508,58.1221995 26.9346462,58.4916863 C26.2544575,59.1342335 25.6138915,59.812441 24.9700236,60.456309 C25.552247,60.9819161 26.1072467,61.5369157 26.6328538,62.1191392 L26.6328538,62.1191392 Z M20.2463443,55.8085731 C20.926533,55.1283844 21.6073821,54.4878184 22.2492689,53.8056486 C22.4774766,53.6027052 22.6048188,53.3096225 22.5974406,53.0043188 C22.5900624,52.6990151 22.4487115,52.4124258 22.210967,52.2207429 C22.0220574,51.9726831 21.7354536,51.8180126 21.4244109,51.7962649 C21.1133682,51.7745172 20.8080295,51.8877998 20.5864387,52.107158 C20.1428798,52.4938205 19.7263087,52.9103916 19.3396462,53.3539505 C19.1365445,53.5555394 19.0255352,53.8319434 19.0327838,54.1180131 C19.0400324,54.4040828 19.1648976,54.67451 19.3779481,54.8655542 C19.6420991,55.1680071 19.90625,55.4697995 20.2470047,55.8098939 L20.2463443,55.8085731 Z M28.1048349,63.7060259 C28.4442689,64.0084788 28.7467217,64.3109316 29.0491745,64.5750825 C29.2530435,64.7834665 29.5322729,64.9009224 29.8237972,64.9009224 C30.1153215,64.9009224 30.3945508,64.7834665 30.5984198,64.5750825 C31.0137972,64.1973467 31.3908726,63.7826297 31.7692689,63.4035731 C31.9989399,63.1931686 32.126557,62.8938296 32.1193447,62.5824346 C32.1121324,62.2710397 31.9707934,61.9779301 31.7316274,61.7783844 C31.532177,61.5430975 31.243871,61.4013406 30.9357533,61.387062 C30.6276356,61.3727833 30.3274549,61.4872689 30.1070991,61.7031014 C29.4671934,62.3080071 28.8253066,62.9881958 28.106816,63.7060259 L28.1048349,63.7060259 Z" id="color" fill="#000000" fill-rule="nonzero"></path>
        <path d="M53.3873821,48.1376297 C52.2911557,49.8004599 51.1579481,51.5009316 50.0240802,53.2766863 C49.914048,53.1855248 49.8127889,53.0842657 49.7216274,52.9742335 C47.001533,50.0269693 43.7887972,47.6086675 40.7279481,45.0391392 C40.449589,44.8427049 40.1232943,44.7251932 39.7836085,44.6990448 C38.8386085,44.6614033 37.8942689,44.6614033 36.9869104,44.6990448 C36.5511018,44.7639786 36.121468,44.8651468 35.7024764,45.0014976 C33.8887148,45.3999337 32.2248672,46.3038653 30.9035142,47.6086675 C30.5589903,47.9395453 30.1786907,48.2310271 29.7696462,48.4777241 C29.070485,49.0516052 28.0384802,48.9500457 27.4645991,48.2508844 C26.8907179,47.5517232 26.9922774,46.5197184 27.6914387,45.9458373 C29.6943632,44.1700825 31.7349292,42.3943278 33.7748349,40.6179127 C33.956042,40.5063099 34.167333,40.4534872 34.3797406,40.4666863 C35.4000236,40.4666863 36.4579481,40.5043278 37.4775708,40.4290448 C37.8867749,40.4227902 38.2885973,40.3191087 38.6497406,40.126592 C40.0854009,39.2951769 41.5210613,38.4261203 42.8820991,37.5947052 C46.3589858,41.146875 49.8352123,44.6231014 53.3873821,48.1376297 Z M59.5467217,41.5629127 L54.8230425,46.286592 L44.7337972,36.1973467 L49.4574764,31.4736675 C52.8207783,34.8369693 56.2243632,38.1996108 59.5467217,41.5629127 Z M20.8149292,32.531592 L25.57625,37.2929127 L16.5825708,46.286592 L11.82125,41.5252712 C14.8061557,38.5773467 17.830684,35.5547995 20.8149292,32.531592 Z M23.9867217,59.1335731 C23.4584198,58.5669693 22.9301179,58.0380071 22.401816,57.5083844 C23.0820047,56.8281958 23.7225708,56.0727241 24.4423821,55.4301769 C24.9290175,55.0597555 25.6179573,55.1222222 26.0300315,55.5741302 C26.4421057,56.0260383 26.4409151,56.7178032 26.0272877,57.1682901 C25.3497406,57.8108373 24.6688915,58.4533844 23.9867217,59.1335731 Z M27.2007783,62.2697052 C26.6341745,61.7031014 26.1045519,61.1741392 25.57625,60.606875 C26.2187972,59.9643278 26.860684,59.2861203 27.541533,58.641592 C28.0111053,58.1824143 28.764006,58.1908407 29.2231837,58.6604129 C29.6823615,59.1299852 29.6739353,59.8828858 29.2043632,60.3420637 C28.5235142,60.9852712 27.8426651,61.6278184 27.2007783,62.2697052 Z M20.7766274,55.997441 C20.436533,55.6573467 20.1717217,55.3548939 19.8699292,55.052441 C19.6570529,54.8612945 19.5323135,54.5909006 19.5250665,54.3048922 C19.5178194,54.0188839 19.6287048,53.7425195 19.8316274,53.5408373 C20.2187624,53.0974995 20.6355375,52.680945 21.0790802,52.2940448 C21.300671,52.0746866 21.6060097,51.9614039 21.9170524,51.9831517 C22.2280951,52.0048994 22.5146989,52.1595698 22.7036085,52.4076297 C22.9410628,52.5995407 23.0821363,52.8861431 23.0893854,53.1913673 C23.0966345,53.4965915 22.969326,53.7895681 22.74125,53.9925354 C22.1376651,54.6747052 21.4944575,55.2796108 20.7766274,55.997441 Z M28.6740802,63.8948939 L30.6770047,61.8919693 C30.8888169,61.6599124 31.1929158,61.5341561 31.5067619,61.5488337 C31.8206081,61.5635114 32.1116428,61.7171002 32.3008726,61.9679127 C32.5400955,62.1672374 32.6815514,62.4601859 32.6888908,62.77148 C32.6962303,63.0827741 32.5687377,63.3820637 32.3391745,63.592441 C31.9614387,64.0078184 31.5467217,64.3848939 31.1676651,64.7639505 C30.9638865,64.9725019 30.6846234,65.0900746 30.3930425,65.0900746 C30.1014615,65.0900746 29.8221984,64.9725019 29.6184198,64.7639505 C29.2789858,64.4608373 28.976533,64.1966863 28.6740802,63.8948939 Z M66.7983255,41.9406486 C66.0428538,41.8647052 65.4003066,41.7894222 64.6851179,41.6764976 C64.7234198,40.996309 64.7980425,40.3557429 64.8363443,39.6359316 C65.5548349,39.6735731 66.1973821,39.7112146 66.9528538,39.7495165 C66.9145519,40.5043278 66.8392689,41.1845165 66.7983255,41.9406486 Z M62.6069104,54.3346108 C61.9643632,53.956875 61.3970991,53.6167807 60.7928538,53.2390448 C61.1329481,52.6341392 61.4354009,52.0298939 61.7748349,51.4249882 C62.4173821,51.727441 63.0222877,52.0292335 63.6641745,52.3699882 C63.2870991,53.0501769 62.9846462,53.6544222 62.6069104,54.3346108 Z M59.0177594,20.4011203 C59.5843632,19.9857429 60.1133255,19.5697052 60.7182311,19.1166863 C61.1336085,19.721592 61.5496462,20.2881958 61.965684,20.9307429 C61.3601179,21.3084788 60.7941745,21.6862146 60.1892689,22.0646108 C59.7684969,21.5322899 59.3774,20.9771704 59.0177594,20.4017807 L59.0177594,20.4011203 Z M64.5345519,33.5142335 C64.420967,32.8340448 64.2704009,32.1934788 64.156816,31.511309 C64.8363443,31.3600825 65.5171934,31.2088561 66.1967217,31.0199882 C66.3479481,31.7378184 66.4608726,32.4180071 66.6127594,33.1741392 C65.8942689,33.2870637 65.2523821,33.3973467 64.5345519,33.5142335 Z M66.8742689,35.3652712 C66.9119104,36.1207429 66.9495519,36.8009316 66.9871934,37.5194222 L64.8739858,37.5194222 C64.835684,36.876875 64.7980425,36.2349882 64.7604009,35.5164976 C65.4788915,35.4788561 66.1220991,35.4405542 66.8742689,35.3652712 Z M51.9517217,65.2552712 C51.3091745,65.6330071 50.7042689,65.9731014 50.0623821,66.3508373 C49.7222877,65.7082901 49.4198349,65.1040448 49.0797406,64.5017807 C49.6463443,64.1616863 50.2129481,63.821592 50.8561557,63.4814976 C51.1955896,64.0078184 51.5733255,64.6133844 51.9517217,65.2552712 Z M65.9702123,46.2482901 C65.2523821,46.0594222 64.6098349,45.9081958 63.9296462,45.7199882 C64.0808726,45.0397995 64.2320991,44.3992335 64.3833255,43.7170637 C65.1011557,43.8682901 65.7437028,43.9812146 66.461533,44.0947995 C66.3103066,44.8502712 66.1214387,45.5304599 65.9702123,46.2482901 Z M61.4360613,56.186309 C60.9823821,56.7905542 60.5670047,57.3578184 60.1153066,57.9620637 C59.5480425,57.5083844 59.0190802,57.0930071 58.451816,56.641309 C58.8678538,56.0747052 59.2442689,55.5847052 59.6616274,54.9784788 C60.2269104,55.3925354 60.7941745,55.7696108 61.4360613,56.186309 Z M56.2587028,14.2800825 C55.7673821,14.8466863 55.3143632,15.3366863 54.860684,15.8649882 C54.3323821,15.4496108 53.8404009,15.0335731 53.2757783,14.5798939 C53.6911557,14.0132901 54.1071934,13.4843278 54.5608726,12.8794222 C55.1228538,13.3733844 55.6511557,13.8270637 56.2587028,14.2800825 Z M64.5721934,50.4047052 C63.8920047,50.1405542 63.2514387,49.8764033 62.6069104,49.5732901 C62.8334198,48.9307429 63.0605896,48.3264976 63.3247406,47.646309 C63.9672877,47.8728184 64.6098349,48.0616863 65.3276651,48.3264976 C65.0635142,49.0443278 64.8363443,49.7245165 64.5721934,50.4047052 Z M64.9122877,26.8252712 C65.1387972,27.5431014 65.365967,28.1856486 65.6301179,28.9034788 C64.9499292,29.1299882 64.3093632,29.3188561 63.6271934,29.5083844 C63.400684,28.8658373 63.211816,28.261592 62.9470047,27.5814033 C63.5888915,27.316592 64.2320991,27.0894222 64.9122877,26.8252712 Z M48.0964387,67.2958373 C47.3786085,67.5982901 46.7360613,67.8241392 46.056533,68.1272524 C45.8300236,67.4470637 45.5652123,66.8064976 45.3387028,66.1243278 C45.98125,65.8601769 46.5854953,65.6330071 47.2280425,65.3688561 C47.4921934,66.0114033 47.7939858,66.6156486 48.0964387,67.2958373 Z M62.1538915,25.6920637 C61.8514387,25.087158 61.5489858,24.4829127 61.2088915,23.8780071 C61.8137972,23.5379127 62.4180425,23.1978184 63.0579481,22.8577241 C63.3980425,23.5002712 63.7004953,24.1428184 64.0405896,24.8230071 C63.400684,25.087158 62.7937972,25.3896108 62.1538915,25.6920637 Z M52.5553066,62.3080071 C53.0836085,61.8919693 53.6119104,61.476592 54.1791745,61.0612146 C54.6328538,61.5895165 55.0482311,62.1178184 55.5402123,62.6864033 C54.9736085,63.1400825 54.4063443,63.5554599 53.8020991,64.0467807 C53.3477594,63.4385731 52.9713443,62.8752712 52.5553066,62.3080071 Z M57.2413443,58.3028184 C57.6569418,58.6805542 58.1480425,59.1340134 58.7146462,59.6631958 C58.1863443,60.1545165 57.6580425,60.6458373 57.1297406,61.1747995 C56.6760613,60.6834788 56.1854009,60.192158 55.6940802,59.7008373 C56.2204009,59.2095165 56.7123821,58.7941392 57.2413443,58.3028184 Z M3.47011792,41.8653656 C3.39417453,41.1098939 3.3571934,40.4297052 3.28125,39.6735731 C3.99908019,39.6359316 4.67926887,39.5976297 5.39445755,39.5599882 C5.43209906,40.2401769 5.50804245,40.9203656 5.54568396,41.6005542 C4.86615566,41.6731958 4.22558962,41.7517807 3.47011792,41.8653656 Z M8.38266509,20.8554599 C8.83634434,20.2505542 9.21408019,19.646309 9.62945755,19.0414033 C10.1960613,19.4950825 10.7626651,19.8728184 11.3299292,20.3264976 C10.9521934,20.8931014 10.5744575,21.4220637 10.1590802,21.9893278 C9.55417453,21.6485731 8.98757075,21.2708373 8.38266509,20.8554599 Z M20.1340802,66.3138561 C19.491533,65.9361203 18.8872877,65.5960259 18.2447406,65.2182901 C18.6224764,64.6140448 19.0008726,64.0467807 19.3786085,63.4042335 C19.9835142,63.7443278 20.5494575,64.0844222 21.1543632,64.4245165 C20.8142689,65.0670637 20.4741745,65.671309 20.1340802,66.3138561 Z M6.15323113,31.3983844 C6.00200472,32.0785731 5.88908019,32.7191392 5.77483491,33.401309 C5.09464623,33.2877241 4.41445755,33.1747995 3.69728774,33.0612146 C3.84785377,32.3433844 3.96143868,31.6631958 4.11266509,30.9070637 C4.79285377,31.0959316 5.43474057,31.247158 6.15323113,31.3983844 Z M6.34275943,45.6433844 C5.66257075,45.8322524 4.9817217,45.9834788 4.3021934,46.1716863 C4.15096698,45.4538561 3.99974057,44.7736675 3.81087264,44.0584788 C4.49106132,43.9448939 5.17125,43.7943278 5.88974057,43.6807429 C6.03964623,44.321309 6.18757075,44.9638561 6.34275943,45.6433844 Z M4.9057783,48.2888561 C5.58596698,48.0623467 6.22653302,47.8351769 6.90870283,47.6086675 C7.13521226,48.2512146 7.3617217,48.8554599 7.62653302,49.4980071 C6.98398585,49.762158 6.37974057,50.026309 5.66125,50.3294222 C5.39709906,49.6492335 5.16992925,48.9690448 4.9057783,48.2888561 Z M6.56860849,52.3323467 C7.21115566,51.9922524 7.81540094,51.727441 8.45794811,51.3880071 C8.79804245,51.9929127 9.10049528,52.5595165 9.44058962,53.1637618 C8.83568396,53.5038561 8.26908019,53.8439505 7.62653302,54.2203656 C7.24879717,53.6167807 6.94634434,52.9722524 6.56860849,52.3323467 Z M6.6821934,29.4331014 C6.00200472,29.206592 5.36143868,29.0177241 4.64162736,28.8281958 C4.86813679,28.1480071 5.0953066,27.4678184 5.35945755,26.7499882 C6.03964623,27.0141392 6.68021226,27.241309 7.32474057,27.5054599 C7.13587264,28.1480071 6.90870283,28.7529127 6.6821934,29.4331014 Z M11.5187972,59.5872524 C12.0470991,59.0959316 12.5390802,58.6422524 13.0680425,58.1892335 C13.5593632,58.6805542 14.0130425,59.1342335 14.5420047,59.6248939 C14.0137028,60.0785731 13.4457783,60.531592 12.8791745,60.9852712 C12.5014387,60.6075354 12.0101179,60.1162146 11.5187972,59.5872524 Z M8.79804245,56.1110259 C9.40228774,55.6956486 9.96889151,55.3185731 10.5361557,54.901875 C10.9521934,55.4684788 11.3286085,55.997441 11.7453066,56.5647052 C11.1787028,57.0183844 10.6490802,57.4337618 10.0824764,57.8854599 C9.66709906,57.2792335 9.2517217,56.7159316 8.79804245,56.1110259 Z M8.15681604,25.6167807 C7.51360849,25.3143278 6.91002358,25.011875 6.22983491,24.7100825 L7.21247642,22.7454599 C7.85502358,23.0855542 8.45926887,23.4256486 9.06153302,23.7657429 C8.76106132,24.4076297 8.49691038,24.9742335 8.15681604,25.6167807 Z M24.8570991,66.1236675 C24.6305896,66.8038561 24.3657783,67.4087618 24.1392689,68.0882901 C23.4597406,67.8241392 22.8185142,67.5599882 22.0993632,67.256875 C22.4011557,66.6143278 22.665967,65.9717807 22.9684198,65.3298939 C23.610967,65.5953656 24.2119104,65.8595165 24.8570991,66.1236675 Z M15.4870047,15.8293278 C14.995684,15.3010259 14.5420047,14.7727241 14.0889858,14.2444222 C14.6555896,13.7531014 15.2221934,13.3377241 15.7894575,12.8464033 C16.2431368,13.4130071 16.6585142,13.9802712 17.0745519,14.5092335 C16.5449292,14.9576297 16.0536085,15.376309 15.4870047,15.8293278 Z M14.6932311,62.6104599 C15.1469104,62.0438561 15.5999292,61.5148939 16.0536085,60.9852712 C16.5819104,61.4006486 17.1102123,61.8166863 17.6781368,62.2320637 C17.2627594,62.7986675 16.885684,63.3276297 16.4313443,63.9325354 C15.8270991,63.5178184 15.2604953,63.0641392 14.6932311,62.6104599 Z M5.51134434,35.4788561 C5.47304245,36.1966863 5.43540094,36.8392335 5.39775943,37.4817807 L3.28455189,37.4817807 C3.3221934,36.7639505 3.35983491,36.0461203 3.39747642,35.2899882 C4.11332547,35.3276297 4.79285377,35.4035731 5.51134434,35.4788561 Z M12.6143632,18.7389505 C12.0484198,18.2476297 11.5577594,17.8322524 10.9898349,17.3409316 C11.4811557,16.8126297 11.9724764,16.2843278 12.4254953,15.7916863 C12.916816,16.3199882 13.3704953,16.8119693 13.8611557,17.3409316 C13.5593632,17.7186675 13.1030425,18.2099882 12.6143632,18.7389505 Z M57.8838915,15.8669693 C58.3375708,16.3582901 58.8288915,16.8872524 59.3195519,17.451875 C58.79125,17.9055542 58.2629481,18.3585731 57.7346462,18.8498939 L56.3742689,17.3759316 C56.8636085,16.8496108 57.3549292,16.3582901 57.8838915,15.8669693 Z" id="fill" fill="#000000" fill-rule="nonzero" opacity="0.3"></path>
    </g>
</svg>