<?xml version="1.0" encoding="UTF-8"?>
<svg width="128px" height="128px" viewBox="0 0 128 128" version="1.1" xmlns="http://www.w3.org/2000/svg" xmlns:xlink="http://www.w3.org/1999/xlink">
    <!-- Generator: sketchtool 52.6 (67491) - http://www.bohemiancoding.com/sketch -->
    <title>44F67B78-FBBD-46F4-A408-1BA652D25DBC</title>
    <desc>Created with sketchtool.</desc>
    <g id="Mockups" stroke="none" stroke-width="1" fill="none" fill-rule="evenodd">
        <g id="Reassurance-Images-Themes---Free" transform="translate(-378.000000, -1304.000000)">
            <g id="Essentials" transform="translate(20.000000, 1244.000000)">
                <g id="pack2_globe" transform="translate(358.000000, 60.000000)">
                    <path d="M64,128 C28.653776,128 0,99.346224 0,64 C0,28.653776 28.653776,0 64,0 C99.346224,0 128,28.653776 128,64 C128,99.346224 99.346224,128 64,128 Z M64.3911111,24.7111111 C42.7906409,24.7111111 25.28,42.221752 25.28,63.8222222 C25.28,85.4226924 42.7906409,102.933333 64.3911111,102.933333 C85.9915813,102.933333 103.502222,85.4226924 103.502222,63.8222222 C103.502222,42.221752 85.9915813,24.7111111 64.3911111,24.7111111 Z M98.08,62.0444444 L85.7244444,62.0444444 C85.1911111,50.3644444 80.2311111,38.4177778 71.9288889,30.9155556 C86.6137052,34.2968791 97.2825308,46.9964804 98.08,62.0444444 Z M60.8355556,33.7955556 L60.8355556,62.0444444 L48.3911111,62.0444444 C48.9066667,50.8977778 53.2977778,40.0177778 60.8355556,33.7955556 Z M60.8355556,67.3777778 L60.8355556,93.5644444 C53.8133333,87.3777778 49.4044444,77.3333333 48.3911111,67.3777778 L60.8355556,67.3777778 Z M66.1688889,94.3822222 L66.1688889,67.3777778 L80.3911111,67.3777778 C79.2177778,77.4933333 73.9733333,88.16 66.1688889,94.3822222 Z M66.1688889,62.0444444 L66.1688889,33.0311111 C74.56,39.2355556 79.8044444,50.8088889 80.3911111,62.0444444 L66.1688889,62.0444444 Z M55.7688889,31.2 C47.9822222,38.5955556 43.5377778,50.2222222 43.0577778,62.0444444 L30.7022222,62.0444444 C31.4844828,47.4148345 41.6084002,34.95739 55.7688889,31.2 Z M30.8088889,67.3777778 L43.1288889,67.3777778 C44.1244444,78.2577778 48.8,89.3333333 56.3377778,96.5688889 C42.5338066,93.1791707 32.3289104,81.510341 30.8088889,67.3777778 Z M71.5911111,96.8355556 C79.7071588,89.036734 84.7539536,78.5835603 85.8133333,67.3777778 L98.2577778,67.3777778 C96.6221291,81.9318834 85.848102,93.8019386 71.52,96.8355556 L71.5911111,96.8355556 Z" id="Shape" fill="#D8D8D8" fill-rule="nonzero"></path>
                    <path d="M64.3911111,24.7111111 C42.7906409,24.7111111 25.28,42.221752 25.28,63.8222222 C25.28,85.4226924 42.7906409,102.933333 64.3911111,102.933333 C85.9915813,102.933333 103.502222,85.4226924 103.502222,63.8222222 C103.502222,42.221752 85.9915813,24.7111111 64.3911111,24.7111111 L64.3911111,24.7111111 Z M98.08,62.0444444 L85.7244444,62.0444444 C85.1911111,50.3644444 80.2311111,38.4177778 71.9288889,30.9155556 C86.6137052,34.2968791 97.2825308,46.9964804 98.08,62.0444444 L98.08,62.0444444 Z M60.8355556,33.7955556 L60.8355556,62.0444444 L48.3911111,62.0444444 C48.9066667,50.8977778 53.2977778,40.0177778 60.8355556,33.7955556 Z M60.8355556,67.3777778 L60.8355556,93.5644444 C53.8133333,87.3777778 49.4044444,77.3333333 48.3911111,67.3777778 L60.8355556,67.3777778 Z M66.1688889,94.3822222 L66.1688889,67.3777778 L80.3911111,67.3777778 C79.2177778,77.4933333 73.9733333,88.16 66.1688889,94.3822222 Z M66.1688889,62.0444444 L66.1688889,33.0311111 C74.56,39.2355556 79.8044444,50.8088889 80.3911111,62.0444444 L66.1688889,62.0444444 Z M55.7688889,31.2 C47.9822222,38.5955556 43.5377778,50.2222222 43.0577778,62.0444444 L30.7022222,62.0444444 C31.4844828,47.4148345 41.6084002,34.95739 55.7688889,31.2 L55.7688889,31.2 Z M30.88,67.3777778 L43.1288889,67.3777778 C44.1244444,78.2577778 48.8,89.3333333 56.3377778,96.5688889 C42.5338066,93.1791707 32.3289104,81.510341 30.8088889,67.3777778 L30.88,67.3777778 Z M71.5911111,96.8355556 C79.7071588,89.036734 84.7539536,78.5835603 85.8133333,67.3777778 L98.2577778,67.3777778 C96.6221291,81.9318834 85.848102,93.8019386 71.52,96.8355556 L71.5911111,96.8355556 Z" id="Shape" fill="#000000"></path>
                </g>
            </g>
        </g>
    </g>
</svg>