<?xml version="1.0" encoding="UTF-8"?>
<svg width="128px" height="128px" viewBox="0 0 128 128" version="1.1" xmlns="http://www.w3.org/2000/svg" xmlns:xlink="http://www.w3.org/1999/xlink">
    <!-- Generator: sketchtool 52.6 (67491) - http://www.bohemiancoding.com/sketch -->
    <title>07951AF4-8158-4707-9D07-642066E4DB88</title>
    <desc>Created with sketchtool.</desc>
    <g id="Mockups" stroke="none" stroke-width="1" fill="none" fill-rule="evenodd">
        <g id="Reassurance-Images-Themes---Free" transform="translate(-30.000000, -1304.000000)">
            <g id="Essentials" transform="translate(20.000000, 1244.000000)">
                <g id="pack2_return" transform="translate(10.000000, 60.000000)">
                    <path d="M64,128 C28.653776,128 0,99.346224 0,64 C0,28.653776 28.653776,0 64,0 C99.346224,0 128,28.653776 128,64 C128,99.346224 99.346224,128 64,128 Z M64.44,34.8 C70.8352115,34.7983891 77.0615269,36.8527927 82.2,40.66 L74.02,41.82 C72.3631458,41.9359798 71.1140202,43.3731458 71.23,45.03 C71.3459798,46.6868542 72.7831458,47.9359798 74.44,47.82 L74.86,47.82 L88.86,45.82 C89.6478075,45.7061995 90.3580945,45.2839776 90.834484,44.646291 C91.3108734,44.0086043 91.5143082,43.207734 91.4,42.42 L89.4,28.42 C89.1680404,26.7631458 87.6368542,25.6080404 85.98,25.84 C84.3231458,26.0719596 83.1680404,27.6031458 83.4,29.26 L84.2,34.82 C71.3978999,26.3702929 54.6477567,26.9606359 42.4722862,36.2906538 C30.2968157,45.6206718 25.3705321,61.6408944 30.2,76.2 L35.06,71.34 C33.0710901,62.4362356 35.2418646,53.1112449 40.958625,46.0012918 C46.6753853,38.8913386 55.3168521,34.7691103 64.44,34.8 Z M93.72,58.3 C96.4083338,70.5562317 91.185074,83.1908182 80.6269679,89.9708441 C70.0688618,96.75087 56.4065712,96.2438867 46.38,88.7 L52.88,87.78 C54.5368542,87.5480404 55.6919596,86.0168542 55.46,84.36 C55.2280404,82.7031458 53.6968542,81.5480404 52.04,81.78 L38.04,83.78 C37.2521925,83.8938005 36.5419055,84.3160224 36.065516,84.953709 C35.5891266,85.5913957 35.3856918,86.392266 35.5,87.18 L37.5,101.18 C37.7086782,102.655944 38.9693861,103.754804 40.46,103.76 L40.88,103.76 C41.6678075,103.646199 42.3780945,103.223978 42.854484,102.586291 C43.3308734,101.948604 43.5343082,101.147734 43.42,100.36 L42.4,93.16 C54.9166332,102.824497 72.2746612,103.189322 85.1863121,94.0592687 C98.097963,84.9292152 103.539777,68.4422237 98.6,53.42 L93.72,58.3 Z" id="Shape" fill="#D8D8D8" fill-rule="nonzero"></path>
                    <path d="M64.44,34.8 C55.3168521,34.7691103 46.6753853,38.8913386 40.958625,46.0012918 C35.2418646,53.1112449 33.0710901,62.4362356 35.06,71.34 L30.2,76.2 C25.3705321,61.6408944 30.2968157,45.6206718 42.4722862,36.2906538 C54.6477567,26.9606359 71.3978999,26.3702929 84.2,34.82 L83.4,29.26 C83.1680404,27.6031458 84.3231458,26.0719596 85.98,25.84 C87.6368542,25.6080404 89.1680404,26.7631458 89.4,28.42 L91.4,42.42 C91.5143082,43.207734 91.3108734,44.0086043 90.834484,44.646291 C90.3580945,45.2839776 89.6478075,45.7061995 88.86,45.82 L74.86,47.82 L74.44,47.82 C72.7831458,47.9359798 71.3459798,46.6868542 71.23,45.03 C71.1140202,43.3731458 72.3631458,41.9359798 74.02,41.82 L82.2,40.66 C77.0615269,36.8527927 70.8352115,34.7983891 64.44,34.8 Z M93.72,58.3 L98.6,53.42 C103.539777,68.4422237 98.097963,84.9292152 85.1863121,94.0592687 C72.2746612,103.189322 54.9166332,102.824497 42.4,93.16 L43.42,100.36 C43.5343082,101.147734 43.3308734,101.948604 42.854484,102.586291 C42.3780945,103.223978 41.6678075,103.646199 40.88,103.76 L40.46,103.76 C38.9693861,103.754804 37.7086782,102.655944 37.5,101.18 L35.5,87.18 C35.3856918,86.392266 35.5891266,85.5913957 36.065516,84.953709 C36.5419055,84.3160224 37.2521925,83.8938005 38.04,83.78 L52.04,81.78 C53.6968542,81.5480404 55.2280404,82.7031458 55.46,84.36 C55.6919596,86.0168542 54.5368542,87.5480404 52.88,87.78 L46.38,88.7 C56.4065712,96.2438867 70.0688618,96.75087 80.6269679,89.9708441 C91.185074,83.1908182 96.4083338,70.5562317 93.72,58.3 Z" id="Shape" fill="#000000"></path>
                </g>
            </g>
        </g>
    </g>
</svg>
