<?xml version="1.0" encoding="UTF-8"?>
<svg width="128px" height="128px" viewBox="0 0 128 128" version="1.1" xmlns="http://www.w3.org/2000/svg" xmlns:xlink="http://www.w3.org/1999/xlink">
    <!-- Generator: sketchtool 52.6 (67491) - http://www.bohemiancoding.com/sketch -->
    <title>73B6E747-D451-4FC6-A69B-6B6D20871A28</title>
    <desc>Created with sketchtool.</desc>
    <g id="Mockups" stroke="none" stroke-width="1" fill="none" fill-rule="evenodd">
        <g id="Reassurance-Images-Themes---Free" transform="translate(-30.000000, -1491.000000)">
            <g id="Essentials" transform="translate(20.000000, 1244.000000)">
                <g id="pack2_satisfaction" transform="translate(10.000000, 247.000000)">
                    <path d="M64,128 C28.653776,128 0,99.346224 0,64 C0,28.653776 28.653776,0 64,0 C99.346224,0 128,28.653776 128,64 C128,99.346224 99.346224,128 64,128 Z M50.1688889,56.7111111 C52.132568,56.7111111 53.7244444,55.1192347 53.7244444,53.1555556 C53.7244444,51.1918764 52.132568,49.6 50.1688889,49.6 C48.2052098,49.6 46.6133333,51.1918764 46.6133333,53.1555556 C46.6133333,55.1192347 48.2052098,56.7111111 50.1688889,56.7111111 Z M78.6133333,56.7111111 C80.5770124,56.7111111 82.1688889,55.1192347 82.1688889,53.1555556 C82.1688889,51.1918764 80.5770124,49.6 78.6133333,49.6 C76.6496542,49.6 75.0577778,51.1918764 75.0577778,53.1555556 C75.0577778,55.1192347 76.6496542,56.7111111 78.6133333,56.7111111 Z M64.3911111,24.7111111 C42.7906409,24.7111111 25.28,42.221752 25.28,63.8222222 C25.28,85.4226924 42.7906409,102.933333 64.3911111,102.933333 C85.9915813,102.933333 103.502222,85.4226924 103.502222,63.8222222 C103.502222,42.221752 85.9915813,24.7111111 64.3911111,24.7111111 Z M64.3911111,97.6 C45.7361596,97.6 30.6133333,82.4771738 30.6133333,63.8222222 C30.6133333,45.1672707 45.7361596,30.0444444 64.3911111,30.0444444 C83.0460627,30.0444444 98.1688889,45.1672707 98.1688889,63.8222222 C98.1688889,82.4771738 83.0460627,97.6 64.3911111,97.6 Z M64.3911111,86.9333333 C73.363013,86.6440469 81.5760415,81.8246659 86.2044444,74.1333333 C86.7125558,73.326707 86.7517399,72.3102794 86.3072365,71.466929 C85.8627332,70.6235786 85.002073,70.0814305 84.0494585,70.0447066 C83.0968439,70.0079827 82.1969998,70.4822624 81.6888889,71.2888889 C78.254945,77.6429732 71.6137393,81.6028564 64.3911111,81.6028564 C57.1684829,81.6028564 50.5272772,77.6429732 47.0933333,71.2888889 C46.3078617,70.0419527 44.6602696,69.6678617 43.4133333,70.4533333 C42.1663971,71.238805 41.7923061,72.8863971 42.5777778,74.1333333 C47.2061807,81.8246659 55.4192092,86.6440469 64.3911111,86.9333333 Z" id="Combined-Shape" fill="#D8D8D8" fill-rule="nonzero"></path>
                    <path d="M50.1688889,56.7111111 C48.2052098,56.7111111 46.6133333,55.1192347 46.6133333,53.1555556 C46.6133333,51.1918764 48.2052098,49.6 50.1688889,49.6 C52.132568,49.6 53.7244444,51.1918764 53.7244444,53.1555556 C53.7244444,55.1192347 52.132568,56.7111111 50.1688889,56.7111111 Z M78.6133333,56.7111111 C76.6496542,56.7111111 75.0577778,55.1192347 75.0577778,53.1555556 C75.0577778,51.1918764 76.6496542,49.6 78.6133333,49.6 C80.5770124,49.6 82.1688889,51.1918764 82.1688889,53.1555556 C82.1688889,55.1192347 80.5770124,56.7111111 78.6133333,56.7111111 Z M64.3911111,24.7111111 C85.9915813,24.7111111 103.502222,42.221752 103.502222,63.8222222 C103.502222,85.4226924 85.9915813,102.933333 64.3911111,102.933333 C42.7906409,102.933333 25.28,85.4226924 25.28,63.8222222 C25.28,42.221752 42.7906409,24.7111111 64.3911111,24.7111111 Z M64.3911111,97.6 C83.0460627,97.6 98.1688889,82.4771738 98.1688889,63.8222222 C98.1688889,45.1672707 83.0460627,30.0444444 64.3911111,30.0444444 C45.7361596,30.0444444 30.6133333,45.1672707 30.6133333,63.8222222 C30.6133333,82.4771738 45.7361596,97.6 64.3911111,97.6 Z M64.3911111,86.9333333 C55.4192092,86.6440469 47.2061807,81.8246659 42.5777778,74.1333333 C41.7923061,72.8863971 42.1663971,71.238805 43.4133333,70.4533333 C44.6602696,69.6678617 46.3078617,70.0419527 47.0933333,71.2888889 C50.5272772,77.6429732 57.1684829,81.6028564 64.3911111,81.6028564 C71.6137393,81.6028564 78.254945,77.6429732 81.6888889,71.2888889 C82.1969998,70.4822624 83.0968439,70.0079827 84.0494585,70.0447066 C85.002073,70.0814305 85.8627332,70.6235786 86.3072365,71.466929 C86.7517399,72.3102794 86.7125558,73.326707 86.2044444,74.1333333 C81.5760415,81.8246659 73.363013,86.6440469 64.3911111,86.9333333 Z" id="Shape" fill="#000000"></path>
                </g>
            </g>
        </g>
    </g>
</svg>
