<?xml version="1.0" encoding="UTF-8"?>
<svg width="128px" height="128px" viewBox="0 0 128 128" version="1.1" xmlns="http://www.w3.org/2000/svg" xmlns:xlink="http://www.w3.org/1999/xlink">
    <!-- Generator: sketchtool 52.6 (67491) - http://www.bohemiancoding.com/sketch -->
    <title>E5634461-F111-41D5-900A-F27FD7866BBE</title>
    <desc>Created with sketchtool.</desc>
    <g id="Mockups" stroke="none" stroke-width="1" fill="none" fill-rule="evenodd">
        <g id="Reassurance-Images-Themes---Free" transform="translate(-204.000000, -1304.000000)">
            <g id="Essentials" transform="translate(20.000000, 1244.000000)">
                <g id="pack2_clock" transform="translate(184.000000, 60.000000)">
                    <path d="M64,128 C28.653776,128 0,99.346224 0,64 C0,28.653776 28.653776,0 64,0 C99.346224,0 128,28.653776 128,64 C128,99.346224 99.346224,128 64,128 Z M64.3911111,24.7111111 C42.7906409,24.7111111 25.28,42.221752 25.28,63.8222222 C25.28,85.4226924 42.7906409,102.933333 64.3911111,102.933333 C85.9915813,102.933333 103.502222,85.4226924 103.502222,63.8222222 C103.502222,42.221752 85.9915813,24.7111111 64.3911111,24.7111111 Z M64.3911111,97.6 C45.7361596,97.6 30.6133333,82.4771738 30.6133333,63.8222222 C30.6133333,45.1672707 45.7361596,30.0444444 64.3911111,30.0444444 C83.0460627,30.0444444 98.1688889,45.1672707 98.1688889,63.8222222 C98.1688889,82.4771738 83.0460627,97.6 64.3911111,97.6 Z M82.1688889,62.0444444 L66.1688889,62.0444444 L66.1688889,42.4888889 C66.1688889,41.0161296 64.9749816,39.8222222 63.5022222,39.8222222 C62.0294629,39.8222222 60.8355556,41.0161296 60.8355556,42.4888889 L60.8355556,67.3777778 L82.1688889,67.3777778 C83.6416482,67.3777778 84.8355556,66.1838704 84.8355556,64.7111111 C84.8355556,63.2383518 83.6416482,62.0444444 82.1688889,62.0444444 Z" id="Shape" fill="#D8D8D8" fill-rule="nonzero"></path>
                    <path d="M64.3911111,24.7111111 C85.9915813,24.7111111 103.502222,42.221752 103.502222,63.8222222 C103.502222,85.4226924 85.9915813,102.933333 64.3911111,102.933333 C42.7906409,102.933333 25.28,85.4226924 25.28,63.8222222 C25.28,42.221752 42.7906409,24.7111111 64.3911111,24.7111111 Z M64.3911111,97.6 C83.0460627,97.6 98.1688889,82.4771738 98.1688889,63.8222222 C98.1688889,45.1672707 83.0460627,30.0444444 64.3911111,30.0444444 C45.7361596,30.0444444 30.6133333,45.1672707 30.6133333,63.8222222 C30.6133333,82.4771738 45.7361596,97.6 64.3911111,97.6 Z M82.1688889,62.0444444 C83.6416482,62.0444444 84.8355556,63.2383518 84.8355556,64.7111111 C84.8355556,66.1838704 83.6416482,67.3777778 82.1688889,67.3777778 L60.8355556,67.3777778 L60.8355556,42.4888889 C60.8355556,41.0161296 62.0294629,39.8222222 63.5022222,39.8222222 C64.9749816,39.8222222 66.1688889,41.0161296 66.1688889,42.4888889 L66.1688889,62.0444444 L82.1688889,62.0444444 Z" id="Shape" fill="#000000"></path>
                </g>
            </g>
        </g>
    </g>
</svg>