<?xml version="1.0" encoding="UTF-8"?>
<svg width="128px" height="128px" viewBox="0 0 128 128" version="1.1" xmlns="http://www.w3.org/2000/svg" xmlns:xlink="http://www.w3.org/1999/xlink">
    <!-- Generator: sketchtool 52.6 (67491) - http://www.bohemiancoding.com/sketch -->
    <title>D9C82A6D-BD3C-4C38-8BFC-E88EB5A5ACF7</title>
    <desc>Created with sketchtool.</desc>
    <g id="Mockups" stroke="none" stroke-width="1" fill="none" fill-rule="evenodd">
        <g id="Reassurance-Images-Themes---Free" transform="translate(-552.000000, -1304.000000)">
            <g id="Essentials" transform="translate(20.000000, 1244.000000)">
                <g id="pack2_gift" transform="translate(532.000000, 60.000000)">
                    <path d="M64,128 C28.653776,128 0,99.346224 0,64 C0,28.653776 28.653776,0 64,0 C99.346224,0 128,28.653776 128,64 C128,99.346224 99.346224,128 64,128 Z M96.5428571,42.0190476 C97.1098233,40.9577609 97.410507,39.7746356 97.4190476,38.5714286 C97.4190476,34.2095238 94.352381,28.5714286 85.5142857,28.5714286 C82.1174246,28.8883241 78.7997683,29.7837692 75.7047619,31.2190476 L76.4095238,30.2285714 C77.0587911,29.4009113 77.200747,28.2834286 76.7790406,27.3197206 C76.3573342,26.3560127 75.4401858,25.7019807 74.3916678,25.6172499 C73.3431498,25.5325191 72.3328833,26.0307966 71.7619048,26.9142857 L64.8285714,36.6095238 L59.4190476,27.0857143 C58.6353293,25.7128922 56.8871078,25.2353293 55.5142857,26.0190476 C54.1414636,26.802766 53.6639007,28.5509874 54.447619,29.9238095 L55.7428571,32.1904762 C52.0107203,30.0886033 47.8618682,28.8335431 43.5904762,28.5142857 C39.9142857,28.5142857 37.7047619,30.3047619 35.4190476,31.9238095 C33.1336008,33.3517414 31.7061897,35.8211625 31.6095238,38.5142857 C31.6180644,39.7174927 31.9187482,40.900618 32.4857143,41.9619048 C30.0098652,42.6377012 28.288273,44.881224 28.2761905,47.447619 L28.2761905,57.1428571 C28.2761905,60.29877 30.8345633,62.8571429 33.9904762,62.8571429 L33.9904762,97.1428571 C33.9904762,100.29877 36.548849,102.857143 39.7047619,102.857143 L89.2285714,102.857143 C92.3844843,102.857143 94.9428571,100.29877 94.9428571,97.1428571 L94.9428571,62.8571429 C98.09877,62.8571429 100.657143,60.29877 100.657143,57.1428571 L100.657143,47.5047619 C100.657143,44.9650794 98.9809524,42.7301587 96.5428571,42.0190476 Z M91.7047619,38.5714286 C91.598793,39.3702889 91.127083,40.0743337 90.4285714,40.4761905 C89.284647,41.3242541 87.9090065,41.8027378 86.4857143,41.847619 L69.8380952,41.847619 C73.7584236,37.2150095 79.4495135,34.4489876 85.5142857,34.2285714 C90.447619,34.2857143 91.7047619,37.1809524 91.7047619,38.5714286 Z M34.0857143,47.6190476 L60.752381,47.6190476 L60.752381,57.1428571 L34.0857143,57.1428571 L34.0857143,47.6190476 Z M43.6095238,34.2857143 C49.674296,34.5061305 55.365386,37.2721523 59.2857143,41.9047619 L42.6571429,41.9047619 C39.0761905,41.9047619 37.4380952,39.847619 37.4380952,38.6666667 C37.4380952,37.4857143 38.6761905,34.2857143 43.6095238,34.2857143 Z M39.8,62.8571429 L60.752381,62.8571429 L60.752381,97.1428571 L39.8,97.1428571 L39.8,62.8571429 Z M89.3238095,97.1428571 L66.4666667,97.1428571 L66.4666667,62.8571429 L89.3238095,62.8571429 L89.3238095,97.1428571 Z M95.0380952,57.1428571 L66.4666667,57.1428571 L66.4666667,47.6190476 L95.0380952,47.6190476 L95.0380952,57.1428571 Z" id="Shape" fill="#D8D8D8" fill-rule="nonzero"></path>
                    <path d="M96.5428571,42.0190476 C97.1098233,40.9577609 97.410507,39.7746356 97.4190476,38.5714286 C97.4190476,34.2095238 94.352381,28.5714286 85.5142857,28.5714286 C82.1174246,28.8883241 78.7997683,29.7837692 75.7047619,31.2190476 L76.4095238,30.2285714 C77.0587911,29.4009113 77.200747,28.2834286 76.7790406,27.3197206 C76.3573342,26.3560127 75.4401858,25.7019807 74.3916678,25.6172499 C73.3431498,25.5325191 72.3328833,26.0307966 71.7619048,26.9142857 L64.8285714,36.6095238 L59.4190476,27.0857143 C58.6353293,25.7128922 56.8871078,25.2353293 55.5142857,26.0190476 C54.1414636,26.802766 53.6639007,28.5509874 54.447619,29.9238095 L55.7428571,32.1904762 C52.0107203,30.0886033 47.8618682,28.8335431 43.5904762,28.5142857 C39.9142857,28.5142857 37.7047619,30.3047619 35.4190476,31.9238095 C33.1336008,33.3517414 31.7061897,35.8211625 31.6095238,38.5142857 C31.6180644,39.7174927 31.9187482,40.900618 32.4857143,41.9619048 C30.0098652,42.6377012 28.288273,44.881224 28.2761905,47.447619 L28.2761905,57.1428571 C28.2761905,60.29877 30.8345633,62.8571429 33.9904762,62.8571429 L33.9904762,97.1428571 C33.9904762,100.29877 36.548849,102.857143 39.7047619,102.857143 L89.2285714,102.857143 C92.3844843,102.857143 94.9428571,100.29877 94.9428571,97.1428571 L94.9428571,62.8571429 C98.09877,62.8571429 100.657143,60.29877 100.657143,57.1428571 L100.657143,47.5047619 C100.657143,44.9650794 98.9809524,42.7301587 96.5428571,42.0190476 L96.5428571,42.0190476 Z M91.7047619,38.5714286 C91.598793,39.3702889 91.127083,40.0743337 90.4285714,40.4761905 C89.284647,41.3242541 87.9090065,41.8027378 86.4857143,41.847619 L69.8380952,41.847619 C73.7584236,37.2150095 79.4495135,34.4489876 85.5142857,34.2285714 C90.447619,34.2857143 91.7047619,37.1809524 91.7047619,38.5714286 Z M34.0857143,47.6190476 L60.752381,47.6190476 L60.752381,57.1428571 L34.0857143,57.1428571 L34.0857143,47.6190476 Z M43.6095238,34.2857143 C49.674296,34.5061305 55.365386,37.2721523 59.2857143,41.9047619 L42.6571429,41.9047619 C39.0761905,41.9047619 37.4380952,39.847619 37.4380952,38.6666667 C37.4380952,37.4857143 38.6761905,34.2857143 43.6095238,34.2857143 Z M39.8,62.8571429 L60.752381,62.8571429 L60.752381,97.1428571 L39.8,97.1428571 L39.8,62.8571429 Z M89.3238095,97.1428571 L66.4666667,97.1428571 L66.4666667,62.8571429 L89.3238095,62.8571429 L89.3238095,97.1428571 Z M95.0380952,57.1428571 L66.4666667,57.1428571 L66.4666667,47.6190476 L95.0380952,47.6190476 L95.0380952,57.1428571 Z" id="Shape" fill="#000000"></path>
                </g>
            </g>
        </g>
    </g>
</svg>
