<?xml version="1.0" encoding="UTF-8"?>
<svg width="106px" height="125px" viewBox="0 0 106 125" version="1.1" xmlns="http://www.w3.org/2000/svg" xmlns:xlink="http://www.w3.org/1999/xlink">
    <!-- Generator: sketchtool 52.6 (67491) - http://www.bohemiancoding.com/sketch -->
    <title>4848D788-9A32-42C6-A647-AE7E8A1F6D42</title>
    <desc>Created with sketchtool.</desc>
    <g id="Mockups" stroke="none" stroke-width="1" fill="none" fill-rule="evenodd">
        <g id="Reassurance-Images-Themes---Free" transform="translate(-388.000000, -868.000000)" fill-rule="nonzero">
            <g id="IT-Icons" transform="translate(20.000000, 640.000000)">
                <g id="pack2_hotline" transform="translate(358.000000, 228.000000)">
                    <rect id="bg" x="0" y="0" width="128" height="128"></rect>
                    <path d="M72.6553725,7.14290196 L72.6553725,40.1016471 L65.443451,40.1016471 L65.443451,7.14290196 L72.6553725,7.14290196 Z M53.8105098,59.3342745 C53.8929325,53.9770268 56.8322315,49.07232 61.5176828,46.4735812 C66.203134,43.8748424 71.9202056,43.9783796 76.5084881,46.7450673 C81.0967705,49.511755 83.8565502,54.519673 83.7449412,59.8763922 C83.5893333,66.8561569 76.9207843,74.5336471 68.8555294,74.5336471 C61.1002353,74.5336471 53.8105098,67.2439216 53.8105098,59.3342745 Z" id="Shape" fill="#9B9B9B"></path>
                    <path d="M31.1096471,93.0857658 L31.1096471,87.0927059 C31.1096471,86.3171765 30.8812549,86.0072157 30.1057255,85.8516078 C24.6770196,84.6883137 19.3261176,83.443451 13.8974118,82.4395294 C12.7185074,82.3738278 11.6706556,81.6667244 11.168559,80.5980659 C10.6664624,79.5294073 10.791052,78.2714462 11.4930196,77.3220392 C15.1322353,71.270902 18.5443137,65.2247843 22.0341961,59.0983529 C22.4056392,58.4473812 22.6676365,57.739819 22.8097255,57.0039216 C23.6454781,51.4386702 25.0758854,45.9791423 27.0763922,40.7190588 C31.7534102,27.2560416 43.5301712,17.5117247 57.6307451,15.4378039 C58.4062745,15.2784314 58.5618824,14.9722353 58.5618824,14.2745098 L58.5618824,3.41709804 C58.4723226,2.54958073 58.7782718,1.68786703 59.3948377,1.07105773 C60.0114036,0.454248418 60.8729964,0.147959181 61.740549,0.237176471 L73.913098,0.237176471 C74.815531,0.119513183 75.7220599,0.422395578 76.3725167,1.05889832 C77.0229736,1.69540107 77.3454409,2.59514952 77.2473725,3.49992157 L77.2473725,14.8216471 C77.6378425,14.9039221 78.0223014,15.0125097 78.3981176,15.1466667 C81.6424842,15.7835122 84.8521222,16.5860264 88.0144314,17.5510588 C97.785098,20.9631373 105.230431,27.0883137 109.805804,36.4724706 C114.46092,46.0753223 116.083858,56.8673305 114.45898,67.4145882 C112.983978,78.6398536 107.233518,88.8627443 98.4062745,95.9523137 C97.8286451,96.3558149 97.5047928,97.0325709 97.5529412,97.7355294 L97.5529412,120.534588 C97.5529412,123.088314 96.4724706,124.173804 93.9137255,124.173804 L56.0809412,124.173804 C55.1910229,124.263919 54.3077315,123.949239 53.6752462,123.316754 C53.042761,122.684268 52.7280806,121.800977 52.8181961,120.911059 L52.8181961,115.01302 C52.8181961,114.706824 52.7403922,114.396863 52.7403922,114.009098 L34.5217255,114.009098 C34.021154,114.007454 33.5238215,113.928727 33.0472157,113.775686 C31.6530196,113.305098 31.1096471,112.296157 31.1096471,110.512941 L31.1096471,100.703844 C29.4832488,100.832044 27.7764814,100.900392 25.9858824,100.900392 L25.990902,100.900392 C25.7810945,100.882703 25.5699093,100.909208 25.3709804,100.978196 C23.2509,100.956365 21.5499332,99.2200019 21.5717647,97.0999216 C21.5935962,94.9798412 23.3299588,93.2788744 25.4500392,93.3007059 L26.0699608,93.3007059 C27.8489882,93.3007059 29.5270408,93.2257088 31.1096471,93.0857658 Z M56.8930637,75.8738711 C50.8338838,72.3598479 47.0474673,65.8867046 47.0007746,58.8280838 C46.9516444,51.4009689 51.0511063,44.5672254 57.6269804,41.1143529 C58.2771468,40.851178 58.6621566,40.1766325 58.5581176,39.4829804 L58.5581176,20.9468235 C55.3959539,21.4463595 52.3326005,22.4424893 49.4814118,23.8983529 C41.4161569,27.4660392 36.2208627,33.8246275 32.8087843,41.8120784 C30.5380395,47.3909862 28.9495396,53.2237727 28.0778039,59.1836863 C27.9361026,59.9439062 27.6743189,60.6767311 27.3022745,61.3546667 C24.4323137,66.3943529 21.4870588,71.4352941 18.617098,76.4762353 C18.377021,76.8181436 18.1690768,77.1815209 17.9959216,77.5617255 C20.3225098,78.0310588 22.5712941,78.5694118 24.8200784,79.0349804 C27.8443922,79.7327059 30.9465098,80.3538824 33.9708235,81.0516078 C35.987451,81.4393725 36.6851765,82.3705098 36.6851765,84.4636863 L36.6851765,92.2597065 C53.267588,88.7127957 56.4929578,77.2827394 56.6243137,76.6280784 C56.6885666,76.3626114 56.7793126,76.1104994 56.8930637,75.8738711 Z M63.8674393,78.8417251 C62.5787771,83.1566649 60.1593237,87.0516784 56.8564706,90.1207843 C53.0808388,93.8926014 46.7547516,98.1572601 36.6851765,99.9872673 L36.6851765,108.432314 L37.9262745,108.432314 C43.5105882,108.432314 49.0158431,108.510118 54.5223529,108.432314 C57.081098,108.432314 58.7099608,109.517804 58.476549,112.464314 C58.3987451,114.480941 58.476549,116.496314 58.476549,118.512941 L91.9824314,118.512941 L91.9824314,96.1756863 C91.8509579,94.7842263 92.510091,93.436396 93.689098,92.6858039 C101.662575,86.6613158 107.019974,77.8065824 108.656314,67.9479216 C110.171944,59.5732359 109.39493,50.9445592 106.407529,42.9753725 C102.142118,31.3424314 93.766902,24.3639216 81.824,21.5717647 C80.3507451,21.184 78.8774902,20.9518431 77.3264314,20.6418824 C77.2668626,21.0005134 77.2408155,21.3639119 77.2486275,21.7273725 L77.2486275,39.4089412 C77.2098709,40.0076157 77.551389,40.5660982 78.1019608,40.8043922 C85.4682353,44.9957647 89.1915294,51.3505882 88.8803137,59.8036078 C88.6116436,64.755867 86.4121202,69.4054126 82.7538824,72.7541961 C79.5919356,76.0053887 75.5019292,78.1992031 71.0443922,79.0349804 C68.6419162,79.4274138 66.2074717,79.3545748 63.8674393,78.8417251 Z M53.1294118,58.4821961 L53.1294118,58.4784314 C53.1294118,66.3918431 60.4178824,73.6815686 68.1744314,73.6828235 C76.2396863,73.6828235 82.9082353,66.0053333 83.0638431,59.0255686 C83.1740754,53.6698728 80.4141266,48.6634801 75.8265887,45.8975941 C71.2390509,43.1317081 65.5232376,43.0279542 60.8383418,45.6255261 C56.153446,48.223098 53.2136222,53.1260279 53.1294118,58.4821961 Z M71.5087059,5.8265098 L64.2967843,5.8265098 L64.2967843,38.7852549 L71.5087059,38.7852549 L71.5087059,5.8265098 Z M61.1946667,58.8687059 C61.0903804,56.9602094 61.8140753,55.0994242 63.1804183,53.7628836 C64.5467614,52.4263429 66.4230513,51.7438536 68.3287843,51.8901961 C72.1515487,51.8103073 75.3298311,54.8153102 75.4641569,58.636549 C75.4643646,62.5328842 72.3394427,65.7092298 68.4436231,65.7726126 C64.5478035,65.8359955 61.321208,62.7629857 61.1946667,58.8687059 Z M68.0966275,56.3099608 L68.0966275,56.3087059 C67.5205376,56.2877011 66.9597473,56.4966833 66.5378993,56.8895764 C66.1160513,57.2824695 65.8677868,57.8270097 65.8478431,58.4031373 C65.8263589,59.7310459 66.8854247,60.8249452 68.2133334,60.8464301 C69.541242,60.8679151 70.6351418,59.8088498 70.6566275,58.4809412 C70.6175773,57.8486644 70.3223958,57.2596488 69.8392542,56.8499258 C69.3561126,56.4402028 68.7267903,56.2452029 68.0966275,56.3099608 Z" id="Shape" fill="#000000"></path>
                </g>
            </g>
        </g>
    </g>
</svg>