<?xml version="1.0" encoding="UTF-8"?>
<svg width="116px" height="124px" viewBox="0 0 116 124" version="1.1" xmlns="http://www.w3.org/2000/svg" xmlns:xlink="http://www.w3.org/1999/xlink">
    <!-- Generator: sketchtool 53.2 (72643) - https://sketchapp.com -->
    <title>027975FC-D4E4-4672-AC7B-501B96AA246C</title>
    <desc>Created with sketchtool.</desc>
    <g id="Mockups" stroke="none" stroke-width="1" fill="none" fill-rule="evenodd">
        <g id="Reassurance-Images-Themes---Free" transform="translate(-36.000000, -693.000000)" fill="#000000" fill-rule="nonzero">
            <g id="IT-Icons" transform="translate(20.000000, 640.000000)">
                <path d="M56.4073786,133.171029 L56.4073786,111.26066 C56.4073786,110.672854 56.4657864,110.614447 56.9951845,110.614447 L63.5741359,110.614447 L63.5741359,109.144311 L55.8195728,109.144311 C55.2901748,109.144311 55.231767,109.202718 55.231767,109.790524 L55.231767,132.701282 C55.231767,133.054214 55.2901748,133.171029 55.6431068,133.171029 L56.4073786,133.171029 Z M57.9443038,127.570175 C57.5801628,127.956491 57.3856316,128.472386 57.4040388,129.002951 C57.434597,130.092982 58.3110564,130.969442 59.4010874,131 C60.2119713,131.007311 60.9460487,130.521461 61.2561927,129.772197 C61.5663367,129.022933 61.3903977,128.160399 60.8115728,127.592466 C60.4426423,127.169015 59.9041242,126.932104 59.3426796,126.946252 C58.8119527,126.959205 58.3084447,127.183859 57.9443038,127.570175 Z M131.129553,108.089243 C133.949282,130.11767 126.54765,148.33468 109.331029,162.193476 C97.6407767,171.533748 83.7770097,175.469437 68.0914175,173.883728 C63.2377338,173.406816 58.4734704,172.26008 53.9343689,170.476194 C53.708766,170.3575 53.4729416,170.259344 53.2297476,170.182913 L52.8768155,170.066097 C52.9936311,170.359379 53.1713398,170.653903 53.2881553,170.947184 C53.6361165,171.651806 53.9890485,172.356427 54.2823301,173.002641 C54.6442041,173.595818 54.7426432,174.312923 54.5539976,174.981672 C54.365352,175.65042 53.906672,176.210369 53.2881553,176.52699 C52.9008854,176.707208 52.4810781,176.806981 52.0541359,176.820272 C51.1040351,176.799965 50.2537958,176.225361 49.8806214,175.351379 C48.0003883,171.767379 46.4730874,168.772427 45.1222524,166.069515 C44.7056088,165.309087 44.662517,164.399116 45.0054369,163.602718 C45.4036954,162.780807 46.1648162,162.19363 47.0608932,162.01701 C50.1739029,161.24901 53.3465631,160.484738 56.401165,159.780117 L57.2238447,159.60365 C57.8318394,159.417622 58.4894479,159.488127 59.0441868,159.798819 C59.5989256,160.10951 60.0026085,160.633399 60.1616311,161.24901 C60.6280048,162.465437 60.0244853,163.830157 58.8107961,164.303612 C58.3994563,164.478835 57.9297087,164.596893 57.4599612,164.773359 C56.7769012,164.955728 56.1091761,165.191322 55.4629126,165.477981 L57.7544854,166.182602 C59.5763107,166.712 61.455301,167.298563 63.335534,167.651495 C79.3144078,170.764505 93.8243883,167.416621 106.395728,157.723417 C116.711729,149.972412 123.652721,138.551811 125.782136,125.82532 C128.604006,111.043862 124.875007,95.7651668 115.560777,83.9457087 C112.195765,79.6018188 108.148752,75.8322164 103.577243,72.7836117 C103.507743,72.6754041 103.40474,72.5929145 103.283961,72.5487379 C103.165903,72.4319223 102.989437,72.3722718 102.872621,72.2554563 C102.061799,71.7713996 101.581951,70.8814858 101.623065,69.9380591 C101.66418,68.9946323 102.219625,68.1498363 103.069484,67.7381515 C103.919343,67.3264667 104.926561,67.4142845 105.69235,67.966835 C109.210318,70.2614366 112.461471,72.9411369 115.385553,75.9562718 C124.0204,84.6473086 129.553292,95.9397533 131.129553,108.089243 Z M40.0146796,156.258252 C40.2265235,156.456787 40.423409,156.670703 40.6037282,156.898252 C41.087157,157.287381 41.3960087,157.852773 41.462212,158.469816 C41.5284153,159.086858 41.3465359,159.704902 40.9566602,160.187728 C40.5640778,160.859198 39.8538536,161.281671 39.0764272,161.306175 C38.5964482,161.298681 38.1282889,161.156123 37.7255922,160.894835 C36.8864409,160.341238 36.0998207,159.711858 35.3756117,159.014602 C25.7623867,150.252843 19.4047111,138.489916 17.3412816,125.647612 C14.6534627,110.425497 18.3971762,94.7702946 27.680699,82.4109515 C36.6542447,69.8640843 50.3617393,61.5252126 65.6295922,59.3249709 C73.0454924,58.1540523 80.6226094,58.5139611 87.8941359,60.3825243 C88.0121942,60.3825243 88.0706019,60.440932 88.247068,60.440932 L88.3638835,60.440932 C88.1290097,60.1464078 87.9525437,59.8531262 87.7760777,59.6182524 C87.2466796,58.9136311 86.8353398,58.2674175 86.3655922,57.6212039 C85.9352886,57.0843696 85.7367573,56.398138 85.8139635,55.7144777 C85.8911698,55.0308174 86.2377425,54.4061449 86.776932,53.9787961 C87.3666651,53.5396936 88.1051834,53.3495977 88.8336311,53.4493981 C89.5395802,53.5499204 90.1750177,53.9312725 90.5958058,54.5069515 C93.1806602,57.9778641 95.0608932,60.6807767 96.823068,63.2059806 C97.3286565,63.900534 97.4808082,64.7913798 97.2344078,65.6143689 C96.9429271,66.4844965 96.2730818,67.175817 95.4125825,67.4946019 C92.1815146,68.7286214 88.8920388,69.9626408 85.8374369,71.1370097 C84.9656686,71.5283718 83.9491947,71.4076242 83.193374,70.8229197 C82.4375533,70.2382152 82.0653352,69.2846677 82.2251563,68.3425416 C82.3849773,67.4004156 83.0508394,66.6229666 83.9572039,66.320233 L84.2504854,66.2021748 C84.9881881,65.9209688 85.6959172,65.5666879 86.3631068,65.1446214 C85.775301,65.0862136 85.1887379,64.9681553 84.600932,64.8513398 C83.1320388,64.5580583 81.6047379,64.3231845 80.1358447,64.1467184 C60.5045042,61.8983685 41.2740675,70.8663925 30.3786408,87.3507573 C23.8303256,96.9414687 20.8008119,108.501918 21.8038835,120.071534 C22.7919648,133.952042 29.2335946,146.877298 39.7213981,156.023379 C39.8382136,156.081786 39.8966214,156.199845 40.0146796,156.258252 Z M34.6113398,139.63068 C33.5075473,139.605146 32.554905,138.85067 32.2811098,137.782434 C32.0073146,136.714199 32.4795964,135.594506 33.4357282,135.045049 C34.7269126,134.339184 36.2554563,133.458097 37.841165,132.753476 C38.6111089,132.377321 39.5200905,132.421879 40.2495534,132.871534 C40.9660791,133.304553 41.3935638,134.090174 41.368,134.92699 C41.4015708,135.858714 40.8995342,136.727623 40.0755728,137.163883 L39.487767,137.457165 C38.2537476,138.103379 36.9613204,138.749592 35.6688932,139.395806 C35.3399424,139.556721 34.9774813,139.637221 34.6113398,139.63068 Z M111.508272,91.0503301 C112.634776,90.5380961 113.966468,90.9393043 114.622524,91.9885825 C115.029641,92.547098 115.198578,93.2443015 115.092272,93.9272233 C115.003339,94.374167 114.752397,94.7724889 114.38765,95.0456699 C113.095223,95.9267573 111.744388,96.6897864 110.451961,97.4540583 L109.217942,98.1586796 C109.077507,98.2460681 108.913258,98.2873476 108.748194,98.2767379 L108.689786,98.2767379 C107.543527,98.2758319 106.526188,97.5422275 106.16334,96.4549126 C105.783901,95.4452678 106.178978,94.308637 107.102835,93.752 C108.688544,92.6944466 110.097786,91.8146019 111.508272,91.0503301 Z M56.8746408,81.0663301 C57.045363,82.1979889 56.4096769,83.2970241 55.3436117,83.7133204 C55.0234177,83.8235018 54.6879906,83.8830401 54.3494369,83.8897864 C53.6337718,83.925394 52.956564,83.5643438 52.5872621,82.9502913 C51.5941452,81.4183103 50.6916283,79.8294656 49.8843495,78.1919223 C49.6144413,77.6637646 49.5722369,77.048209 49.767534,76.4881553 C49.9759584,75.8875457 50.422192,75.3990704 51.0015534,75.1373204 C52.1864967,74.5248491 53.6436661,74.9652479 54.2910291,76.1314951 C55.1721165,77.6587961 55.8767379,78.8319223 56.4645437,79.9503689 C56.6220496,80.2263422 56.7404129,80.5228779 56.816233,80.8314563 C56.816233,80.9495146 56.8746408,81.0079223 56.8746408,81.0663301 Z M94.2369709,75.8966214 L94.2394563,75.9015922 C94.569006,75.3885813 95.0919231,75.0305551 95.6893959,74.9088607 C96.2868687,74.7871663 96.9081636,74.9121371 97.4121165,75.2553786 C98.5121972,75.807921 98.9791652,77.1309056 98.4696699,78.2515728 C97.6741219,79.8953053 96.7711976,81.4848671 95.7667573,83.0099417 C95.454192,83.3432774 95.0724394,83.6041417 94.6483107,83.7742136 C94.4730874,83.8910291 94.2966214,83.9494369 94.1201553,84.0674951 L94.0617476,84.0674951 C93.1006542,83.9916168 92.230745,83.4694872 91.711767,82.6570097 C91.3091761,81.971066 91.2866555,81.1265416 91.6521165,80.4201165 C92.4109177,78.8558131 93.2745008,77.3445426 94.2369709,75.8966214 Z M118.969553,117.487922 C118.618095,117.477459 117.012917,117.554508 114.154019,117.719068 C112.831505,117.746783 111.727383,116.716415 111.663743,115.395142 C111.600104,114.07387 112.60009,112.942158 113.919146,112.842641 C115.622913,112.724583 117.32668,112.666175 118.912388,112.666175 C119.531628,112.676337 120.122084,112.92939 120.556505,113.370796 C121.036262,113.876289 121.290511,114.554734 121.261126,115.251029 C121.289227,115.862155 121.054884,116.456172 120.617105,116.883506 C120.179325,117.31084 119.579823,117.530771 118.969553,117.487922 Z M29.384466,117.428272 C28.0543499,117.412143 26.9891527,116.320796 27.0052816,114.99068 C27.0214104,113.660563 28.1127576,112.595366 29.4428738,112.611495 C31.0869903,112.611495 32.7323495,112.671146 34.3180583,112.787961 C34.9629237,112.80216 35.573604,113.080799 36.0069542,113.558566 C36.4403045,114.036332 36.6582237,114.671219 36.6096311,115.314408 C36.5710272,116.641704 35.4704421,117.690171 34.142835,117.664388 L29.384466,117.428272 Z M40.6037282,97.8094757 C40.4869126,97.8094757 40.3104466,97.8678835 40.1339806,97.8678835 C40.0159223,97.8678835 39.9575146,97.9262913 39.8394563,97.9262913 C39.7226408,97.9262913 39.6045825,97.8678835 39.487767,97.8678835 C39.1788999,97.8235824 38.8804807,97.7242496 38.6066796,97.5746019 C37.1390291,96.7519223 35.7869515,95.9304854 34.6125825,95.1662136 C34.0241351,94.7891549 33.6035577,94.1999015 33.4382136,93.5208544 C33.2687733,92.9380492 33.3769368,92.3096929 33.7314951,91.8170874 C34.0891313,91.2537836 34.6606969,90.8603662 35.3145655,90.7274355 C35.9684342,90.5945049 36.6482425,90.7335197 37.1974369,91.112466 C38.4898641,91.8767379 39.840699,92.6981748 41.1331262,93.5208544 C41.9596462,93.998527 42.42167,94.9230636 42.3074951,95.870835 C42.2584124,96.8341843 41.5527955,97.6370744 40.6037282,97.8094757 Z M114.974214,135.405437 C115.92463,135.997485 116.339258,137.16814 115.973359,138.226408 C115.560023,139.2708 114.506817,139.916902 113.388505,139.812117 C112.974515,139.581128 112.542253,139.384532 112.096078,139.224311 C110.416906,138.609121 108.863841,137.693201 107.512932,136.521398 C106.778329,135.702642 106.778329,134.462018 107.512932,133.643262 C108.149574,132.674188 109.403386,132.323079 110.450718,132.820583 C112.036427,133.643262 113.564971,134.52435 114.974214,135.405437 Z M50.7070291,148.504932 C51.2349656,147.620673 52.3127875,147.228926 53.2881553,147.565437 C54.3940896,147.927301 55.1176152,148.988608 55.0503301,150.150291 L55.0503301,150.208699 C55.0503301,150.26835 54.9906796,150.326757 54.9906796,150.385165 C54.9133313,150.674777 54.7948988,150.951817 54.6389903,151.207845 C53.8747184,152.440621 53.1116893,153.733049 52.2890097,154.967068 C51.8066658,155.779846 50.9421356,156.289469 49.9974369,156.317903 C49.5622754,156.311582 49.1365317,156.190248 48.7634175,155.966214 C48.1722876,155.599 47.7685564,154.994377 47.6559273,154.307649 C47.5432982,153.620921 47.7327471,152.919011 48.1756117,152.382214 L48.4701359,151.912466 C49.1797282,150.796505 49.9427573,149.623379 50.7070291,148.504932 Z M76.6152233,71.431534 L76.6152233,76.4247767 C76.6079658,77.0507427 76.3480677,77.647214 75.8945512,78.0787333 C75.4410347,78.5102525 74.8323886,78.740198 74.206835,78.7163495 C72.9112133,78.7428224 71.8363709,77.7201138 71.7984466,76.4247767 C71.7400388,74.7210097 71.7400388,73.0768932 71.7984466,71.431534 C71.8060367,70.8057849 72.0660803,70.2096361 72.5195594,69.7783864 C72.9730384,69.3471367 73.5814943,69.1173595 74.206835,69.1412039 C74.8321756,69.1173595 75.4406315,69.3471367 75.8941105,69.7783864 C76.3475896,70.2096361 76.6076332,70.8057849 76.6152233,71.431534 Z M96.0587961,147.564194 L96.063767,147.562951 C96.603736,147.60923 97.0968318,147.888213 97.4146019,148.327223 C98.2721608,149.471102 99.0570326,150.667709 99.7645825,151.909981 C99.9994563,152.32132 100.23433,152.674252 100.469204,153.085592 C100.556391,153.226071 100.597253,153.390386 100.586019,153.55534 L100.586019,153.673398 C100.675836,154.711056 100.080807,155.686664 99.1171262,156.081786 C98.7546361,156.193655 98.3780038,156.253079 97.9986796,156.258252 C97.289151,156.267554 96.624228,155.913054 96.2365049,155.318757 C95.3554175,154.02633 94.4730874,152.615845 93.5335922,151.030136 C92.9558147,149.981137 93.2593124,148.665445 94.2382136,147.975534 C94.7660975,147.601481 95.4213731,147.453429 96.0587961,147.564194 Z M74.1484272,163.309437 C73.5075447,163.316497 72.8908511,163.065024 72.4376513,162.611824 C71.9844514,162.158625 71.7329789,161.541931 71.7400388,160.901049 C71.6816311,159.314097 71.6816311,157.669981 71.7400388,156.024621 C71.7349662,155.389608 71.9890163,154.779975 72.4435305,154.336484 C72.8980448,153.892992 73.5137295,153.653983 74.1484272,153.674641 L74.206835,153.674641 C75.5144713,153.674256 76.5835108,154.71737 76.6152233,156.024621 L76.6152233,160.959456 C76.6062525,161.600351 76.3396731,162.210655 75.8755927,162.652759 C75.4115123,163.094863 74.7890032,163.331544 74.1484272,163.309437 Z M101.759146,119.308505 C101.662973,120.941487 100.846701,122.44747 99.5309515,123.419417 C100.74259,125.62315 100.140173,128.383124 98.120466,129.881553 C98.1801165,129.998369 98.1801165,130.056777 98.2385243,130.174835 C98.8446953,131.631285 98.7329053,133.28769 97.9365324,134.649483 C97.1401595,136.011276 95.751351,136.920885 94.1847767,137.106718 C93.8143916,137.15891 93.4401368,137.178454 93.0663301,137.165126 L75.6185631,137.165126 C72.7607314,137.193134 69.9387059,136.527924 67.3942524,135.226485 C67.2707484,135.126457 67.1318294,135.047134 66.9829126,134.991612 C66.9387288,135.0799 66.8789451,135.159471 66.8064466,135.226485 C66.5237939,135.585437 66.2093562,135.918175 65.8669515,136.22066 C65.1718901,136.838694 64.2704983,137.17389 63.3405049,137.160155 L55.4094757,137.160155 C53.0287816,137.104477 51.1404962,135.135662 51.184233,132.754718 L51.184233,109.667495 C51.119738,107.782194 52.284355,106.07248 54.0623689,105.442252 C54.5600729,105.302371 55.0729339,105.223501 55.5896699,105.207379 L65.4580971,105.207379 C65.9169899,105.169541 66.3745533,105.294491 66.7505243,105.560311 L69.1589126,102.447301 C70.2189515,101.038058 71.2740194,99.6859806 72.3315728,98.3351456 C73.7367271,96.5447068 74.4827264,94.3251393 74.4441942,92.0494757 L74.4441942,91.8730097 C74.4343798,91.3044611 74.4538749,90.7357844 74.5026019,90.1692427 C74.7318797,88.6653352 75.7361888,87.3933048 77.1458641,86.8213592 C78.5281103,86.2220334 80.1272163,86.4245423 81.3164272,87.3495146 C83.7764204,89.1706022 85.4053481,91.9003988 85.8399223,94.9300971 C86.1840771,96.8812158 86.0017632,98.888814 85.311767,100.746019 C84.8370485,102.21367 84.3126214,103.682563 83.8428738,105.151456 L95.591534,105.151456 C97.9439248,105.049536 100.131023,106.358292 101.153102,108.479491 C102.175181,110.60069 101.835863,113.126775 100.290252,114.903068 C101.35063,116.115273 101.879853,117.702494 101.759146,119.308505 Z M95.5318835,120.717748 C95.8264005,120.751579 96.1223014,120.6671 96.3545631,120.482874 C97.0437943,120.338781 97.5906851,119.814557 97.7638058,119.132039 C97.9675085,118.444712 97.7357889,117.702424 97.1772427,117.253049 C96.7843674,116.964341 96.3136473,116.80065 95.8264078,116.783301 C95.1637394,116.741346 94.5671673,116.36732 94.240699,115.789126 C93.8707373,115.223204 93.8481928,114.497944 94.1822913,113.910136 C94.5595953,113.260632 95.2517559,112.858565 96.0028738,112.852583 C96.622055,112.814912 97.1876044,112.488651 97.5301748,111.971495 C97.8819572,111.473157 97.9488217,110.827585 97.7066408,110.267728 C97.3681977,109.476062 96.5690278,108.982238 95.7095922,109.033709 L81.2580194,109.033709 C80.3192052,109.110497 79.4672955,108.48389 79.2609709,107.564816 C79.1824261,107.092238 79.2225678,106.607548 79.3777864,106.15433 C79.9655922,104.392155 80.5521553,102.571573 81.1399612,100.867806 L81.6693592,99.2820971 C82.1414627,97.9438015 82.2428015,96.5027302 81.9626408,95.111534 C81.5954506,93.2678158 80.5730444,91.6194286 79.0845049,90.4712233 C78.9733719,90.3670755 78.8088973,90.3437211 78.673165,90.4128155 C78.5522148,90.4563323 78.4784953,90.5788521 78.496699,90.7060971 L78.496699,91.7002718 C78.562932,95.0071781 77.4605906,98.2314716 75.3836893,100.80567 C72.7963495,104.095146 70.2114951,107.385864 67.8031068,110.557282 C67.6925828,110.712087 67.6311047,110.896521 67.6266408,111.08668 L67.6266408,130.648311 C67.6266019,130.664146 67.6328611,130.679347 67.6440388,130.690563 C67.6548735,130.701552 67.669617,130.707807 67.6850485,130.707961 C68.0392233,130.884427 68.4505631,131.119301 68.8034951,131.295767 C69.1829158,131.514878 69.5750685,131.711162 69.9778641,131.883573 C71.5671312,132.667299 73.3171932,133.069818 75.089165,133.059184 L93.6516505,133.059184 C94.2322218,133.025986 94.7044824,132.579437 94.7700971,132.001631 C94.7513419,131.391868 94.2614139,130.90194 93.6516505,130.883184 C92.5330683,130.864793 91.6400729,129.945124 91.6546019,128.826485 C91.6709528,127.739771 92.5649291,126.871941 93.6516505,126.887845 L95.0621359,126.887845 C95.6099634,126.91603 96.1114693,126.581692 96.2961553,126.065165 C96.3583028,125.759689 96.294687,125.442058 96.1196893,125.184078 C95.8925316,124.894208 95.5471499,124.721745 95.1789515,124.71433 C94.5235508,124.692902 93.9156181,124.367109 93.534835,123.833243 C93.1281034,123.245204 93.0610568,122.486444 93.3583689,121.836194 C93.6648203,121.193792 94.2936357,120.766349 95.0037282,120.717748 L95.5318835,120.717748 Z" id="pack2_satisfaction"></path>
            </g>
        </g>
    </g>
</svg>