<?xml version="1.0" encoding="UTF-8"?>
<svg width="116px" height="124px" viewBox="0 0 116 124" version="1.1" xmlns="http://www.w3.org/2000/svg" xmlns:xlink="http://www.w3.org/1999/xlink">
    <!-- Generator: sketchtool 52.6 (67491) - http://www.bohemiancoding.com/sketch -->
    <title>BC80D9C0-3264-44A7-B3F1-6A412191B8B6</title>
    <desc>Created with sketchtool.</desc>
    <g id="Mockups" stroke="none" stroke-width="1" fill="none" fill-rule="evenodd">
        <g id="Reassurance-Images-Themes---Free" transform="translate(-36.000000, -693.000000)" fill-rule="nonzero">
            <g id="IT-Icons" transform="translate(20.000000, 640.000000)">
                <g id="pack2_satisfaction" transform="translate(10.000000, 51.000000)">
                    <path d="M54.7485049,83.1130097 C54.7485049,83.5827573 54.6900971,83.641165 54.2203495,83.641165 L46.8187184,83.641165 C46.4670291,83.641165 46.4073786,83.5243495 46.4073786,83.1714175 L46.4073786,60.2606602 C46.4073786,59.6728544 46.4657864,59.6144466 46.9951845,59.6144466 L54.7497476,59.6144466 L54.7497476,82.2319223 L54.7485049,83.1130097 Z M47.9443038,76.570175 C47.5801628,76.9564912 47.3856316,77.4723857 47.4040388,78.0029515 C47.434597,79.0929824 48.3110564,79.9694418 49.4010874,80 C50.2119713,80.0073111 50.9460487,79.5214615 51.2561927,78.7721973 C51.5663367,78.0229331 51.3903977,77.160399 50.8115728,76.592466 C50.4426423,76.1690153 49.9041242,75.9321038 49.3426796,75.9462524 C48.8119527,75.9592053 48.3084447,76.1838588 47.9443038,76.570175 Z M121.129553,57.0892427 C123.949282,79.1176699 116.54765,97.3346796 99.3310291,111.193476 C87.6407767,120.533748 73.7770097,124.469437 58.0914175,122.883728 C53.2377338,122.406816 48.4734704,121.26008 43.9343689,119.476194 C43.708766,119.3575 43.4729416,119.259344 43.2297476,119.182913 L42.8768155,119.066097 C42.9936311,119.359379 43.1713398,119.653903 43.2881553,119.947184 C43.6361165,120.651806 43.9890485,121.356427 44.2823301,122.002641 C44.6442041,122.595818 44.7426432,123.312923 44.5539976,123.981672 C44.365352,124.65042 43.906672,125.210369 43.2881553,125.52699 C42.9008854,125.707208 42.4810781,125.806981 42.0541359,125.820272 C41.1040351,125.799965 40.2537958,125.225361 39.8806214,124.351379 C38.0003883,120.767379 36.4730874,117.772427 35.1222524,115.069515 C34.7056088,114.309087 34.662517,113.399116 35.0054369,112.602718 C35.4036954,111.780807 36.1648162,111.19363 37.0608932,111.01701 C40.1739029,110.24901 43.3465631,109.484738 46.401165,108.780117 L47.2238447,108.60365 C47.8318394,108.417622 48.4894479,108.488127 49.0441868,108.798819 C49.5989256,109.10951 50.0026085,109.633399 50.1616311,110.24901 C50.6280048,111.465437 50.0244853,112.830157 48.8107961,113.303612 C48.3994563,113.478835 47.9297087,113.596893 47.4599612,113.773359 C46.7769012,113.955728 46.1091761,114.191322 45.4629126,114.477981 L47.7544854,115.182602 C49.5763107,115.712 51.455301,116.298563 53.335534,116.651495 C69.3144078,119.764505 83.8243883,116.416621 96.3957282,106.723417 C106.711729,98.9724117 113.652721,87.5518108 115.782136,74.8253204 C118.604006,60.0438616 114.875007,44.7651668 105.560777,32.9457087 C102.195765,28.6018188 98.1487515,24.8322164 93.5772427,21.7836117 C93.5077429,21.6754041 93.40474,21.5929145 93.2839612,21.5487379 C93.1659029,21.4319223 92.9894369,21.3722718 92.8726214,21.2554563 C92.0617986,20.7713996 91.5819512,19.8814858 91.6230654,18.9380591 C91.6641797,17.9946323 92.2196251,17.1498363 93.069484,16.7381515 C93.9193428,16.3264667 94.9265608,16.4142845 95.6923495,16.966835 C99.2103178,19.2614366 102.461471,21.9411369 105.385553,24.9562718 C114.0204,33.6473086 119.553292,44.9397533 121.129553,57.0892427 Z M30.0146796,105.258252 C30.2265235,105.456787 30.423409,105.670703 30.6037282,105.898252 C31.087157,106.287381 31.3960087,106.852773 31.462212,107.469816 C31.5284153,108.086858 31.3465359,108.704902 30.9566602,109.187728 C30.5640778,109.859198 29.8538536,110.281671 29.0764272,110.306175 C28.5964482,110.298681 28.1282889,110.156123 27.7255922,109.894835 C26.8864409,109.341238 26.0998207,108.711858 25.3756117,108.014602 C15.7623867,99.2528426 9.40471106,87.4899159 7.34128155,74.6476117 C4.65346274,59.4254965 8.39717623,43.7702946 17.680699,31.4109515 C26.6542447,18.8640843 40.3617393,10.5252126 55.6295922,8.32497087 C63.0454924,7.15405228 70.6226094,7.51396111 77.8941359,9.38252427 C78.0121942,9.38252427 78.0706019,9.44093204 78.247068,9.44093204 L78.3638835,9.44093204 C78.1290097,9.14640777 77.9525437,8.85312621 77.7760777,8.61825243 C77.2466796,7.91363107 76.8353398,7.26741748 76.3655922,6.62120388 C75.9352886,6.08436956 75.7367573,5.39813805 75.8139635,4.71447771 C75.8911698,4.03081736 76.2377425,3.40614487 76.776932,2.97879612 C77.3666651,2.5396936 78.1051834,2.34959766 78.8336311,2.44939806 C79.5395802,2.54992038 80.1750177,2.93127247 80.5958058,3.50695146 C83.1806602,6.97786408 85.0608932,9.6807767 86.823068,12.2059806 C87.3286565,12.900534 87.4808082,13.7913798 87.2344078,14.6143689 C86.9429271,15.4844965 86.2730818,16.175817 85.4125825,16.4946019 C82.1815146,17.7286214 78.8920388,18.9626408 75.8374369,20.1370097 C74.9656686,20.5283718 73.9491947,20.4076242 73.193374,19.8229197 C72.4375533,19.2382152 72.0653352,18.2846677 72.2251563,17.3425416 C72.3849773,16.4004156 73.0508394,15.6229666 73.9572039,15.320233 L74.2504854,15.2021748 C74.9881881,14.9209688 75.6959172,14.5666879 76.3631068,14.1446214 C75.775301,14.0862136 75.1887379,13.9681553 74.600932,13.8513398 C73.1320388,13.5580583 71.6047379,13.3231845 70.1358447,13.1467184 C50.5045042,10.8983685 31.2740675,19.8663925 20.3786408,36.3507573 C13.8303256,45.9414687 10.8008119,57.5019176 11.8038835,69.071534 C12.7919648,82.9520419 19.2335946,95.8772984 29.7213981,105.023379 C29.8382136,105.081786 29.8966214,105.199845 30.0146796,105.258252 Z M24.6113398,88.6306796 C23.5075473,88.6051462 22.554905,87.8506702 22.2811098,86.7824344 C22.0073146,85.7141986 22.4795964,84.5945061 23.4357282,84.0450485 C24.7269126,83.3391845 26.2554563,82.4580971 27.841165,81.7534757 C28.6111089,81.3773208 29.5200905,81.4218787 30.2495534,81.871534 C30.9660791,82.3045526 31.3935638,83.0901745 31.368,83.9269903 C31.4015708,84.8587137 30.8995342,85.7276231 30.0755728,86.1638835 L29.487767,86.457165 C28.2537476,87.1033786 26.9613204,87.7495922 25.6688932,88.3958058 C25.3399424,88.5567211 24.9774813,88.6372206 24.6113398,88.6306796 Z M101.508272,40.0503301 C102.634776,39.5380961 103.966468,39.9393043 104.622524,40.9885825 C105.029641,41.547098 105.198578,42.2443015 105.092272,42.9272233 C105.003339,43.374167 104.752397,43.7724889 104.38765,44.0456699 C103.095223,44.9267573 101.744388,45.6897864 100.451961,46.4540583 L99.2179417,47.1586796 C99.0775071,47.2460681 98.913258,47.2873476 98.7481942,47.2767379 L98.6897864,47.2767379 C97.5435265,47.2758319 96.5261883,46.5422275 96.1633398,45.4549126 C95.7839005,44.4452678 96.1789777,43.308637 97.102835,42.752 C98.6885437,41.6944466 100.097786,40.8146019 101.508272,40.0503301 Z M46.8746408,30.0663301 C47.045363,31.1979889 46.4096769,32.2970241 45.3436117,32.7133204 C45.0234177,32.8235018 44.6879906,32.8830401 44.3494369,32.8897864 C43.6337718,32.925394 42.956564,32.5643438 42.5872621,31.9502913 C41.5941452,30.4183103 40.6916283,28.8294656 39.8843495,27.1919223 C39.6144413,26.6637646 39.5722369,26.048209 39.767534,25.4881553 C39.9759584,24.8875457 40.422192,24.3990704 41.0015534,24.1373204 C42.1864967,23.5248491 43.6436661,23.9652479 44.2910291,25.1314951 C45.1721165,26.6587961 45.8767379,27.8319223 46.4645437,28.9503689 C46.6220496,29.2263422 46.7404129,29.5228779 46.816233,29.8314563 C46.816233,29.9495146 46.8746408,30.0079223 46.8746408,30.0663301 Z M84.2369709,24.8966214 L84.2394563,24.9015922 C84.569006,24.3885813 85.0919231,24.0305551 85.6893959,23.9088607 C86.2868687,23.7871663 86.9081636,23.9121371 87.4121165,24.2553786 C88.5121972,24.807921 88.9791652,26.1309056 88.4696699,27.2515728 C87.6741219,28.8953053 86.7711976,30.4848671 85.7667573,32.0099417 C85.454192,32.3432774 85.0724394,32.6041417 84.6483107,32.7742136 C84.4730874,32.8910291 84.2966214,32.9494369 84.1201553,33.0674951 L84.0617476,33.0674951 C83.1006542,32.9916168 82.230745,32.4694872 81.711767,31.6570097 C81.3091761,30.971066 81.2866555,30.1265416 81.6521165,29.4201165 C82.4109177,27.8558131 83.2745008,26.3445426 84.2369709,24.8966214 Z M108.969553,66.4879223 C108.618095,66.4774593 107.012917,66.5545078 104.154019,66.719068 C102.831505,66.7467825 101.727383,65.7164151 101.663743,64.3951425 C101.600104,63.0738698 102.60009,61.9421578 103.919146,61.8426408 C105.622913,61.7245825 107.32668,61.6661748 108.912388,61.6661748 C109.531628,61.6763369 110.122084,61.9293896 110.556505,62.3707961 C111.036262,62.8762892 111.290511,63.5547342 111.261126,64.2510291 C111.289227,64.8621555 111.054884,65.4561724 110.617105,65.8835061 C110.179325,66.3108398 109.579823,66.5307715 108.969553,66.4879223 Z M19.384466,66.4282718 C18.0543499,66.412143 16.9891527,65.3207958 17.0052816,63.9906796 C17.0214104,62.6605635 18.1127576,61.5953663 19.4428738,61.6114951 C21.0869903,61.6114951 22.7323495,61.6711456 24.3180583,61.7879612 C24.9629237,61.8021599 25.573604,62.0807993 26.0069542,62.5585656 C26.4403045,63.0363319 26.6582237,63.671219 26.6096311,64.3144078 C26.5710272,65.641704 25.4704421,66.6901707 24.142835,66.6643883 L19.384466,66.4282718 Z M30.6037282,46.8094757 C30.4869126,46.8094757 30.3104466,46.8678835 30.1339806,46.8678835 C30.0159223,46.8678835 29.9575146,46.9262913 29.8394563,46.9262913 C29.7226408,46.9262913 29.6045825,46.8678835 29.487767,46.8678835 C29.1788999,46.8235824 28.8804807,46.7242496 28.6066796,46.5746019 C27.1390291,45.7519223 25.7869515,44.9304854 24.6125825,44.1662136 C24.0241351,43.7891549 23.6035577,43.1999015 23.4382136,42.5208544 C23.2687733,41.9380492 23.3769368,41.3096929 23.7314951,40.8170874 C24.0891313,40.2537836 24.6606969,39.8603662 25.3145655,39.7274355 C25.9684342,39.5945049 26.6482425,39.7335197 27.1974369,40.112466 C28.4898641,40.8767379 29.840699,41.6981748 31.1331262,42.5208544 C31.9596462,42.998527 32.42167,43.9230636 32.3074951,44.870835 C32.2584124,45.8341843 31.5527955,46.6370744 30.6037282,46.8094757 Z M104.974214,84.4054369 C105.92463,84.9974855 106.339258,86.1681401 105.973359,87.2264078 C105.560023,88.2708 104.506817,88.9169017 103.388505,88.8121165 C102.974515,88.5811282 102.542253,88.384532 102.096078,88.2243107 C100.416906,87.6091215 98.8638408,86.6932006 97.512932,85.5213981 C96.7783291,84.7026421 96.7783291,83.4620181 97.512932,82.6432621 C98.1495736,81.6741884 99.4033855,81.3230786 100.450718,81.8205825 C102.036427,82.6432621 103.564971,83.5243495 104.974214,84.4054369 Z M40.7070291,97.504932 C41.2349656,96.6206726 42.3127875,96.2289258 43.2881553,96.5654369 C44.3940896,96.9273008 45.1176152,97.9886076 45.0503301,99.1502913 L45.0503301,99.208699 C45.0503301,99.2683495 44.9906796,99.3267573 44.9906796,99.385165 C44.9133313,99.6747769 44.7948988,99.9518167 44.6389903,100.207845 C43.8747184,101.440621 43.1116893,102.733049 42.2890097,103.967068 C41.8066658,104.779846 40.9421356,105.289469 39.9974369,105.317903 C39.5622754,105.311582 39.1365317,105.190248 38.7634175,104.966214 C38.1722876,104.599 37.7685564,103.994377 37.6559273,103.307649 C37.5432982,102.620921 37.7327471,101.919011 38.1756117,101.382214 L38.4701359,100.912466 C39.1797282,99.7965049 39.9427573,98.6233786 40.7070291,97.504932 Z M66.6152233,20.431534 L66.6152233,25.4247767 C66.6079658,26.0507427 66.3480677,26.647214 65.8945512,27.0787333 C65.4410347,27.5102525 64.8323886,27.740198 64.206835,27.7163495 C62.9112133,27.7428224 61.8363709,26.7201138 61.7984466,25.4247767 C61.7400388,23.7210097 61.7400388,22.0768932 61.7984466,20.431534 C61.8060367,19.8057849 62.0660803,19.2096361 62.5195594,18.7783864 C62.9730384,18.3471367 63.5814943,18.1173595 64.206835,18.1412039 C64.8321756,18.1173595 65.4406315,18.3471367 65.8941105,18.7783864 C66.3475896,19.2096361 66.6076332,19.8057849 66.6152233,20.431534 Z M86.0587961,96.5641942 L86.063767,96.5629515 C86.603736,96.6092301 87.0968318,96.8882126 87.4146019,97.3272233 C88.2721608,98.4711016 89.0570326,99.6677093 89.7645825,100.909981 C89.9994563,101.32132 90.2343301,101.674252 90.4692039,102.085592 C90.556391,102.226071 90.5972525,102.390386 90.5860194,102.55534 L90.5860194,102.673398 C90.6758365,103.711056 90.0808066,104.686664 89.1171262,105.081786 C88.7546361,105.193655 88.3780038,105.253079 87.9986796,105.258252 C87.289151,105.267554 86.624228,104.913054 86.2365049,104.318757 C85.3554175,103.02633 84.4730874,101.615845 83.5335922,100.030136 C82.9558147,98.9811373 83.2593124,97.6654452 84.2382136,96.975534 C84.7660975,96.6014812 85.4213731,96.4534292 86.0587961,96.5641942 Z M64.1484272,112.309437 C63.5075447,112.316497 62.8908511,112.065024 62.4376513,111.611824 C61.9844514,111.158625 61.7329789,110.541931 61.7400388,109.901049 C61.6816311,108.314097 61.6816311,106.669981 61.7400388,105.024621 C61.7349662,104.389608 61.9890163,103.779975 62.4435305,103.336484 C62.8980448,102.892992 63.5137295,102.653983 64.1484272,102.674641 L64.206835,102.674641 C65.5144713,102.674256 66.5835108,103.71737 66.6152233,105.024621 L66.6152233,109.959456 C66.6062525,110.600351 66.3396731,111.210655 65.8755927,111.652759 C65.4115123,112.094863 64.7890032,112.331544 64.1484272,112.309437 Z" id="Shape" fill="#9B9B9B"></path>
                    <path d="M91.7591456,68.3085049 C91.8798532,66.7024939 91.3506303,65.1152727 90.2902524,63.903068 C91.8358634,62.1267748 92.1751806,59.60069 91.1531017,57.479491 C90.1310227,55.358292 87.9439248,54.0495355 85.591534,54.1514563 L73.8428738,54.1514563 C74.3126214,52.6825631 74.8370485,51.2136699 75.311767,49.7460194 C76.0017632,47.888814 76.1840771,45.8812158 75.8399223,43.9300971 C75.4053481,40.9003988 73.7764204,38.1706022 71.3164272,36.3495146 C70.1272163,35.4245423 68.5281103,35.2220334 67.1458641,35.8213592 C65.7361888,36.3933048 64.7318797,37.6653352 64.5026019,39.1692427 C64.4538749,39.7357844 64.4343798,40.3044611 64.4441942,40.8730097 L64.4441942,41.0494757 C64.4827264,43.3251393 63.7367271,45.5447068 62.3315728,47.3351456 C61.2740194,48.6859806 60.2189515,50.0380583 59.1589126,51.447301 L56.7505243,54.5603107 C56.3745533,54.2944908 55.9169899,54.1695408 55.4580971,54.2073786 L45.5896699,54.2073786 C45.0729339,54.2235013 44.5600729,54.3023709 44.0623689,54.4422524 C42.284355,55.0724799 41.119738,56.7821939 41.184233,58.6674951 L41.184233,81.7547184 C41.1404962,84.1356619 43.0287816,86.1044771 45.4094757,86.1601553 L53.3405049,86.1601553 C54.2704983,86.1738897 55.1718901,85.8386943 55.8669515,85.2206602 C56.2093562,84.9181748 56.5237939,84.5854365 56.8064466,84.2264854 C56.8789451,84.1594709 56.9387288,84.0798996 56.9829126,83.9916117 C57.1318294,84.0471344 57.2707484,84.1264567 57.3942524,84.2264854 C59.9387059,85.5279242 62.7607314,86.1931342 65.6185631,86.1651262 L83.0663301,86.1651262 C83.4401368,86.1784543 83.8143916,86.1589099 84.1847767,86.1067184 C85.751351,85.9208845 87.1401595,85.011276 87.9365324,83.6494832 C88.7329053,82.2876904 88.8446953,80.6312848 88.2385243,79.174835 C88.1801165,79.0567767 88.1801165,78.9983689 88.120466,78.8815534 C90.1401727,77.3831244 90.7425903,74.6231498 89.5309515,72.4194175 C90.8467013,71.4474699 91.6629732,69.941487 91.7591456,68.3085049 Z M85.5318835,69.7177476 L85.0037282,69.7177476 C84.2936357,69.7663492 83.6648203,70.1937917 83.3583689,70.8361942 C83.0610568,71.4864444 83.1281034,72.2452042 83.534835,72.8332427 C83.9156181,73.3671091 84.5235508,73.6929022 85.1789515,73.7143301 C85.5471499,73.7217452 85.8925316,73.8942079 86.1196893,74.1840777 C86.294687,74.4420578 86.3583028,74.759689 86.2961553,75.065165 C86.1114693,75.5816923 85.6099634,75.9160296 85.0621359,75.8878447 L83.6516505,75.8878447 C82.5649291,75.8719406 81.6709528,76.7397707 81.6546019,77.8264854 C81.6400729,78.9451244 82.5330683,79.864793 83.6516505,79.8831845 C84.2614139,79.9019397 84.7513419,80.3918677 84.7700971,81.0016311 C84.7044824,81.5794372 84.2322218,82.0259858 83.6516505,82.0591845 L65.089165,82.0591845 C63.3171932,82.0698178 61.5671312,81.6672993 59.9778641,80.8835728 C59.5750685,80.711162 59.1829158,80.5148782 58.8034951,80.295767 C58.4505631,80.119301 58.0392233,79.8844272 57.6850485,79.7079612 C57.669617,79.7078073 57.6548735,79.7015525 57.6440388,79.6905631 C57.6328611,79.6793466 57.6266019,79.6641458 57.6266408,79.6483107 L57.6266408,60.0866796 C57.6311047,59.8965209 57.6925828,59.7120869 57.8031068,59.5572816 C60.2114951,56.3858641 62.7963495,53.0951456 65.3836893,49.8056699 C67.4605906,47.2314716 68.562932,44.0071781 68.496699,40.7002718 L68.496699,39.7060971 C68.4784953,39.5788521 68.5522148,39.4563323 68.673165,39.4128155 C68.8088973,39.3437211 68.9733719,39.3670755 69.0845049,39.4712233 C70.5730444,40.6194286 71.5954506,42.2678158 71.9626408,44.111534 C72.2428015,45.5027302 72.1414627,46.9438015 71.6693592,48.2820971 L71.1399612,49.8678058 C70.5521553,51.5715728 69.9655922,53.3921553 69.3777864,55.1543301 C69.2225678,55.6075477 69.1824261,56.0922378 69.2609709,56.5648155 C69.4672955,57.4838905 70.3192052,58.1104974 71.2580194,58.0337087 L85.7095922,58.0337087 C86.5690278,57.9822379 87.3681977,58.4760621 87.7066408,59.2677282 C87.9488217,59.8275852 87.8819572,60.4731573 87.5301748,60.9714951 C87.1876044,61.4886508 86.622055,61.8149116 86.0028738,61.8525825 C85.2517559,61.8585646 84.5595953,62.2606319 84.1822913,62.9101359 C83.8481928,63.4979439 83.8707373,64.2232037 84.240699,64.7891262 C84.5671673,65.36732 85.1637394,65.7413463 85.8264078,65.783301 C86.3136473,65.8006495 86.7843674,65.9643406 87.1772427,66.2530485 C87.7357889,66.7024243 87.9675085,67.4447123 87.7638058,68.1320388 C87.5906851,68.8145573 87.0437943,69.3387815 86.3545631,69.4828738 C86.1223014,69.6671002 85.8264005,69.7515794 85.5318835,69.7177476 Z M53.5741359,80.7617864 L53.5741359,81.6428738 C53.5741359,82.1126214 53.5157282,82.1710291 53.0447379,82.1710291 L45.6431068,82.1710291 C45.2901748,82.1710291 45.231767,82.0542136 45.231767,81.7012816 L45.231767,58.7905243 C45.231767,58.2027184 45.2901748,58.1443107 45.8195728,58.1443107 L53.5741359,58.1443107 L53.5741359,80.7617864 Z" id="hand" fill="#000000"></path>
                </g>
            </g>
        </g>
    </g>
</svg>