<?xml version="1.0" encoding="UTF-8"?>
<svg width="125px" height="125px" viewBox="0 0 125 125" version="1.1" xmlns="http://www.w3.org/2000/svg" xmlns:xlink="http://www.w3.org/1999/xlink">
    <!-- Generator: sketchtool 52.6 (67491) - http://www.bohemiancoding.com/sketch -->
    <title>F6FDAAD9-7437-4FFE-81E0-79A6EA43048D</title>
    <desc>Created with sketchtool.</desc>
    <g id="Mockups" stroke="none" stroke-width="1" fill="none" fill-rule="evenodd">
        <g id="Reassurance-Images-Themes---Free" transform="translate(-207.000000, -868.000000)" fill-rule="nonzero">
            <g id="IT-Icons" transform="translate(20.000000, 640.000000)">
                <g id="pack2_creditcard" transform="translate(184.000000, 228.000000)">
                    <path d="M72.4803738,123.490085 L70.5040829,123.797126 L69.89,119.844545 L71.8662909,119.537503 C72.1842838,119.488099 72.5016671,119.435976 72.8184155,119.381144 L74.7891059,119.04 L75.4713944,122.981381 L73.500704,123.322525 C73.1612571,123.381286 72.8211378,123.437143 72.4803738,123.490085 Z M82.3442411,121.143353 L80.4398204,121.754239 L79.2180483,117.945397 L81.122469,117.334511 C81.4284441,117.236363 81.7334926,117.135583 82.0375862,117.032185 L83.9311208,116.388348 L85.2187957,120.175417 L83.3252611,120.819255 C82.9992688,120.930098 82.672252,121.038136 82.3442411,121.143353 Z M90.9948761,117.598353 L89.2093262,118.499359 L87.4073145,114.928259 L89.1928645,114.027254 C89.4798816,113.882422 89.7656305,113.735118 90.0500811,113.58536 L91.8197964,112.653636 L93.6832425,116.193067 L91.9135273,117.12479 C91.6086948,117.285279 91.3024671,117.44314 90.9948761,117.598353 Z M98.9249371,112.79325 L97.2995629,113.95865 L94.9687615,110.707902 L96.5941357,109.542501 C96.8557485,109.354924 97.1157495,109.165097 97.3741091,108.973045 L98.9792163,107.779885 L101.365536,110.990099 L99.7604293,112.183259 C99.4836824,112.38898 99.2051745,112.592318 98.9249371,112.79325 Z M106.069125,106.780723 L104.643172,108.183099 L101.83842,105.331193 L103.264373,103.928817 C103.493605,103.703375 103.720904,103.475976 103.946245,103.246644 L105.347992,101.820073 L108.201134,104.623567 L106.799387,106.050138 C106.558055,106.295744 106.314625,106.539282 106.069125,106.780723 Z M112.20869,99.7261933 L111.016667,101.332145 L107.804763,98.9480993 L108.996786,97.3421474 C109.188662,97.0836426 109.378311,96.8234977 109.56571,96.5617425 L110.729957,94.9355421 L113.982358,97.264037 L112.818111,98.8902374 C112.617371,99.1706279 112.414222,99.4492904 112.20869,99.7261933 Z M117.122286,91.9182833 L116.190404,93.6879148 L112.651141,91.8241507 L113.583023,90.0545192 C113.73305,89.7696202 113.880615,89.4834186 114.025699,89.1959443 L114.926815,87.4104501 L118.497804,89.2126826 L117.596688,90.9981768 C117.441203,91.3062575 117.283063,91.6129704 117.122286,91.9182833 Z M120.809139,83.354985 L120.164303,85.2481799 L116.377914,83.9585083 L117.022749,82.0653134 C117.126423,81.7609352 117.227473,81.4555989 117.325886,81.1493326 L117.93774,79.2452225 L121.74596,80.4689294 L121.134107,82.3730395 C121.028606,82.7013623 120.920278,83.0286877 120.809139,83.354985 Z M123.11731,74.309578 L122.775965,76.2802336 L118.834654,75.597544 L119.175999,73.6268884 C119.230901,73.3099238 119.283091,72.9923233 119.332558,72.674112 L119.639777,70.6978487 L123.592303,71.3122855 L123.285085,73.2885488 C123.232075,73.6295469 123.176147,73.9698992 123.11731,74.309578 Z M123.991704,65.0076263 L123.958755,67.0073548 L119.959298,66.9414569 L119.992247,64.9417283 C119.997402,64.6288813 119.999988,64.3157044 120,64.0022868 L119.999994,63.974498 L119.999104,61.9744982 L123.999103,61.972717 L123.999994,63.9727168 L124,64.0023722 C123.999987,64.3377752 123.99722,64.6728672 123.991704,65.0076263 Z M123.433031,55.7195603 L123.706604,57.7007614 L119.744202,58.2479072 L119.470629,56.2667061 C119.426658,55.9482693 119.379971,55.6304081 119.330576,55.3131472 L119.022902,53.3369548 L122.975287,52.7216059 L123.282961,54.6977983 C123.33589,55.0377607 123.385916,55.3783571 123.433031,55.7195603 Z M121.443385,46.6190915 L122.021912,48.5335906 L118.192914,49.6906441 L117.614387,47.776145 C117.5213,47.4680944 117.425561,47.1609373 117.327183,46.8547018 L116.715475,44.950545 L120.523788,43.7271287 L121.135496,45.6312855 C121.240959,45.9595761 121.343594,46.2888549 121.443385,46.6190915 Z M84.303709,7.52296472 L86.1857509,8.19966133 L84.8323576,11.9637451 L82.9503157,11.2870485 C82.6476516,11.1782243 82.3439926,11.0720102 82.0393674,10.9684203 L80.1458546,10.3245187 L81.4336578,6.5374931 L83.3271706,7.18139472 C83.6537307,7.29244367 83.9792539,7.40630543 84.303709,7.52296472 Z M75.3012814,5.06309188 L77.2658998,5.43762413 L76.5168354,9.366861 L74.5522169,8.99232875 C74.2363666,8.93211546 73.9198474,8.87460745 73.6026852,8.81981436 L71.6318794,8.47933708 L72.312834,4.53772562 L74.2836397,4.8782029 C74.6235449,4.93692506 74.9627681,4.99855817 75.3012814,5.06309188 Z M66.0203764,4.03339738 L68.0192812,4.09957482 L67.8869264,8.09738449 L65.8880215,8.03120705 C65.5664777,8.02056175 65.2445563,8.01263597 64.922279,8.00743579 L62.9225393,7.97516853 L62.9870739,3.97568915 L64.9868136,4.00795642 C65.3317028,4.01352146 65.6762319,4.02200384 66.0203764,4.03339738 Z M56.7158668,4.43788403 L58.7013691,4.19750802 L59.1821211,8.16851262 L57.1966188,8.40888862 C56.8762813,8.44767047 56.5564915,8.48919142 56.2372741,8.53344305 L54.2562185,8.80806763 L53.7069694,4.8459564 L55.688025,4.57133182 C56.0300453,4.52391913 56.3726683,4.47943355 56.7158668,4.43788403 Z M47.5892894,6.27240475 L49.5133349,5.726466 L50.6052124,9.5745569 L48.6811669,10.1204956 C48.3711999,10.2084473 48.0620928,10.2990691 47.7538735,10.3923482 L45.839617,10.971677 L44.6809595,7.14316383 L46.5952161,6.56383509 C46.9256328,6.46383811 47.2570006,6.36669011 47.5892894,6.27240475 Z M38.8329519,9.5179335 L40.6480817,8.67810983 L42.327729,12.3083694 L40.5125992,13.1481931 C40.2205069,13.2833383 39.9296108,13.421003 39.6399408,13.5611696 L37.8396314,14.4323103 L36.09735,10.8316916 L37.8976594,9.96055085 C38.2081164,9.81032573 38.5198912,9.66278032 38.8329519,9.5179335 Z M30.7354753,14.0579242 L32.3990541,12.9477416 L34.6194194,16.2748993 L32.9558405,17.3850819 C32.6882387,17.5636649 32.4221737,17.7445493 32.1576753,17.9277128 L30.5134341,19.0663395 L28.2361807,15.777857 L29.8804219,14.6392303 C30.1637687,14.4430144 30.4487971,14.2492378 30.7354753,14.0579242 Z M23.3975389,19.8244585 L24.8697092,18.4706806 L27.577265,21.4150212 L26.1050947,22.7687991 C25.8683143,22.9865376 25.6334,23.2063019 25.4003796,23.4280657 L23.9516059,24.806853 L21.1940311,21.9093055 L22.6428049,20.5305182 C22.8923638,20.2930148 23.1439517,20.0576521 23.3975389,19.8244585 Z M17.0267931,26.6665432 L18.2721761,25.1016083 L21.4020459,27.5923743 L20.1566629,29.1573092 C19.9561589,29.4092602 19.757824,29.6629243 19.5616823,29.918272 L18.3433524,31.5043591 L15.1711782,29.0676993 L16.3895081,27.4816122 C16.5995977,27.2081063 16.8120347,26.9364062 17.0267931,26.6665432 Z M11.8478238,34.3124717 L12.8387996,32.5752421 L16.3132589,34.5571937 L15.3222831,36.2944234 C15.1627774,36.5740448 15.0056865,36.8550427 14.8510301,37.1373872 L13.8902136,38.8914771 L10.3820337,36.9698441 L11.3428502,35.2157541 C11.5085753,34.9132024 11.6769069,34.6120975 11.8478238,34.3124717 Z M7.87245591,42.7495457 L8.58093806,40.8792375 L12.3215546,42.2962018 L11.6130725,44.16651 C11.4990633,44.4674807 11.3876521,44.7694841 11.2788538,45.0724913 L10.6029781,46.9548282 L6.83830436,45.6030769 L7.51418,43.72074 C7.63081041,43.3959203 7.75024101,43.0721785 7.87245591,42.7495457 Z M5.26086877,51.7070014 L5.66862332,49.7490085 L9.58460914,50.5645176 L9.17685459,52.5225105 C9.11129747,52.8373086 9.04843949,53.1528095 8.98829073,53.468987 L8.61451941,55.4337503 L4.68499272,54.6862077 L5.05876404,52.7214443 C5.12323094,52.3825681 5.1906028,52.044411 5.26086877,51.7070014 Z M4.0751758,60.9709876 L4.17455006,58.9734579 L8.16960938,59.1722065 L8.07023512,61.1697361 C8.05425009,61.4910525 8.04098736,61.8127759 8.03045334,62.1348841 L7.96508157,64.1338154 L3.96721888,64.0030719 L4.03259065,62.0041405 C4.04386629,61.6593551 4.05806353,61.3149625 4.0751758,60.9709876 Z M4.32516884,70.2828479 L4.11809382,68.2935968 L8.09659602,67.8794468 L8.30367104,69.8686979 C8.33702442,70.1891047 8.3731092,70.5089974 8.41191739,70.8283518 L8.65318399,72.8137461 L4.68239544,73.2962793 L4.44112884,71.310885 C4.39955377,70.9687618 4.36089763,70.6260739 4.32516884,70.2828479 Z M6.00565581,79.4394035 L5.49233606,77.5064 L9.35834322,76.4797605 L9.87166297,78.4127641 C9.95443335,78.7244518 10.0398893,79.0353135 10.1280187,79.3453216 L10.6749112,81.2690962 L6.82736205,82.3628811 L6.28046957,80.4391065 C6.18599431,80.1067759 6.09438534,79.7735315 6.00565581,79.4394035 Z M9.10217694,88.2481757 L8.2931403,86.4191159 L11.9512599,84.8010426 L12.7602965,86.6301024 C12.8904633,86.9243818 13.023168,87.2175025 13.1583936,87.5094348 L13.9990083,89.3241984 L10.3694811,91.0054278 L9.52886641,89.1906642 C9.38393014,88.8777681 9.24169422,88.5635946 9.10217694,88.2481757 Z M13.5071112,96.4240077 L12.4249079,94.7420934 L15.7887366,92.5776867 L16.8709399,94.2596011 C17.0451008,94.5302745 17.2215916,94.7994463 17.4003904,95.0670866 L18.5113903,96.7301197 L15.1853241,98.9521196 L14.0743242,97.2890865 C13.882775,97.0023605 13.6936962,96.7139903 13.5071112,96.4240077 Z M19.149307,103.855863 L17.8202733,102.361316 L20.8093664,99.703249 L22.1384001,101.197796 C22.3522298,101.438255 22.5681186,101.676881 22.7860404,101.913646 L24.1404834,103.385204 L21.1973666,106.09409 L19.8429236,104.622532 C19.6095323,104.36896 19.3783175,104.113393 19.149307,103.855863 Z M25.8791864,110.335745 L24.3354002,109.064241 L26.8784094,105.976668 L28.4221956,107.248173 C28.6705684,107.452739 28.9206875,107.65517 29.1725239,107.855441 L30.737889,109.100283 L28.2482045,112.231013 L26.6828394,110.986171 C26.4131034,110.771666 26.1452087,110.554848 25.8791864,110.335745 Z M33.4951449,115.677364 L31.773757,114.659119 L33.8102479,111.216343 L35.5316358,112.234588 C35.8084791,112.398348 36.0867315,112.55972 36.3663629,112.718683 L38.1050577,113.707086 L36.1282518,117.184476 L34.389557,116.196073 C34.0899273,116.025741 33.7917792,115.852831 33.4951449,115.677364 Z M41.8050628,119.760557 L39.9470711,119.020377 L41.4274312,115.304393 L43.285423,116.044573 C43.584136,116.163573 43.8839167,116.279997 44.1847359,116.393828 L46.0552925,117.101654 L44.6396399,120.842767 L42.7690833,120.134941 C42.4466171,120.012919 42.1252665,119.888118 41.8050628,119.760557 Z M51.2208176,122.822442 L49.27,122.381635 L50.1516135,118.48 L52.1024311,118.920807 C52.4161942,118.991705 52.7306947,119.059909 53.0459063,119.125408 L55.0040769,119.532309 L54.1902765,123.44865 L52.2321059,123.04175 C51.8942431,122.971543 51.5571374,122.898437 51.2208176,122.822442 Z M62.0674218,124.129109 L60.0676192,124.101009 L60.1238184,120.101404 L62.123621,120.129504 C62.4453033,120.134024 62.7672796,120.1358 63.0895267,120.134828 L65.0895176,120.128794 L65.1015862,124.128776 L63.1015953,124.13481 C62.7565898,124.135851 62.4118568,124.133949 62.0674218,124.129109 Z M99.6732463,29.3267537 C97.392675,26.8493287 96,23.5418481 96,19.9090909 C96,12.2273121 102.227312,6 109.909091,6 C113.541848,6 116.849329,7.39267503 119.326754,9.67324628 C121.607325,12.1506713 123,15.4581519 123,19.0909091 C123,26.7726879 116.772688,33 109.090909,33 C105.458152,33 102.150671,31.607325 99.6732463,29.3267537 Z M100.717192,21.0545902 L102.021494,22.432026 C103.0536,23.5208025 104.134342,24.6376136 105.204352,25.7189147 C105.56691,26.1165278 106.10824,26.3394914 106.682913,26.3279053 C106.763359,26.3108059 106.852219,26.3302908 106.934494,26.3128028 C107.301436,26.2304182 107.631901,26.0372343 107.872176,25.7646502 C111.215752,21.8603032 114.556889,17.9564743 117.854266,14.0235744 C118.17204,13.6842693 118.336776,13.2485791 118.312987,12.8103573 C118.251193,12.415906 118.025405,12.0642566 117.682636,11.8286297 C117.329635,11.5821371 116.876534,11.4838735 116.429592,11.5568832 C115.98265,11.6298929 115.581183,11.8677533 115.319342,12.2146828 C114.946611,12.6427511 114.540398,13.1110764 114.167195,13.5369195 C113.996803,13.7272093 113.834688,13.956438 113.623481,14.1524962 L106.563127,22.3870334 C106.459033,22.2928786 106.402102,22.2288159 106.298736,22.1350879 C105.922682,21.7533863 105.594656,21.3998489 105.217993,21.0182768 C104.465887,20.2548736 103.705249,19.4543298 102.912309,18.6996058 C102.642206,18.3925358 102.240549,18.20821 101.804528,18.1912296 C101.368506,18.1742492 100.937846,18.3261614 100.616753,18.6102079 C99.9146267,19.1740033 99.7856427,20.1253158 100.321298,20.7893167 C100.47123,20.8533065 100.605563,20.943318 100.717192,21.0545902 Z" id="Shape" fill="#979797"></path>
                    <path d="M32.2598846,94 C29.9601984,94 28.9382229,93.0378938 29.0028805,90.7234023 L29.0028805,46.2765977 C29.0028805,43.8999722 29.8965059,43 32.2598846,43 L95.4235682,43 C98.2337596,43 99,43.7708499 99,46.597947 L99,90.5942801 C99,92.9078008 97.914332,94 95.6793034,94 L32.2598846,94 Z M94,67 L34.0640663,67 L34,89 L94,89 L94,67 Z M94,48 L34.0640663,48 L34,55 L94,55 L94,48 Z M109,38 C98.5065898,38 90,29.4934102 90,19 C90,8.50658975 98.5065898,0 109,0 C119.49341,0 128,8.50658975 128,19 C128,29.4934102 119.49341,38 109,38 Z M109,33.0434783 C116.755999,33.0434783 123.043478,26.7559989 123.043478,19 C123.043478,11.2440011 116.755999,4.95652174 109,4.95652174 C101.244001,4.95652174 94.9565217,11.2440011 94.9565217,19 C94.9565217,26.7559989 101.244001,33.0434783 109,33.0434783 Z" id="Shape" fill="#000000"></path>
                </g>
            </g>
        </g>
    </g>
</svg>