<?xml version="1.0" encoding="UTF-8"?>
<svg width="124px" height="125px" viewBox="0 0 124 125" version="1.1" xmlns="http://www.w3.org/2000/svg" xmlns:xlink="http://www.w3.org/1999/xlink">
    <!-- Generator: sketchtool 52.6 (67491) - http://www.bohemiancoding.com/sketch -->
    <title>E0CC2437-E40E-48A7-B8E9-F76AE0785938</title>
    <desc>Created with sketchtool.</desc>
    <g id="Mockups" stroke="none" stroke-width="1" fill="none" fill-rule="evenodd">
        <g id="Reassurance-Images-Themes---Free" transform="translate(-31.000000, -1046.000000)" fill-rule="nonzero">
            <g id="IT-Icons" transform="translate(20.000000, 640.000000)">
                <g id="pack2_return" transform="translate(10.000000, 405.000000)">
                    <rect id="Rectangle_37-2" x="0" y="0" width="128" height="128"></rect>
                    <path d="M97.551235,18.1915478 C96.475784,17.4323321 95.3990781,16.6091165 94.2596271,15.8499008 C70.2682255,-0.0173839796 38.1902198,4.63930972 19.700882,26.6734302 C13.8748705,33.5466548 9.81256297,41.7367424 7.86590162,50.5341361 C6.49633152,56.6796424 6.13270728,63.0066194 6.78919574,69.2685674 C7.60971381,77.3106795 10.2035428,85.0707369 14.3838624,91.9898223 C14.5733526,92.3060576 14.7000977,92.5595478 14.8858232,92.8757831 C15.6170523,94.2043837 15.1362103,95.8741453 13.8103722,96.6103714 C13.1918873,96.9585875 12.4585137,97.0407287 11.7783172,96.837971 C11.0981206,96.6352133 10.5294149,96.1649392 10.2025291,95.5349204 C8.81249217,93.2186774 7.54497127,90.8310802 6.40519574,88.3819792 C2.24403463,79.2258977 0.438267198,69.1746838 1.15217613,59.1427635 C1.88533713,46.6622725 6.43701547,34.7087504 14.1906075,24.9015086 C22.3407327,14.1566633 33.9011816,6.50132297 46.9749212,3.19170469 C67.1650389,-1.93456982 85.7099801,1.92550861 102.165509,14.8371949 C102.41649,15.0266851 102.66747,15.2136655 103.05147,15.5336655 C103.05147,15.0906851 103.11547,14.8371949 103.11547,14.5209596 L103.11547,7.11703802 C103.097184,6.38415934 103.37585,5.67499475 103.888173,5.15061905 C104.400497,4.62624335 105.102992,4.33116662 105.836098,4.33241057 C107.355048,4.31914187 108.599379,5.53543431 108.620725,7.05429292 C108.68347,11.8011687 108.68347,16.5480446 108.620725,21.2949204 C108.658665,22.0277822 108.384101,22.7423674 107.865195,23.2612729 C107.34629,23.7801784 106.631705,24.0547428 105.898843,24.0168027 L91.6594703,24.0168027 C90.1562161,24.0168027 88.9375879,22.7981745 88.9375879,21.2949204 C88.9375879,19.7916663 90.1562161,18.573038 91.6594703,18.573038 C93.620882,18.5102929 95.5835487,18.573038 97.5449604,18.573038 C97.5088452,18.4501463 97.5088452,18.3194592 97.5449604,18.1965674 L97.551235,18.1915478 Z M23.119235,110.661509 L23.119235,119.079391 C23.1339035,120.325657 22.3117429,121.427206 21.1127933,121.767667 C19.9138437,122.108127 18.6354594,121.603061 17.9929604,120.535077 C17.7494029,119.950295 17.5998948,119.330662 17.5499801,118.699156 C17.4859801,116.737744 17.4859801,114.775077 17.4859801,112.749665 C17.4859801,110.091783 17.4219801,107.432646 17.4219801,104.843783 C17.3072166,104.014157 17.5784467,103.177633 18.158185,102.573188 C18.7379233,101.968744 19.5624072,101.662859 20.3960977,101.74292 L34.1309997,101.74292 C34.8947578,101.674587 35.6520732,101.930384 36.2179731,102.447833 C36.783873,102.965282 37.1062529,103.696739 37.1063722,104.463548 C37.1416752,105.246548 36.8324974,106.005771 36.2602305,106.541351 C35.6879635,107.076932 34.9099487,107.335203 34.1309997,107.248175 L27.675784,107.248175 C28.4287252,107.875626 28.9419801,108.323626 29.5104506,108.766607 C50.9744278,124.456841 80.4480627,123.168715 100.461353,105.665744 C110.296576,97.2250198 116.803523,85.5569136 118.815549,72.7534302 C121.185605,59.4630206 118.643421,45.764219 111.662608,34.2091165 C110.649902,32.4371949 110.713902,31.0442537 111.913588,30.0315478 C112.526723,29.4954723 113.350977,29.2685022 114.152107,29.4151397 C114.953237,29.5617773 115.643657,30.065991 116.027157,30.784489 C117.418126,33.1862225 118.685554,35.6574136 119.82449,38.1884106 C123.632058,46.6915071 125.388432,55.9702874 124.952019,65.2767243 C124.51044,79.8340935 118.875167,93.7531299 109.06496,104.517509 C100.179794,114.61892 88.1712745,121.458277 74.9504506,123.947156 C56.0265291,127.618999 39.0012742,123.319705 23.8759408,111.35296 C23.8157055,111.167234 23.5622153,110.977744 23.119235,110.661509 Z M94.0800589,55.3872718 C88.027089,57.2251721 80.8342303,56.7917415 76.8521121,54.5617565 C74.1846535,53.0679805 71.390449,52.5174419 66.8484363,52.234028 C66.4470405,52.2089816 66.149246,52.191944 65.4022083,52.1504075 C63.4403594,52.0413257 62.5597946,51.9790366 61.5280116,51.8584302 C59.1479911,51.5802267 57.922097,50.2423514 57.5743735,47.3943296 L57.4516604,46.389251 C57.5039592,44.6446831 58.7916084,43.9342296 61.9727046,43.9342296 L70.9072942,43.9342296 C71.8825858,43.9342296 72.6732159,43.1435995 72.6732159,42.1683079 C72.6732159,41.1930163 71.8825858,40.4023862 70.9072942,40.4023862 L61.9727046,40.4023862 C56.9690265,40.4023862 54.0472392,42.4547417 53.9210135,46.20846 L40.5495053,49.0640316 C37.7069865,49.6604193 36.0319179,49.2590111 35.1954301,48.0614469 C34.4013803,46.9246393 34.3123538,45.8145062 34.9689189,44.4921937 C47.3160127,39.9900043 55.7979153,37.0114966 60.3948188,35.5628068 C64.6922939,34.2084803 68.0009875,34.2084803 70.3697205,35.4442162 L70.5085625,35.5166481 L94.0800589,42.9103363 L94.0800589,55.3872718 Z M102.909668,57.4429273 L97.6119023,57.4429273 L97.6119023,41.5496317 L102.909668,41.5496317 L102.909668,57.4429273 Z M30.5318435,86.5318435 L25.2340783,86.5318435 L25.2340783,70.6385479 L30.5318435,70.6385479 L30.5318435,86.5318435 Z" id="Shape" fill="#9B9B9B"></path>
                    <path d="M33.3614521,67.9176485 C40.0535073,66.1591802 47.6787546,66.7351246 52.3150688,69.3314592 C54.3953827,70.4964343 56.7638698,70.9630944 60.813028,71.215755 C61.203652,71.2401293 61.4965274,71.2568854 62.2353758,71.2979665 C64.2690187,71.4110402 65.1966922,71.4766616 66.3235491,71.6083814 C69.7749449,72.0118193 72.0554626,73.9894842 72.9968172,77.2666646 L86.1605791,74.4554688 C90.2548411,73.5964368 93.3601778,74.3405899 95.141531,76.8908781 C96.865054,79.3583731 96.865054,82.1216795 95.1994896,84.8395533 L94.8777136,85.3646286 L94.2992051,85.5757487 C81.5700606,90.2211055 72.8466833,93.2872047 68.1082659,94.7804918 C63.0689311,96.3686114 58.8785456,96.3917603 55.5838265,94.7364583 L33.3550169,87.7639316 C33.2890548,88.4337196 32.7241401,88.9569825 32.0370108,88.9569825 L22.3244413,88.9569825 C21.5929726,88.9569825 21,88.36401 21,87.6325412 L21,67.3244413 C21,66.5929726 21.5929726,66 22.3244413,66 L32.0370108,66 C32.7684796,66 33.3614521,66.5929726 33.3614521,67.3244413 L33.3614521,67.9176485 Z M33.3614521,71.5874989 L33.3614521,84.0644345 L56.9329485,91.4581226 L57.0717905,91.5305546 C59.4405235,92.7662905 62.7492171,92.7662905 67.0466922,91.411964 C71.6435957,89.9632742 80.1254983,86.9847665 92.4725921,82.482577 C93.1291572,81.1602646 93.0401307,80.0501315 92.2460809,78.9133239 C91.4095931,77.7157597 89.7345245,77.3143515 86.8920057,77.9107391 L73.5204975,80.7663107 C73.3942718,84.520029 70.4724845,86.5723846 65.4688064,86.5723846 L56.5342168,86.5723846 C55.5589252,86.5723846 54.7682951,85.7817545 54.7682951,84.8064629 C54.7682951,83.8311712 55.5589252,83.0405411 56.5342168,83.0405411 L65.4688064,83.0405411 C68.6499026,83.0405411 69.9375518,82.3300876 69.9898506,80.5855198 L69.8671375,79.5804411 C69.519414,76.7324193 68.2935199,75.3945441 65.9134994,75.1163405 C64.8817164,74.9957341 64.0011516,74.933445 62.0393027,74.8243632 C61.292265,74.7828268 60.9944705,74.7657892 60.5930747,74.7407428 C56.051062,74.4573289 53.2568575,73.9067903 50.5893989,72.4130142 C46.6072807,70.1830293 39.414422,69.7495986 33.3614521,71.5874989 Z M24.5318435,69.5318435 L24.5318435,85.4251391 L29.8296087,85.4251391 L29.8296087,69.5318435 L24.5318435,69.5318435 Z M93.0800589,58.0571222 C86.3880037,59.8155906 78.7627564,59.2396461 74.1264422,56.6433116 C72.0461283,55.4783364 69.6776412,55.0116764 65.628483,54.7590158 C65.237859,54.7346415 64.9449836,54.7178853 64.2061352,54.6768042 C62.1724923,54.5637306 61.2448188,54.4981091 60.1179619,54.3663894 C56.6665661,53.9629514 54.3860484,51.9852865 53.4446938,48.7081062 L40.2809319,51.519302 C36.1866699,52.378334 33.0813332,51.6341809 31.29998,49.0838926 C29.576457,46.6163976 29.576457,43.8530913 31.2420214,41.1352174 L31.5637974,40.6101422 L32.1423059,40.3990221 C44.8714504,35.7536652 53.5948277,32.6875661 58.3332451,31.194279 C63.3725799,29.6061593 67.5629654,29.5830105 70.8576845,31.2383125 L93.0864941,38.2108391 C93.1524562,37.5410512 93.7173709,37.0177882 94.4045002,37.0177882 L104.11707,37.0177882 C104.848538,37.0177882 105.441511,37.6107608 105.441511,38.3422295 L105.441511,58.6503295 C105.441511,59.3817982 104.848538,59.9747708 104.11707,59.9747708 L94.4045002,59.9747708 C93.6730314,59.9747708 93.0800589,59.3817982 93.0800589,58.6503295 L93.0800589,58.0571222 Z M93.0800589,54.3872718 L93.0800589,41.9103363 L69.5085625,34.5166481 L69.3697205,34.4442162 C67.0009875,33.2084803 63.6922939,33.2084803 59.3948188,34.5628068 C54.7979153,36.0114966 46.3160127,38.9900043 33.9689189,43.4921937 C33.3123538,44.8145062 33.4013803,45.9246393 34.1954301,47.0614469 C35.0319179,48.2590111 36.7069865,48.6604193 39.5495053,48.0640316 L52.9210135,45.20846 C53.0472392,41.4547417 55.9690265,39.4023862 60.9727046,39.4023862 L69.9072942,39.4023862 C70.8825858,39.4023862 71.6732159,40.1930163 71.6732159,41.1683079 C71.6732159,42.1435995 70.8825858,42.9342296 69.9072942,42.9342296 L60.9727046,42.9342296 C57.7916084,42.9342296 56.5039592,43.6446831 56.4516604,45.389251 L56.5743735,46.3943296 C56.922097,49.2423514 58.1479911,50.5802267 60.5280116,50.8584302 C61.5597946,50.9790366 62.4403594,51.0413257 64.4022083,51.1504075 C65.149246,51.191944 65.4470405,51.2089816 65.8484363,51.234028 C70.390449,51.5174419 73.1846535,52.0679805 75.8521121,53.5617565 C79.8342303,55.7917415 87.027089,56.2251721 93.0800589,54.3872718 Z M101.909668,56.4429273 L101.909668,40.5496317 L96.6119023,40.5496317 L96.6119023,56.4429273 L101.909668,56.4429273 Z" id="Shape" fill="#000000"></path>
                </g>
            </g>
        </g>
    </g>
</svg>