<?xml version="1.0" encoding="UTF-8"?>
<svg width="106px" height="125px" viewBox="0 0 106 125" version="1.1" xmlns="http://www.w3.org/2000/svg" xmlns:xlink="http://www.w3.org/1999/xlink">
    <!-- Generator: sketchtool 53.2 (72643) - https://sketchapp.com -->
    <title>D0EEA5C6-AB5D-46BC-9D41-D06D18EB067B</title>
    <desc>Created with sketchtool.</desc>
    <g id="Mockups" stroke="none" stroke-width="1" fill="none" fill-rule="evenodd">
        <g id="Reassurance-Images-Themes---Free" transform="translate(-388.000000, -868.000000)" fill="#000000" fill-rule="nonzero">
            <g id="IT-Icons" transform="translate(20.000000, 640.000000)">
                <path d="M423.443451,266.785255 L423.443451,235.142902 L429.508706,235.142902 L429.508706,233.82651 L422.296784,233.82651 L422.296784,266.785255 L423.443451,266.785255 Z M438.094744,277.764417 C436.953809,276.235139 435.513802,274.914837 433.826589,273.897594 C429.239051,271.131708 423.523238,271.027954 418.838342,273.625526 C414.153446,276.223098 411.213622,281.126028 411.129412,286.482196 L411.129412,286.478431 C411.129412,290.009413 412.58052,293.416221 414.876832,296.106774 C412.978506,293.567114 411.81051,290.500358 411.81051,287.334275 C411.892933,281.977027 414.832232,277.07232 419.517683,274.473581 C424.203134,271.874842 429.920206,271.97838 434.508488,274.745067 C435.875376,275.569287 437.079986,276.592415 438.094744,277.764417 Z M389.109647,321.085766 L389.109647,315.092706 C389.109647,314.317176 388.881255,314.007216 388.105725,313.851608 C382.67702,312.688314 377.326118,311.443451 371.897412,310.439529 C370.718507,310.373828 369.670656,309.666724 369.168559,308.598066 C368.666462,307.529407 368.791052,306.271446 369.49302,305.322039 C373.132235,299.270902 376.544314,293.224784 380.034196,287.098353 C380.405639,286.447381 380.667637,285.739819 380.809725,285.003922 C381.645478,279.43867 383.075885,273.979142 385.076392,268.719059 C389.75341,255.256042 401.530171,245.511725 415.630745,243.437804 C416.406275,243.278431 416.561882,242.972235 416.561882,242.27451 L416.561882,231.417098 C416.472323,230.549581 416.778272,229.687867 417.394838,229.071058 C418.011404,228.454248 418.872996,228.147959 419.740549,228.237176 L431.913098,228.237176 C432.815531,228.119513 433.72206,228.422396 434.372517,229.058898 C435.022974,229.695401 435.345441,230.59515 435.247373,231.499922 L435.247373,242.821647 C435.637842,242.903922 436.022301,243.01251 436.398118,243.146667 C439.642484,243.783512 442.852122,244.586026 446.014431,245.551059 C455.785098,248.963137 463.230431,255.088314 467.805804,264.472471 C472.46092,274.075322 474.083858,284.867331 472.45898,295.414588 C470.983978,306.639854 465.233518,316.862744 456.406275,323.952314 C455.828645,324.355815 455.504793,325.032571 455.552941,325.735529 L455.552941,348.534588 C455.552941,351.088314 454.472471,352.173804 451.913725,352.173804 L414.080941,352.173804 C413.191023,352.263919 412.307732,351.949239 411.675246,351.316754 C411.042761,350.684268 410.728081,349.800977 410.818196,348.911059 L410.818196,343.01302 C410.818196,342.706824 410.740392,342.396863 410.740392,342.009098 L392.521725,342.009098 C392.021154,342.007454 391.523821,341.928727 391.047216,341.775686 C389.65302,341.305098 389.109647,340.296157 389.109647,338.512941 L389.109647,328.703844 C387.483249,328.832044 385.776481,328.900392 383.985882,328.900392 L383.990902,328.900392 C383.781095,328.882703 383.569909,328.909208 383.37098,328.978196 C381.2509,328.956365 379.549933,327.220002 379.571765,325.099922 C379.593596,322.979841 381.329959,321.278874 383.450039,321.300706 L384.069961,321.300706 C385.848988,321.300706 387.527041,321.225709 389.109647,321.085766 Z M414.893064,303.873871 C408.833884,300.359848 405.047467,293.886705 405.000775,286.828084 C404.951644,279.400969 409.051106,272.567225 415.62698,269.114353 C416.277147,268.851178 416.662157,268.176632 416.558118,267.48298 L416.558118,248.946824 C413.395954,249.446359 410.3326,250.442489 407.481412,251.898353 C399.416157,255.466039 394.220863,261.824627 390.808784,269.812078 C388.53804,275.390986 386.94954,281.223773 386.077804,287.183686 C385.936103,287.943906 385.674319,288.676731 385.302275,289.354667 C382.432314,294.394353 379.487059,299.435294 376.617098,304.476235 C376.377021,304.818144 376.169077,305.181521 375.995922,305.561725 C378.32251,306.031059 380.571294,306.569412 382.820078,307.03498 C385.844392,307.732706 388.94651,308.353882 391.970824,309.051608 C393.987451,309.439373 394.685176,310.37051 394.685176,312.463686 L394.685176,320.259706 C411.267588,316.712796 414.492958,305.282739 414.624314,304.628078 C414.688567,304.362611 414.779313,304.110499 414.893064,303.873871 Z M421.867439,306.841725 C420.578777,311.156665 418.159324,315.051678 414.856471,318.120784 C411.080839,321.892601 404.754752,326.15726 394.685176,327.987267 L394.685176,336.432314 L395.926275,336.432314 C401.510588,336.432314 407.015843,336.510118 412.522353,336.432314 C415.081098,336.432314 416.709961,337.517804 416.476549,340.464314 C416.398745,342.480941 416.476549,344.496314 416.476549,346.512941 L449.982431,346.512941 L449.982431,324.175686 C449.850958,322.784226 450.510091,321.436396 451.689098,320.685804 C459.662575,314.661316 465.019974,305.806582 466.656314,295.947922 C468.171944,287.573236 467.39493,278.944559 464.407529,270.975373 C460.142118,259.342431 451.766902,252.363922 439.824,249.571765 C438.350745,249.184 436.87749,248.951843 435.326431,248.641882 C435.266863,249.000513 435.240815,249.363912 435.248627,249.727373 L435.248627,267.408941 C435.209871,268.007616 435.551389,268.566098 436.101961,268.804392 C443.468235,272.995765 447.191529,279.350588 446.880314,287.803608 C446.611644,292.755867 444.41212,297.405413 440.753882,300.754196 C437.591936,304.005389 433.501929,306.199203 429.044392,307.03498 C426.641916,307.427414 424.207472,307.354575 421.867439,306.841725 Z" id="pack2_hotline"></path>
            </g>
        </g>
    </g>
</svg>
