<?xml version="1.0" encoding="UTF-8"?>
<svg width="125px" height="125px" viewBox="0 0 125 125" version="1.1" xmlns="http://www.w3.org/2000/svg" xmlns:xlink="http://www.w3.org/1999/xlink">
    <!-- Generator: sketchtool 52.6 (67491) - http://www.bohemiancoding.com/sketch -->
    <title>A390A385-8A4C-4CF9-A31E-1D5693746C85</title>
    <desc>Created with sketchtool.</desc>
    <g id="Mockups" stroke="none" stroke-width="1" fill="none" fill-rule="evenodd">
        <g id="Reassurance-Images-Themes---Free" transform="translate(-554.000000, -870.000000)" fill-rule="nonzero">
            <g id="IT-Icons" transform="translate(20.000000, 640.000000)">
                <g id="pack2_parcel" transform="translate(532.000000, 228.000000)">
                    <rect id="bg" x="0" y="0" width="128" height="128"></rect>
                    <path d="M124.308686,64.8217476 C123.957227,64.8112845 122.352049,64.8883331 119.493152,65.0528932 C118.170638,65.0806077 117.066515,64.0502404 117.002876,62.7289677 C116.939237,61.4076951 117.939223,60.275983 119.258278,60.176466 C120.962045,60.0584078 122.665812,60 124.251521,60 C124.870761,60.0101621 125.461217,60.2632149 125.895638,60.7046214 C126.375395,61.2101144 126.629643,61.8885595 126.600259,62.5848544 C126.62836,63.1959807 126.394017,63.7899976 125.956238,64.2173313 C125.518458,64.644665 124.918956,64.8645967 124.308686,64.8217476 Z M4.37936524,64.8169575 C3.04924908,64.8008286 1.98405191,63.7094814 2.00018077,62.3793652 C2.01630963,61.0492491 3.10765685,59.9840519 4.437773,60.0001808 C6.08188951,60.0001808 7.72724873,60.0598313 9.31295747,60.1766468 C9.95782294,60.1908456 10.5685032,60.469485 11.0018535,60.9472513 C11.4352037,61.4250176 11.6531229,62.0599046 11.6045303,62.7030934 C11.5659265,64.0303896 10.4653413,65.0788564 9.13773417,65.053074 L4.37936524,64.8169575 Z M66.6101225,4.29201686 L66.6101225,9.28525957 C66.602865,9.91122557 66.3429669,10.5076968 65.8894504,10.9392161 C65.4359339,11.3707354 64.8272878,11.6006809 64.2017342,11.5768324 C62.9061125,11.6033053 61.8312701,10.5805966 61.7933458,9.28525957 C61.7349381,7.58149258 61.7349381,5.93737608 61.7933458,4.29201686 C61.8009359,3.66626778 62.0609795,3.07011895 62.5144586,2.63886928 C62.9679376,2.20761961 63.5763935,1.97784241 64.2017342,2.00168676 C64.8270748,1.97784241 65.4355307,2.20761961 65.8890098,2.63886928 C66.3424888,3.07011895 66.6025324,3.66626778 66.6101225,4.29201686 Z M64.1433264,126.16992 C63.5024439,126.17698 62.8857504,125.925507 62.4325505,125.472307 C61.9793506,125.019107 61.7278781,124.402414 61.7349381,123.761531 C61.6765303,122.17458 61.6765303,120.530463 61.7349381,118.885104 C61.7298654,118.250091 61.9839155,117.640458 62.4384297,117.196967 C62.892944,116.753475 63.5086287,116.514466 64.1433264,116.535124 L64.2017342,116.535124 C65.5093706,116.534739 66.57841,117.577852 66.6101225,118.885104 L66.6101225,123.819939 C66.6011517,124.460834 66.3345723,125.071138 65.8704919,125.513242 C65.4064115,125.955345 64.7839024,126.192027 64.1433264,126.16992 Z M115.901179,94.7268374 C115.602038,94.5420467 114.173389,93.8061837 111.615231,92.5192484 C110.456043,91.8819929 110.015028,90.4376072 110.620552,89.2615318 C111.226075,88.0854565 112.657944,87.6053581 113.850038,88.1787017 C115.384573,88.9283437 116.889282,89.7296446 118.262546,90.522499 C118.793742,90.8409194 119.178566,91.3552977 119.334082,91.9547772 C119.496817,92.6324256 119.377781,93.3471006 119.004186,93.9354175 C118.722959,94.478719 118.223003,94.8759812 117.630208,95.0271732 C117.037413,95.1783653 116.408263,95.0690807 115.901179,94.7268374 Z M12.0417353,34.7580286 C10.8978853,34.0790025 10.5210711,32.6012695 11.2000972,31.4574196 C11.8791233,30.3135696 13.3568563,29.9367554 14.5007062,30.6157815 C15.9245529,31.4378397 17.3196505,32.3121782 18.6345068,33.2061978 C19.1858773,33.540927 19.5754222,34.0875759 19.7118314,34.7180088 C19.8482406,35.3484417 19.7195206,36.0072296 19.3558438,36.5399511 C18.6587638,37.6701215 17.1813957,38.0278277 16.0445454,37.341696 L12.0417353,34.7580286 Z M96.1976223,13.4572711 L93.7010009,17.7815461 C93.3817327,18.3200198 92.8584187,18.7066301 92.2499023,18.8535785 C91.6413859,19.0005269 90.9993101,18.8953425 90.469489,18.5619122 C89.3342113,17.9370276 88.9147248,16.5139147 89.5295499,15.3731578 C90.3308508,13.8684484 91.1529091,12.4446018 92.0261713,11.0488828 C92.345619,10.5107632 92.8688978,10.124505 93.477247,9.97777134 C94.0855962,9.83103768 94.7274231,9.93627274 95.2570618,10.2695929 C95.8105449,10.5616134 96.2225946,11.0648342 96.3996941,11.6650469 C96.5767936,12.2652596 96.5039236,12.9115615 96.1976223,13.4572711 Z M33.1223627,117.773233 C32.5638122,117.458906 32.1554762,116.932778 31.9895935,116.313695 C31.8237109,115.694613 31.9142761,115.034804 32.2408314,114.483313 C32.9837245,113.079769 33.8057828,111.655923 34.679045,110.260204 C34.9921587,109.70773 35.5169888,109.306797 36.1323554,109.149979 C36.747722,108.993162 37.4004255,109.094016 37.9397608,109.429255 L37.9903434,109.458459 C39.122982,110.111944 39.5272407,111.549826 38.9010786,112.697796 L36.4336611,116.971488 C36.1054449,117.522034 35.5694282,117.917283 34.946471,118.068116 C34.3235137,118.218949 33.6660642,118.112666 33.1223627,117.773233 Z M93.6675189,116.421651 C93.5008508,116.112047 92.6315358,114.760447 91.0595739,112.366849 C90.3743154,111.235376 90.7145783,109.763994 91.8270144,109.048244 C92.9394504,108.332495 94.4195348,108.632652 95.1652469,109.725229 C96.1193718,111.141705 97.0218379,112.588007 97.8146923,113.961271 C98.1155114,114.502629 98.1915895,115.140506 98.0265305,115.737428 C97.8286392,116.405657 97.3682129,116.965065 96.7505117,117.287765 C96.2353113,117.617664 95.6037061,117.711726 95.0147344,117.546264 C94.4257628,117.380803 93.9355453,116.971585 93.6675189,116.421651 Z M33.7070068,12.5574176 C33.0559167,11.3974388 33.4684526,9.92927738 34.6284314,9.2781873 C35.7884102,8.62709722 37.2565716,9.03963305 37.9076617,10.1996119 C38.7297199,11.6234585 39.5007407,13.0782067 40.1924299,14.5098785 C40.5025661,15.0754477 40.5665974,15.7436321 40.3695148,16.3578075 C40.1724322,16.971983 39.7315635,17.4781501 39.1502493,17.757662 C37.9814752,18.3878783 36.5231838,17.9589769 35.8817084,16.7963442 L33.7070068,12.5574176 Z M117.238522,36.188364 L112.914247,38.6849854 C112.368515,38.9916832 111.722007,39.0648404 111.121542,38.8878433 C110.521077,38.7108461 110.017616,38.2987158 109.725492,37.7450463 C109.054755,36.6362414 109.403026,35.1940463 110.505858,34.5135344 C111.95216,33.6110683 113.376006,32.78901 114.830133,32.016913 C115.375843,31.7106117 116.022145,31.6377417 116.622357,31.8148412 C117.22257,31.9919407 117.725791,32.4039904 118.017811,32.9574735 C118.351132,33.4871122 118.456367,34.1289391 118.309633,34.7372882 C118.162899,35.3456374 117.776641,35.8689163 117.238522,36.188364 Z M10.4557634,94.9910074 C10.1292081,94.4395168 10.0386429,93.7797083 10.2045256,93.1606257 C10.3704082,92.5415432 10.7787442,92.0154149 11.3372948,91.7010877 C12.6824312,90.8570293 14.1062778,90.0349711 15.5604046,89.2628741 C16.1078061,88.9409743 16.7627884,88.8561718 17.3741204,89.028047 C17.9854524,89.1999221 18.5002832,89.613616 18.7997416,90.1736093 L18.8289455,90.2241919 C19.4830968,91.3564459 19.1142539,92.8038179 17.9979968,93.4849077 L13.7243044,95.9523252 C13.164788,96.2650035 12.5029594,96.339291 11.8880461,96.1584375 C11.2731328,95.977584 10.7569061,95.556816 10.4557634,94.9910074 Z M98,72.361128 C97.6081819,72.418571 97.2073651,72.4903367 96.797811,72.5762667 L81.8891526,75.760095 C80.8230186,72.0485145 78.2402113,69.8087042 74.3313226,69.3517893 C73.0550974,69.2026097 72.004458,69.12829 69.7012496,69.000228 C68.8644646,68.9537015 68.5327677,68.9347243 68.0903653,68.9071191 C63.504479,68.6209676 60.8220417,68.0924503 58.4659759,66.7730541 C55.9324136,65.3542601 52.6107627,64.46818 49,64.1547643 L49,32 L98,32 L98,72.361128 Z" id="Shape" fill="#9B9B9B"></path>
                    <path d="M36,65.1718386 C43.5791074,63.18028 52.2151043,63.8325676 57.4659759,66.7730541 C59.8220417,68.0924503 62.504479,68.6209676 67.0903653,68.9071191 C67.5327677,68.9347243 67.8644646,68.9537015 68.7012496,69.000228 C71.004458,69.12829 72.0550974,69.2026097 73.3313226,69.3517893 C77.2402113,69.8087042 79.8230186,72.0485145 80.8891526,75.760095 L95.797811,72.5762667 C100.43478,71.6033674 103.951738,72.4461603 105.969215,75.334497 C107.921196,78.1290659 107.921196,81.2586569 106.034856,84.3367931 L105.670428,84.9314687 L105.015237,85.1705734 C90.5988054,90.4316863 80.719118,93.9042062 75.3526091,95.595433 C69.6452952,97.3940628 64.8994614,97.42028 61.1680174,95.5455627 L35.9927117,87.6488066 C35.9180062,88.407377 35.2782104,89 34.5,89 L23.5,89 C22.6715729,89 22,88.3284271 22,87.5 L22,64.5 C22,63.6715729 22.6715729,63 23.5,63 L34.5,63 C35.3284271,63 36,63.6715729 36,64.5 L36,65.1718386 Z M36,69.3281388 L36,83.4589299 L62.6959695,91.8326738 L62.8532154,91.9147068 C65.5359312,93.3142432 69.2832022,93.3142432 74.1503206,91.7803967 C79.3565575,90.1396787 88.962762,86.7663607 102.9465,81.6673925 C103.690095,80.1698035 103.589268,78.9125189 102.689964,77.625024 C101.742598,76.2687191 99.8454937,75.814103 96.6261904,76.4895436 L81.4822483,79.7236299 C81.339291,83.9749149 78.030212,86.2993164 72.3632812,86.2993164 L62.2443848,86.2993164 C61.1398153,86.2993164 60.2443848,85.4038859 60.2443848,84.2993164 C60.2443848,83.1947469 61.1398153,82.2993164 62.2443848,82.2993164 L72.3632812,82.2993164 C75.9660414,82.2993164 77.4243723,81.4946902 77.4836035,79.5188745 L77.3446244,78.3805697 C76.9508091,75.155034 75.562419,73.6398193 72.8669196,73.324739 C71.6983706,73.1881459 70.7010844,73.1176002 68.4791865,72.9940593 C67.6331266,72.9470171 67.2958585,72.9277211 66.8412566,72.8993547 C61.6971862,72.5783734 58.5326016,71.9548592 55.5115632,70.2630787 C51.0016032,67.7375025 42.8553094,67.2466193 36,69.3281388 Z M26,67 L26,85 L32,85 L32,67 L26,67 Z M43.5,64.0585708 L43.5,29 C43.5,28.1715729 44.1715729,27.5 45,27.5 L100,27.5 C100.828427,27.5 101.5,28.1715729 101.5,29 L101.5,72.4196052 C100.585572,72.2205777 98.5833427,72.151758 97.5,72.2090948 L97.5,31.5 L80.5,31.5 L80.5,49 C80.5,50.3124579 78.9335295,50.9920159 77.9751624,50.0953118 L72.5737206,45.0414081 L67.0100643,50.10895 C66.0468372,50.9862856 64.5,50.3028907 64.5,49 L64.5,31.5 L47.5,31.5 L47.5,64.0582566 C46.512671,64.0165029 44.5094605,64.0163506 43.5,64.0585708 Z M68.5,31.5 L68.5,43.6 L71.7618704,40.379155 C72.2243906,39.9224521 72.93296,39.9276004 73.3897919,40.3909831 L76.5,43.5457898 L76.5,31.5 L68.5,31.5 Z" id="Shape" fill="#000000"></path>
                </g>
            </g>
        </g>
    </g>
</svg>