<?xml version="1.0" encoding="UTF-8"?>
<svg width="125px" height="125px" viewBox="0 0 125 125" version="1.1" xmlns="http://www.w3.org/2000/svg" xmlns:xlink="http://www.w3.org/1999/xlink">
    <!-- Generator: sketchtool 52.6 (67491) - http://www.bohemiancoding.com/sketch -->
    <title>DE5B1AEB-B34C-47BE-BF83-AEE759AC494A</title>
    <desc>Created with sketchtool.</desc>
    <g id="Mockups" stroke="none" stroke-width="1" fill="none" fill-rule="evenodd">
        <g id="Reassurance-Images-Themes---Free" transform="translate(-553.000000, -691.000000)" fill-rule="nonzero">
            <g id="IT-Icons" transform="translate(20.000000, 640.000000)">
                <g id="pack2_globe" transform="translate(532.000000, 51.000000)">
                    <rect id="Rectangle_37-2" x="0" y="0" width="128" height="128"></rect>
                    <path d="M61.9243922,50.5236078 C61.9243922,59.7647059 61.9243922,68.8790588 61.9281569,77.9921569 C61.5479216,77.9921569 61.2944314,78.054902 60.9781961,78.054902 L42.8762353,78.054902 C42.2437647,78.054902 41.8635294,77.9281569 41.6740392,77.2316863 C39.1545366,68.7555511 39.0675709,59.7419942 41.4230588,51.2188235 C41.612549,50.7105882 41.7443137,50.4596078 42.3717647,50.4596078 L61.4224314,50.4596078 C61.5479216,50.4596078 61.734902,50.5236078 61.9243922,50.5236078 Z M67.6203922,77.9281569 L67.6203922,50.4658824 L87.8707451,50.4658824 C88.32,52.1750588 88.7567059,53.9469804 89.0729412,55.718902 C90.3445232,62.8957106 89.8889805,70.272147 87.744,77.2379608 C87.5545098,77.7399216 87.4277647,77.990902 86.8580392,77.990902 L67.9968627,77.990902 C67.8683908,77.9961331 67.7402231,77.9747718 67.6203922,77.9281569 Z M61.9243922,26.2826667 L61.9243922,44.8903529 L43.7596863,44.8903529 C47.2989232,36.6507293 53.7724184,30.0193658 61.9243922,26.2826667 Z M67.6203922,44.8903529 L67.6203922,26.2826667 C75.7552353,30.0228107 82.2077229,36.6555653 85.7223529,44.8903529 L67.6203922,44.8903529 Z M44.2654118,83.6881569 L61.9243922,83.6881569 L61.9243922,101.156392 C54.1222316,97.6564847 47.8498437,91.4518486 44.2654118,83.6881569 Z M85.2153725,83.6881569 C81.6003458,91.40819 75.3663581,97.5972713 67.6203922,101.156392 L67.6203922,83.6881569 L85.2153725,83.6881569 Z M94.2029804,77.6119216 L94.2017255,77.6119216 C96.7529113,68.6447484 96.8396131,59.1556651 94.4527059,50.1433725 C97.3013333,50.1433725 100.085961,50.0793725 102.870588,50.1433725 C103.063843,50.1433725 103.376314,50.4621176 103.440314,50.713098 C105.487068,56.4492706 106.074436,62.6045669 105.14949,68.6243137 C104.631685,71.4447497 103.955478,74.2337916 103.124078,76.9781961 C102.981972,77.3323761 102.67369,77.5931947 102.300863,77.6746667 L94.6459608,77.6746667 C94.4957147,77.6808431 94.3456011,77.6595805 94.2029804,77.6119216 Z M100.788706,44.6381176 C99.0142745,44.6381176 97.4318431,44.5113725 95.9121569,44.6280784 C93.5065098,44.9443137 92.3043137,44.185098 91.3543529,41.843451 C88.7972491,35.9431756 84.8699577,30.7377614 79.8983529,26.6591373 C79.7716078,26.5336471 79.5808627,26.4081569 79.4553725,26.2826667 C79.4553725,26.2174118 79.4553725,26.1559216 79.3298824,25.9664314 C88.5373973,29.3365834 96.178092,35.9848815 100.788706,44.6381176 Z M100.02698,83.3104314 C97.5585882,89.638902 85.7863529,99.5124706 79.3298824,100.714667 C80.3425882,99.7647059 81.2912941,98.8787451 82.2412549,97.9927843 C86.1688233,94.2403347 89.3102189,89.7436683 91.4823529,84.7648627 C91.7540419,83.700391 92.8101848,83.0337593 93.888,83.2464314 C95.9134118,83.4359216 97.9388235,83.3104314 100.02698,83.3104314 Z M35.9115294,50.777098 C33.5472657,59.8576979 33.6555861,69.4054936 36.2252549,78.4301176 L34.1358431,78.4301176 C32.1744314,78.4301176 30.2745098,78.3673725 28.313098,78.4301176 C27.8071632,78.5143877 27.3276201,78.1758538 27.2376471,77.670902 C24.1727444,69.2702113 24.0400614,60.0797061 26.8611765,51.5940392 C26.9879216,51.2840784 27.3066667,50.841098 27.5576471,50.841098 C30.2782745,50.777098 33.062902,50.777098 35.9115294,50.777098 Z M29.7098039,45.2705882 C33.190902,37.8654118 41.9877647,29.6370196 51.0343529,26.7256471 C50.7231373,26.9791373 50.5963922,27.1698824 50.406902,27.2953725 C45.0043284,31.8096403 40.8070423,37.5945994 38.1916863,44.1311373 C37.9917689,44.9178136 37.2171329,45.4155981 36.4185098,45.2705882 C34.5198431,45.2065882 32.6211765,45.2705882 30.7225098,45.2705882 L29.7098039,45.2705882 Z M50.9753725,101.283137 C42.2323437,98.1212404 34.8832473,91.9793686 30.2192941,83.9366275 L34.5236078,83.9366275 C35.6630588,83.9366275 37.056,83.5551373 37.8779608,84.0621176 C38.6999216,84.569098 39.0211765,85.8980392 39.5231373,86.9107451 C42.1949937,92.2457948 45.9200091,96.9842398 50.4734118,100.840157 C50.6591373,100.966902 50.7858824,101.157647 50.9753725,101.283137 Z M98.0015686,17.9915294 C96.9261176,17.2323137 95.8494118,16.409098 94.7099608,15.6498824 C70.7185592,-0.217402394 38.6405535,4.4392913 20.1512157,26.4734118 C14.3252042,33.3466364 10.2628966,41.5367239 8.31623529,50.3341176 C6.94666519,56.479624 6.58304095,62.806601 7.23952941,69.068549 C8.06004748,77.1106611 10.6538764,84.8707184 14.8341961,91.7898039 C15.0236863,92.1060392 15.1504314,92.3595294 15.3361569,92.6757647 C16.0673859,94.0043653 15.586544,95.6741268 14.2607059,96.4103529 C13.642221,96.7585691 12.9088474,96.8407103 12.2286509,96.6379526 C11.5484543,96.4351949 10.9797486,95.9649208 10.6528627,95.334902 C9.26282584,93.018659 7.99530494,90.6310618 6.85552941,88.1819608 C2.6943683,79.0258793 0.888600868,68.9746654 1.6025098,58.9427451 C2.3356708,46.4622541 6.88734914,34.508732 14.6409412,24.7014902 C22.7910664,13.9566449 34.3515153,6.30130455 47.4252549,2.99168627 C67.6153725,-2.13458824 86.1603137,1.7254902 102.615843,14.6371765 C102.866824,14.8266667 103.117804,15.0136471 103.501804,15.3336471 C103.501804,14.8906667 103.565804,14.6371765 103.565804,14.3209412 L103.565804,6.91701961 C103.547518,6.18414093 103.826183,5.47497633 104.338507,4.95060063 C104.850831,4.42622494 105.553326,4.1311482 106.286431,4.13239216 C107.805382,4.11912345 109.049713,5.3354159 109.071059,6.85427451 C109.133804,11.6011503 109.133804,16.3480261 109.071059,21.094902 C109.108999,21.8277638 108.834435,22.5423489 108.315529,23.0612545 C107.796623,23.58016 107.082038,23.8547244 106.349176,23.8167843 L92.1098039,23.8167843 C90.6065498,23.8167843 89.3879216,22.5981561 89.3879216,21.094902 C89.3879216,19.5916478 90.6065498,18.3730196 92.1098039,18.3730196 C94.0712157,18.3102745 96.0338824,18.3730196 97.9952941,18.3730196 C97.9591789,18.2501278 97.9591789,18.1194408 97.9952941,17.996549 L98.0015686,17.9915294 Z M23.5695686,110.46149 L23.5695686,118.879373 C23.5842372,120.125638 22.7620766,121.227188 21.563127,121.567648 C20.3641774,121.908109 19.0857931,121.403042 18.4432941,120.335059 C18.1997366,119.750276 18.0502284,119.130643 18.0003137,118.499137 C17.9363137,116.537725 17.9363137,114.575059 17.9363137,112.549647 C17.9363137,109.891765 17.8723137,107.232627 17.8723137,104.643765 C17.7575503,103.814139 18.0287803,102.977614 18.6085186,102.37317 C19.1882569,101.768725 20.0127409,101.462841 20.8464314,101.542902 L34.5813333,101.542902 C35.3450915,101.474569 36.1024068,101.730366 36.6683067,102.247814 C37.2342067,102.765263 37.5565866,103.49672 37.5567059,104.263529 C37.5920088,105.04653 37.2828311,105.805753 36.7105641,106.341333 C36.1382972,106.876913 35.3602824,107.135184 34.5813333,107.048157 L28.1261176,107.048157 C28.8790588,107.675608 29.3923137,108.123608 29.9607843,108.566588 C51.4247615,124.256822 80.8983964,122.968696 100.911686,105.465725 C110.746909,97.0250014 117.253857,85.3568952 119.265882,72.5534118 C121.635938,59.2630022 119.093755,45.5642006 112.112941,34.009098 C111.100235,32.2371765 111.164235,30.8442353 112.363922,29.8315294 C112.977057,29.2954539 113.801311,29.0684838 114.602441,29.2151213 C115.403571,29.3617589 116.09399,29.8659726 116.47749,30.5844706 C117.86846,32.986204 119.135888,35.4573952 120.274824,37.9883922 C124.082391,46.4914887 125.838766,55.770269 125.402353,65.0767059 C124.960774,79.6340751 119.3255,93.5531115 109.515294,104.31749 C100.630128,114.418902 88.6216082,121.258259 75.4007843,123.747137 C56.4768627,127.41898 39.4516078,123.119686 24.3262745,111.152941 C24.2660392,110.967216 24.012549,110.777725 23.5695686,110.46149 Z" id="Shape" fill="#9B9B9B"></path>
                    <path d="M108.950588,63.8142745 C108.064627,89.5736471 87.2407843,109.195294 61.5454118,108.118588 C36.5990902,107.024432 17.2125788,86.0009101 18.1398473,61.0478279 C19.0671159,36.0947457 39.9604932,16.5680439 64.9192196,17.3283833 C89.877946,18.0887227 109.543964,38.8510207 108.950588,63.8142745 Z M60.7221961,49.6338824 C60.5327059,49.6338824 60.3457255,49.5698824 60.2202353,49.5698824 L41.1695686,49.5698824 C40.5421176,49.5698824 40.4166275,49.8208627 40.2208627,50.329098 C37.8653748,58.8522687 37.9523405,67.8658256 40.4718431,76.3419608 C40.6613333,77.0384314 41.0415686,77.1651765 41.6740392,77.1651765 L59.776,77.1651765 C60.0922353,77.1651765 60.3457255,77.1024314 60.7247059,77.1024314 C60.723451,67.929098 60.723451,58.8147451 60.723451,49.6376471 L60.7221961,49.6338824 Z M66.355451,77.0396863 C66.4753296,77.0861275 66.6034609,77.1074828 66.7319216,77.1024314 L85.593098,77.1024314 C86.1628235,77.1024314 86.2895686,76.851451 86.4790588,76.3432157 C88.6238963,69.3773758 89.0794369,62.0009738 87.808,54.8241569 C87.4917647,53.0522353 87.0487843,51.2803137 86.6058039,49.5711373 L66.3516863,49.5711373 L66.355451,77.0396863 Z M34.7093333,49.5711373 C31.8607059,49.5711373 29.0760784,49.5711373 26.3541961,49.6338824 C26.1032157,49.6338824 25.7844706,50.0768627 25.6577255,50.393098 C22.8367045,58.8783513 22.9693877,68.0684302 26.0341961,76.4687059 C26.1247878,76.9732642 26.6038759,77.311477 27.1096471,77.2279216 C29.0710588,77.1639216 30.9709804,77.2279216 32.9323922,77.2279216 L35.0218039,77.2279216 C32.4504765,68.2015077 32.3412887,58.6514713 34.7055686,49.5686275 L34.7093333,49.5711373 Z M92.0520784,77.0396863 C92.1949908,77.088033 92.3455661,77.109726 92.4963137,77.1036863 L100.151216,77.1036863 C100.523568,77.0218408 100.831313,76.7610798 100.973176,76.4072157 C101.804994,73.6628348 102.481621,70.8737929 102.999843,68.0533333 C103.924895,62.0335896 103.337524,55.8782671 101.290667,50.1421176 C101.227922,49.8911373 100.914196,49.5723922 100.720941,49.5723922 C97.9363137,49.5083922 95.1516863,49.5723922 92.3030588,49.5723922 C94.6898056,58.5855546 94.6031047,68.0754009 92.0520784,77.043451 L92.0520784,77.0396863 Z M60.7221961,25.3301961 C52.5701522,29.0667956 46.0966258,35.698191 42.5574902,43.9378824 L60.7221961,43.9378824 L60.7221961,25.3301961 Z M66.355451,43.9378824 L84.4574118,43.9378824 C80.9427818,35.7030948 74.4902942,29.0703401 66.355451,25.3301961 L66.355451,43.9378824 Z M43.0644706,82.7356863 C46.6485936,90.4991594 52.9205062,96.7037662 60.7221961,100.203922 L60.7221961,82.7356863 L43.0644706,82.7356863 Z M84.0144314,82.7356863 L66.419451,82.7356863 L66.419451,100.203922 C74.165354,96.64471 80.3993144,90.4556558 84.0144314,82.7356863 Z M98.6967843,44.0646275 C94.0859296,35.411864 86.4452651,28.7640391 77.2379608,25.3941961 C77.363451,25.5836863 77.363451,25.6451765 77.363451,25.7104314 C77.4889412,25.8359216 77.6796863,25.9614118 77.8064314,26.086902 C82.7778257,30.1657282 86.7050755,35.3710872 89.2624314,41.2712157 C90.2123922,43.6128627 91.4145882,44.3720784 93.8189804,44.0558431 C95.4441773,43.9645349 97.0733335,43.9687251 98.6980392,44.0683922 L98.6967843,44.0646275 Z M28.5063529,44.0646275 L29.5190588,44.0646275 C31.4177255,44.0646275 33.3163922,44.0018824 35.2163137,44.0646275 C36.0145041,44.2089081 36.7883407,43.7112852 36.9882353,42.9251765 C39.6034526,36.3885621 43.8007617,30.6035714 49.203451,26.0894118 C49.3929412,25.9639216 49.5196863,25.7731765 49.830902,25.5196863 C40.7855686,28.3708235 31.9887059,36.5992157 28.5076078,44.0683922 L28.5063529,44.0646275 Z M97.9375686,82.6729412 C95.8494118,82.6729412 93.824,82.7984314 91.7985882,82.6089412 C90.720773,82.3962691 89.6646301,83.0629008 89.3929412,84.1273725 C87.2208952,89.1062275 84.0794881,93.6029103 80.1518431,97.3552941 C79.2031373,98.2412549 78.2531765,99.1272157 77.2404706,100.077176 C83.6969412,98.8749804 95.4051765,89.0014118 97.9375686,82.6716863 L97.9375686,82.6729412 Z M49.7731765,100.078431 C49.5836863,99.9529412 49.4569412,99.7621961 49.2712157,99.635451 C44.7179643,95.7797025 40.9933303,91.0411996 38.3221961,85.7060392 C37.8202353,84.6933333 37.4989804,83.3643922 36.6757647,82.8574118 C35.852549,82.3504314 34.4608627,82.7319216 33.3214118,82.7319216 L29.017098,82.7319216 C33.6823887,90.7738791 41.0329815,96.9141101 49.7769412,100.073412 L49.7731765,100.078431 Z" id="Path_534" fill="#000000"></path>
                </g>
            </g>
        </g>
    </g>
</svg>