<?xml version="1.0" encoding="UTF-8"?>
<svg width="125px" height="125px" viewBox="0 0 125 125" version="1.1" xmlns="http://www.w3.org/2000/svg" xmlns:xlink="http://www.w3.org/1999/xlink">
    <!-- Generator: sketchtool 53.2 (72643) - https://sketchapp.com -->
    <title>705363ED-684A-4D99-A329-D4BD2CD631B2</title>
    <desc>Created with sketchtool.</desc>
    <g id="Mockups" stroke="none" stroke-width="1" fill="none" fill-rule="evenodd">
        <g id="Reassurance-Images-Themes---Free" transform="translate(-207.000000, -868.000000)" fill="#000000" fill-rule="nonzero">
            <g id="IT-Icons" transform="translate(20.000000, 640.000000)">
                <path d="M256.480374,351.490085 L254.504083,351.797126 L253.89,347.844545 L255.866291,347.537503 C256.184284,347.488099 256.501667,347.435976 256.818416,347.381144 L258.789106,347.04 L259.471394,350.981381 L257.500704,351.322525 C257.161257,351.381286 256.821138,351.437143 256.480374,351.490085 Z M266.344241,349.143353 L264.43982,349.754239 L263.218048,345.945397 L265.122469,345.334511 C265.428444,345.236363 265.733493,345.135583 266.037586,345.032185 L267.931121,344.388348 L269.218796,348.175417 L267.325261,348.819255 C266.999269,348.930098 266.672252,349.038136 266.344241,349.143353 Z M274.994876,345.598353 L273.209326,346.499359 L271.407315,342.928259 L273.192864,342.027254 C273.479882,341.882422 273.76563,341.735118 274.050081,341.58536 L275.819796,340.653636 L277.683243,344.193067 L275.913527,345.12479 C275.608695,345.285279 275.302467,345.44314 274.994876,345.598353 Z M282.924937,340.79325 L281.299563,341.95865 L278.968762,338.707902 L280.594136,337.542501 C280.855749,337.354924 281.11575,337.165097 281.374109,336.973045 L282.979216,335.779885 L285.365536,338.990099 L283.760429,340.183259 C283.483682,340.38898 283.205175,340.592318 282.924937,340.79325 Z M290.069125,334.780723 L288.643172,336.183099 L285.83842,333.331193 L287.264373,331.928817 C287.493605,331.703375 287.720904,331.475976 287.946245,331.246644 L289.347992,329.820073 L292.201134,332.623567 L290.799387,334.050138 C290.558055,334.295744 290.314625,334.539282 290.069125,334.780723 Z M296.20869,327.726193 L295.016667,329.332145 L291.804763,326.948099 L292.996786,325.342147 C293.188662,325.083643 293.378311,324.823498 293.56571,324.561743 L294.729957,322.935542 L297.982358,325.264037 L296.818111,326.890237 C296.617371,327.170628 296.414222,327.44929 296.20869,327.726193 Z M301.122286,319.918283 L300.190404,321.687915 L296.651141,319.824151 L297.583023,318.054519 C297.73305,317.76962 297.880615,317.483419 298.025699,317.195944 L298.926815,315.41045 L302.497804,317.212683 L301.596688,318.998177 C301.441203,319.306258 301.283063,319.61297 301.122286,319.918283 Z M304.809139,311.354985 L304.164303,313.24818 L300.377914,311.958508 L301.022749,310.065313 C301.126423,309.760935 301.227473,309.455599 301.325886,309.149333 L301.93774,307.245223 L305.74596,308.468929 L305.134107,310.37304 C305.028606,310.701362 304.920278,311.028688 304.809139,311.354985 Z M307.11731,302.309578 L306.775965,304.280234 L302.834654,303.597544 L303.175999,301.626888 C303.230901,301.309924 303.283091,300.992323 303.332558,300.674112 L303.639777,298.697849 L307.592303,299.312285 L307.285085,301.288549 C307.232075,301.629547 307.176147,301.969899 307.11731,302.309578 Z M307.991704,293.007626 L307.958755,295.007355 L303.959298,294.941457 L303.992247,292.941728 C303.997402,292.628881 303.999988,292.315704 304,292.002287 L303.999994,291.974498 L303.999104,289.974498 L307.999103,289.972717 L307.999994,291.972717 L308,292.002372 C307.999987,292.337775 307.99722,292.672867 307.991704,293.007626 Z M307.433031,283.71956 L307.706604,285.700761 L303.744202,286.247907 L303.470629,284.266706 C303.426658,283.948269 303.379971,283.630408 303.330576,283.313147 L303.022902,281.336955 L306.975287,280.721606 L307.282961,282.697798 C307.33589,283.037761 307.385916,283.378357 307.433031,283.71956 Z M305.443385,274.619091 L306.021912,276.533591 L302.192914,277.690644 L301.614387,275.776145 C301.5213,275.468094 301.425561,275.160937 301.327183,274.854702 L300.715475,272.950545 L304.523788,271.727129 L305.135496,273.631285 C305.240959,273.959576 305.343594,274.288855 305.443385,274.619091 Z M268.303709,235.522965 L270.185751,236.199661 L268.832358,239.963745 L266.950316,239.287049 C266.647652,239.178224 266.343993,239.07201 266.039367,238.96842 L264.145855,238.324519 L265.433658,234.537493 L267.327171,235.181395 C267.653731,235.292444 267.979254,235.406305 268.303709,235.522965 Z M259.301281,233.063092 L261.2659,233.437624 L260.516835,237.366861 L258.552217,236.992329 C258.236367,236.932115 257.919847,236.874607 257.602685,236.819814 L255.631879,236.479337 L256.312834,232.537726 L258.28364,232.878203 C258.623545,232.936925 258.962768,232.998558 259.301281,233.063092 Z M250.020376,232.033397 L252.019281,232.099575 L251.886926,236.097384 L249.888022,236.031207 C249.566478,236.020562 249.244556,236.012636 248.922279,236.007436 L246.922539,235.975169 L246.987074,231.975689 L248.986814,232.007956 C249.331703,232.013521 249.676232,232.022004 250.020376,232.033397 Z M240.715867,232.437884 L242.701369,232.197508 L243.182121,236.168513 L241.196619,236.408889 C240.876281,236.44767 240.556492,236.489191 240.237274,236.533443 L238.256219,236.808068 L237.706969,232.845956 L239.688025,232.571332 C240.030045,232.523919 240.372668,232.479434 240.715867,232.437884 Z M231.589289,234.272405 L233.513335,233.726466 L234.605212,237.574557 L232.681167,238.120496 C232.3712,238.208447 232.062093,238.299069 231.753874,238.392348 L229.839617,238.971677 L228.68096,235.143164 L230.595216,234.563835 C230.925633,234.463838 231.257001,234.36669 231.589289,234.272405 Z M222.832952,237.517934 L224.648082,236.67811 L226.327729,240.308369 L224.512599,241.148193 C224.220507,241.283338 223.929611,241.421003 223.639941,241.56117 L221.839631,242.43231 L220.09735,238.831692 L221.897659,237.960551 C222.208116,237.810326 222.519891,237.66278 222.832952,237.517934 Z M214.735475,242.057924 L216.399054,240.947742 L218.619419,244.274899 L216.955841,245.385082 C216.688239,245.563665 216.422174,245.744549 216.157675,245.927713 L214.513434,247.066339 L212.236181,243.777857 L213.880422,242.63923 C214.163769,242.443014 214.448797,242.249238 214.735475,242.057924 Z M207.397539,247.824458 L208.869709,246.470681 L211.577265,249.415021 L210.105095,250.768799 C209.868314,250.986538 209.6334,251.206302 209.40038,251.428066 L207.951606,252.806853 L205.194031,249.909306 L206.642805,248.530518 C206.892364,248.293015 207.143952,248.057652 207.397539,247.824458 Z M201.026793,254.666543 L202.272176,253.101608 L205.402046,255.592374 L204.156663,257.157309 C203.956159,257.40926 203.757824,257.662924 203.561682,257.918272 L202.343352,259.504359 L199.171178,257.067699 L200.389508,255.481612 C200.599598,255.208106 200.812035,254.936406 201.026793,254.666543 Z M195.847824,262.312472 L196.8388,260.575242 L200.313259,262.557194 L199.322283,264.294423 C199.162777,264.574045 199.005687,264.855043 198.85103,265.137387 L197.890214,266.891477 L194.382034,264.969844 L195.34285,263.215754 C195.508575,262.913202 195.676907,262.612098 195.847824,262.312472 Z M191.872456,270.749546 L192.580938,268.879237 L196.321555,270.296202 L195.613072,272.16651 C195.499063,272.467481 195.387652,272.769484 195.278854,273.072491 L194.602978,274.954828 L190.838304,273.603077 L191.51418,271.72074 C191.63081,271.39592 191.750241,271.072178 191.872456,270.749546 Z M189.260869,279.707001 L189.668623,277.749008 L193.584609,278.564518 L193.176855,280.522511 C193.111297,280.837309 193.048439,281.152809 192.988291,281.468987 L192.614519,283.43375 L188.684993,282.686208 L189.058764,280.721444 C189.123231,280.382568 189.190603,280.044411 189.260869,279.707001 Z M188.075176,288.970988 L188.17455,286.973458 L192.169609,287.172206 L192.070235,289.169736 C192.05425,289.491052 192.040987,289.812776 192.030453,290.134884 L191.965082,292.133815 L187.967219,292.003072 L188.032591,290.004141 C188.043866,289.659355 188.058064,289.314963 188.075176,288.970988 Z M188.325169,298.282848 L188.118094,296.293597 L192.096596,295.879447 L192.303671,297.868698 C192.337024,298.189105 192.373109,298.508997 192.411917,298.828352 L192.653184,300.813746 L188.682395,301.296279 L188.441129,299.310885 C188.399554,298.968762 188.360898,298.626074 188.325169,298.282848 Z M190.005656,307.439404 L189.492336,305.5064 L193.358343,304.47976 L193.871663,306.412764 C193.954433,306.724452 194.039889,307.035313 194.128019,307.345322 L194.674911,309.269096 L190.827362,310.362881 L190.28047,308.439107 C190.185994,308.106776 190.094385,307.773532 190.005656,307.439404 Z M193.102177,316.248176 L192.29314,314.419116 L195.95126,312.801043 L196.760297,314.630102 C196.890463,314.924382 197.023168,315.217503 197.158394,315.509435 L197.999008,317.324198 L194.369481,319.005428 L193.528866,317.190664 C193.38393,316.877768 193.241694,316.563595 193.102177,316.248176 Z M197.507111,324.424008 L196.424908,322.742093 L199.788737,320.577687 L200.87094,322.259601 C201.045101,322.530274 201.221592,322.799446 201.40039,323.067087 L202.51139,324.73012 L199.185324,326.95212 L198.074324,325.289087 C197.882775,325.002361 197.693696,324.71399 197.507111,324.424008 Z M203.149307,331.855863 L201.820273,330.361316 L204.809366,327.703249 L206.1384,329.197796 C206.35223,329.438255 206.568119,329.676881 206.78604,329.913646 L208.140483,331.385204 L205.197367,334.09409 L203.842924,332.622532 C203.609532,332.36896 203.378317,332.113393 203.149307,331.855863 Z M209.879186,338.335745 L208.3354,337.064241 L210.878409,333.976668 L212.422196,335.248173 C212.670568,335.452739 212.920688,335.65517 213.172524,335.855441 L214.737889,337.100283 L212.248204,340.231013 L210.682839,338.986171 C210.413103,338.771666 210.145209,338.554848 209.879186,338.335745 Z M217.495145,343.677364 L215.773757,342.659119 L217.810248,339.216343 L219.531636,340.234588 C219.808479,340.398348 220.086731,340.55972 220.366363,340.718683 L222.105058,341.707086 L220.128252,345.184476 L218.389557,344.196073 C218.089927,344.025741 217.791779,343.852831 217.495145,343.677364 Z M225.805063,347.760557 L223.947071,347.020377 L225.427431,343.304393 L227.285423,344.044573 C227.584136,344.163573 227.883917,344.279997 228.184736,344.393828 L230.055293,345.101654 L228.63964,348.842767 L226.769083,348.134941 C226.446617,348.012919 226.125266,347.888118 225.805063,347.760557 Z M235.220818,350.822442 L233.27,350.381635 L234.151613,346.48 L236.102431,346.920807 C236.416194,346.991705 236.730695,347.059909 237.045906,347.125408 L239.004077,347.532309 L238.190277,351.44865 L236.232106,351.04175 C235.894243,350.971543 235.557137,350.898437 235.220818,350.822442 Z M246.067422,352.129109 L244.067619,352.101009 L244.123818,348.101404 L246.123621,348.129504 C246.445303,348.134024 246.76728,348.1358 247.089527,348.134828 L249.089518,348.128794 L249.101586,352.128776 L247.101595,352.13481 C246.75659,352.135851 246.411857,352.133949 246.067422,352.129109 Z M283.673246,257.326754 C281.392675,254.849329 280,251.541848 280,247.909091 C280,240.227312 286.227312,234 293.909091,234 C297.541848,234 300.849329,235.392675 303.326754,237.673246 C305.607325,240.150671 307,243.458152 307,247.090909 C307,254.772688 300.772688,261 293.090909,261 C289.458152,261 286.150671,259.607325 283.673246,257.326754 Z M284.717192,249.05459 L286.021494,250.432026 C287.0536,251.520802 288.134342,252.637614 289.204352,253.718915 C289.56691,254.116528 290.10824,254.339491 290.682913,254.327905 C290.763359,254.310806 290.852219,254.330291 290.934494,254.312803 C291.301436,254.230418 291.631901,254.037234 291.872176,253.76465 C295.215752,249.860303 298.556889,245.956474 301.854266,242.023574 C302.17204,241.684269 302.336776,241.248579 302.312987,240.810357 C302.251193,240.415906 302.025405,240.064257 301.682636,239.82863 C301.329635,239.582137 300.876534,239.483874 300.429592,239.556883 C299.98265,239.629893 299.581183,239.867753 299.319342,240.214683 C298.946611,240.642751 298.540398,241.111076 298.167195,241.53692 C297.996803,241.727209 297.834688,241.956438 297.623481,242.152496 L290.563127,250.387033 C290.459033,250.292879 290.402102,250.228816 290.298736,250.135088 C289.922682,249.753386 289.594656,249.399849 289.217993,249.018277 C288.465887,248.254874 287.705249,247.45433 286.912309,246.699606 C286.642206,246.392536 286.240549,246.20821 285.804528,246.19123 C285.368506,246.174249 284.937846,246.326161 284.616753,246.610208 C283.914627,247.174003 283.785643,248.125316 284.321298,248.789317 C284.47123,248.853307 284.605563,248.943318 284.717192,249.05459 Z M216.259885,322 C213.960198,322 212.938223,321.037894 213.00288,318.723402 L213.00288,274.276598 C213.00288,271.899972 213.896506,271 216.259885,271 L279.423568,271 C282.23376,271 283,271.77085 283,274.597947 L283,318.59428 C283,320.907801 281.914332,322 279.679303,322 L216.259885,322 Z M278,295 L218.064066,295 L218,317 L278,317 L278,295 Z M278,276 L218.064066,276 L218,283 L278,283 L278,276 Z M293,266 C282.50659,266 274,257.49341 274,247 C274,236.50659 282.50659,228 293,228 C303.49341,228 312,236.50659 312,247 C312,257.49341 303.49341,266 293,266 Z M293,261.043478 C300.755999,261.043478 307.043478,254.755999 307.043478,247 C307.043478,239.244001 300.755999,232.956522 293,232.956522 C285.244001,232.956522 278.956522,239.244001 278.956522,247 C278.956522,254.755999 285.244001,261.043478 293,261.043478 Z" id="pack2_creditcard"></path>
            </g>
        </g>
    </g>
</svg>