<?xml version="1.0" encoding="UTF-8"?>
<svg width="124px" height="125px" viewBox="0 0 124 125" version="1.1" xmlns="http://www.w3.org/2000/svg" xmlns:xlink="http://www.w3.org/1999/xlink">
    <!-- Generator: sketchtool 53.2 (72643) - https://sketchapp.com -->
    <title>860D7098-6658-47AF-A51C-583E1E070BC8</title>
    <desc>Created with sketchtool.</desc>
    <g id="Mockups" stroke="none" stroke-width="1" fill="none" fill-rule="evenodd">
        <g id="Reassurance-Images-Themes---Free" transform="translate(-31.000000, -1046.000000)" fill="#000000" fill-rule="nonzero">
            <g id="IT-Icons" transform="translate(20.000000, 640.000000)">
                <path d="M68.4706953,455.17704 C68.0099805,454.48482 67.7176401,453.567752 67.5743735,452.39433 L67.4516604,451.389251 C67.5039592,449.644683 68.7916084,448.93423 71.9727046,448.93423 L80.9072942,448.93423 C81.8825858,448.93423 82.6732159,448.1436 82.6732159,447.168308 C82.6732159,446.420486 82.2083787,445.781232 81.5518795,445.523723 C81.6302077,445.723414 81.6732159,445.940838 81.6732159,446.168308 C81.6732159,447.1436 80.8825858,447.93423 79.9072942,447.93423 L70.9727046,447.93423 C67.7916084,447.93423 66.5039592,448.644683 66.4516604,450.389251 L66.5743735,451.39433 C66.8025069,453.262851 67.4086375,454.48135 68.4706953,455.17704 Z M45.0550217,452.848878 C44.3931726,451.78526 44.3533259,450.731989 44.9689189,449.492194 C57.3160127,444.990004 65.7979153,442.011497 70.3948188,440.562807 C74.6922939,439.20848 78.0009875,439.20848 80.3697205,440.444216 L80.5085625,440.516648 L103.080059,447.596666 L103.080059,446.910336 L79.5085625,439.516648 L79.3697205,439.444216 C77.0009875,438.20848 73.6922939,438.20848 69.3948188,439.562807 C64.7979153,441.011497 56.3160127,443.990004 43.9689189,448.492194 C43.3123538,449.814506 43.4013803,450.924639 44.1954301,452.061447 C44.4196161,452.382405 44.7040364,452.646175 45.0550217,452.848878 Z M107.611902,461.442927 L107.611902,446.549632 L111.909668,446.549632 L111.909668,445.549632 L106.611902,445.549632 L106.611902,461.442927 L107.611902,461.442927 Z M35.2340783,490.425139 L35.2340783,475.638548 L39.8296087,475.638548 L39.8296087,474.531843 L34.5318435,474.531843 L34.5318435,490.425139 L35.2340783,490.425139 Z M107.551235,423.191548 C106.475784,422.432332 105.399078,421.609116 104.259627,420.849901 C80.2682255,404.982616 48.1902198,409.63931 29.700882,431.67343 C23.8748705,438.546655 19.812563,446.736742 17.8659016,455.534136 C16.4963315,461.679642 16.1327073,468.006619 16.7891957,474.268567 C17.6097138,482.310679 20.2035428,490.070737 24.3838624,496.989822 C24.5733526,497.306058 24.7000977,497.559548 24.8858232,497.875783 C25.6170523,499.204384 25.1362103,500.874145 23.8103722,501.610371 C23.1918873,501.958587 22.4585137,502.040729 21.7783172,501.837971 C21.0981206,501.635213 20.5294149,501.164939 20.2025291,500.53492 C18.8124922,498.218677 17.5449713,495.83108 16.4051957,493.381979 C12.2440346,484.225898 10.4382672,474.174684 11.1521761,464.142764 C11.8853371,451.662273 16.4370155,439.70875 24.1906075,429.901509 C32.3407327,419.156663 43.9011816,411.501323 56.9749212,408.191705 C77.1650389,403.06543 95.7099801,406.925509 112.165509,419.837195 C112.41649,420.026685 112.66747,420.213665 113.05147,420.533665 C113.05147,420.090685 113.11547,419.837195 113.11547,419.52096 L113.11547,412.117038 C113.097184,411.384159 113.37585,410.674995 113.888173,410.150619 C114.400497,409.626243 115.102992,409.331167 115.836098,409.332411 C117.355048,409.319142 118.599379,410.535434 118.620725,412.054293 C118.68347,416.801169 118.68347,421.548045 118.620725,426.29492 C118.658665,427.027782 118.384101,427.742367 117.865195,428.261273 C117.34629,428.780178 116.631705,429.054743 115.898843,429.016803 L101.65947,429.016803 C100.156216,429.016803 98.9375879,427.798174 98.9375879,426.29492 C98.9375879,424.791666 100.156216,423.573038 101.65947,423.573038 C103.620882,423.510293 105.583549,423.573038 107.54496,423.573038 C107.508845,423.450146 107.508845,423.319459 107.54496,423.196567 L107.551235,423.191548 Z M33.119235,515.661509 L33.119235,524.079391 C33.1339035,525.325657 32.3117429,526.427206 31.1127933,526.767667 C29.9138437,527.108127 28.6354594,526.603061 27.9929604,525.535077 C27.7494029,524.950295 27.5998948,524.330662 27.5499801,523.699156 C27.4859801,521.737744 27.4859801,519.775077 27.4859801,517.749665 C27.4859801,515.091783 27.4219801,512.432646 27.4219801,509.843783 C27.3072166,509.014157 27.5784467,508.177633 28.158185,507.573188 C28.7379233,506.968744 29.5624072,506.662859 30.3960977,506.74292 L44.1309997,506.74292 C44.8947578,506.674587 45.6520732,506.930384 46.2179731,507.447833 C46.783873,507.965282 47.1062529,508.696739 47.1063722,509.463548 C47.1416752,510.246548 46.8324974,511.005771 46.2602305,511.541351 C45.6879635,512.076932 44.9099487,512.335203 44.1309997,512.248175 L37.675784,512.248175 C38.4287252,512.875626 38.9419801,513.323626 39.5104506,513.766607 C60.9744278,529.456841 90.4480627,528.168715 110.461353,510.665744 C120.296576,502.22502 126.803523,490.556914 128.815549,477.75343 C131.185605,464.463021 128.643421,450.764219 121.662608,439.209116 C120.649902,437.437195 120.713902,436.044254 121.913588,435.031548 C122.526723,434.495472 123.350977,434.268502 124.152107,434.41514 C124.953237,434.561777 125.643657,435.065991 126.027157,435.784489 C127.418126,438.186222 128.685554,440.657414 129.82449,443.188411 C133.632058,451.691507 135.388432,460.970287 134.952019,470.276724 C134.51044,484.834094 128.875167,498.75313 119.06496,509.517509 C110.179794,519.61892 98.1712745,526.458277 84.9504506,528.947156 C66.0265291,532.618999 49.0012742,528.319705 33.8759408,516.35296 C33.8157055,516.167234 33.5622153,515.977744 33.119235,515.661509 Z M43.3614521,472.917649 C50.0535073,471.15918 57.6787546,471.735125 62.3150688,474.331459 C64.3953827,475.496434 66.7638698,475.963094 70.813028,476.215755 C71.203652,476.240129 71.4965274,476.256885 72.2353758,476.297967 C74.2690187,476.41104 75.1966922,476.476662 76.3235491,476.608381 C79.7749449,477.011819 82.0554626,478.989484 82.9968172,482.266665 L96.1605791,479.455469 C100.254841,478.596437 103.360178,479.34059 105.141531,481.890878 C106.865054,484.358373 106.865054,487.121679 105.19949,489.839553 L104.877714,490.364629 L104.299205,490.575749 C91.5700606,495.221106 82.8466833,498.287205 78.1082659,499.780492 C73.0689311,501.368611 68.8785456,501.39176 65.5838265,499.736458 L43.3550169,492.763932 C43.2890548,493.43372 42.7241401,493.956983 42.0370108,493.956983 L32.3244413,493.956983 C31.5929726,493.956983 31,493.36401 31,492.632541 L31,472.324441 C31,471.592973 31.5929726,471 32.3244413,471 L42.0370108,471 C42.7684796,471 43.3614521,471.592973 43.3614521,472.324441 L43.3614521,472.917649 Z M43.3614521,476.587499 L43.3614521,489.064434 L66.9329485,496.458123 L67.0717905,496.530555 C69.4405235,497.76629 72.7492171,497.76629 77.0466922,496.411964 C81.6435957,494.963274 90.1254983,491.984766 102.472592,487.482577 C103.129157,486.160265 103.040131,485.050131 102.246081,483.913324 C101.409593,482.71576 99.7345245,482.314351 96.8920057,482.910739 L83.5204975,485.766311 C83.3942718,489.520029 80.4724845,491.572385 75.4688064,491.572385 L66.5342168,491.572385 C65.5589252,491.572385 64.7682951,490.781755 64.7682951,489.806463 C64.7682951,488.831171 65.5589252,488.040541 66.5342168,488.040541 L75.4688064,488.040541 C78.6499026,488.040541 79.9375518,487.330088 79.9898506,485.58552 L79.8671375,484.580441 C79.519414,481.732419 78.2935199,480.394544 75.9134994,480.116341 C74.8817164,479.995734 74.0011516,479.933445 72.0393027,479.824363 C71.292265,479.782827 70.9944705,479.765789 70.5930747,479.740743 C66.051062,479.457329 63.2568575,478.90679 60.5893989,477.413014 C56.6072807,475.183029 49.414422,474.749599 43.3614521,476.587499 Z M103.080059,463.057122 C96.3880037,464.815591 88.7627564,464.239646 84.1264422,461.643312 C82.0461283,460.478336 79.6776412,460.011676 75.628483,459.759016 C75.237859,459.734641 74.9449836,459.717885 74.2061352,459.676804 C72.1724923,459.563731 71.2448188,459.498109 70.1179619,459.366389 C66.6665661,458.962951 64.3860484,456.985287 63.4446938,453.708106 L50.2809319,456.519302 C46.1866699,457.378334 43.0813332,456.634181 41.29998,454.083893 C39.576457,451.616398 39.576457,448.853091 41.2420214,446.135217 L41.5637974,445.610142 L42.1423059,445.399022 C54.8714504,440.753665 63.5948277,437.687566 68.3332451,436.194279 C73.3725799,434.606159 77.5629654,434.58301 80.8576845,436.238312 L103.086494,443.210839 C103.152456,442.541051 103.717371,442.017788 104.4045,442.017788 L114.11707,442.017788 C114.848538,442.017788 115.441511,442.610761 115.441511,443.34223 L115.441511,463.650329 C115.441511,464.381798 114.848538,464.974771 114.11707,464.974771 L104.4045,464.974771 C103.673031,464.974771 103.080059,464.381798 103.080059,463.650329 L103.080059,463.057122 Z" id="pack2_return"></path>
            </g>
        </g>
    </g>
</svg>