<?xml version="1.0" encoding="UTF-8"?>
<svg width="125px" height="125px" viewBox="0 0 125 125" version="1.1" xmlns="http://www.w3.org/2000/svg" xmlns:xlink="http://www.w3.org/1999/xlink">
    <!-- Generator: sketchtool 52.6 (67491) - http://www.bohemiancoding.com/sketch -->
    <title>B52A6C3D-A144-4E8B-804B-9320E12234AB</title>
    <desc>Created with sketchtool.</desc>
    <g id="Mockups" stroke="none" stroke-width="1" fill="none" fill-rule="evenodd">
        <g id="Reassurance-Images-Themes---Free" transform="translate(-206.000000, -693.000000)" fill-rule="nonzero">
            <g id="IT-Icons" transform="translate(20.000000, 640.000000)">
                <g id="pack2_support" transform="translate(184.000000, 51.000000)">
                    <rect id="bg" x="0" y="0" width="128" height="128"></rect>
                    <path d="M124.308686,64.8217476 C123.957227,64.8112845 122.352049,64.8883331 119.493152,65.0528932 C118.170638,65.0806077 117.066515,64.0502404 117.002876,62.7289677 C116.939237,61.4076951 117.939223,60.275983 119.258278,60.176466 C120.962045,60.0584078 122.665812,60 124.251521,60 C124.870761,60.0101621 125.461217,60.2632149 125.895638,60.7046214 C126.375395,61.2101144 126.629643,61.8885595 126.600259,62.5848544 C126.62836,63.1959807 126.394017,63.7899976 125.956238,64.2173313 C125.518458,64.644665 124.918956,64.8645967 124.308686,64.8217476 Z M4.37936524,64.8169575 C3.04924908,64.8008286 1.98405191,63.7094814 2.00018077,62.3793652 C2.01630963,61.0492491 3.10765685,59.9840519 4.437773,60.0001808 C6.08188951,60.0001808 7.72724873,60.0598313 9.31295747,60.1766468 C9.95782294,60.1908456 10.5685032,60.469485 11.0018535,60.9472513 C11.4352037,61.4250176 11.6531229,62.0599046 11.6045303,62.7030934 C11.5659265,64.0303896 10.4653413,65.0788564 9.13773417,65.053074 L4.37936524,64.8169575 Z M66.6101225,4.29201686 L66.6101225,9.28525957 C66.602865,9.91122557 66.3429669,10.5076968 65.8894504,10.9392161 C65.4359339,11.3707354 64.8272878,11.6006809 64.2017342,11.5768324 C62.9061125,11.6033053 61.8312701,10.5805966 61.7933458,9.28525957 C61.7349381,7.58149258 61.7349381,5.93737608 61.7933458,4.29201686 C61.8009359,3.66626778 62.0609795,3.07011895 62.5144586,2.63886928 C62.9679376,2.20761961 63.5763935,1.97784241 64.2017342,2.00168676 C64.8270748,1.97784241 65.4355307,2.20761961 65.8890098,2.63886928 C66.3424888,3.07011895 66.6025324,3.66626778 66.6101225,4.29201686 Z M64.1433264,126.16992 C63.5024439,126.17698 62.8857504,125.925507 62.4325505,125.472307 C61.9793506,125.019107 61.7278781,124.402414 61.7349381,123.761531 C61.6765303,122.17458 61.6765303,120.530463 61.7349381,118.885104 C61.7298654,118.250091 61.9839155,117.640458 62.4384297,117.196967 C62.892944,116.753475 63.5086287,116.514466 64.1433264,116.535124 L64.2017342,116.535124 C65.5093706,116.534739 66.57841,117.577852 66.6101225,118.885104 L66.6101225,123.819939 C66.6011517,124.460834 66.3345723,125.071138 65.8704919,125.513242 C65.4064115,125.955345 64.7839024,126.192027 64.1433264,126.16992 Z M115.901179,94.7268374 C115.602038,94.5420467 114.173389,93.8061837 111.615231,92.5192484 C110.456043,91.8819929 110.015028,90.4376072 110.620552,89.2615318 C111.226075,88.0854565 112.657944,87.6053581 113.850038,88.1787017 C115.384573,88.9283437 116.889282,89.7296446 118.262546,90.522499 C118.793742,90.8409194 119.178566,91.3552977 119.334082,91.9547772 C119.496817,92.6324256 119.377781,93.3471006 119.004186,93.9354175 C118.722959,94.478719 118.223003,94.8759812 117.630208,95.0271732 C117.037413,95.1783653 116.408263,95.0690807 115.901179,94.7268374 Z M12.0417353,34.7580286 C10.8978853,34.0790025 10.5210711,32.6012695 11.2000972,31.4574196 C11.8791233,30.3135696 13.3568563,29.9367554 14.5007062,30.6157815 C15.9245529,31.4378397 17.3196505,32.3121782 18.6345068,33.2061978 C19.1858773,33.540927 19.5754222,34.0875759 19.7118314,34.7180088 C19.8482406,35.3484417 19.7195206,36.0072296 19.3558438,36.5399511 C18.6587638,37.6701215 17.1813957,38.0278277 16.0445454,37.341696 L12.0417353,34.7580286 Z M93.6675189,116.421651 C93.5008508,116.112047 92.6315358,114.760447 91.0595739,112.366849 C90.3743154,111.235376 90.7145783,109.763994 91.8270144,109.048244 C92.9394504,108.332495 94.4195348,108.632652 95.1652469,109.725229 C96.1193718,111.141705 97.0218379,112.588007 97.8146923,113.961271 C98.1155114,114.502629 98.1915895,115.140506 98.0265305,115.737428 C97.8286392,116.405657 97.3682129,116.965065 96.7505117,117.287765 C96.2353113,117.617664 95.6037061,117.711726 95.0147344,117.546264 C94.4257628,117.380803 93.9355453,116.971585 93.6675189,116.421651 Z M33.7070068,12.5574176 C33.0559167,11.3974388 33.4684526,9.92927738 34.6284314,9.2781873 C35.7884102,8.62709722 37.2565716,9.03963305 37.9076617,10.1996119 C38.7297199,11.6234585 39.5007407,13.0782067 40.1924299,14.5098785 C40.5025661,15.0754477 40.5665974,15.7436321 40.3695148,16.3578075 C40.1724322,16.971983 39.7315635,17.4781501 39.1502493,17.757662 C37.9814752,18.3878783 36.5231838,17.9589769 35.8817084,16.7963442 L33.7070068,12.5574176 Z M49.3886782,100.455102 C47.9887818,99.6516303 47.2759483,98.0296274 47.6307304,96.4550142 C47.9952501,93.0615422 48.2978702,89.6075462 48.6004904,86.2759737 C48.8425865,83.1851218 49.1507088,80.0351215 49.4492022,76.9442696 C49.4393347,77.088178 49.4599591,77.2325485 49.5097263,77.3679377 C49.6307743,78.8810384 49.8123464,80.4587896 49.93477,81.9732658 C50.0571936,83.487742 50.1768661,84.999467 50.2979141,86.4575458 C50.5400102,89.8510178 50.8481325,93.3655379 51.2071501,96.8195339 C51.3688612,98.2835829 50.6571707,99.7064254 49.3886782,100.455102 Z M43.8741143,73.9153172 L45.5701625,73.9153172 L45.3280664,76.764073 C45.1464943,78.7641169 45.0254463,80.7627853 44.8424986,82.7628292 L44.6609266,85.2470653 C44.2941143,89.7313453 43.9305116,94.2156253 43.5701186,98.6999053 C43.4597032,99.625597 43.7974641,100.548435 44.4793545,101.184141 L46.4793984,103.184185 C47.0860142,103.789426 47.6307304,104.396041 48.2373462,104.940758 C48.6952401,105.487825 49.3719851,105.803906 50.0853923,105.803906 C50.7987995,105.803906 51.4755445,105.487825 51.9334384,104.940758 C52.4190061,104.456565 52.9031983,103.977875 53.3873905,103.547329 L55.3874344,101.547286 C56.2916988,100.715928 56.723269,99.4892786 56.5387664,98.2748616 C55.988548,91.8510617 55.4479584,85.3681134 54.9032422,79.0653615 L54.6006221,75.2482213 L54.6006221,74.0968893 C55.3269104,74.0968893 56.1137227,74.0968893 56.8427621,74.0363653 C58.5802893,73.9249825 60.3242231,73.9654856 62.0547059,74.1574133 C71.944882,75.2367209 79.4666632,83.5395715 79.5667822,93.4879615 C79.6878303,96.6393374 79.6878303,99.8498618 79.6273063,102.940714 L79.6273063,107.067352 C79.6367796,107.191512 79.6160119,107.316119 79.5667822,107.430496 L79.5667822,107.49102 L71.5074581,107.49102 L71.5074581,96.2803199 C71.5177084,95.8955466 71.4974705,95.5105657 71.4469341,95.1289879 C71.4007069,94.5382972 71.1165103,93.9917251 70.6595187,93.6146163 C70.2025271,93.2375074 69.6119494,93.0622169 69.023222,93.128944 C67.8053292,93.220689 66.8865539,94.272993 66.959903,95.492132 L66.959903,107.368596 L33.2686545,107.368596 L33.2686545,96.2789443 C33.277532,95.8539335 33.2573101,95.4288135 33.2081305,95.0065643 C33.1592866,94.4214748 32.8719366,93.8822327 32.41352,93.5153953 C31.9551034,93.148558 31.3659815,92.9864236 30.7844184,93.0670444 C29.6209295,93.1987612 28.7519381,94.199237 28.7843745,95.3697084 L28.7843745,107.367221 L20.7250504,107.367221 C20.7250504,105.792221 20.6645263,104.215845 20.6040023,102.701369 C20.2287933,98.1895322 20.4321903,93.6482333 21.2092426,89.1880046 C23.3042481,80.2137017 31.3242863,73.8789387 40.5397907,73.9194439 L43.8741143,73.9153172 Z M82.2917389,42.8898769 C82.3989195,42.1390289 82.1463748,41.381532 81.6100632,40.8452204 C81.0737515,40.3089088 80.3162546,40.056364 79.5654067,40.1635447 L74.2324148,40.1635447 C73.4677158,40.259134 72.7017295,39.9962136 72.1569319,39.4511471 C71.6121343,38.9060806 71.3495919,38.1399647 71.4455586,37.3753129 L71.4455586,22.1067521 C71.3443348,21.3843107 71.5836363,20.6557461 72.093513,20.1340243 C72.6033897,19.6123025 73.3262675,19.3563352 74.0508427,19.440944 L106.711807,19.440944 C107.442037,19.3539802 108.171812,19.6067485 108.691812,20.1267479 C109.211811,20.6467473 109.464579,21.3765221 109.377615,22.1067521 L109.377615,37.4977365 C109.471502,38.2405829 109.212141,38.9845356 108.676782,39.5080103 C108.141422,40.031485 107.391835,40.2740821 106.651283,40.1635447 L102.955191,40.1635447 C99.0170029,40.1635447 94.956391,40.1635447 90.8971548,40.1030207 C89.4932663,39.9822237 88.1172282,40.5455441 87.2010626,41.6161213 C86.1102546,42.8885013 85.0194466,44.1003574 83.9286387,45.3122134 C83.5049705,45.7977812 83.0799268,46.2819734 82.5957346,46.7661656 L82.1720664,46.5240695 L82.1720664,45.4937855 C82.2728072,44.6292173 82.3132543,43.758686 82.2931144,42.8885013 L82.2917389,42.8898769 Z M97.6840988,30.8854868 C98.9067192,30.8789362 99.9142633,29.9243573 99.9867628,28.7038708 C100.010551,28.0910473 99.7859275,27.4945736 99.3638137,27.0496708 C98.9416999,26.6047681 98.3578499,26.3491202 97.7446228,26.3406828 C96.5140474,26.3591353 95.5209353,27.3522474 95.5024828,28.5828228 C95.474787,29.1806296 95.6917245,29.7639387 96.1033183,30.1983701 C96.5149122,30.6328014 97.0856684,30.8808916 97.6840988,30.8854868 Z M89.199731,30.890989 C90.4303064,30.8725365 91.4234185,29.8794244 91.441871,28.648849 C91.4433368,28.0537484 91.2075827,27.4825992 90.7867817,27.0617983 C90.3659807,26.6409973 89.7948316,26.4052432 89.199731,26.406709 C88.5726459,26.4183773 87.9706684,26.6551649 87.5036827,27.0738488 C87.0701372,27.5027833 86.8485611,28.1015421 86.8984425,28.709373 C87.0111214,29.9101924 87.9946102,30.8425374 89.199731,30.890989 Z M82.9588787,28.7107486 C82.9843317,28.1192092 82.7647094,27.5433565 82.3518076,27.1189997 C81.9389057,26.6946428 81.369277,26.4593485 80.7772627,26.4686086 C79.5647891,26.5098973 78.5985749,27.4963296 78.5824007,28.7093982 C78.5662264,29.9224667 79.505797,30.9343095 80.7167387,31.0079104 C81.9280723,30.899313 82.8796746,29.9243586 82.9588787,28.7107486 Z" id="Shape" fill="#9B9B9B"></path>
                    <path d="M60.6387205,69.3616231 C71.0449099,69.3616231 83.1831585,79.8934144 83.1831585,92.861319 L83.1831585,107.313578 C83.1831585,110.414531 81.7236006,111.965008 78.8044848,111.965008 L18.7762813,111.965008 C16.1475561,111.965008 14.8331935,110.414531 14.8331935,107.313578 L14.8331935,92.861319 C14.8331935,76.8499433 30.7646121,69.3616231 37.00684,69.3616231 C32.4724207,65.44827 30.1407711,59.5631412 30.7646121,53.606119 C31.1629944,49.1225635 33.2931507,44.9708065 36.7028443,42.0322749 C43.5345132,35.9067009 53.8668026,35.8547116 60.7597685,41.9112268 C64.7709376,45.3691972 67.0362449,50.4321137 66.9414723,55.727211 C66.9084671,60.9690303 64.6103206,65.9404899 60.6387205,69.3616231 Z M47.187256,96.0843555 C46.8320071,97.6590137 47.5449585,99.281285 48.9452038,100.084443 C50.2553268,99.3753346 50.9820164,97.922505 50.7636756,96.4488752 C50.4046581,92.9948792 50.0965358,89.4803591 49.8544397,86.0868871 C49.7333917,84.6288083 49.6137192,83.1170832 49.4912956,81.6026071 C49.368872,80.0881309 49.1872999,78.5103796 49.0662519,76.997279 C49.0164847,76.8618898 48.9958603,76.7175193 49.0057278,76.5736108 C48.7072344,79.6644627 48.399112,82.8144631 48.1570159,85.905315 C47.8543958,89.2368874 47.5517757,92.6908835 47.187256,96.0843555 Z M42.8253996,73.9064271 L39.4924516,73.9146804 C30.2769472,73.8741752 22.256909,80.2089382 20.1619035,89.1832411 C19.3847218,93.6434469 19.1808645,98.1847038 19.5552877,102.696605 C19.6158117,104.211081 19.6763357,105.786082 19.6763357,107.362457 L27.7356598,107.362457 L27.7356598,95.3635694 C27.7025598,94.1928605 28.5718869,93.1919983 29.7357037,93.0609054 C30.3172669,92.9802846 30.9063887,93.1424189 31.3648053,93.5092563 C31.8232219,93.8760936 32.110572,94.4153358 32.1594158,95.0004252 C32.2084333,95.4226877 32.2286547,95.8477967 32.2199398,96.2728053 L32.2199398,107.362457 L65.9125639,107.362457 L65.9125639,95.4846174 C65.8392147,94.2654784 66.7579901,93.2131744 67.9758829,93.1214294 C68.5646103,93.0547024 69.155188,93.2299928 69.6121796,93.6071017 C70.0691712,93.9842105 70.3533678,94.5307826 70.399595,95.1214733 C70.4501314,95.5030511 70.4703693,95.888032 70.460119,96.2728053 L70.460119,107.483505 L78.5194431,107.483505 L78.5194431,107.422981 C78.5688935,107.308185 78.5896658,107.183079 78.5799672,107.058462 L78.5799672,102.931824 C78.6404912,99.8409717 78.6404912,96.6304473 78.5194431,93.4790714 C78.4193241,83.5306813 70.8975429,75.2278307 61.0073668,74.1485232 C59.2768733,73.9567561 57.5329535,73.9162534 55.795423,74.0274752 C55.0663836,74.0879992 54.2809468,74.0879992 53.553283,74.0879992 L53.553283,75.2393312 L53.8559031,79.0564714 C54.4006193,85.3592232 54.9412089,91.8435471 55.4914273,98.2659715 C55.6761799,99.480412 55.2445694,100.707176 54.3400953,101.538395 L52.3400514,103.538439 C51.8489815,103.968985 51.3702914,104.447675 50.8860992,104.931867 C50.4282054,105.478935 49.7514604,105.795016 49.0380532,105.795016 C48.324646,105.795016 47.647901,105.478935 47.1900071,104.931867 C46.5847669,104.385776 46.0386751,103.780535 45.4334348,103.17392 L43.4333909,101.173876 C42.7518816,100.537917 42.4141938,99.6152783 42.524155,98.6896397 C42.8845481,94.2053596 43.2481507,89.7210796 43.614963,85.2367996 L43.7965351,82.7525635 C43.9781072,80.7538952 44.0991552,78.7538513 44.2807273,76.7538074 L44.5228234,73.9064271 L42.8253996,73.9064271 Z M48.9465794,41.9717508 C48.8833042,41.9717508 48.8227802,41.9717508 48.8860553,42.0308993 C41.4111348,42.1158845 35.3910152,48.1899303 35.3726913,55.6653114 C35.3173448,59.2826242 36.7173992,62.7705515 39.258397,65.3456914 C41.7993948,67.9208313 45.2683261,69.3673117 48.8860553,69.3602475 C56.3877749,69.3156695 62.4487403,63.2276791 62.4599434,55.7258354 C62.4779384,52.024131 61.016599,48.4685847 58.4007071,45.8494151 C55.8825751,43.3628454 52.4855075,41.9695189 48.9465794,41.9717508 Z M112.994753,21.4912462 C112.994753,26.6481682 112.994753,31.6097627 112.932853,36.4035406 C113.079154,38.4214278 112.341072,40.4032532 110.910465,41.8338602 C109.479858,43.2644671 107.498032,44.0025492 105.480145,43.8562489 L101.602481,43.8562489 C97.9655371,43.8562489 94.269445,43.8562489 90.5733529,43.9167729 C89.970352,43.956322 89.3964532,44.1904186 88.9378286,44.5839127 C86.9391603,46.4629086 84.9391164,48.4615769 82.9995965,50.3405728 C82.2719327,51.0682366 81.5456444,51.7340009 80.8179805,52.4616647 C80.3468891,53.0225867 79.6694347,53.3697449 78.9389847,53.424547 C78.713328,53.4084774 78.4900915,53.367889 78.2732204,53.3034989 C77.224607,52.9824999 76.5429435,51.9723308 76.6376962,50.8797868 L76.6376962,43.7902227 L73.0612765,43.7902227 C71.1797643,43.8637627 69.349138,43.1695828 67.9894661,41.8669745 C66.6297941,40.5643662 65.857812,38.7651659 65.8506643,36.8822306 C65.7296163,31.6111383 65.7296163,26.3386704 65.8506643,20.5820103 C66.0026395,16.9186059 68.9720624,14.002144 72.6376084,13.9161143 C74.5771282,13.8555903 76.5771722,13.8555903 78.4547925,13.8555903 L105.359097,13.8555903 C107.427537,13.7017522 109.460371,14.4566764 110.927019,15.9233243 C112.393667,17.3899722 113.148591,19.4228058 112.994753,21.4912462 Z M81.2430242,41.9126024 L81.2430242,41.9112268 C81.2633337,42.7814134 81.222886,43.6519565 81.1219762,44.516511 L81.1219762,45.5467949 L81.5470199,45.788891 C82.0312121,45.3046988 82.4562558,44.8205066 82.879924,44.3349389 C83.970732,43.1230829 85.06154,41.9112268 86.152348,40.6388467 C87.0686507,39.5684594 88.4445869,39.0051807 89.8484401,39.1257461 C93.9076764,39.1862702 97.9669127,39.1862702 101.906476,39.1862702 L105.602569,39.1862702 C106.34312,39.2968075 107.092707,39.0542104 107.628067,38.5307358 C108.163426,38.0072611 108.422788,37.2633084 108.328901,36.520462 L108.328901,21.1294776 C108.41642,20.3991206 108.163833,19.6690078 107.643697,19.1488728 C107.123562,18.6287377 106.39345,18.3761504 105.663093,18.4636694 L73.0021281,18.4636694 C72.2773291,18.3785953 71.5540417,18.6343569 71.0438342,19.1561417 C70.5336266,19.6779266 70.2941555,20.4067696 70.3954684,21.1294776 L70.3954684,36.3980384 C70.299413,37.1629595 70.5621263,37.9293544 71.1072552,38.4744833 C71.6523841,39.0196122 72.418779,39.2823255 73.1837001,39.1862702 L78.516692,39.1862702 C79.26754,39.0790895 80.0250369,39.3316342 80.5613485,39.8679459 C81.0976601,40.4042575 81.3502049,41.1617544 81.2430242,41.9126024 Z" id="Shape" fill="#000000"></path>
                </g>
            </g>
        </g>
    </g>
</svg>