<?xml version="1.0" encoding="UTF-8"?>
<svg width="125px" height="125px" viewBox="0 0 125 125" version="1.1" xmlns="http://www.w3.org/2000/svg" xmlns:xlink="http://www.w3.org/1999/xlink">
    <!-- Generator: sketchtool 53.2 (72643) - https://sketchapp.com -->
    <title>55A9CC52-2D24-49AB-9188-B93BD927FAF2</title>
    <desc>Created with sketchtool.</desc>
    <g id="Mockups" stroke="none" stroke-width="1" fill="none" fill-rule="evenodd">
        <g id="Reassurance-Images-Themes---Free" transform="translate(-206.000000, -1047.000000)" fill="#000000" fill-rule="nonzero">
            <g id="IT-Icons" transform="translate(20.000000, 640.000000)">
                <path d="M250.719814,409.292017 L250.719814,414.28526 C250.712556,414.911226 250.452658,415.507697 249.999142,415.939216 C249.545625,416.370735 248.936979,416.600681 248.311425,416.576832 C247.015804,416.603305 245.940961,415.580597 245.903037,414.28526 C245.844629,412.581493 245.844629,410.937376 245.903037,409.292017 C245.910627,408.666268 246.170671,408.070119 246.62415,407.638869 C247.077629,407.20762 247.686085,406.977842 248.311425,407.001687 C248.936766,406.977842 249.545222,407.20762 249.998701,407.638869 C250.45218,408.070119 250.712224,408.666268 250.719814,409.292017 Z M248.311425,531.636032 C247.670543,531.643092 247.053849,531.39162 246.600649,530.93842 C246.14745,530.48522 245.895977,529.868526 245.903037,529.227644 C245.844629,527.640692 245.844629,525.996576 245.903037,524.351217 C245.897964,523.716203 246.152015,523.106571 246.606529,522.663079 C247.061043,522.219588 247.676728,521.980578 248.311425,522.001236 L248.369833,522.001236 C249.67747,522.000851 250.746509,523.043965 250.778222,524.351217 L250.778222,529.286052 C250.769251,529.926946 250.502671,530.53725 250.038591,530.979354 C249.574511,531.421458 248.952001,531.658139 248.311425,531.636032 Z M280.411484,418.534615 L277.914862,422.85889 C277.595594,423.397363 277.07228,423.783974 276.463764,423.930922 C275.855247,424.077871 275.213172,423.972686 274.683351,423.639256 C273.548073,423.014371 273.128586,421.591258 273.743411,420.450501 C274.544712,418.945792 275.366771,417.521945 276.240033,416.126226 C276.559481,415.588107 277.082759,415.201849 277.691109,415.055115 C278.299458,414.908381 278.941285,415.013616 279.470923,415.346936 C280.024406,415.638957 280.436456,416.142178 280.613556,416.742391 C280.790655,417.342603 280.717785,417.988905 280.411484,418.534615 Z M217.153751,523.283446 C216.5952,522.969119 216.186864,522.44299 216.020981,521.823908 C215.855099,521.204825 215.945664,520.545017 216.272219,519.993526 C217.015112,518.589982 217.837171,517.166135 218.710433,515.770416 C219.023547,515.217942 219.548377,514.81701 220.163743,514.660192 C220.77911,514.503374 221.431813,514.604228 221.971149,514.939468 L222.021731,514.968672 C223.15437,515.622157 223.558629,517.060039 222.932467,518.208009 L220.465049,522.481701 C220.136833,523.032247 219.600816,523.427496 218.977859,523.578329 C218.354902,523.729162 217.697452,523.622879 217.153751,523.283446 Z M301.503925,441.384774 L297.17965,443.881396 C296.633919,444.188093 295.987411,444.261251 295.386946,444.084254 C294.786481,443.907256 294.283019,443.495126 293.990896,442.941457 C293.320159,441.832652 293.668429,440.390457 294.771262,439.709945 C296.217564,438.807479 297.64141,437.98542 299.095537,437.213323 C299.641247,436.907022 300.287549,436.834152 300.887761,437.011251 C301.487974,437.188351 301.991195,437.600401 302.283215,438.153884 C302.616535,438.683522 302.721771,439.325349 302.575037,439.933699 C302.428303,440.542048 302.042045,441.065327 301.503925,441.384774 Z M194.346706,500.471056 C194.020151,499.919566 193.929585,499.259757 194.095468,498.640675 C194.261351,498.021592 194.669687,497.495464 195.228237,497.181137 C196.573374,496.337078 197.99722,495.51502 199.451347,494.742923 C199.998749,494.421023 200.653731,494.336221 201.265063,494.508096 C201.876395,494.679971 202.391226,495.093665 202.690684,495.653658 L202.719888,495.704241 C203.374039,496.836495 203.005196,498.283867 201.888939,498.964957 L197.615247,501.432374 C197.055731,501.745053 196.393902,501.81934 195.778989,501.638487 C195.164075,501.457633 194.647849,501.036865 194.346706,500.471056 Z M308.345436,471.719814 L303.352193,471.719814 C302.726227,471.712556 302.129756,471.452658 301.698237,470.999142 C301.266717,470.545625 301.036772,469.936979 301.06062,469.311425 C301.034148,468.015804 302.056856,466.940961 303.352193,466.903037 C305.05596,466.844629 306.700077,466.844629 308.345436,466.903037 C308.971185,466.910627 309.567334,467.170671 309.998584,467.62415 C310.429833,468.077629 310.65961,468.686085 310.635766,469.311425 C310.65961,469.936766 310.429833,470.545222 309.998584,470.998701 C309.567334,471.45218 308.971185,471.712224 308.345436,471.719814 Z M186.001421,469.311425 C185.994361,468.670543 186.245833,468.053849 186.699033,467.600649 C187.152233,467.14745 187.768926,466.895977 188.409809,466.903037 C189.99676,466.844629 191.640877,466.844629 193.286236,466.903037 C193.92125,466.897964 194.530882,467.152015 194.974374,467.606529 C195.417865,468.061043 195.656875,468.676728 195.636217,469.311425 L195.636217,469.369833 C195.636601,470.67747 194.593488,471.746509 193.286236,471.778222 L188.351401,471.778222 C187.710507,471.769251 187.100202,471.502671 186.658099,471.038591 C186.215995,470.574511 185.979313,469.952001 186.001421,469.311425 Z M299.102838,501.411484 L294.778563,498.914862 C294.240089,498.595594 293.853479,498.07228 293.706531,497.463764 C293.559582,496.855247 293.664767,496.213172 293.998197,495.683351 C294.623082,494.548073 296.046194,494.128586 297.186951,494.743411 C298.691661,495.544712 300.115507,496.366771 301.511226,497.240033 C302.049346,497.559481 302.435604,498.082759 302.582338,498.691109 C302.729071,499.299458 302.623836,499.941285 302.290516,500.470923 C301.998496,501.024406 301.495275,501.436456 300.895062,501.613556 C300.29485,501.790655 299.648548,501.717785 299.102838,501.411484 Z M194.354007,438.153751 C194.668334,437.5952 195.194462,437.186864 195.813545,437.020981 C196.432628,436.855099 197.092436,436.945664 197.643927,437.272219 C199.047471,438.015112 200.471317,438.837171 201.867036,439.710433 C202.419511,440.023547 202.820443,440.548377 202.977261,441.163743 C203.134078,441.77911 203.033224,442.431813 202.697985,442.971149 L202.668781,443.021731 C202.015296,444.15437 200.577414,444.558629 199.429444,443.932467 L195.155752,441.465049 C194.605206,441.136833 194.209957,440.600816 194.059124,439.977859 C193.908291,439.354902 194.014574,438.697452 194.354007,438.153751 Z M276.252678,522.503925 L273.756057,518.17965 C273.449359,517.633919 273.376202,516.987411 273.553199,516.386946 C273.730196,515.786481 274.142327,515.283019 274.695996,514.990896 C275.804801,514.320159 277.246996,514.668429 277.927508,515.771262 C278.829974,517.217564 279.652032,518.64141 280.424129,520.095537 C280.730431,520.641247 280.803301,521.287549 280.626201,521.887761 C280.449102,522.487974 280.037052,522.991195 279.483569,523.283215 C278.95393,523.616535 278.312103,523.721771 277.703754,523.575037 C277.095405,523.428303 276.572126,523.042045 276.252678,522.503925 Z M217.166396,415.346706 C217.717887,415.020151 218.377695,414.929585 218.996778,415.095468 C219.61586,415.261351 220.141989,415.669687 220.456316,416.228237 C221.300374,417.573374 222.122433,418.99722 222.89453,420.451347 C223.216429,420.998749 223.301232,421.653731 223.129357,422.265063 C222.957482,422.876395 222.543788,423.391226 221.983794,423.690684 L221.933212,423.719888 C220.800958,424.374039 219.353586,424.005196 218.672496,422.888939 L216.205078,418.615247 C215.8924,418.055731 215.818113,417.393902 215.998966,416.778989 C216.17982,416.164075 216.600588,415.647849 217.166396,415.346706 Z M242,461 L242,499 L219,499 L219.025627,461 L242,461 Z M242,448 L242,455 L219,455 L219.025627,448 L242,448 Z M278,461 L278,499 L255,499 L255.025627,461 L278,461 Z M278,448 L278,455 L255,455 L255.025627,448 L278,448 Z M248.514894,443 C249.856467,435.225358 254.564883,431 262.216999,431 C267.16448,431 269.063413,431.129394 271.196333,431.898072 C274.445262,433.068947 276.216999,435.637811 276.216999,439.5 C276.216999,440.818871 276.010396,441.986927 275.608918,443 L279.423568,443 C282.23376,443 283,443.77085 283,446.597947 L283,500.59428 C283,502.907801 281.914332,504 279.679303,504 L216.259885,504 C213.960198,504 212.938223,503.037894 213.00288,500.723402 L213.00288,446.276598 C213.00288,443.899972 213.896506,443 216.259885,443 L220.60808,443 C220.206603,441.986927 220,440.818871 220,439.5 C220,435.637811 221.771737,433.068947 225.020666,431.898072 C227.153586,431.129394 229.052519,431 234,431 C241.652116,431 246.360531,435.225358 247.702105,443 L248.514894,443 Z M253.598105,443 L262.216999,443 C269.820825,443 271.216999,442.496836 271.216999,439.5 C271.216999,436.503164 269.820825,436 262.216999,436 C257.40708,436 254.649562,438.148878 253.598105,443 Z M254.025627,448 L254,455 L278,455 L278,448 L254.025627,448 Z M242.618894,443 C241.567437,438.148878 238.809919,436 234,436 C226.396173,436 225,436.503164 225,439.5 C225,442.496836 226.396173,443 234,443 L242.618894,443 Z M242,448 L218.025627,448 L218,455 L242,455 L242,448 Z M242,461 L218.025627,461 L218,499 L242,499 L242,461 Z M278,461 L254.025627,461 L254,499 L278,499 L278,461 Z" id="pack2_gift"></path>
            </g>
        </g>
    </g>
</svg>