<?xml version="1.0" encoding="UTF-8"?>
<svg width="118px" height="126px" viewBox="0 0 118 126" version="1.1" xmlns="http://www.w3.org/2000/svg" xmlns:xlink="http://www.w3.org/1999/xlink">
    <!-- Generator: sketchtool 52.6 (67491) - http://www.bohemiancoding.com/sketch -->
    <title>41DC7778-2ECA-422F-A357-7AC1C4D2ACD0</title>
    <desc>Created with sketchtool.</desc>
    <g id="Mockups" stroke="none" stroke-width="1" fill="none" fill-rule="evenodd">
        <g id="Reassurance-Images-Themes---Free" transform="translate(-34.000000, -868.000000)" fill-rule="nonzero">
            <g id="IT-Icons" transform="translate(20.000000, 640.000000)">
                <g id="pack2_trust" transform="translate(10.000000, 228.000000)">
                    <rect id="bg" x="0" y="0" width="128" height="128"></rect>
                    <path d="M96.5886792,87.0230943 C94.5841509,90.0636981 92.512,93.1731321 90.4386415,96.4202264 C90.2374398,96.2535311 90.0522802,96.0683715 89.8855849,95.8671698 C84.9116981,90.4778868 79.0369811,86.0558491 73.44,81.357283 C72.9310006,80.998089 72.3343473,80.7832104 71.7132075,80.7353962 C69.9852075,80.666566 68.2584151,80.666566 66.5992453,80.7353962 C65.8023381,80.8541322 65.0167221,81.0391256 64.250566,81.2884528 C60.9339733,82.0170217 57.8915091,83.6699251 55.4753208,86.0558491 C54.8453344,86.6608828 54.1499293,87.1938781 53.4019623,87.6449811 C52.123496,88.6943638 50.2364016,88.5086549 49.1870189,87.2301887 C48.1376362,85.9517224 48.3233451,84.064628 49.6018113,83.0152453 C53.2643019,79.7681509 56.9956226,76.5210566 60.7257358,73.2727547 C61.057086,73.068681 61.4434466,72.9720908 61.8318491,72.9962264 C63.6975094,72.9962264 65.632,73.0650566 67.4964528,72.9273962 C68.2447118,72.9159592 68.9794728,72.7263702 69.6398491,72.3743396 C72.2650566,70.8540377 74.8902642,69.2649057 77.3790189,67.7446038 C83.7367547,74.24 90.093283,80.5965283 96.5886792,87.0230943 Z M107.851472,75.0007547 L99.2138868,83.6383396 L80.7649811,65.189434 L89.402566,56.5518491 C95.5526038,62.7018868 101.776302,68.850717 107.851472,75.0007547 Z M37.0276226,58.4863396 L45.7340377,67.1927547 L29.2884528,83.6383396 L20.5820377,74.9319245 C26.0401509,69.541434 31.570717,64.0144906 37.0276226,58.4863396 Z M42.8274717,107.129962 C41.861434,106.093887 40.8953962,105.126642 39.9293585,104.158189 C41.1731321,102.914415 42.3444528,101.532981 43.6606792,100.358038 C44.5505269,99.6806958 45.8103025,99.7949206 46.5638096,100.621267 C47.3173167,101.447613 47.3151396,102.712554 46.5587925,103.536302 C45.3198491,104.711245 44.0748679,105.886189 42.8274717,107.129962 Z M48.7046038,112.864604 C47.6685283,111.828528 46.7000755,110.861283 45.7340377,109.824 C46.9089811,108.649057 48.082717,107.408906 49.3276981,106.23034 C50.1863447,105.3907 51.5630772,105.406109 52.4027166,106.264755 C53.242356,107.123401 53.226948,108.500134 52.3683019,109.339774 C51.1233208,110.515925 49.8783396,111.690868 48.7046038,112.864604 Z M36.9575849,101.395321 C36.3356981,100.773434 35.8514717,100.220377 35.2996226,99.6673208 C34.9103631,99.3177957 34.6822681,98.8233611 34.6690164,98.3003744 C34.6557647,97.7773876 34.8585264,97.2720357 35.2295849,96.9032453 C35.9374889,96.0925705 36.699592,95.3308709 37.5106415,94.6233962 C37.9158362,94.2222841 38.4741698,94.0151386 39.0429336,94.0549059 C39.6116974,94.0946731 40.1357729,94.3774991 40.4812075,94.8310943 C40.9154097,95.1820172 41.1733727,95.7060903 41.1866282,96.2642146 C41.1998836,96.8223388 40.9670909,97.3580674 40.5500377,97.7292075 C39.4463396,98.9766038 38.2701887,100.082717 36.9575849,101.395321 Z M51.3986415,115.836377 L55.0611321,112.173887 C55.4484457,111.749554 56.0045123,111.5196 56.5784024,111.546439 C57.1522925,111.573278 57.6844703,111.854126 58.0304906,112.312755 C58.4679266,112.677234 58.7265888,113.212911 58.7400095,113.782135 C58.7534302,114.351358 58.520301,114.898631 58.1005283,115.283321 C57.4098113,116.042868 56.6514717,116.732377 55.9583396,117.425509 C55.5857159,117.806861 55.0750633,118.021851 54.5418868,118.021851 C54.0087103,118.021851 53.4980577,117.806861 53.125434,117.425509 C52.5047547,116.871245 51.9516981,116.388226 51.3986415,115.836377 Z M121.111547,75.6914717 C119.730113,75.5526038 118.55517,75.4149434 117.247396,75.2084528 C117.317434,73.9646792 117.453887,72.7933585 117.523925,71.4771321 C118.837736,71.5459623 120.012679,71.6147925 121.394113,71.6848302 C121.324075,73.0650566 121.186415,74.3088302 121.111547,75.6914717 Z M113.447245,98.354717 C112.272302,97.664 111.235019,97.0421132 110.130113,96.3513962 C110.752,95.245283 111.305057,94.1403774 111.925736,93.0342642 C113.100679,93.5873208 114.206792,94.1391698 115.380528,94.7622642 C114.691019,96.0060377 114.137962,97.1109434 113.447245,98.354717 Z M106.884226,36.3049057 C107.920302,35.5453585 108.887547,34.7846038 109.99366,33.9562264 C110.753208,35.0623396 111.513962,36.0984151 112.274717,37.2733585 C111.167396,37.9640755 110.132528,38.6547925 109.026415,39.346717 C108.257004,38.37333 107.541855,37.3582544 106.884226,36.3061132 L106.884226,36.3049057 Z M116.972075,60.2831698 C116.764377,59.0393962 116.489057,57.8680755 116.281358,56.6206792 C117.523925,56.3441509 118.768906,56.0676226 120.011472,55.7222642 C120.288,57.0348679 120.494491,58.2786415 120.772226,59.661283 C119.458415,59.8677736 118.284679,60.069434 116.972075,60.2831698 Z M121.250415,63.6679245 C121.319245,65.0493585 121.388075,66.2931321 121.456906,67.6069434 L117.592755,67.6069434 C117.522717,66.432 117.453887,65.2582642 117.385057,63.9444528 C118.698868,63.8756226 119.875019,63.8055849 121.250415,63.6679245 Z M93.9634717,118.323925 C92.7885283,119.014642 91.6824151,119.636528 90.5086792,120.327245 C89.8867925,119.152302 89.3337358,118.047396 88.7118491,116.946113 C89.7479245,116.324226 90.784,115.70234 91.9601509,115.080453 C92.5808302,116.042868 93.2715472,117.150189 93.9634717,118.323925 Z M119.597283,83.5683019 C118.284679,83.2229434 117.109736,82.9464151 115.865962,82.6022642 C116.142491,81.3584906 116.419019,80.1871698 116.695547,78.9397736 C118.008151,79.2163019 119.183094,79.4227925 120.495698,79.6304906 C120.21917,81.0119245 119.873811,82.2556981 119.597283,83.5683019 Z M111.306264,101.740679 C110.476679,102.845585 109.717132,103.882868 108.89117,104.987774 C107.853887,104.158189 106.886642,103.398642 105.849358,102.572679 C106.610113,101.536604 107.298415,100.640604 108.061585,99.5320755 C109.095245,100.289208 110.132528,100.978717 111.306264,101.740679 Z M101.839094,25.1121509 C100.940679,26.1482264 100.112302,27.0442264 99.282717,28.0102642 C98.3166792,27.250717 97.4170566,26.4899623 96.3846038,25.6603774 C97.1441509,24.6243019 97.9049057,23.6570566 98.7344906,22.5509434 C99.7621132,23.4541887 100.728151,24.2837736 101.839094,25.1121509 Z M117.040906,91.1686038 C115.797132,90.6855849 114.625811,90.202566 113.447245,89.6483019 C113.861434,88.4733585 114.27683,87.3684528 114.759849,86.1246792 C115.934792,86.5388679 117.109736,86.8842264 118.42234,87.3684528 C117.939321,88.6810566 117.523925,89.9248302 117.040906,91.1686038 Z M117.662792,48.0519245 C118.076981,49.3645283 118.492377,50.5394717 118.975396,51.8520755 C117.731623,52.2662642 116.560302,52.6116226 115.312906,52.9581887 C114.898717,51.7832453 114.553358,50.6783396 114.069132,49.434566 C115.242868,48.9503396 116.419019,48.5349434 117.662792,48.0519245 Z M86.9138113,122.055245 C85.6012075,122.608302 84.4262642,123.021283 83.1836981,123.575547 C82.7695094,122.331774 82.285283,121.160453 81.8710943,119.913057 C83.0460377,119.430038 84.1509434,119.014642 85.3258868,118.531623 C85.8089057,119.706566 86.3607547,120.811472 86.9138113,122.055245 Z M112.618868,45.9797736 C112.065811,44.8736604 111.512755,43.7687547 110.890868,42.6626415 C111.996981,42.0407547 113.101887,41.4188679 114.272,40.7969811 C114.893887,41.9719245 115.446943,43.1468679 116.06883,44.3906415 C114.898717,44.8736604 113.788981,45.426717 112.618868,45.9797736 Z M95.0671698,112.934642 C96.0332075,112.173887 96.9992453,111.41434 98.0365283,110.654792 C98.8661132,111.62083 99.6256604,112.586868 100.525283,113.626566 C99.4892075,114.456151 98.4519245,115.215698 97.3470189,116.114113 C96.5162264,115.001962 95.8279245,113.971925 95.0671698,112.934642 Z M103.635925,105.610868 C104.395874,106.301585 105.293887,107.130767 106.329962,108.098415 C105.363925,108.99683 104.397887,109.895245 103.431849,110.862491 C102.602264,109.964075 101.705057,109.06566 100.806642,108.167245 C101.769057,107.26883 102.668679,106.509283 103.635925,105.610868 Z M5.31139623,75.5538113 C5.1725283,74.1723774 5.10490566,72.9286038 4.96603774,71.5459623 C6.27864151,71.4771321 7.52241509,71.4070943 8.83018868,71.3382642 C8.89901887,72.5820377 9.03788679,73.8258113 9.10671698,75.0695849 C7.86415094,75.2024151 6.69283019,75.3461132 5.31139623,75.5538113 Z M14.2943396,37.1356981 C15.1239245,36.0295849 15.8146415,34.9246792 16.5741887,33.818566 C17.6102642,34.6481509 18.6463396,35.3388679 19.6836226,36.1684528 C18.9929057,37.2045283 18.3021887,38.1717736 17.5426415,39.2090566 C16.4365283,38.5859623 15.4004528,37.8952453 14.2943396,37.1356981 Z M35.7826415,120.259623 C34.6076981,119.568906 33.5027925,118.947019 32.3278491,118.256302 C33.018566,117.151396 33.7104906,116.114113 34.4012075,114.93917 C35.5073208,115.561057 36.5421887,116.182943 37.6483019,116.80483 C37.0264151,117.979774 36.4045283,119.084679 35.7826415,120.259623 Z M10.2176604,56.4141887 C9.94113208,57.6579623 9.73464151,58.829283 9.52573585,60.0766792 C8.28196226,59.8689811 7.03818868,59.6624906 5.72679245,59.4547925 C6.00211321,58.1421887 6.20981132,56.8984151 6.48633962,55.5157736 C7.73011321,55.8611321 8.90384906,56.1376604 10.2176604,56.4141887 Z M10.5642264,82.4621887 C9.32045283,82.8075472 8.0754717,83.0840755 6.83290566,83.4282264 C6.55637736,82.1156226 6.27984906,80.8718491 5.93449057,79.5640755 C7.17826415,79.3563774 8.42203774,79.0810566 9.73584906,78.8733585 C10.0099623,80.0446792 10.2804528,81.2196226 10.5642264,82.4621887 Z M7.93660377,87.2996226 C9.18037736,86.885434 10.3516981,86.4700377 11.5990943,86.0558491 C12.013283,87.2307925 12.4274717,88.3356981 12.9116981,89.5106415 C11.7367547,89.9936604 10.6318491,90.4766792 9.31803774,91.0309434 C8.83501887,89.7871698 8.41962264,88.5433962 7.93660377,87.2996226 Z M10.9772075,94.693434 C12.1521509,94.0715472 13.2570566,93.5873208 14.432,92.9666415 C15.0538868,94.0727547 15.6069434,95.1088302 16.2288302,96.2137358 C15.122717,96.8356226 14.0866415,97.4575094 12.9116981,98.1458113 C12.2209811,97.0421132 11.6679245,95.8635472 10.9772075,94.693434 Z M11.1849057,52.8205283 C9.94113208,52.4063396 8.76981132,52.0609811 7.45358491,51.7144151 C7.86777358,50.4706415 8.28316981,49.2268679 8.76618868,47.9142642 C10.0099623,48.397283 11.181283,48.8126792 12.3598491,49.2956981 C12.0144906,50.4706415 11.5990943,51.5767547 11.1849057,52.8205283 Z M20.0289811,107.959547 C20.9950189,107.061132 21.8946415,106.231547 22.8618868,105.40317 C23.7603019,106.301585 24.5898868,107.13117 25.5571321,108.028377 C24.5910943,108.857962 23.5526038,109.68634 22.5165283,110.515925 C21.8258113,109.825208 20.9273962,108.926792 20.0289811,107.959547 Z M15.0538868,101.603019 C16.1587925,100.843472 17.1948679,100.153962 18.2321509,99.392 C18.9929057,100.428075 19.6812075,101.395321 20.4431698,102.432604 C19.4070943,103.262189 18.4386415,104.021736 17.402566,104.847698 C16.6430189,103.73917 15.8834717,102.709132 15.0538868,101.603019 Z M13.8813585,45.8421132 C12.7052075,45.2890566 11.6015094,44.736 10.3577358,44.1841509 L12.154566,40.5916981 C13.3295094,41.2135849 14.4344151,41.8354717 15.5356981,42.4573585 C14.9862642,43.6310943 14.5032453,44.6671698 13.8813585,45.8421132 Z M44.4190189,119.911849 C44.0048302,121.155623 43.5206038,122.261736 43.1064151,123.504302 C41.8638491,123.021283 40.6913208,122.538264 39.3763019,121.984 C39.9281509,120.809057 40.4123774,119.634113 40.965434,118.460377 C42.1403774,118.945811 43.2392453,119.42883 44.4190189,119.911849 Z M27.2851321,27.9450566 C26.386717,26.9790189 25.5571321,26.0129811 24.7287547,25.0469434 C25.7648302,24.1485283 26.8009057,23.3889811 27.8381887,22.490566 C28.6677736,23.5266415 29.4273208,24.5639245 30.1880755,25.5311698 C29.2196226,26.3510943 28.3212075,27.1166792 27.2851321,27.9450566 Z M25.8336604,113.487698 C26.6632453,112.451623 27.4916226,111.484377 28.3212075,110.515925 C29.2872453,111.275472 30.253283,112.036226 31.2917736,112.795774 C30.5322264,113.831849 29.842717,114.799094 29.0119245,115.905208 C27.9070189,115.146868 26.8709434,114.317283 25.8336604,113.487698 Z M9.04392453,63.8756226 C8.97388679,65.1882264 8.9050566,66.3631698 8.83622642,67.5381132 L4.97207547,67.5381132 C5.04090566,66.2255094 5.10973585,64.9129057 5.17856604,63.5302642 C6.48754717,63.5990943 7.73011321,63.7379623 9.04392453,63.8756226 Z M22.0323019,33.2655094 C20.997434,32.3670943 20.1002264,31.6075472 19.0617358,30.7091321 C19.9601509,29.7430943 20.858566,28.7770566 21.6869434,27.8762264 C22.5853585,28.8422642 23.4149434,29.7418868 24.3121509,30.7091321 C23.7603019,31.3998491 22.9258868,32.2982642 22.0323019,33.2655094 Z M104.810868,28.0138868 C105.640453,28.9123019 106.538868,29.8795472 107.436075,30.912 C106.470038,31.7415849 105.504,32.5699623 104.537962,33.4683774 L102.050415,30.7731321 C102.945208,29.810717 103.843623,28.9123019 104.810868,28.0138868 Z" id="Shape" fill="#9B9B9B"></path>
                    <path d="M64,35.5 L76.3434903,41.9893569 L73.9860934,28.2446784 L83.9721868,18.5106431 L70.1717451,16.5053216 L64,4 L57.8282549,16.5053216 L44.0278132,18.5106431 L54.0139066,28.2446784 L51.6565097,41.9893569 L64,35.5 Z M53.5178742,45.5298826 C50.5833647,47.0726455 47.153635,44.580801 47.7140764,41.3131766 L49.7159843,29.641158 L41.2357664,21.3749886 C38.8616983,19.0608441 40.1717385,15.028955 43.4526199,14.5522151 L55.1719928,12.8492905 L60.4130557,2.22973715 C61.8803105,-0.743245718 66.1196895,-0.743245718 67.5869443,2.22973715 L72.8280072,12.8492905 L84.5473801,14.5522151 C87.8282615,15.028955 89.1383017,19.0608441 86.7642336,21.3749886 L78.2840157,29.641158 L80.2859236,41.3131766 C80.846365,44.580801 77.4166353,47.0726455 74.4821258,45.5298826 L64,40.0191029 L53.5178742,45.5298826 Z M81.0403019,113.833057 C80.4184151,117.287849 78.6916226,118.945811 75.1667925,119.706566 C75.0220864,121.579987 74.0300278,123.284852 72.4727547,124.336302 C70.1712022,126.040733 66.9691675,125.805599 64.941283,123.783245 L59.2754717,118.117434 C58.7224151,118.739321 58.2393962,119.292377 57.6863396,119.844226 C56.6093108,120.985506 55.1094652,121.632358 53.5402264,121.632358 C51.9709876,121.632358 50.471142,120.985506 49.3941132,119.844226 L31.7059623,102.156075 C29.5460408,100.108309 29.3066037,96.7504257 31.1541132,94.4169057 C31.4994717,93.9338868 31.429434,93.7261887 31.1541132,93.2419623 C28.5920572,89.5787198 25.6758786,86.1763766 22.4476981,83.0840755 C20.0990189,80.8730566 17.888,78.5231698 15.6069434,76.2433208 C15.094387,75.881903 14.78389,75.2985806 14.7703109,74.6715619 C14.7567319,74.0445433 15.0416842,73.4483255 15.5381132,73.0650566 L34.5400755,54.0630943 C34.9069842,53.5735658 35.4830243,53.2854338 36.0947925,53.2854338 C36.7065606,53.2854338 37.2826007,53.5735658 37.6495094,54.0630943 C41.1731321,57.586717 44.6967547,61.1115472 48.2203774,64.5687547 C48.5855719,64.9464913 49.0361438,65.2309977 49.5341887,65.3983396 C52.1593962,66.4344151 54.7846038,67.4016604 57.4798491,68.3689057 C58.1658858,68.617538 58.8926223,68.7347007 59.6220377,68.7142642 C61.6949937,68.7834969 63.7675472,68.7834969 65.8396981,68.7142642 C66.299827,68.7152971 66.7522631,68.5962569 67.1523019,68.3689057 C69.1556226,67.1939623 71.0164528,65.9538113 73.0246038,64.845283 C74.7949898,63.820898 76.4216571,62.5661795 77.8620377,61.1139623 C80.7601509,58.0733585 83.8043774,55.1716226 86.7749434,52.1310189 C87.146941,51.579786 87.7684982,51.2493907 88.4335094,51.2493907 C89.0985206,51.2493907 89.7200779,51.579786 90.0920755,52.1310189 L110.82083,72.8597736 C112.064604,74.1035472 111.995774,75.0019623 110.82083,76.2409057 L100.456453,86.605283 C99.917029,87.1315295 99.4315939,87.7104108 99.0073962,88.333283 C96.7963774,91.6504151 94.5853585,95.0351698 92.3731321,98.3559245 C92.0612326,98.7989849 91.9842159,99.3660258 92.1666415,99.8762264 C92.7228617,101.537487 92.5325552,103.358205 91.644831,104.86854 C90.7571068,106.378875 89.2589286,107.430871 87.5369057,107.753057 C87.0190586,107.789138 86.6069493,108.201247 86.5708679,108.719094 C86.1117493,111.086857 84.2944304,112.958212 81.9411321,113.486491 C81.6792867,113.684186 81.3671323,113.804277 81.0403019,113.833057 Z M80.2795472,98.5624151 C81.8686792,100.220377 83.4578113,101.879547 85.1169811,103.468679 C85.4881213,103.885732 86.0238499,104.118525 86.5819741,104.10527 C87.1400984,104.092014 87.6641715,103.834051 88.0150943,103.399849 C88.4838781,103.06468 88.7785762,102.537748 88.8187544,101.962872 C88.8589326,101.387997 88.6403964,100.825194 88.2227925,100.428075 C85.8729057,98.0129811 83.5230189,95.5218113 81.0366792,93.3107925 C77.7207547,90.3390189 74.1959245,87.5761509 70.8099623,84.7372075 C70.6034717,84.5995472 70.3957736,84.3230189 70.1880755,84.3230189 C68.4578853,84.2181643 66.7215343,84.2877478 65.005283,84.530717 C61.8659753,85.1547804 58.9813369,86.6933102 56.7142642,88.9527547 C56.2312453,89.4357736 55.6081509,89.8511698 55.0563019,90.3341887 C53.8292083,91.3412413 52.2964066,91.9015655 50.7091321,91.9233208 C47.8639612,91.9850553 45.2777591,90.2788736 44.2149434,87.6389434 C43.1299963,84.9377998 43.8476958,81.8465797 46.0117736,79.8997736 C48.0839245,78.0341132 50.157283,76.237283 52.229434,74.4416604 C53.1954717,73.6120755 54.1615094,72.7136604 55.2012075,71.8164528 C53.0590189,70.9868679 50.9856604,70.2273208 48.9823396,69.466566 C48.5004886,69.2150526 47.9066859,69.3633736 47.5996981,69.8119245 L31.4318491,85.9809811 C31.2241509,86.1886792 31.0864906,86.3951698 30.8787925,86.6028679 C32.0537358,88.192 33.2274717,89.7123019 34.3335849,91.2326038 C36.1621716,89.9150244 38.5585788,89.6841974 40.605037,90.6285242 C42.6514953,91.572851 44.0308896,93.5460007 44.2149434,95.7923019 C44.3526038,95.8611321 44.5603019,95.8611321 44.6979623,95.9311698 C47.398601,96.3390307 49.50798,98.4769215 49.8795472,101.182792 C50.0046839,101.469625 50.2630094,101.676466 50.5702642,101.735849 C53.1858745,102.159256 55.2262699,104.227495 55.6141887,106.848604 C55.6842264,107.331623 55.8206792,107.539321 56.3737358,107.608151 C59.6282759,108.112405 61.8928492,111.111869 61.4864906,114.380075 C61.4718851,114.70234 61.5691536,115.019742 61.7618113,115.278491 C63.6274717,117.144151 65.4931321,119.078642 67.36,120.875472 C67.7444787,121.329009 68.3048046,121.596146 68.8992347,121.609304 C69.4936649,121.622462 70.0652628,121.380382 70.469434,120.944302 C70.9296584,120.55908 71.1955615,119.989753 71.1955615,119.389585 C71.1955615,118.789416 70.9296584,118.220089 70.469434,117.834868 C70.1240755,117.489509 69.778717,117.075321 69.3633208,116.729962 L65.7696604,113.137509 L68.5337358,110.373434 C70.0540377,111.893736 71.6431698,113.551698 73.2323019,115.14083 C73.6492881,115.615244 74.2586254,115.875389 74.8896709,115.848411 C75.5207165,115.821433 76.1056283,115.510234 76.4806038,115.001962 C76.8810177,114.596186 77.0876666,114.037855 77.0479208,113.469167 C77.0081751,112.900479 76.7258708,112.376322 76.2729057,112.030189 L71.5743396,107.331623 L74.3384151,104.567547 C75.858717,106.087849 77.4478491,107.745811 79.0369811,109.266113 C79.4224353,109.725951 79.9916766,109.991568 80.5916981,109.991568 C81.1917197,109.991568 81.7609609,109.725951 82.1464151,109.266113 C82.6121202,108.878869 82.8757081,108.300312 82.8623043,107.694788 C82.8489004,107.089263 82.5599695,106.522937 82.0775849,106.156679 L77.3101887,101.389283 C78.3462642,100.428075 79.2434717,99.5296604 80.2795472,98.5624151 Z M95.5501887,86.746566 C89.0547925,80.32 82.6970566,73.8946415 76.2716981,67.5381132 C73.7841509,69.0584151 71.1589434,70.6475472 68.5325283,72.1678491 C67.8761758,72.5279096 67.1401686,72.7180344 66.3915472,72.7209057 C64.5258868,72.7897358 62.5901887,72.7209057 60.7245283,72.7897358 C60.3373625,72.7743737 59.9539096,72.8703417 59.6196226,73.0662642 C55.8883019,76.3133585 52.1569811,79.5616604 48.4956981,82.8087547 C47.8882183,83.3202035 47.5099795,84.0529472 47.4449141,84.8443877 C47.3798486,85.6358282 47.633338,86.4205072 48.1491321,87.0243019 C48.6434551,87.629677 49.3582899,88.0135469 50.1359768,88.0912476 C50.9136637,88.1689484 51.6903165,87.9340969 52.2946415,87.4384906 C53.0148438,86.9478436 53.707044,86.4173046 54.368,85.8493585 C56.8028785,83.4880958 59.8382905,81.8392506 63.1444528,81.0819623 C63.9105115,80.8322872 64.6961569,80.6472869 65.4931321,80.5289057 C67.2211321,80.4600755 68.9479245,80.4600755 70.6058868,80.5289057 C71.2394887,80.5121934 71.8562421,80.7341556 72.3338868,81.1507925 C77.9296604,85.8493585 83.8055849,90.2713962 88.7782642,95.6606792 L89.3313208,96.2137358 C91.4735094,92.8966038 93.5468679,89.7871698 95.5513962,86.746566 L95.5501887,86.746566 Z M106.881811,74.6541887 L88.4329057,56.205283 L79.7965283,64.8428679 L98.245434,83.2917736 C101.07834,80.4588679 104.050113,77.5571321 106.883019,74.6553962 L106.881811,74.6541887 Z M36.0579623,58.1397736 L19.6135849,74.5853585 L28.3187925,83.2917736 L44.7643774,66.8461887 C41.8626415,63.9444528 38.8908679,61.042717 36.0591698,58.1409811 L36.0579623,58.1397736 Z M41.7926038,106.784604 C43.0363774,105.54083 44.3489811,104.369509 45.522717,103.122113 C46.1677902,102.282667 46.1180806,101.101493 45.4047572,100.319215 C44.6914339,99.5369371 43.5198444,99.3787534 42.6246038,99.9438491 C41.312,101.187623 40.1370566,102.500226 38.893283,103.744 C39.8593208,104.780075 40.8253585,105.747321 41.7913962,106.784604 L41.7926038,106.784604 Z M47.6661132,112.589283 C48.9098868,111.41434 50.1524528,110.239396 51.2597736,109.06566 C51.9545754,108.201358 51.893852,106.954157 51.1183736,106.161439 C50.3428951,105.368721 49.0973307,105.280593 48.2179623,105.956226 C46.9741887,107.13117 45.8028679,108.371321 44.6255094,109.548679 C45.6901466,110.509789 46.705003,111.524646 47.6661132,112.589283 Z M35.9879245,101.049962 C37.2316981,99.8061887 38.4766792,98.6348679 39.6504151,97.3874717 C40.0677091,97.0163752 40.3005635,96.4804525 40.287072,95.9221829 C40.2735805,95.3639133 40.0151101,94.8398644 39.5803774,94.4893585 C39.2349427,94.0357633 38.7108672,93.7529373 38.1421034,93.71317 C37.5733396,93.6734028 37.015006,93.8805482 36.6098113,94.2816604 C35.7987322,94.9887003 35.0370021,95.7504304 34.3299623,96.5615094 C33.9585762,96.9301292 33.7555879,97.4355536 33.7688425,97.9586525 C33.7820971,98.4817514 34.0104219,98.9762469 34.4,99.3255849 C34.8830189,99.8786415 35.3660377,100.430491 35.9891321,101.052377 L35.9879245,101.049962 Z M50.3577358,115.491019 C50.9784151,116.044075 51.5314717,116.597132 52.0845283,117.080151 C52.4573173,117.461196 52.9679081,117.675972 53.5009811,117.675972 C54.0340542,117.675972 54.5446449,117.461196 54.917434,117.080151 C55.6769811,116.389434 56.3664906,115.631094 57.0584151,114.937962 C57.4783849,114.553223 57.711742,114.00586 57.6985538,113.436452 C57.6853655,112.867044 57.426917,112.331072 56.9895849,111.966189 C56.6248757,111.53595 56.0976876,111.276737 55.5342723,111.250628 C54.9708571,111.224518 54.4219554,111.433863 54.0190189,111.828528 C52.8489057,112.934642 51.6751698,114.178415 50.3613585,115.491019 L50.3577358,115.491019 Z" id="Shape" fill="#000000"></path>
                </g>
            </g>
        </g>
    </g>
</svg>