<?xml version="1.0" encoding="UTF-8"?>
<svg width="118px" height="126px" viewBox="0 0 118 126" version="1.1" xmlns="http://www.w3.org/2000/svg" xmlns:xlink="http://www.w3.org/1999/xlink">
    <!-- Generator: sketchtool 53.2 (72643) - https://sketchapp.com -->
    <title>EED4B2FC-1E15-44F8-9420-234CACD986BD</title>
    <desc>Created with sketchtool.</desc>
    <g id="Mockups" stroke="none" stroke-width="1" fill="none" fill-rule="evenodd">
        <g id="Reassurance-Images-Themes---Free" transform="translate(-34.000000, -868.000000)" fill="#000000" fill-rule="nonzero">
            <g id="IT-Icons" transform="translate(20.000000, 640.000000)">
                <path d="M99.6911507,323.657477 C94.7590036,318.362868 88.9642209,313.994768 83.44,309.357283 C82.9310006,308.998089 82.3343473,308.78321 81.7132075,308.735396 C81.699235,308.73484 81.6852625,308.734288 81.6712901,308.73374 C81.9104931,308.836638 82.1343307,308.976725 82.3338868,309.150792 C87.9296604,313.849358 93.8055849,318.271396 98.7782642,323.660679 L99.3313208,324.213736 C99.4514806,324.027671 99.5714239,323.842259 99.6911507,323.657477 Z M60.3747602,316.105343 C59.9263152,315.923676 59.5156009,315.630501 59.1870189,315.230189 C58.1376362,313.951722 58.3233451,312.064628 59.6018113,311.015245 C63.2643019,307.768151 66.9956226,304.521057 70.7257358,301.272755 C71.057086,301.068681 71.4434466,300.972091 71.8318491,300.996226 C73.6975094,300.996226 75.632,301.065057 77.4964528,300.927396 C78.2447118,300.915959 78.9794728,300.72637 79.6398491,300.37434 C82.0703625,298.966788 84.5008759,297.500238 86.8230999,296.083935 C86.6393515,295.901939 86.4555525,295.719998 86.2716981,295.538113 C83.7841509,297.058415 81.1589434,298.647547 78.5325283,300.167849 C77.8761758,300.52791 77.1401686,300.718034 76.3915472,300.720906 C74.5258868,300.789736 72.5901887,300.720906 70.7245283,300.789736 C70.3373625,300.774374 69.9539096,300.870342 69.6196226,301.066264 C65.8883019,304.313358 62.1569811,307.56166 58.4956981,310.808755 C57.8882183,311.320204 57.5099795,312.052947 57.4449141,312.844388 C57.3798486,313.635828 57.633338,314.420507 58.1491321,315.024302 C58.6434551,315.629677 59.3582899,316.013547 60.1359768,316.091248 C60.2156435,316.099207 60.2952993,316.103887 60.3747602,316.105343 Z M108.556513,310.980965 L90.7649811,293.189434 L99.0910189,284.863396 L98.4329057,284.205283 L89.7965283,292.842868 L108.245434,311.291774 C108.348946,311.188262 108.452643,311.084658 108.556513,310.980965 Z M38.6303396,310.980226 L30.5820377,302.931925 C35.9346957,297.645583 41.3570339,292.22801 46.7112456,286.806762 C46.4931303,286.584835 46.2757404,286.362908 46.0591698,286.140981 L46.0579623,286.139774 L29.6135849,302.585358 L38.3187925,311.291774 L38.6303396,310.980226 Z M52.1583922,334.422519 C51.4153809,333.647212 50.6723697,332.903057 49.9293585,332.158189 C51.1731321,330.914415 52.3444528,329.532981 53.6606792,328.358038 C54.0349026,328.073183 54.4745517,327.928325 54.9144563,327.917555 C54.2225592,327.502476 53.3362653,327.494633 52.6246038,327.943849 C51.312,329.187623 50.1370566,330.500226 48.893283,331.744 C49.8593208,332.780075 50.8253585,333.747321 51.7913962,334.784604 L51.7926038,334.784604 C51.9139424,334.663265 52.0359362,334.542616 52.1583922,334.422519 Z M58.058733,340.218207 C57.2609358,339.418234 56.4967341,338.642945 55.7340377,337.824 C56.9089811,336.649057 58.082717,335.408906 59.3276981,334.23034 C59.6282255,333.936465 59.9922188,333.747334 60.3744368,333.662441 C59.6738314,333.379276 58.8510085,333.469847 58.2179623,333.956226 C56.9741887,335.13117 55.8028679,336.371321 54.6255094,337.548679 C55.6901466,338.509789 56.705003,339.524646 57.6661132,340.589283 C57.797052,340.46559 57.9279774,340.341898 58.058733,340.218207 Z M46.3115679,328.727837 C45.9669598,328.36292 45.6466627,328.01512 45.2996226,327.667321 C44.9103631,327.317796 44.6822681,326.823361 44.6690164,326.300374 C44.6557647,325.777388 44.8585264,325.272036 45.2295849,324.903245 C45.9374889,324.09257 46.699592,323.330871 47.5106415,322.623396 C47.9158362,322.222284 48.4741698,322.015139 49.0429336,322.054906 C49.0741239,322.057087 49.1051797,322.059998 49.1360791,322.063629 C48.8454996,321.861354 48.5027873,321.738389 48.1421034,321.71317 C47.5733396,321.673403 47.015006,321.880548 46.6098113,322.28166 C45.7987322,322.9887 45.0370021,323.75043 44.3299623,324.561509 C43.9585762,324.930129 43.7555879,325.435554 43.7688425,325.958652 C43.7820971,326.481751 44.0104219,326.976247 44.4,327.325585 C44.8830189,327.878642 45.3660377,328.430491 45.9891321,329.052377 L45.9879245,329.049962 C46.0958123,328.942074 46.2037092,328.834732 46.3115679,328.727837 Z M66.4959152,339.544342 C66.207922,339.369145 65.8778324,339.266549 65.5342723,339.250628 C64.9708571,339.224518 64.4219554,339.433863 64.0190189,339.828528 C62.8489057,340.934642 61.6751698,342.178415 60.3613585,343.491019 L60.3577358,343.491019 C60.9784151,344.044075 61.5314717,344.597132 62.0845283,345.080151 C62.4387163,345.442183 62.9172974,345.654125 63.4213673,345.674374 C63.3156156,345.601808 63.2164108,345.518617 63.125434,345.425509 C62.5047547,344.871245 61.9516981,344.388226 61.3986415,343.836377 L65.0611321,340.173887 C65.4298576,339.769919 65.9515271,339.54212 66.4959152,339.544342 Z M131.111547,303.691472 C129.730113,303.552604 128.55517,303.414943 127.247396,303.208453 C127.317434,301.964679 127.453887,300.793358 127.523925,299.477132 C128.837736,299.545962 130.012679,299.614792 131.394113,299.68483 C131.324075,301.065057 131.186415,302.30883 131.111547,303.691472 Z M123.447245,326.354717 C122.272302,325.664 121.235019,325.042113 120.130113,324.351396 C120.752,323.245283 121.305057,322.140377 121.925736,321.034264 C123.100679,321.587321 124.206792,322.13917 125.380528,322.762264 C124.691019,324.006038 124.137962,325.110943 123.447245,326.354717 Z M116.884226,264.304906 C117.920302,263.545358 118.887547,262.784604 119.99366,261.956226 C120.753208,263.06234 121.513962,264.098415 122.274717,265.273358 C121.167396,265.964075 120.132528,266.654792 119.026415,267.346717 C118.257004,266.37333 117.541855,265.358254 116.884226,264.306113 L116.884226,264.304906 Z M126.972075,288.28317 C126.764377,287.039396 126.489057,285.868075 126.281358,284.620679 C127.523925,284.344151 128.768906,284.067623 130.011472,283.722264 C130.288,285.034868 130.494491,286.278642 130.772226,287.661283 C129.458415,287.867774 128.284679,288.069434 126.972075,288.28317 Z M131.250415,291.667925 C131.319245,293.049358 131.388075,294.293132 131.456906,295.606943 L127.592755,295.606943 C127.522717,294.432 127.453887,293.258264 127.385057,291.944453 C128.698868,291.875623 129.875019,291.805585 131.250415,291.667925 Z M103.963472,346.323925 C102.788528,347.014642 101.682415,347.636528 100.508679,348.327245 C99.8867925,347.152302 99.3337358,346.047396 98.7118491,344.946113 C99.7479245,344.324226 100.784,343.70234 101.960151,343.080453 C102.58083,344.042868 103.271547,345.150189 103.963472,346.323925 Z M129.597283,311.568302 C128.284679,311.222943 127.109736,310.946415 125.865962,310.602264 C126.142491,309.358491 126.419019,308.18717 126.695547,306.939774 C128.008151,307.216302 129.183094,307.422792 130.495698,307.630491 C130.21917,309.011925 129.873811,310.255698 129.597283,311.568302 Z M121.306264,329.740679 C120.476679,330.845585 119.717132,331.882868 118.89117,332.987774 C117.853887,332.158189 116.886642,331.398642 115.849358,330.572679 C116.610113,329.536604 117.298415,328.640604 118.061585,327.532075 C119.095245,328.289208 120.132528,328.978717 121.306264,329.740679 Z M111.839094,253.112151 C110.940679,254.148226 110.112302,255.044226 109.282717,256.010264 C108.316679,255.250717 107.417057,254.489962 106.384604,253.660377 C107.144151,252.624302 107.904906,251.657057 108.734491,250.550943 C109.762113,251.454189 110.728151,252.283774 111.839094,253.112151 Z M127.040906,319.168604 C125.797132,318.685585 124.625811,318.202566 123.447245,317.648302 C123.861434,316.473358 124.27683,315.368453 124.759849,314.124679 C125.934792,314.538868 127.109736,314.884226 128.42234,315.368453 C127.939321,316.681057 127.523925,317.92483 127.040906,319.168604 Z M127.662792,276.051925 C128.076981,277.364528 128.492377,278.539472 128.975396,279.852075 C127.731623,280.266264 126.560302,280.611623 125.312906,280.958189 C124.898717,279.783245 124.553358,278.67834 124.069132,277.434566 C125.242868,276.95034 126.419019,276.534943 127.662792,276.051925 Z M96.9138113,350.055245 C95.6012075,350.608302 94.4262642,351.021283 93.1836981,351.575547 C92.7695094,350.331774 92.285283,349.160453 91.8710943,347.913057 C93.0460377,347.430038 94.1509434,347.014642 95.3258868,346.531623 C95.8089057,347.706566 96.3607547,348.811472 96.9138113,350.055245 Z M122.618868,273.979774 C122.065811,272.87366 121.512755,271.768755 120.890868,270.662642 C121.996981,270.040755 123.101887,269.418868 124.272,268.796981 C124.893887,269.971925 125.446943,271.146868 126.06883,272.390642 C124.898717,272.87366 123.788981,273.426717 122.618868,273.979774 Z M105.06717,340.934642 C106.033208,340.173887 106.999245,339.41434 108.036528,338.654792 C108.866113,339.62083 109.62566,340.586868 110.525283,341.626566 C109.489208,342.456151 108.451925,343.215698 107.347019,344.114113 C106.516226,343.001962 105.827925,341.971925 105.06717,340.934642 Z M113.635925,333.610868 C114.395874,334.301585 115.293887,335.130767 116.329962,336.098415 C115.363925,336.99683 114.397887,337.895245 113.431849,338.862491 C112.602264,337.964075 111.705057,337.06566 110.806642,336.167245 C111.769057,335.26883 112.668679,334.509283 113.635925,333.610868 Z M15.3113962,303.553811 C15.1725283,302.172377 15.1049057,300.928604 14.9660377,299.545962 C16.2786415,299.477132 17.5224151,299.407094 18.8301887,299.338264 C18.8990189,300.582038 19.0378868,301.825811 19.106717,303.069585 C17.8641509,303.202415 16.6928302,303.346113 15.3113962,303.553811 Z M24.2943396,265.135698 C25.1239245,264.029585 25.8146415,262.924679 26.5741887,261.818566 C27.6102642,262.648151 28.6463396,263.338868 29.6836226,264.168453 C28.9929057,265.204528 28.3021887,266.171774 27.5426415,267.209057 C26.4365283,266.585962 25.4004528,265.895245 24.2943396,265.135698 Z M45.7826415,348.259623 C44.6076981,347.568906 43.5027925,346.947019 42.3278491,346.256302 C43.018566,345.151396 43.7104906,344.114113 44.4012075,342.93917 C45.5073208,343.561057 46.5421887,344.182943 47.6483019,344.80483 C47.0264151,345.979774 46.4045283,347.084679 45.7826415,348.259623 Z M20.2176604,284.414189 C19.9411321,285.657962 19.7346415,286.829283 19.5257358,288.076679 C18.2819623,287.868981 17.0381887,287.662491 15.7267925,287.454792 C16.0021132,286.142189 16.2098113,284.898415 16.4863396,283.515774 C17.7301132,283.861132 18.9038491,284.13766 20.2176604,284.414189 Z M20.5642264,310.462189 C19.3204528,310.807547 18.0754717,311.084075 16.8329057,311.428226 C16.5563774,310.115623 16.2798491,308.871849 15.9344906,307.564075 C17.1782642,307.356377 18.4220377,307.081057 19.7358491,306.873358 C20.0099623,308.044679 20.2804528,309.219623 20.5642264,310.462189 Z M17.9366038,315.299623 C19.1803774,314.885434 20.3516981,314.470038 21.5990943,314.055849 C22.013283,315.230792 22.4274717,316.335698 22.9116981,317.510642 C21.7367547,317.99366 20.6318491,318.476679 19.3180377,319.030943 C18.8350189,317.78717 18.4196226,316.543396 17.9366038,315.299623 Z M20.9772075,322.693434 C22.1521509,322.071547 23.2570566,321.587321 24.432,320.966642 C25.0538868,322.072755 25.6069434,323.10883 26.2288302,324.213736 C25.122717,324.835623 24.0866415,325.457509 22.9116981,326.145811 C22.2209811,325.042113 21.6679245,323.863547 20.9772075,322.693434 Z M21.1849057,280.820528 C19.9411321,280.40634 18.7698113,280.060981 17.4535849,279.714415 C17.8677736,278.470642 18.2831698,277.226868 18.7661887,275.914264 C20.0099623,276.397283 21.181283,276.812679 22.3598491,277.295698 C22.0144906,278.470642 21.5990943,279.576755 21.1849057,280.820528 Z M30.0289811,335.959547 C30.9950189,335.061132 31.8946415,334.231547 32.8618868,333.40317 C33.7603019,334.301585 34.5898868,335.13117 35.5571321,336.028377 C34.5910943,336.857962 33.5526038,337.68634 32.5165283,338.515925 C31.8258113,337.825208 30.9273962,336.926792 30.0289811,335.959547 Z M25.0538868,329.603019 C26.1587925,328.843472 27.1948679,328.153962 28.2321509,327.392 C28.9929057,328.428075 29.6812075,329.395321 30.4431698,330.432604 C29.4070943,331.262189 28.4386415,332.021736 27.402566,332.847698 C26.6430189,331.73917 25.8834717,330.709132 25.0538868,329.603019 Z M23.8813585,273.842113 C22.7052075,273.289057 21.6015094,272.736 20.3577358,272.184151 L22.154566,268.591698 C23.3295094,269.213585 24.4344151,269.835472 25.5356981,270.457358 C24.9862642,271.631094 24.5032453,272.66717 23.8813585,273.842113 Z M54.4190189,347.911849 C54.0048302,349.155623 53.5206038,350.261736 53.1064151,351.504302 C51.8638491,351.021283 50.6913208,350.538264 49.3763019,349.984 C49.9281509,348.809057 50.4123774,347.634113 50.965434,346.460377 C52.1403774,346.945811 53.2392453,347.42883 54.4190189,347.911849 Z M37.2851321,255.945057 C36.386717,254.979019 35.5571321,254.012981 34.7287547,253.046943 C35.7648302,252.148528 36.8009057,251.388981 37.8381887,250.490566 C38.6677736,251.526642 39.4273208,252.563925 40.1880755,253.53117 C39.2196226,254.351094 38.3212075,255.116679 37.2851321,255.945057 Z M35.8336604,341.487698 C36.6632453,340.451623 37.4916226,339.484377 38.3212075,338.515925 C39.2872453,339.275472 40.253283,340.036226 41.2917736,340.795774 C40.5322264,341.831849 39.842717,342.799094 39.0119245,343.905208 C37.9070189,343.146868 36.8709434,342.317283 35.8336604,341.487698 Z M19.0439245,291.875623 C18.9738868,293.188226 18.9050566,294.36317 18.8362264,295.538113 L14.9720755,295.538113 C15.0409057,294.225509 15.1097358,292.912906 15.178566,291.530264 C16.4875472,291.599094 17.7301132,291.737962 19.0439245,291.875623 Z M32.0323019,261.265509 C30.997434,260.367094 30.1002264,259.607547 29.0617358,258.709132 C29.9601509,257.743094 30.858566,256.777057 31.6869434,255.876226 C32.5853585,256.842264 33.4149434,257.741887 34.3121509,258.709132 C33.7603019,259.399849 32.9258868,260.298264 32.0323019,261.265509 Z M114.810868,256.013887 C115.640453,256.912302 116.538868,257.879547 117.436075,258.912 C116.470038,259.741585 115.504,260.569962 114.537962,261.468377 L112.050415,258.773132 C112.945208,257.810717 113.843623,256.912302 114.810868,256.013887 Z M74,263.5 L86.3434903,269.989357 L83.9860934,256.244678 L93.9721868,246.510643 L80.1717451,244.505322 L74,232 L67.8282549,244.505322 L54.0278132,246.510643 L64.0139066,256.244678 L61.6565097,269.989357 L74,263.5 Z M63.5178742,273.529883 C60.5833647,275.072646 57.153635,272.580801 57.7140764,269.313177 L59.7159843,257.641158 L51.2357664,249.374989 C48.8616983,247.060844 50.1717385,243.028955 53.4526199,242.552215 L65.1719928,240.84929 L70.4130557,230.229737 C71.8803105,227.256754 76.1196895,227.256754 77.5869443,230.229737 L82.8280072,240.84929 L94.5473801,242.552215 C97.8282615,243.028955 99.1383017,247.060844 96.7642336,249.374989 L88.2840157,257.641158 L90.2859236,269.313177 C90.846365,272.580801 87.4166353,275.072646 84.4821258,273.529883 L74,268.019103 L63.5178742,273.529883 Z M91.0403019,341.833057 C90.4184151,345.287849 88.6916226,346.945811 85.1667925,347.706566 C85.0220864,349.579987 84.0300278,351.284852 82.4727547,352.336302 C80.1712022,354.040733 76.9691675,353.805599 74.941283,351.783245 L69.2754717,346.117434 C68.7224151,346.739321 68.2393962,347.292377 67.6863396,347.844226 C66.6093108,348.985506 65.1094652,349.632358 63.5402264,349.632358 C61.9709876,349.632358 60.471142,348.985506 59.3941132,347.844226 L41.7059623,330.156075 C39.5460408,328.108309 39.3066037,324.750426 41.1541132,322.416906 C41.4994717,321.933887 41.429434,321.726189 41.1541132,321.241962 C38.5920572,317.57872 35.6758786,314.176377 32.4476981,311.084075 C30.0990189,308.873057 27.888,306.52317 25.6069434,304.243321 C25.094387,303.881903 24.78389,303.298581 24.7703109,302.671562 C24.7567319,302.044543 25.0416842,301.448325 25.5381132,301.065057 L44.5400755,282.063094 C44.9069842,281.573566 45.4830243,281.285434 46.0947925,281.285434 C46.7065606,281.285434 47.2826007,281.573566 47.6495094,282.063094 C51.1731321,285.586717 54.6967547,289.111547 58.2203774,292.568755 C58.5855719,292.946491 59.0361438,293.230998 59.5341887,293.39834 C62.1593962,294.434415 64.7846038,295.40166 67.4798491,296.368906 C68.1658858,296.617538 68.8926223,296.734701 69.6220377,296.714264 C71.6949937,296.783497 73.7675472,296.783497 75.8396981,296.714264 C76.299827,296.715297 76.7522631,296.596257 77.1523019,296.368906 C79.1556226,295.193962 81.0164528,293.953811 83.0246038,292.845283 C84.7949898,291.820898 86.4216571,290.56618 87.8620377,289.113962 C90.7601509,286.073358 93.8043774,283.171623 96.7749434,280.131019 C97.146941,279.579786 97.7684982,279.249391 98.4335094,279.249391 C99.0985206,279.249391 99.7200779,279.579786 100.092075,280.131019 L120.82083,300.859774 C122.064604,302.103547 121.995774,303.001962 120.82083,304.240906 L110.456453,314.605283 C109.917029,315.131529 109.431594,315.710411 109.007396,316.333283 C106.796377,319.650415 104.585358,323.03517 102.373132,326.355925 C102.061233,326.798985 101.984216,327.366026 102.166642,327.876226 C102.722862,329.537487 102.532555,331.358205 101.644831,332.86854 C100.757107,334.378875 99.2589286,335.430871 97.5369057,335.753057 C97.0190586,335.789138 96.6069493,336.201247 96.5708679,336.719094 C96.1117493,339.086857 94.2944304,340.958212 91.9411321,341.486491 C91.6792867,341.684186 91.3671323,341.804277 91.0403019,341.833057 Z M90.2795472,326.562415 C91.8686792,328.220377 93.4578113,329.879547 95.1169811,331.468679 C95.4881213,331.885732 96.0238499,332.118525 96.5819741,332.10527 C97.1400984,332.092014 97.6641715,331.834051 98.0150943,331.399849 C98.4838781,331.06468 98.7785762,330.537748 98.8187544,329.962872 C98.8589326,329.387997 98.6403964,328.825194 98.2227925,328.428075 C95.8729057,326.012981 93.5230189,323.521811 91.0366792,321.310792 C87.7207547,318.339019 84.1959245,315.576151 80.8099623,312.737208 C80.6034717,312.599547 80.3957736,312.323019 80.1880755,312.323019 C78.4578853,312.218164 76.7215343,312.287748 75.005283,312.530717 C71.8659753,313.15478 68.9813369,314.69331 66.7142642,316.952755 C66.2312453,317.435774 65.6081509,317.85117 65.0563019,318.334189 C63.8292083,319.341241 62.2964066,319.901566 60.7091321,319.923321 C57.8639612,319.985055 55.2777591,318.278874 54.2149434,315.638943 C53.1299963,312.9378 53.8476958,309.84658 56.0117736,307.899774 C58.0839245,306.034113 60.157283,304.237283 62.229434,302.44166 C63.1954717,301.612075 64.1615094,300.71366 65.2012075,299.816453 C63.0590189,298.986868 60.9856604,298.227321 58.9823396,297.466566 C58.5004886,297.215053 57.9066859,297.363374 57.5996981,297.811925 L41.4318491,313.980981 C41.2241509,314.188679 41.0864906,314.39517 40.8787925,314.602868 C42.0537358,316.192 43.2274717,317.712302 44.3335849,319.232604 C46.1621716,317.915024 48.5585788,317.684197 50.605037,318.628524 C52.6514953,319.572851 54.0308896,321.546001 54.2149434,323.792302 C54.3526038,323.861132 54.5603019,323.861132 54.6979623,323.93117 C57.398601,324.339031 59.50798,326.476921 59.8795472,329.182792 C60.0046839,329.469625 60.2630094,329.676466 60.5702642,329.735849 C63.1858745,330.159256 65.2262699,332.227495 65.6141887,334.848604 C65.6842264,335.331623 65.8206792,335.539321 66.3737358,335.608151 C69.6282759,336.112405 71.8928492,339.111869 71.4864906,342.380075 C71.4718851,342.70234 71.5691536,343.019742 71.7618113,343.278491 C73.6274717,345.144151 75.4931321,347.078642 77.36,348.875472 C77.7444787,349.329009 78.3048046,349.596146 78.8992347,349.609304 C79.4936649,349.622462 80.0652628,349.380382 80.469434,348.944302 C80.9296584,348.55908 81.1955615,347.989753 81.1955615,347.389585 C81.1955615,346.789416 80.9296584,346.220089 80.469434,345.834868 C80.1240755,345.489509 79.778717,345.075321 79.3633208,344.729962 L75.7696604,341.137509 L78.5337358,338.373434 C80.0540377,339.893736 81.6431698,341.551698 83.2323019,343.14083 C83.6492881,343.615244 84.2586254,343.875389 84.8896709,343.848411 C85.5207165,343.821433 86.1056283,343.510234 86.4806038,343.001962 C86.8810177,342.596186 87.0876666,342.037855 87.0479208,341.469167 C87.0081751,340.900479 86.7258708,340.376322 86.2729057,340.030189 L81.5743396,335.331623 L84.3384151,332.567547 C85.858717,334.087849 87.4478491,335.745811 89.0369811,337.266113 C89.4224353,337.725951 89.9916766,337.991568 90.5916981,337.991568 C91.1917197,337.991568 91.7609609,337.725951 92.1464151,337.266113 C92.6121202,336.878869 92.8757081,336.300312 92.8623043,335.694788 C92.8489004,335.089263 92.5599695,334.522937 92.0775849,334.156679 L87.3101887,329.389283 C88.3462642,328.428075 89.2434717,327.52966 90.2795472,326.562415 Z" id="pack2_trust"></path>
            </g>
        </g>
    </g>
</svg>