<?xml version="1.0" encoding="UTF-8"?>
<svg width="125px" height="125px" viewBox="0 0 125 125" version="1.1" xmlns="http://www.w3.org/2000/svg" xmlns:xlink="http://www.w3.org/1999/xlink">
    <!-- Generator: sketchtool 53.2 (72643) - https://sketchapp.com -->
    <title>E0B1AED8-AB0E-45F1-81F5-876D019FBBE3</title>
    <desc>Created with sketchtool.</desc>
    <g id="Mockups" stroke="none" stroke-width="1" fill="none" fill-rule="evenodd">
        <g id="Reassurance-Images-Themes---Free" transform="translate(-554.000000, -870.000000)" fill="#000000" fill-rule="nonzero">
            <g id="IT-Icons" transform="translate(20.000000, 640.000000)">
                <path d="M613.829546,303.559269 C612.728737,299.967721 610.169198,297.800403 606.331323,297.351789 C605.055097,297.20261 604.004458,297.12829 601.70125,297.000228 C600.864465,296.953702 600.532768,296.934724 600.090365,296.907119 C595.504479,296.620968 592.822042,296.09245 590.465976,294.773054 C587.932414,293.35426 584.610763,292.46818 581,292.154764 L581,260 L596.5,260 L596.5,259.5 L579.5,259.5 L579.5,292.058257 C578.512671,292.016503 576.509461,292.016351 575.5,292.058571 L575.5,257 C575.5,256.171573 576.171573,255.5 577,255.5 L632,255.5 C632.828427,255.5 633.5,256.171573 633.5,257 L633.5,300.419605 C632.712765,300.248262 631.1193,300.173422 630,300.192502 L630,300.244005 C633.554589,299.937192 636.284633,300.922752 637.969215,303.334497 C639.921196,306.129066 639.921196,309.258657 638.034856,312.336793 L637.670428,312.931469 L637.015237,313.170573 C622.598805,318.431686 612.719118,321.904206 607.352609,323.595433 C601.645295,325.394063 596.899461,325.42028 593.168017,323.545563 L567.992712,315.648807 C567.918006,316.407377 567.27821,317 566.5,317 L555.5,317 C554.671573,317 554,316.328427 554,315.5 L554,292.5 C554,291.671573 554.671573,291 555.5,291 L566.5,291 C567.328427,291 568,291.671573 568,292.5 L568,293.171839 C575.579107,291.18028 584.215104,291.832568 589.465976,294.773054 C591.822042,296.09245 594.504479,296.620968 599.090365,296.907119 C599.532768,296.934724 599.864465,296.953702 600.70125,297.000228 C603.004458,297.12829 604.055097,297.20261 605.331323,297.351789 C609.240211,297.808704 611.823019,300.048515 612.889153,303.760095 L613.829546,303.559269 Z M600.5,260 L608.5,260 L608.5,259.5 L600.5,259.5 L600.5,260 Z M612.5,260 L629.5,260 L629.5,259.5 L612.5,259.5 L612.5,260 Z M656.308686,292.821748 C655.957227,292.811285 654.352049,292.888333 651.493152,293.052893 C650.170638,293.080608 649.066515,292.05024 649.002876,290.728968 C648.939237,289.407695 649.939223,288.275983 651.258278,288.176466 C652.962045,288.058408 654.665812,288 656.251521,288 C656.870761,288.010162 657.461217,288.263215 657.895638,288.704621 C658.375395,289.210114 658.629643,289.888559 658.600259,290.584854 C658.62836,291.195981 658.394017,291.789998 657.956238,292.217331 C657.518458,292.644665 656.918956,292.864597 656.308686,292.821748 Z M536.379365,292.816957 C535.049249,292.800829 533.984052,291.709481 534.000181,290.379365 C534.01631,289.049249 535.107657,287.984052 536.437773,288.000181 C538.08189,288.000181 539.727249,288.059831 541.312957,288.176647 C541.957823,288.190846 542.568503,288.469485 543.001853,288.947251 C543.435204,289.425018 543.653123,290.059905 543.60453,290.703093 C543.565926,292.03039 542.465341,293.078856 541.137734,293.053074 L536.379365,292.816957 Z M598.610123,232.292017 L598.610123,237.28526 C598.602865,237.911226 598.342967,238.507697 597.88945,238.939216 C597.435934,239.370735 596.827288,239.600681 596.201734,239.576832 C594.906112,239.603305 593.83127,238.580597 593.793346,237.28526 C593.734938,235.581493 593.734938,233.937376 593.793346,232.292017 C593.800936,231.666268 594.06098,231.070119 594.514459,230.638869 C594.967938,230.20762 595.576393,229.977842 596.201734,230.001687 C596.827075,229.977842 597.435531,230.20762 597.88901,230.638869 C598.342489,231.070119 598.602532,231.666268 598.610123,232.292017 Z M596.143326,354.16992 C595.502444,354.17698 594.88575,353.925507 594.43255,353.472307 C593.979351,353.019107 593.727878,352.402414 593.734938,351.761531 C593.67653,350.17458 593.67653,348.530463 593.734938,346.885104 C593.729865,346.250091 593.983915,345.640458 594.43843,345.196967 C594.892944,344.753475 595.508629,344.514466 596.143326,344.535124 L596.201734,344.535124 C597.509371,344.534739 598.57841,345.577852 598.610123,346.885104 L598.610123,351.819939 C598.601152,352.460834 598.334572,353.071138 597.870492,353.513242 C597.406412,353.955345 596.783902,354.192027 596.143326,354.16992 Z M647.901179,322.726837 C647.602038,322.542047 646.173389,321.806184 643.615231,320.519248 C642.456043,319.881993 642.015028,318.437607 642.620552,317.261532 C643.226075,316.085457 644.657944,315.605358 645.850038,316.178702 C647.384573,316.928344 648.889282,317.729645 650.262546,318.522499 C650.793742,318.840919 651.178566,319.355298 651.334082,319.954777 C651.496817,320.632426 651.377781,321.347101 651.004186,321.935417 C650.722959,322.478719 650.223003,322.875981 649.630208,323.027173 C649.037413,323.178365 648.408263,323.069081 647.901179,322.726837 Z M544.041735,262.758029 C542.897885,262.079003 542.521071,260.60127 543.200097,259.45742 C543.879123,258.31357 545.356856,257.936755 546.500706,258.615781 C547.924553,259.43784 549.319651,260.312178 550.634507,261.206198 C551.185877,261.540927 551.575422,262.087576 551.711831,262.718009 C551.848241,263.348442 551.719521,264.00723 551.355844,264.539951 C550.658764,265.670121 549.181396,266.027828 548.044545,265.341696 L544.041735,262.758029 Z M628.197622,241.457271 L625.701001,245.781546 C625.381733,246.32002 624.858419,246.70663 624.249902,246.853578 C623.641386,247.000527 622.99931,246.895342 622.469489,246.561912 C621.334211,245.937028 620.914725,244.513915 621.52955,243.373158 C622.330851,241.868448 623.152909,240.444602 624.026171,239.048883 C624.345619,238.510763 624.868898,238.124505 625.477247,237.977771 C626.085596,237.831038 626.727423,237.936273 627.257062,238.269593 C627.810545,238.561613 628.222595,239.064834 628.399694,239.665047 C628.576794,240.26526 628.503924,240.911561 628.197622,241.457271 Z M565.122363,345.773233 C564.563812,345.458906 564.155476,344.932778 563.989594,344.313695 C563.823711,343.694613 563.914276,343.034804 564.240831,342.483313 C564.983725,341.079769 565.805783,339.655923 566.679045,338.260204 C566.992159,337.70773 567.516989,337.306797 568.132355,337.149979 C568.747722,336.993162 569.400425,337.094016 569.939761,337.429255 L569.990343,337.458459 C571.122982,338.111944 571.527241,339.549826 570.901079,340.697796 L568.433661,344.971488 C568.105445,345.522034 567.569428,345.917283 566.946471,346.068116 C566.323514,346.218949 565.666064,346.112666 565.122363,345.773233 Z M625.667519,344.421651 C625.500851,344.112047 624.631536,342.760447 623.059574,340.366849 C622.374315,339.235376 622.714578,337.763994 623.827014,337.048244 C624.93945,336.332495 626.419535,336.632652 627.165247,337.725229 C628.119372,339.141705 629.021838,340.588007 629.814692,341.961271 C630.115511,342.502629 630.191589,343.140506 630.026531,343.737428 C629.828639,344.405657 629.368213,344.965065 628.750512,345.287765 C628.235311,345.617664 627.603706,345.711726 627.014734,345.546264 C626.425763,345.380803 625.935545,344.971585 625.667519,344.421651 Z M565.707007,240.557418 C565.055917,239.397439 565.468453,237.929277 566.628431,237.278187 C567.78841,236.627097 569.256572,237.039633 569.907662,238.199612 C570.72972,239.623459 571.500741,241.078207 572.19243,242.509878 C572.502566,243.075448 572.566597,243.743632 572.369515,244.357808 C572.172432,244.971983 571.731563,245.47815 571.150249,245.757662 C569.981475,246.387878 568.523184,245.958977 567.881708,244.796344 L565.707007,240.557418 Z M649.238522,264.188364 L644.914247,266.684985 C644.368515,266.991683 643.722007,267.06484 643.121542,266.887843 C642.521077,266.710846 642.017616,266.298716 641.725492,265.745046 C641.054755,264.636241 641.403026,263.194046 642.505858,262.513534 C643.95216,261.611068 645.376006,260.78901 646.830133,260.016913 C647.375843,259.710612 648.022145,259.637742 648.622357,259.814841 C649.22257,259.991941 649.725791,260.40399 650.017811,260.957473 C650.351132,261.487112 650.456367,262.128939 650.309633,262.737288 C650.162899,263.345637 649.776641,263.868916 649.238522,264.188364 Z M542.455763,322.991007 C542.129208,322.439517 542.038643,321.779708 542.204526,321.160626 C542.370408,320.541543 542.778744,320.015415 543.337295,319.701088 C544.682431,318.857029 546.106278,318.034971 547.560405,317.262874 C548.107806,316.940974 548.762788,316.856172 549.37412,317.028047 C549.985452,317.199922 550.500283,317.613616 550.799742,318.173609 L550.828946,318.224192 C551.483097,319.356446 551.114254,320.803818 549.997997,321.484908 L545.724304,323.952325 C545.164788,324.265004 544.502959,324.339291 543.888046,324.158438 C543.273133,323.977584 542.756906,323.556816 542.455763,322.991007 Z M568,297.328139 L568,311.45893 L594.69597,319.832674 L594.853215,319.914707 C597.535931,321.314243 601.283202,321.314243 606.150321,319.780397 C611.356558,318.139679 620.962762,314.766361 634.9465,309.667392 C635.690095,308.169804 635.589268,306.912519 634.689964,305.625024 C633.742598,304.268719 631.845494,303.814103 628.62619,304.489544 L613.482248,307.72363 C613.339291,311.974915 610.030212,314.299316 604.363281,314.299316 L594.244385,314.299316 C593.139815,314.299316 592.244385,313.403886 592.244385,312.299316 C592.244385,311.194747 593.139815,310.299316 594.244385,310.299316 L604.363281,310.299316 C607.966041,310.299316 609.424372,309.49469 609.483603,307.518875 L609.344624,306.38057 C608.950809,303.155034 607.562419,301.639819 604.86692,301.324739 C603.698371,301.188146 602.701084,301.1176 600.479186,300.994059 C599.633127,300.947017 599.295859,300.927721 598.841257,300.899355 C593.697186,300.578373 590.532602,299.954859 587.511563,298.263079 C583.001603,295.737502 574.855309,295.246619 568,297.328139 Z M558,295 L558,313 L564,313 L564,295 L558,295 Z" id="pack2_parcel"></path>
            </g>
        </g>
    </g>
</svg>
