<?xml version="1.0" encoding="UTF-8"?>
<svg width="117px" height="123px" viewBox="0 0 117 123" version="1.1" xmlns="http://www.w3.org/2000/svg" xmlns:xlink="http://www.w3.org/1999/xlink">
    <!-- Generator: sketchtool 52.6 (67491) - http://www.bohemiancoding.com/sketch -->
    <title>86243EF1-DCE3-4370-A599-0E7D8033B6F0</title>
    <desc>Created with sketchtool.</desc>
    <g id="Mockups" stroke="none" stroke-width="1" fill="none" fill-rule="evenodd">
        <g id="Reassurance-Images-Themes---Free" transform="translate(-383.000000, -692.000000)" fill-rule="nonzero">
            <g id="IT-Icons" transform="translate(20.000000, 640.000000)">
                <g id="pack2_phone" transform="translate(358.000000, 51.000000)">
                    <rect id="bg" x="0" y="0" width="128" height="128"></rect>
                    <g id="Group_144" transform="translate(4.000000, 1.000000)">
                        <path d="M89.4455385,9.72492308 C88.3872043,15.471774 90.2475075,21.3694192 94.4116923,25.4689231 C98.4528938,29.548217 104.248355,31.3677919 109.896,30.3304615 C108.204923,33.9230769 101.969846,36.5655385 96.7378462,36.0375385 C90.4665561,35.2767823 85.3598245,30.6378882 84.0018462,24.4683077 C82.7341538,18.9729231 85.112,12.4203077 89.4455385,9.72492308 Z M7.42953846,62.8338462 C7.53538462,50.5261538 10.4412308,41.0615385 16.2541538,32.6061538 C23.9433369,20.9396429 36.0658861,12.9218204 49.8110769,10.4116923 C55.4863053,9.25859614 61.3224316,9.13353629 67.0418462,10.0424615 C68.0461538,10.2012308 68.9975385,10.3070769 69.9956923,10.5175385 C70.7539343,10.6247954 71.4321006,11.0460206 71.8643119,11.6781822 C72.2965231,12.3103439 72.4429195,13.0951421 72.2676923,13.8406154 C72.135312,14.5767789 71.7154939,15.2300314 71.1008502,15.6562643 C70.4862066,16.0824973 69.7272419,16.2466879 68.9913846,16.1126154 C66.776,15.848 64.552,15.5316923 62.3329231,15.3741538 C54.6403185,14.8038908 46.9327054,16.2616405 39.9796923,19.6018462 C31.7199987,23.4064126 24.7833027,29.588887 20.0572308,37.3581538 C15.4125273,44.5760056 13.0719099,53.0353652 13.3458462,61.6141538 C13.5046154,65.1550769 14.0326154,68.6430769 14.5089231,72.1298462 C14.7735385,74.0326154 13.928,75.6178462 12.3427692,75.9353846 C11.5217763,76.1045711 10.6677074,75.9112929 9.99955294,75.4051082 C9.33139848,74.8989234 8.91414114,74.129062 8.85476923,73.2929231 C8.22215385,69.176 7.74707692,65.0529231 7.42953846,62.8338462 Z M59.2116923,113.617846 C56.728,113.406154 54.2443077,113.194462 51.704,112.931077 C50.911907,112.916541 50.165237,112.558464 49.6580196,111.949898 C49.1508022,111.341332 48.9331194,110.542364 49.0615385,109.760615 C49.2549702,108.194855 50.6619532,107.069159 52.232,107.224 C53.8172308,107.329846 55.4024615,107.593231 56.9876923,107.699077 C80.5734647,108.946093 101.327544,92.2651304 105.182154,68.9630769 C106.250666,62.6157447 105.962495,56.1140637 104.336615,49.8861538 C103.860308,47.9304615 104.6,46.4510769 106.396923,45.976 C107.184736,45.809473 108.006342,45.9761604 108.666966,46.4365462 C109.327591,46.896932 109.768411,47.6100229 109.884923,48.4067692 C111.350959,54.1138807 111.85018,60.0263315 111.361846,65.8984615 C108.897034,92.8820374 86.3001534,113.55612 59.2043077,113.617846 L59.2116923,113.617846 Z M35.5427692,99.9304615 C35.4992904,106.125763 30.4465738,111.115387 24.251215,111.08102 C18.0558561,111.046653 13.0588064,106.00128 13.0840621,99.805877 C13.1093179,93.6104743 18.1473361,88.6060097 24.3427692,88.6221538 C30.5321304,88.7138789 35.5106122,93.7405043 35.5427692,99.9304615 Z M24.2344615,105.372923 C26.8230738,105.369825 29.0506229,103.542274 29.5594239,101.004155 C30.0682248,98.466037 28.7171996,95.9211104 26.3297943,94.9205011 C23.942389,93.9198919 21.1805727,94.7410445 19.7276648,96.8834687 C18.2747569,99.025893 18.5336132,101.895547 20.3464615,103.743385 C21.370717,104.787276 22.7719953,105.375023 24.2344615,105.374154 L24.2344615,105.372923 Z M6.47815385,102.784615 C5.73969231,102.784615 4.94584615,102.837538 4.20615385,102.784615 C2.69767651,102.640788 1.56313074,101.345474 1.61929974,99.8311967 C1.67546875,98.3169196 2.9028588,97.1092166 4.41784615,97.0775385 C5.79138462,97.0246154 7.21784615,97.0246154 8.59261538,97.0775385 C10.084567,97.1123919 11.30158,98.2834193 11.3938462,99.7729231 C11.4565302,101.320661 10.2941301,102.645483 8.75138462,102.784615 C7.99456491,102.837533 7.23497355,102.837533 6.47815385,102.784615 Z M15.9932308,88.4116923 C16.1272189,89.617044 15.4940221,90.7777409 14.408,91.3175385 C13.4435685,91.8849096 12.221817,91.7565933 11.3963077,91.0012308 C10.203935,89.9407633 9.07462129,88.8114496 8.01415385,87.6190769 C7.10944838,86.5279571 7.17806688,84.9289863 8.17292308,83.9193846 C9.05150237,82.8573366 10.6089057,82.6715962 11.7126154,83.4972308 C13.0713737,84.6527134 14.3433168,85.9065564 15.5181538,87.2486154 C15.7840411,87.5831555 15.9488626,87.9866692 15.9932308,88.4116923 Z M42.2024615,97.1304615 C42.9950769,97.1304615 43.7876923,97.0775385 44.5803077,97.1304615 C45.8932407,97.2852487 46.9123574,98.3487421 47.0110769,99.6670769 C47.2135867,101.024278 46.3401282,102.309564 45.0036923,102.620923 C43.1248752,102.831839 41.2283556,102.831839 39.3495385,102.620923 C38.0121081,102.302463 37.125624,101.032277 37.288,99.6670769 C37.3990731,98.3148186 38.4723571,97.2415346 39.8246154,97.1304615 C40.6163484,97.077569 41.4107286,97.077569 42.2024615,97.1304615 Z M27.1944615,117.797538 C27.1944615,118.536 27.2473846,119.224 27.1944615,119.963692 C27.1375316,121.469284 25.8998976,122.660153 24.3932308,122.659077 C22.8937832,122.700225 21.6207724,121.568421 21.4861538,120.074462 C21.3805572,118.561635 21.3805572,117.043288 21.4861538,115.530462 C21.6040166,114.021991 22.8767517,112.866531 24.38956,112.894588 C25.9023683,112.922646 27.1313834,114.124504 27.1932308,115.636308 L27.1932308,117.802462 L27.1944615,117.797538 Z M38.3981538,116.789538 C36.552,116.789538 32.6910769,112.932308 32.6910769,111.082462 C32.7112942,110.016007 33.3217455,109.048893 34.2757831,108.571874 C35.2298207,108.094855 36.3697827,108.186762 37.2350769,108.810462 C38.4580548,109.874787 39.6058282,111.022561 40.6701538,112.245538 C41.4113722,113.082358 41.518775,114.305252 40.9347692,115.258462 C40.4516532,116.212122 39.4670834,116.806877 38.3981538,116.790769 L38.3981538,116.789538 Z M27.1944615,82.1753846 C27.1944615,82.8621538 27.2473846,83.5489231 27.1944615,84.184 C27.1319019,85.6860305 25.9177296,86.8835456 24.4149782,86.9253518 C22.9122269,86.9671579 21.633355,85.8389985 21.4873846,84.3427692 C21.4080432,82.8463843 21.4080432,81.3468465 21.4873846,79.8504615 C21.6045819,78.3482865 22.8876378,77.2070678 24.3932308,77.2658462 C25.9082534,77.2438043 27.1581602,78.4464827 27.1944615,79.9612308 C27.2473846,80.696 27.1944615,81.4356923 27.1944615,82.1753846 Z M32.6898462,89.1501538 C32.6898462,86.984 36.4953846,83.0726154 38.2910769,83.0726154 C39.3942822,83.0283257 40.4150867,83.6544191 40.8756923,84.6578462 C41.4826226,85.6586246 41.3303787,86.944071 40.5064615,87.7753846 C39.4990385,88.9148561 38.4225484,89.9913462 37.2830769,90.9987692 C36.4701059,91.7718021 35.2470182,91.9217516 34.2713846,91.368 C33.3836464,90.967018 32.7797101,90.1200972 32.6898462,89.1501538 Z M15.9907692,110.816615 C15.9378462,112.984 12.0806154,116.847385 10.2836923,116.788308 C9.17516061,116.8397 8.15625234,116.181686 7.74707692,115.150154 C7.22350289,114.16828 7.3711328,112.96362 8.11630769,112.137231 C9.12061538,111.029538 10.2307692,109.971077 11.3409231,108.913846 C12.1839426,108.114545 13.4520514,107.964355 14.4584615,108.544615 C15.3506645,108.95963 15.9403042,109.833907 15.9907692,110.816615 Z" id="Shape" fill="#9B9B9B"></path>
                        <path d="M26.6652308,48.248 C26.6667051,42.8552807 28.6400445,37.6492193 32.2135385,33.6104615 C33.6413967,32.0237503 35.6319711,31.0567233 37.7618462,30.9150769 C38.344,30.8621538 38.9778462,30.8621538 39.5587692,30.8092308 C43.7864615,30.3341538 46.4818462,32.1298462 47.9612308,36.1470769 C49.0689231,39.2116923 50.5458462,42.1187692 51.8196923,45.1316923 C53.1932308,48.2492308 52.3476923,50.9446154 50.4449231,53.4812308 C49.8029114,54.3452572 49.1151604,55.1743381 48.3846154,55.9649231 C48.1554375,56.1464061 48.0133383,56.4160566 47.993193,56.7076946 C47.9730477,56.9993327 48.0767213,57.2859603 48.2787692,57.4972308 C52.6050989,63.8919922 58.5742417,69.003177 65.5587692,72.2935385 C65.8399986,72.5021636 66.1967786,72.5811218 66.5397759,72.5106429 C66.8827733,72.440164 67.1795119,72.2269212 67.3556923,71.9243077 C68.6246154,70.3390769 69.9403077,68.8067692 71.2658462,67.2215385 C72.7289124,65.2891796 75.4003124,64.7456206 77.5021538,65.9526154 C81.4652308,67.8553846 85.3790769,69.7581538 89.3396923,71.6596923 C91.5528112,72.4832305 92.8481155,74.7840862 92.4043077,77.1033846 C92.2297222,78.8455532 91.9473348,80.5752275 91.5587692,82.2824615 C90.8203077,85.2363077 88.5470769,87.0381538 86.2209231,88.6233846 C80.4609231,92.4289231 74.2246154,92.904 67.7249231,90.7378462 C52.452888,85.9011227 39.5650443,75.4857269 31.6313846,61.5686154 C29.4660951,58.228245 27.8760632,54.5485399 26.9273846,50.6824615 C26.7863167,49.8776566 26.6987402,49.0643874 26.6652308,48.248 Z M32.3723077,48.1421538 C32.451427,50.2391378 33.0312696,52.2867336 34.0633846,54.1138462 C41.144,68.5409231 52.0326154,78.792 67.0910769,84.4990769 C70.6307692,85.8196923 74.2775385,86.8769231 78.136,85.976 C80.7000174,85.3789258 83.0552897,84.100726 84.9532308,82.2763077 C86.2750769,81.0086154 86.1692308,79.4233846 86.4855385,77.8898462 C86.6057169,77.6179138 86.6054051,77.3078626 86.48468,77.0361725 C86.3639549,76.7644824 86.1340561,76.5564479 85.8516923,76.4633846 C82.6283077,74.9310769 79.4049231,73.3987692 76.1815385,71.8135385 C75.9544033,71.6523524 75.6696286,71.5949017 75.3977666,71.6554198 C75.1259047,71.7159378 74.8923906,71.8887624 74.7550769,72.1310769 C73.5390769,73.608 72.3243077,75.0849231 71.1095385,76.5163077 C69.048,79.0529231 67.304,79.4233846 64.2923077,78.1544615 C55.5854783,74.3802138 48.1929928,68.1094502 43.0492308,60.1347692 C41.0406154,57.1809231 41.2523077,55.2732308 43.6830769,52.6836923 C44.646156,51.6756695 45.5115616,50.578665 46.2676923,49.4073846 C46.5835431,48.7661337 46.6403982,48.0278986 46.4264615,47.3458462 C45.3187692,44.5975385 44.1003077,41.8504615 42.8855385,39.1550769 C41.7778462,36.6713846 41.7778462,36.6184615 38.9753846,36.7772308 C38.0391355,36.757376 37.1310401,37.0979669 36.4387692,37.7286154 C33.8451171,40.5780438 32.3959883,44.2854639 32.3698462,48.1384615 L32.3723077,48.1421538 Z M96.8436923,41.2153846 C86.4534099,41.1248907 77.7669608,33.2897608 76.6090068,22.963808 C75.4510527,12.6378553 82.1863019,3.07333352 92.2984615,0.683692308 C94.1446154,0.208615385 95.3630769,0.524923077 96.1569231,1.74092308 C96.8724311,2.94496609 96.6994085,4.47802651 95.7335385,5.49230769 C93.5741261,8.45983569 92.9333586,12.2690851 94.0030438,15.7797913 C95.0727291,19.2904974 97.7287314,22.0952463 101.176,23.3544615 C104.92784,24.8365828 109.182845,24.2343359 112.376,21.7692308 C114.437538,20.3427692 116.815385,21.1353846 117.184615,23.4073846 C117.22848,23.8328541 117.192584,24.2627729 117.078769,24.6750769 C115.17288,34.3275766 106.682413,41.2677502 96.8436923,41.2153846 Z M88.0190769,9.13907692 C83.6855385,11.8344615 81.3076923,18.3870769 82.5753846,23.8824615 C83.933363,30.052042 89.0400946,34.6909362 95.3113846,35.4516923 C100.542154,35.9796923 106.778462,33.3372308 108.469538,29.7446154 C102.822279,30.7817377 97.0272805,28.9621635 92.9864615,24.8830769 C88.8161727,20.7893225 86.9542931,14.8899872 88.0190769,9.144 L88.0190769,9.13907692 Z" id="Shape" fill="#000000"></path>
                    </g>
                </g>
            </g>
        </g>
    </g>
</svg>