<?xml version="1.0" encoding="UTF-8"?>
<svg width="70px" height="70px" viewBox="0 0 70 70" version="1.1" xmlns="http://www.w3.org/2000/svg" xmlns:xlink="http://www.w3.org/1999/xlink">
    <!-- Generator: Sketch 53.2 (72643) - https://sketchapp.com -->
    <title>pack3_ carrier</title>
    <desc>Created with Sketch.</desc>
    <g id="pack3_-carrier" stroke="none" stroke-width="1" fill="none" fill-rule="evenodd">
        <path d="M35,70 C15.6700338,70 0,54.3299662 0,35 C0,15.6700338 15.6700338,0 35,0 C54.3299662,0 70,15.6700338 70,35 C70,54.3299662 54.3299662,70 35,70 Z M42.149712,45.4403409 C42.4406853,47.5743574 44.2704959,49.21875 46.484375,49.21875 C48.6982541,49.21875 50.5280647,47.5743574 50.819038,45.4403409 L55.78125,45.4403409 L55.78125,34.3002606 L50.2524395,26.796875 L40.46875,26.796875 L40.46875,21.328125 L17.5497159,21.328125 C15.7189341,21.328125 14.21875,22.8283091 14.21875,24.6590909 L14.21875,45.4403409 L20.274712,45.4403409 C20.5656853,47.5743574 22.3954959,49.21875 24.609375,49.21875 C26.8232541,49.21875 28.6530647,47.5743574 28.944038,45.4403409 L42.149712,45.4403409 L42.149712,45.4403409 Z M50.3024042,42.7059659 C49.5532756,41.3709075 48.1241804,40.46875 46.484375,40.46875 C44.8445696,40.46875 43.4154744,41.3709075 42.6663458,42.7059659 L40.46875,42.7059659 L40.46875,29.53125 L48.8707386,29.53125 L53.046875,35.1988636 L53.046875,42.7059659 L50.3024042,42.7059659 L50.3024042,42.7059659 Z M20.7913458,42.7059659 L16.953125,42.7059659 L16.953125,24.6590909 C16.953125,24.3384627 17.2290877,24.0625 17.5497159,24.0625 L37.734375,24.0625 L37.734375,42.7059659 L28.4274042,42.7059659 C27.6782756,41.3709075 26.2491804,40.46875 24.609375,40.46875 C22.9695696,40.46875 21.5404744,41.3709075 20.7913458,42.7059659 L20.7913458,42.7059659 Z M46.484375,46.484375 C45.5782828,46.484375 44.84375,45.7498422 44.84375,44.84375 C44.84375,43.9376578 45.5782828,43.203125 46.484375,43.203125 C47.3904672,43.203125 48.125,43.9376578 48.125,44.84375 C48.125,45.7498422 47.3904672,46.484375 46.484375,46.484375 Z M24.609375,46.484375 C23.7032828,46.484375 22.96875,45.7498422 22.96875,44.84375 C22.96875,43.9376578 23.7032828,43.203125 24.609375,43.203125 C25.5154672,43.203125 26.25,43.9376578 26.25,44.84375 C26.25,45.7498422 25.5154672,46.484375 24.609375,46.484375 Z" id="fill" fill="#000000" fill-rule="nonzero" opacity="0.3"></path>
        <path d="M42.149712,45.4403409 C42.4406853,47.5743574 44.2704959,49.21875 46.484375,49.21875 C48.6982541,49.21875 50.5280647,47.5743574 50.819038,45.4403409 L55.78125,45.4403409 L55.78125,34.3002606 L50.2524395,26.796875 L40.46875,26.796875 L40.46875,21.328125 L17.5497159,21.328125 C15.7189341,21.328125 14.21875,22.8283091 14.21875,24.6590909 L14.21875,45.4403409 L20.274712,45.4403409 C20.5656853,47.5743574 22.3954959,49.21875 24.609375,49.21875 C26.8232541,49.21875 28.6530647,47.5743574 28.944038,45.4403409 L42.149712,45.4403409 L42.149712,45.4403409 Z M50.3024042,42.7059659 C49.5532756,41.3709075 48.1241804,40.46875 46.484375,40.46875 C44.8445696,40.46875 43.4154744,41.3709075 42.6663458,42.7059659 L40.46875,42.7059659 L40.46875,29.53125 L48.8707386,29.53125 L53.046875,35.1988636 L53.046875,42.7059659 L50.3024042,42.7059659 L50.3024042,42.7059659 Z M20.7913458,42.7059659 L16.953125,42.7059659 L16.953125,24.6590909 C16.953125,24.3384627 17.2290877,24.0625 17.5497159,24.0625 L37.734375,24.0625 L37.734375,42.7059659 L28.4274042,42.7059659 C27.6782756,41.3709075 26.2491804,40.46875 24.609375,40.46875 C22.9695696,40.46875 21.5404744,41.3709075 20.7913458,42.7059659 L20.7913458,42.7059659 Z M46.484375,46.484375 C45.5782828,46.484375 44.84375,45.7498422 44.84375,44.84375 C44.84375,43.9376578 45.5782828,43.203125 46.484375,43.203125 C47.3904672,43.203125 48.125,43.9376578 48.125,44.84375 C48.125,45.7498422 47.3904672,46.484375 46.484375,46.484375 Z M24.609375,46.484375 C23.7032828,46.484375 22.96875,45.7498422 22.96875,44.84375 C22.96875,43.9376578 23.7032828,43.203125 24.609375,43.203125 C25.5154672,43.203125 26.25,43.9376578 26.25,44.84375 C26.25,45.7498422 25.5154672,46.484375 24.609375,46.484375 Z" id="color" fill="#000000" fill-rule="nonzero"></path>
    </g>
</svg>
