<?xml version="1.0" encoding="UTF-8"?>
<svg width="70px" height="70px" viewBox="0 0 70 70" version="1.1" xmlns="http://www.w3.org/2000/svg" xmlns:xlink="http://www.w3.org/1999/xlink">
    <!-- Generator: Sketch 53.2 (72643) - https://sketchapp.com -->
    <title>pack3_clock</title>
    <desc>Created with Sketch.</desc>
    <g id="pack3_clock" stroke="none" stroke-width="1" fill="none" fill-rule="evenodd">
        <path d="M35,70 C15.6700338,70 0,54.3299662 0,35 C0,15.6700338 15.6700338,0 35,0 C54.3299662,0 70,15.6700338 70,35 C70,54.3299662 54.3299662,70 35,70 Z M35.2138889,13.5138889 C23.4011317,13.5138889 13.825,23.0900206 13.825,34.9027778 C13.825,46.7155349 23.4011317,56.2916667 35.2138889,56.2916667 C47.026646,56.2916667 56.6027778,46.7155349 56.6027778,34.9027778 C56.6027778,23.0900206 47.026646,13.5138889 35.2138889,13.5138889 Z M35.2138889,53.375 C25.0119623,53.375 16.7416667,45.1047044 16.7416667,34.9027778 C16.7416667,24.7008511 25.0119623,16.4305556 35.2138889,16.4305556 C45.4158155,16.4305556 53.6861111,24.7008511 53.6861111,34.9027778 C53.6861111,45.1047044 45.4158155,53.375 35.2138889,53.375 Z M44.9361111,33.9305556 L36.1861111,33.9305556 L36.1861111,23.2361111 C36.1861111,22.4306959 35.533193,21.7777778 34.7277778,21.7777778 C33.9223625,21.7777778 33.2694444,22.4306959 33.2694444,23.2361111 L33.2694444,36.8472222 L44.9361111,36.8472222 C45.7415264,36.8472222 46.3944444,36.1943041 46.3944444,35.3888889 C46.3944444,34.5834736 45.7415264,33.9305556 44.9361111,33.9305556 L44.9361111,33.9305556 Z" id="fill" fill="#000000" fill-rule="nonzero" opacity="0.3"></path>
        <path d="M35.2138889,13.5138889 C23.4011317,13.5138889 13.825,23.0900206 13.825,34.9027778 C13.825,46.7155349 23.4011317,56.2916667 35.2138889,56.2916667 C47.026646,56.2916667 56.6027778,46.7155349 56.6027778,34.9027778 C56.6027778,23.0900206 47.026646,13.5138889 35.2138889,13.5138889 Z M35.2138889,53.375 C25.0119623,53.375 16.7416667,45.1047044 16.7416667,34.9027778 C16.7416667,24.7008511 25.0119623,16.4305556 35.2138889,16.4305556 C45.4158155,16.4305556 53.6861111,24.7008511 53.6861111,34.9027778 C53.6861111,45.1047044 45.4158155,53.375 35.2138889,53.375 Z M44.9361111,33.9305556 L36.1861111,33.9305556 L36.1861111,23.2361111 C36.1861111,22.4306959 35.533193,21.7777778 34.7277778,21.7777778 C33.9223625,21.7777778 33.2694444,22.4306959 33.2694444,23.2361111 L33.2694444,36.8472222 L44.9361111,36.8472222 C45.7415264,36.8472222 46.3944444,36.1943041 46.3944444,35.3888889 C46.3944444,34.5834736 45.7415264,33.9305556 44.9361111,33.9305556 L44.9361111,33.9305556 Z" id="color" fill="#000000" fill-rule="nonzero"></path>
    </g>
</svg>
