<?xml version="1.0" encoding="UTF-8"?>
<svg width="70px" height="70px" viewBox="0 0 70 70" version="1.1" xmlns="http://www.w3.org/2000/svg" xmlns:xlink="http://www.w3.org/1999/xlink">
    <!-- Generator: Sketch 53.2 (72643) - https://sketchapp.com -->
    <title>pack3_comment</title>
    <desc>Created with Sketch.</desc>
    <g id="pack3_comment" stroke="none" stroke-width="1" fill="none" fill-rule="evenodd">
        <path d="M35,70 C15.6700338,70 0,54.3299662 0,35 C0,15.6700338 15.6700338,0 35,0 C54.3299662,0 70,15.6700338 70,35 C70,54.3299662 54.3299662,70 35,70 Z M29.1855718,48.3354964 C27.6557567,48.8774431 25.1319532,49.7867682 21.6117873,51.0643116 C22.0908428,49.5006008 22.5009152,48.1454117 22.8420987,46.9984107 L23.3542108,45.2767769 L21.977536,44.1230663 C18.4217227,41.143147 16.40625,37.1035857 16.40625,32.8125 C16.40625,24.1433904 24.6539074,16.953125 35,16.953125 C45.3460926,16.953125 53.59375,24.1433904 53.59375,32.8125 C53.59375,41.4816096 45.3460926,48.671875 35,48.671875 C33.5182131,48.671875 32.060859,48.5239595 30.6478121,48.2342604 L29.90261,48.0814811 L29.1855718,48.3354964 Z M35,51.40625 C46.7791982,51.40625 56.328125,43.0815446 56.328125,32.8125 C56.328125,22.5434554 46.7791982,14.21875 35,14.21875 C23.2208018,14.21875 13.671875,22.5434554 13.671875,32.8125 C13.671875,38.0798483 16.1842159,42.8356373 20.2212153,46.2188105 C19.5457716,48.4895374 18.5965093,51.5883191 17.3734283,55.5151558 C23.6699677,53.2217344 27.911705,51.6876558 30.0986405,50.91292 C31.6723733,51.2355625 33.3133222,51.40625 35,51.40625 Z M35.2734375,35 C36.330545,35 37.1875,34.143045 37.1875,33.0859375 C37.1875,32.02883 36.330545,31.171875 35.2734375,31.171875 C34.21633,31.171875 33.359375,32.02883 33.359375,33.0859375 C33.359375,34.143045 34.21633,35 35.2734375,35 Z M41.8359375,35 C42.893045,35 43.75,34.143045 43.75,33.0859375 C43.75,32.02883 42.893045,31.171875 41.8359375,31.171875 C40.77883,31.171875 39.921875,32.02883 39.921875,33.0859375 C39.921875,34.143045 40.77883,35 41.8359375,35 Z M28.7109375,35 C29.768045,35 30.625,34.143045 30.625,33.0859375 C30.625,32.02883 29.768045,31.171875 28.7109375,31.171875 C27.65383,31.171875 26.796875,32.02883 26.796875,33.0859375 C26.796875,34.143045 27.65383,35 28.7109375,35 Z" id="fill" fill="#000000" fill-rule="nonzero" opacity="0.3"></path>
        <path d="M29.1855718,48.3354964 C27.6557567,48.8774431 25.1319532,49.7867682 21.6117873,51.0643116 C22.0908428,49.5006008 22.5009152,48.1454117 22.8420987,46.9984107 L23.3542108,45.2767769 L21.977536,44.1230663 C18.4217227,41.143147 16.40625,37.1035857 16.40625,32.8125 C16.40625,24.1433904 24.6539074,16.953125 35,16.953125 C45.3460926,16.953125 53.59375,24.1433904 53.59375,32.8125 C53.59375,41.4816096 45.3460926,48.671875 35,48.671875 C33.5182131,48.671875 32.060859,48.5239595 30.6478121,48.2342604 L29.90261,48.0814811 L29.1855718,48.3354964 Z M35,51.40625 C46.7791982,51.40625 56.328125,43.0815446 56.328125,32.8125 C56.328125,22.5434554 46.7791982,14.21875 35,14.21875 C23.2208018,14.21875 13.671875,22.5434554 13.671875,32.8125 C13.671875,38.0798483 16.1842159,42.8356373 20.2212153,46.2188105 C19.5457716,48.4895374 18.5965093,51.5883191 17.3734283,55.5151558 C23.6699677,53.2217344 27.911705,51.6876558 30.0986405,50.91292 C31.6723733,51.2355625 33.3133222,51.40625 35,51.40625 Z M35.2734375,35 C36.330545,35 37.1875,34.143045 37.1875,33.0859375 C37.1875,32.02883 36.330545,31.171875 35.2734375,31.171875 C34.21633,31.171875 33.359375,32.02883 33.359375,33.0859375 C33.359375,34.143045 34.21633,35 35.2734375,35 Z M41.8359375,35 C42.893045,35 43.75,34.143045 43.75,33.0859375 C43.75,32.02883 42.893045,31.171875 41.8359375,31.171875 C40.77883,31.171875 39.921875,32.02883 39.921875,33.0859375 C39.921875,34.143045 40.77883,35 41.8359375,35 Z M28.7109375,35 C29.768045,35 30.625,34.143045 30.625,33.0859375 C30.625,32.02883 29.768045,31.171875 28.7109375,31.171875 C27.65383,31.171875 26.796875,32.02883 26.796875,33.0859375 C26.796875,34.143045 27.65383,35 28.7109375,35 Z" id="color" fill="#000000" fill-rule="nonzero"></path>
    </g>
</svg>