<?xml version="1.0" encoding="UTF-8"?>
<svg width="70px" height="70px" viewBox="0 0 70 70" version="1.1" xmlns="http://www.w3.org/2000/svg" xmlns:xlink="http://www.w3.org/1999/xlink">
    <!-- Generator: Sketch 53.2 (72643) - https://sketchapp.com -->
    <title>pack3_gift</title>
    <desc>Created with Sketch.</desc>
    <g id="pack3_gift" stroke="none" stroke-width="1" fill="none" fill-rule="evenodd">
        <path d="M35,70 C15.6700338,70 0,54.3299662 0,35 C0,15.6700338 15.6700338,0 35,0 C54.3299662,0 70,15.6700338 70,35 C70,54.3299662 54.3299662,70 35,70 Z M52.796875,22.9791667 C53.1069346,22.3987755 53.271371,21.7517538 53.2760417,21.09375 C53.2760417,18.7083333 51.5989583,15.625 46.765625,15.625 C44.9079666,15.7983022 43.0936233,16.2879988 41.4010417,17.0729167 L41.7864583,16.53125 C42.1415264,16.0786233 42.2191585,15.4675 41.9885378,14.9404722 C41.7579171,14.4134444 41.2563516,14.0557707 40.6829433,14.0094335 C40.109535,13.9630964 39.5570455,14.2355919 39.2447917,14.71875 L35.453125,20.0208333 L32.4947917,14.8125 C32.0661957,14.0617379 31.1101371,13.8005707 30.359375,14.2291667 C29.6086129,14.6577626 29.3474457,15.6138213 29.7760417,16.3645833 L30.484375,17.6041667 C28.4433627,16.454705 26.1744592,15.7683439 23.8385417,15.59375 C21.828125,15.59375 20.6197917,16.5729167 19.3697917,17.4583333 C18.1199379,18.2392336 17.3393225,19.5896983 17.2864583,21.0625 C17.291129,21.7205038 17.4555654,22.3675255 17.765625,22.9479167 C16.411645,23.3174928 15.4701493,24.5444194 15.4635417,25.9479167 L15.4635417,31.25 C15.4635417,32.9758898 16.8626518,34.375 18.5885417,34.375 L18.5885417,53.125 C18.5885417,54.8508898 19.9876518,56.25 21.7135417,56.25 L48.796875,56.25 C50.5227648,56.25 51.921875,54.8508898 51.921875,53.125 L51.921875,34.375 C53.6477648,34.375 55.046875,32.9758898 55.046875,31.25 L55.046875,25.9791667 C55.046875,24.5902778 54.1302083,23.3680556 52.796875,22.9791667 L52.796875,22.9791667 Z M50.1510417,21.09375 C50.0930899,21.5306268 49.8351235,21.9156513 49.453125,22.1354167 C48.8275413,22.5992015 48.0752379,22.8608722 47.296875,22.8854167 L38.1927083,22.8854167 C40.3366379,20.3519583 43.4489527,18.8392901 46.765625,18.71875 C49.4635417,18.75 50.1510417,20.3333333 50.1510417,21.09375 Z M18.640625,26.0416667 L33.2239583,26.0416667 L33.2239583,31.25 L18.640625,31.25 L18.640625,26.0416667 Z M23.8489583,18.75 C27.1656306,18.8705401 30.2779455,20.3832083 32.421875,22.9166667 L23.328125,22.9166667 C21.3697917,22.9166667 20.4739583,21.7916667 20.4739583,21.1458333 C20.4739583,20.5 21.1510417,18.75 23.8489583,18.75 Z M21.765625,34.375 L33.2239583,34.375 L33.2239583,53.125 L21.765625,53.125 L21.765625,34.375 Z M48.8489583,53.125 L36.3489583,53.125 L36.3489583,34.375 L48.8489583,34.375 L48.8489583,53.125 Z M51.9739583,31.25 L36.3489583,31.25 L36.3489583,26.0416667 L51.9739583,26.0416667 L51.9739583,31.25 Z" id="fill" fill="#000000" fill-rule="nonzero" opacity="0.3"></path>
        <path d="M52.796875,22.9791667 C53.1069346,22.3987755 53.271371,21.7517538 53.2760417,21.09375 C53.2760417,18.7083333 51.5989583,15.625 46.765625,15.625 C44.9079666,15.7983022 43.0936233,16.2879988 41.4010417,17.0729167 L41.7864583,16.53125 C42.1415264,16.0786233 42.2191585,15.4675 41.9885378,14.9404722 C41.7579171,14.4134444 41.2563516,14.0557707 40.6829433,14.0094335 C40.109535,13.9630964 39.5570455,14.2355919 39.2447917,14.71875 L35.453125,20.0208333 L32.4947917,14.8125 C32.0661957,14.0617379 31.1101371,13.8005707 30.359375,14.2291667 C29.6086129,14.6577626 29.3474457,15.6138213 29.7760417,16.3645833 L30.484375,17.6041667 C28.4433627,16.454705 26.1744592,15.7683439 23.8385417,15.59375 C21.828125,15.59375 20.6197917,16.5729167 19.3697917,17.4583333 C18.1199379,18.2392336 17.3393225,19.5896983 17.2864583,21.0625 C17.291129,21.7205038 17.4555654,22.3675255 17.765625,22.9479167 C16.411645,23.3174928 15.4701493,24.5444194 15.4635417,25.9479167 L15.4635417,31.25 C15.4635417,32.9758898 16.8626518,34.375 18.5885417,34.375 L18.5885417,53.125 C18.5885417,54.8508898 19.9876518,56.25 21.7135417,56.25 L48.796875,56.25 C50.5227648,56.25 51.921875,54.8508898 51.921875,53.125 L51.921875,34.375 C53.6477648,34.375 55.046875,32.9758898 55.046875,31.25 L55.046875,25.9791667 C55.046875,24.5902778 54.1302083,23.3680556 52.796875,22.9791667 L52.796875,22.9791667 Z M50.1510417,21.09375 C50.0930899,21.5306268 49.8351235,21.9156513 49.453125,22.1354167 C48.8275413,22.5992015 48.0752379,22.8608722 47.296875,22.8854167 L38.1927083,22.8854167 C40.3366379,20.3519583 43.4489527,18.8392901 46.765625,18.71875 C49.4635417,18.75 50.1510417,20.3333333 50.1510417,21.09375 Z M18.640625,26.0416667 L33.2239583,26.0416667 L33.2239583,31.25 L18.640625,31.25 L18.640625,26.0416667 Z M23.8489583,18.75 C27.1656306,18.8705401 30.2779455,20.3832083 32.421875,22.9166667 L23.328125,22.9166667 C21.3697917,22.9166667 20.4739583,21.7916667 20.4739583,21.1458333 C20.4739583,20.5 21.1510417,18.75 23.8489583,18.75 Z M21.765625,34.375 L33.2239583,34.375 L33.2239583,53.125 L21.765625,53.125 L21.765625,34.375 Z M48.8489583,53.125 L36.3489583,53.125 L36.3489583,34.375 L48.8489583,34.375 L48.8489583,53.125 Z M51.9739583,31.25 L36.3489583,31.25 L36.3489583,26.0416667 L51.9739583,26.0416667 L51.9739583,31.25 Z" id="color" fill="#000000" fill-rule="nonzero"></path>
    </g>
</svg>