<?xml version="1.0" encoding="UTF-8"?>
<svg width="70px" height="70px" viewBox="0 0 70 70" version="1.1" xmlns="http://www.w3.org/2000/svg" xmlns:xlink="http://www.w3.org/1999/xlink">
    <!-- Generator: Sketch 53.2 (72643) - https://sketchapp.com -->
    <title>pack3_globe</title>
    <desc>Created with Sketch.</desc>
    <g id="pack3_globe" stroke="none" stroke-width="1" fill="none" fill-rule="evenodd">
        <path d="M35,70 C15.6700338,70 0,54.3299662 0,35 C0,15.6700338 15.6700338,0 35,0 C54.3299662,0 70,15.6700338 70,35 C70,54.3299662 54.3299662,70 35,70 Z M35.2138889,13.5138889 C23.4011317,13.5138889 13.825,23.0900206 13.825,34.9027778 C13.825,46.7155349 23.4011317,56.2916667 35.2138889,56.2916667 C47.026646,56.2916667 56.6027778,46.7155349 56.6027778,34.9027778 C56.6027778,23.0900206 47.026646,13.5138889 35.2138889,13.5138889 L35.2138889,13.5138889 Z M53.6375,33.9305556 L46.8805556,33.9305556 C46.5888889,27.5430556 43.8763889,21.0097222 39.3361111,16.9069444 C47.36687,18.7561057 53.201384,25.7012002 53.6375,33.9305556 L53.6375,33.9305556 Z M33.2694444,18.4819444 L33.2694444,33.9305556 L26.4638889,33.9305556 C26.7458333,27.8347222 29.1472222,21.8847222 33.2694444,18.4819444 Z M33.2694444,36.8472222 L33.2694444,51.1680556 C29.4291667,47.7847222 27.0180556,42.2916667 26.4638889,36.8472222 L33.2694444,36.8472222 Z M36.1861111,51.6152778 L36.1861111,36.8472222 L43.9638889,36.8472222 C43.3222222,42.3791667 40.4541667,48.2125 36.1861111,51.6152778 Z M36.1861111,33.9305556 L36.1861111,18.0638889 C40.775,21.4569444 43.6430556,27.7861111 43.9638889,33.9305556 L36.1861111,33.9305556 Z M30.4986111,17.0625 C26.2402778,21.1069444 23.8097222,27.4652778 23.5472222,33.9305556 L16.7902778,33.9305556 C17.2180765,25.9299876 22.7545939,19.1173227 30.4986111,17.0625 L30.4986111,17.0625 Z M16.8486111,36.8472222 L23.5861111,36.8472222 C24.1305556,42.7972222 26.6875,48.8541667 30.8097222,52.8111111 C23.2606755,50.957359 17.6798729,44.5759678 16.8486111,36.8472222 Z M39.1513889,52.9569444 C43.5898525,48.6919639 46.3498184,42.9753845 46.9291667,36.8472222 L53.7347222,36.8472222 C52.8402268,44.8064988 46.9481808,51.2979352 39.1125,52.9569444 L39.1513889,52.9569444 Z" id="fill" fill="#000000" fill-rule="nonzero" opacity="0.3"></path>
        <path d="M35.2138889,13.5138889 C23.4011317,13.5138889 13.825,23.0900206 13.825,34.9027778 C13.825,46.7155349 23.4011317,56.2916667 35.2138889,56.2916667 C47.026646,56.2916667 56.6027778,46.7155349 56.6027778,34.9027778 C56.6027778,23.0900206 47.026646,13.5138889 35.2138889,13.5138889 L35.2138889,13.5138889 Z M53.6375,33.9305556 L46.8805556,33.9305556 C46.5888889,27.5430556 43.8763889,21.0097222 39.3361111,16.9069444 C47.36687,18.7561057 53.201384,25.7012002 53.6375,33.9305556 L53.6375,33.9305556 Z M33.2694444,18.4819444 L33.2694444,33.9305556 L26.4638889,33.9305556 C26.7458333,27.8347222 29.1472222,21.8847222 33.2694444,18.4819444 Z M33.2694444,36.8472222 L33.2694444,51.1680556 C29.4291667,47.7847222 27.0180556,42.2916667 26.4638889,36.8472222 L33.2694444,36.8472222 Z M36.1861111,51.6152778 L36.1861111,36.8472222 L43.9638889,36.8472222 C43.3222222,42.3791667 40.4541667,48.2125 36.1861111,51.6152778 Z M36.1861111,33.9305556 L36.1861111,18.0638889 C40.775,21.4569444 43.6430556,27.7861111 43.9638889,33.9305556 L36.1861111,33.9305556 Z M30.4986111,17.0625 C26.2402778,21.1069444 23.8097222,27.4652778 23.5472222,33.9305556 L16.7902778,33.9305556 C17.2180765,25.9299876 22.7545939,19.1173227 30.4986111,17.0625 L30.4986111,17.0625 Z M16.8486111,36.8472222 L23.5861111,36.8472222 C24.1305556,42.7972222 26.6875,48.8541667 30.8097222,52.8111111 C23.2606755,50.957359 17.6798729,44.5759678 16.8486111,36.8472222 Z M39.1513889,52.9569444 C43.5898525,48.6919639 46.3498184,42.9753845 46.9291667,36.8472222 L53.7347222,36.8472222 C52.8402268,44.8064988 46.9481808,51.2979352 39.1125,52.9569444 L39.1513889,52.9569444 Z" id="color" fill="#000000" fill-rule="nonzero"></path>
    </g>
</svg>