<?xml version="1.0" encoding="UTF-8"?>
<svg width="70px" height="70px" viewBox="0 0 70 70" version="1.1" xmlns="http://www.w3.org/2000/svg" xmlns:xlink="http://www.w3.org/1999/xlink">
    <!-- Generator: Sketch 53.2 (72643) - https://sketchapp.com -->
    <title>pack3_ location</title>
    <desc>Created with Sketch.</desc>
    <g id="pack3_-location" stroke="none" stroke-width="1" fill="none" fill-rule="evenodd">
        <path d="M35,70 C15.6700338,70 0,54.3299662 0,35 C0,15.6700338 15.6700338,0 35,0 C54.3299662,0 70,15.6700338 70,35 C70,54.3299662 54.3299662,70 35,70 Z M35,57.9848346 C45.5729167,44.8550388 50.859375,35.3705106 50.859375,29.53125 C50.859375,20.772359 43.758891,13.671875 35,13.671875 C26.241109,13.671875 19.140625,20.772359 19.140625,29.53125 C19.140625,35.3705106 24.4270833,44.8550388 35,57.9848346 Z M48.125,29.53125 C48.125,34.1668035 43.7649675,42.3243851 34.9999981,53.5814564 C26.2350318,42.3243839 21.875,34.1668032 21.875,29.53125 C21.875,22.2825127 27.7512627,16.40625 35,16.40625 C42.2487373,16.40625 48.125,22.2825127 48.125,29.53125 Z M35.2734375,35.8203125 C38.5957754,35.8203125 41.2890625,33.1270254 41.2890625,29.8046875 C41.2890625,26.4823496 38.5957754,23.7890625 35.2734375,23.7890625 C31.9510996,23.7890625 29.2578125,26.4823496 29.2578125,29.8046875 C29.2578125,33.1270254 31.9510996,35.8203125 35.2734375,35.8203125 Z M35.2734375,33.0859375 C33.4612532,33.0859375 31.9921875,31.6168718 31.9921875,29.8046875 C31.9921875,27.9925032 33.4612532,26.5234375 35.2734375,26.5234375 C37.0856218,26.5234375 38.5546875,27.9925032 38.5546875,29.8046875 C38.5546875,31.6168718 37.0856218,33.0859375 35.2734375,33.0859375 Z" id="fill" fill="#000000" fill-rule="nonzero" opacity="0.3"></path>
        <path d="M35,57.9848346 C45.5729167,44.8550388 50.859375,35.3705106 50.859375,29.53125 C50.859375,20.772359 43.758891,13.671875 35,13.671875 C26.241109,13.671875 19.140625,20.772359 19.140625,29.53125 C19.140625,35.3705106 24.4270833,44.8550388 35,57.9848346 Z M48.125,29.53125 C48.125,34.1668035 43.7649675,42.3243851 34.9999981,53.5814564 C26.2350318,42.3243839 21.875,34.1668032 21.875,29.53125 C21.875,22.2825127 27.7512627,16.40625 35,16.40625 C42.2487373,16.40625 48.125,22.2825127 48.125,29.53125 Z M35.2734375,35.8203125 C38.5957754,35.8203125 41.2890625,33.1270254 41.2890625,29.8046875 C41.2890625,26.4823496 38.5957754,23.7890625 35.2734375,23.7890625 C31.9510996,23.7890625 29.2578125,26.4823496 29.2578125,29.8046875 C29.2578125,33.1270254 31.9510996,35.8203125 35.2734375,35.8203125 Z M35.2734375,33.0859375 C33.4612532,33.0859375 31.9921875,31.6168718 31.9921875,29.8046875 C31.9921875,27.9925032 33.4612532,26.5234375 35.2734375,26.5234375 C37.0856218,26.5234375 38.5546875,27.9925032 38.5546875,29.8046875 C38.5546875,31.6168718 37.0856218,33.0859375 35.2734375,33.0859375 Z" id="color" fill="#000000" fill-rule="nonzero"></path>
    </g>
</svg>
