<?xml version="1.0" encoding="UTF-8"?>
<svg width="70px" height="70px" viewBox="0 0 70 70" version="1.1" xmlns="http://www.w3.org/2000/svg" xmlns:xlink="http://www.w3.org/1999/xlink">
    <!-- Generator: Sketch 53.2 (72643) - https://sketchapp.com -->
    <title>pack3_ payment</title>
    <desc>Created with Sketch.</desc>
    <g id="pack3_-payment" stroke="none" stroke-width="1" fill="none" fill-rule="evenodd">
        <path d="M35,70 C15.6700338,70 0,54.3299662 0,35 C0,15.6700338 15.6700338,0 35,0 C54.3299662,0 70,15.6700338 70,35 C70,54.3299662 54.3299662,70 35,70 Z M16.40625,27.0703125 L16.40625,24.0625 L53.59375,24.0625 L53.59375,27.0703125 L16.40625,27.0703125 Z M16.40625,31.4453125 L53.59375,31.4453125 L53.59375,45.9375 L16.40625,45.9375 L16.40625,31.4453125 Z M16.40625,21.328125 C14.8960964,21.328125 13.671875,22.5523464 13.671875,24.0625 L13.671875,45.9375 C13.671875,47.4476536 14.8960964,48.671875 16.40625,48.671875 L53.59375,48.671875 C55.1039036,48.671875 56.328125,47.4476536 56.328125,45.9375 L56.328125,24.0625 C56.328125,22.5523464 55.1039036,21.328125 53.59375,21.328125 L16.40625,21.328125 Z" id="fill" fill="#000000" fill-rule="nonzero" opacity="0.3"></path>
        <path d="M16.40625,27.0703125 L16.40625,24.0625 L53.59375,24.0625 L53.59375,27.0703125 L16.40625,27.0703125 Z M16.40625,31.4453125 L53.59375,31.4453125 L53.59375,45.9375 L16.40625,45.9375 L16.40625,31.4453125 Z M16.40625,21.328125 C14.8960964,21.328125 13.671875,22.5523464 13.671875,24.0625 L13.671875,45.9375 C13.671875,47.4476536 14.8960964,48.671875 16.40625,48.671875 L53.59375,48.671875 C55.1039036,48.671875 56.328125,47.4476536 56.328125,45.9375 L56.328125,24.0625 C56.328125,22.5523464 55.1039036,21.328125 53.59375,21.328125 L16.40625,21.328125 Z" id="color" fill="#000000" fill-rule="nonzero"></path>
    </g>
</svg>