<?xml version="1.0" encoding="UTF-8"?>
<svg width="70px" height="70px" viewBox="0 0 70 70" version="1.1" xmlns="http://www.w3.org/2000/svg" xmlns:xlink="http://www.w3.org/1999/xlink">
    <!-- Generator: Sketch 53.2 (72643) - https://sketchapp.com -->
    <title>pack3_return</title>
    <desc>Created with Sketch.</desc>
    <g id="pack3_return" stroke="none" stroke-width="1" fill="none" fill-rule="evenodd">
        <path d="M35,70 C15.6700338,70 0,54.3299662 0,35 C0,15.6700338 15.6700338,0 35,0 C54.3299662,0 70,15.6700338 70,35 C70,54.3299662 54.3299662,70 35,70 Z M35.240625,19.03125 C38.7380063,19.030369 42.1430225,20.153871 44.953125,22.2359375 L40.4796875,22.8703125 C39.5735953,22.933739 38.8904798,23.7196891 38.9539063,24.6257812 C39.0173327,25.5318734 39.8032828,26.214989 40.709375,26.1515625 L40.9390625,26.1515625 L48.5953125,25.0578125 C49.0261447,24.9955778 49.4145829,24.7646753 49.6751084,24.4159404 C49.9356339,24.0672055 50.0468873,23.6292295 49.984375,23.1984375 L48.890625,15.5421875 C48.7637721,14.6360953 47.9264047,14.0043971 47.0203125,14.13125 C46.1142203,14.2581029 45.4825221,15.0954703 45.609375,16.0015625 L46.046875,19.0421875 C39.0457265,14.4212539 29.8854919,14.7440978 23.2270315,19.8464513 C16.5685711,24.9488049 13.8745098,33.7098641 16.515625,41.671875 L19.1734375,39.0140625 C18.0857524,34.1448164 19.2728947,29.0452121 22.399248,25.1569564 C25.5256013,21.2687008 30.2514035,19.0143572 35.240625,19.03125 Z M51.253125,31.8828125 C52.7233075,38.5854392 49.8668374,45.4949787 44.0928731,49.2028054 C38.3189088,52.910632 30.8473436,52.6333755 25.3640625,48.5078125 L28.91875,48.0046875 C29.8248422,47.8778346 30.4565404,47.0404672 30.3296875,46.134375 C30.2028346,45.2282828 29.3654672,44.5965846 28.459375,44.7234375 L20.803125,45.8171875 C20.3722928,45.8794222 19.9838546,46.1103247 19.7233291,46.4590596 C19.4628036,46.8077945 19.3515502,47.2457705 19.4140625,47.6765625 L20.5078125,55.3328125 C20.6219334,56.1399693 21.311383,56.7409085 22.1265625,56.74375 L22.35625,56.74375 C22.7870822,56.6815153 23.1755204,56.4506128 23.4360459,56.1018779 C23.6965714,55.753143 23.8078248,55.315167 23.7453125,54.884375 L23.1875,50.946875 C30.0325338,56.2321467 39.5252053,56.4316606 46.5862644,51.4386626 C53.6473235,46.4456646 56.6233158,37.4293411 53.921875,29.2140625 L51.253125,31.8828125 Z" id="fill" fill="#000000" fill-rule="nonzero" opacity="0.3"></path>
        <path d="M35.240625,19.03125 C38.7380063,19.030369 42.1430225,20.153871 44.953125,22.2359375 L40.4796875,22.8703125 C39.5735953,22.933739 38.8904798,23.7196891 38.9539063,24.6257812 C39.0173327,25.5318734 39.8032828,26.214989 40.709375,26.1515625 L40.9390625,26.1515625 L48.5953125,25.0578125 C49.0261447,24.9955778 49.4145829,24.7646753 49.6751084,24.4159404 C49.9356339,24.0672055 50.0468873,23.6292295 49.984375,23.1984375 L48.890625,15.5421875 C48.7637721,14.6360953 47.9264047,14.0043971 47.0203125,14.13125 C46.1142203,14.2581029 45.4825221,15.0954703 45.609375,16.0015625 L46.046875,19.0421875 C39.0457265,14.4212539 29.8854919,14.7440978 23.2270315,19.8464513 C16.5685711,24.9488049 13.8745098,33.7098641 16.515625,41.671875 L19.1734375,39.0140625 C18.0857524,34.1448164 19.2728947,29.0452121 22.399248,25.1569564 C25.5256013,21.2687008 30.2514035,19.0143572 35.240625,19.03125 Z M51.253125,31.8828125 C52.7233075,38.5854392 49.8668374,45.4949787 44.0928731,49.2028054 C38.3189088,52.910632 30.8473436,52.6333755 25.3640625,48.5078125 L28.91875,48.0046875 C29.8248422,47.8778346 30.4565404,47.0404672 30.3296875,46.134375 C30.2028346,45.2282828 29.3654672,44.5965846 28.459375,44.7234375 L20.803125,45.8171875 C20.3722928,45.8794222 19.9838546,46.1103247 19.7233291,46.4590596 C19.4628036,46.8077945 19.3515502,47.2457705 19.4140625,47.6765625 L20.5078125,55.3328125 C20.6219334,56.1399693 21.311383,56.7409085 22.1265625,56.74375 L22.35625,56.74375 C22.7870822,56.6815153 23.1755204,56.4506128 23.4360459,56.1018779 C23.6965714,55.753143 23.8078248,55.315167 23.7453125,54.884375 L23.1875,50.946875 C30.0325338,56.2321467 39.5252053,56.4316606 46.5862644,51.4386626 C53.6473235,46.4456646 56.6233158,37.4293411 53.921875,29.2140625 L51.253125,31.8828125 Z" id="color" fill="#000000" fill-rule="nonzero" opacity="0.7"></path>
    </g>
</svg>