<?xml version="1.0" encoding="UTF-8"?>
<svg width="70px" height="70px" viewBox="0 0 70 70" version="1.1" xmlns="http://www.w3.org/2000/svg" xmlns:xlink="http://www.w3.org/1999/xlink">
    <!-- Generator: Sketch 53.2 (72643) - https://sketchapp.com -->
    <title>pack3_satisfaction</title>
    <desc>Created with Sketch.</desc>
    <g id="pack3_satisfaction" stroke="none" stroke-width="1" fill="none" fill-rule="evenodd">
        <path d="M35,70 C15.6700338,70 0,54.3299662 0,35 C0,15.6700338 15.6700338,0 35,0 C54.3299662,0 70,15.6700338 70,35 C70,54.3299662 54.3299662,70 35,70 Z M27.4361111,31.0138889 C28.5099981,31.0138889 29.3805556,30.1433315 29.3805556,29.0694444 C29.3805556,27.9955574 28.5099981,27.125 27.4361111,27.125 C26.3622241,27.125 25.4916667,27.9955574 25.4916667,29.0694444 C25.4916667,30.1433315 26.3622241,31.0138889 27.4361111,31.0138889 Z M42.9916667,31.0138889 C44.0655537,31.0138889 44.9361111,30.1433315 44.9361111,29.0694444 C44.9361111,27.9955574 44.0655537,27.125 42.9916667,27.125 C41.9177797,27.125 41.0472222,27.9955574 41.0472222,29.0694444 C41.0472222,30.1433315 41.9177797,31.0138889 42.9916667,31.0138889 Z M35.2138889,13.5138889 C23.4011317,13.5138889 13.825,23.0900206 13.825,34.9027778 C13.825,46.7155349 23.4011317,56.2916667 35.2138889,56.2916667 C47.026646,56.2916667 56.6027778,46.7155349 56.6027778,34.9027778 C56.6027778,23.0900206 47.026646,13.5138889 35.2138889,13.5138889 Z M35.2138889,53.375 C25.0119623,53.375 16.7416667,45.1047044 16.7416667,34.9027778 C16.7416667,24.7008511 25.0119623,16.4305556 35.2138889,16.4305556 C45.4158155,16.4305556 53.6861111,24.7008511 53.6861111,34.9027778 C53.6861111,45.1047044 45.4158155,53.375 35.2138889,53.375 Z M35.2138889,47.5416667 C40.1203977,47.3834632 44.6118977,44.7478642 47.1430556,40.5416667 C47.4209289,40.1005429 47.4423577,39.544684 47.19927,39.0834768 C46.9561822,38.6222695 46.4855087,38.3257823 45.9645476,38.3056989 C45.4435865,38.2856156 44.9514843,38.5449872 44.6736111,38.9861111 C42.795673,42.461001 39.1637637,44.6265621 35.2138889,44.6265621 C31.2640141,44.6265621 27.6321047,42.461001 25.7541667,38.9861111 C25.3246119,38.3041929 24.4235849,38.0996119 23.7416667,38.5291667 C23.0597484,38.9587215 22.8551674,39.8597484 23.2847222,40.5416667 C25.8158801,44.7478642 30.30738,47.3834632 35.2138889,47.5416667 Z" id="fill" fill="#000000" fill-rule="nonzero" opacity="0.3"></path>
        <path d="M27.4361111,31.0138889 C26.3622241,31.0138889 25.4916667,30.1433315 25.4916667,29.0694444 C25.4916667,27.9955574 26.3622241,27.125 27.4361111,27.125 C28.5099981,27.125 29.3805556,27.9955574 29.3805556,29.0694444 C29.3805556,30.1433315 28.5099981,31.0138889 27.4361111,31.0138889 Z M42.9916667,31.0138889 C41.9177797,31.0138889 41.0472222,30.1433315 41.0472222,29.0694444 C41.0472222,27.9955574 41.9177797,27.125 42.9916667,27.125 C44.0655537,27.125 44.9361111,27.9955574 44.9361111,29.0694444 C44.9361111,30.1433315 44.0655537,31.0138889 42.9916667,31.0138889 Z M35.2138889,13.5138889 C47.026646,13.5138889 56.6027778,23.0900206 56.6027778,34.9027778 C56.6027778,46.7155349 47.026646,56.2916667 35.2138889,56.2916667 C23.4011317,56.2916667 13.825,46.7155349 13.825,34.9027778 C13.825,23.0900206 23.4011317,13.5138889 35.2138889,13.5138889 L35.2138889,13.5138889 Z M35.2138889,53.375 C45.4158155,53.375 53.6861111,45.1047044 53.6861111,34.9027778 C53.6861111,24.7008511 45.4158155,16.4305556 35.2138889,16.4305556 C25.0119623,16.4305556 16.7416667,24.7008511 16.7416667,34.9027778 C16.7416667,45.1047044 25.0119623,53.375 35.2138889,53.375 L35.2138889,53.375 Z M35.2138889,47.5416667 C30.30738,47.3834632 25.8158801,44.7478642 23.2847222,40.5416667 C22.8551674,39.8597484 23.0597484,38.9587215 23.7416667,38.5291667 C24.4235849,38.0996119 25.3246119,38.3041929 25.7541667,38.9861111 C27.6321047,42.461001 31.2640141,44.6265621 35.2138889,44.6265621 C39.1637637,44.6265621 42.795673,42.461001 44.6736111,38.9861111 C44.9514843,38.5449872 45.4435865,38.2856156 45.9645476,38.3056989 C46.4855087,38.3257823 46.9561822,38.6222695 47.19927,39.0834768 C47.4423577,39.544684 47.4209289,40.1005429 47.1430556,40.5416667 C44.6118977,44.7478642 40.1203977,47.3834632 35.2138889,47.5416667 Z" id="color" fill="#000000" fill-rule="nonzero"></path>
    </g>
</svg>