<?xml version="1.0" encoding="UTF-8"?>
<svg width="70px" height="70px" viewBox="0 0 70 70" version="1.1" xmlns="http://www.w3.org/2000/svg" xmlns:xlink="http://www.w3.org/1999/xlink">
    <!-- Generator: Sketch 53.2 (72643) - https://sketchapp.com -->
    <title>pack3_ security</title>
    <desc>Created with Sketch.</desc>
    <g id="pack3_-security" stroke="none" stroke-width="1" fill="none" fill-rule="evenodd">
        <path d="M35,70 C15.6700338,70 0,54.3299662 0,35 C0,15.6700338 15.6700338,0 35,0 C54.3299662,0 70,15.6700338 70,35 C70,54.3299662 54.3299662,70 35,70 Z M24.0625065,28.16493 C19.4220835,31.5457799 16.40625,37.0222596 16.40625,43.203125 C16.40625,53.4721696 24.7309554,61.796875 35,61.796875 C45.2690446,61.796875 53.59375,53.4721696 53.59375,43.203125 C53.59375,36.7826724 50.3395811,31.1222716 45.390625,27.7813044 L45.390625,18.84203 C45.390625,11.2191652 40.3691483,8.203125 34.7641131,8.203125 C29.1590779,8.203125 24.1073924,11.2191652 24.0625801,18.8322761 L24.0625065,28.16493 L24.0625065,28.16493 Z M26.80719,26.5069989 L26.8072289,18.8420435 C26.8408002,13.1422519 30.1219838,11.2191652 34.7641131,11.2191652 C39.4062424,11.2191652 42.6459476,13.6924362 42.6459476,18.84203 L42.6459476,26.2491475 C40.3137591,25.1957218 37.7253539,24.609375 35,24.609375 C32.0597438,24.609375 29.2788854,25.2918381 26.80719,26.5069989 Z M35,59.0625 C26.241109,59.0625 19.140625,51.962016 19.140625,43.203125 C19.140625,34.444234 26.241109,27.34375 35,27.34375 C43.758891,27.34375 50.859375,34.444234 50.859375,43.203125 C50.859375,51.962016 43.758891,59.0625 35,59.0625 Z M32.265625,41.015625 C32.265625,42.0277298 32.8155059,42.911403 33.6328125,43.3841893 L33.6328125,47.2325897 C33.6328125,47.9876665 34.2449232,48.5997772 35,48.5997772 C35.7550768,48.5997772 36.3671875,47.9876665 36.3671875,47.2325897 L36.3671875,43.3841893 C37.1844941,42.911403 37.734375,42.0277298 37.734375,41.015625 C37.734375,39.5054714 36.5101536,38.28125 35,38.28125 C33.4898464,38.28125 32.265625,39.5054714 32.265625,41.015625 Z" id="fill" fill="#000000" fill-rule="nonzero" opacity="0.3"></path>
        <path d="M24.0625065,28.16493 C19.4220835,31.5457799 16.40625,37.0222596 16.40625,43.203125 C16.40625,53.4721696 24.7309554,61.796875 35,61.796875 C45.2690446,61.796875 53.59375,53.4721696 53.59375,43.203125 C53.59375,36.7826724 50.3395811,31.1222716 45.390625,27.7813044 L45.390625,18.84203 C45.390625,11.2191652 40.3691483,8.203125 34.7641131,8.203125 C29.1590779,8.203125 24.1073924,11.2191652 24.0625801,18.8322761 L24.0625065,28.16493 L24.0625065,28.16493 Z M26.80719,26.5069989 L26.8072289,18.8420435 C26.8408002,13.1422519 30.1219838,11.2191652 34.7641131,11.2191652 C39.4062424,11.2191652 42.6459476,13.6924362 42.6459476,18.84203 L42.6459476,26.2491475 C40.3137591,25.1957218 37.7253539,24.609375 35,24.609375 C32.0597438,24.609375 29.2788854,25.2918381 26.80719,26.5069989 Z M35,59.0625 C26.241109,59.0625 19.140625,51.962016 19.140625,43.203125 C19.140625,34.444234 26.241109,27.34375 35,27.34375 C43.758891,27.34375 50.859375,34.444234 50.859375,43.203125 C50.859375,51.962016 43.758891,59.0625 35,59.0625 Z M32.265625,41.015625 C32.265625,42.0277298 32.8155059,42.911403 33.6328125,43.3841893 L33.6328125,47.2325897 C33.6328125,47.9876665 34.2449232,48.5997772 35,48.5997772 C35.7550768,48.5997772 36.3671875,47.9876665 36.3671875,47.2325897 L36.3671875,43.3841893 C37.1844941,42.911403 37.734375,42.0277298 37.734375,41.015625 C37.734375,39.5054714 36.5101536,38.28125 35,38.28125 C33.4898464,38.28125 32.265625,39.5054714 32.265625,41.015625 Z" id="color" fill="#000000" fill-rule="nonzero"></path>
    </g>
</svg>
