<?xml version="1.0" encoding="UTF-8"?>
<svg width="70px" height="70px" viewBox="0 0 70 70" version="1.1" xmlns="http://www.w3.org/2000/svg" xmlns:xlink="http://www.w3.org/1999/xlink">
    <!-- Generator: Sketch 53.2 (72643) - https://sketchapp.com -->
    <title>pack3_ star</title>
    <desc>Created with Sketch.</desc>
    <g id="pack3_-star" stroke="none" stroke-width="1" fill="none" fill-rule="evenodd">
        <path d="M35,70 C15.6700338,70 0,54.3299662 0,35 C0,15.6700338 15.6700338,0 35,0 C54.3299662,0 70,15.6700338 70,35 C70,54.3299662 54.3299662,70 35,70 Z M34.3637914,43.9070469 L24.9223369,48.8707133 L26.7254943,38.3574992 C26.8015618,37.9139917 26.6545228,37.4614523 26.3322958,37.1473585 L18.6939986,29.701859 L29.2498657,28.1680017 C29.6951725,28.1032948 30.0801255,27.8236102 30.2792727,27.4200937 L35,17.8548555 L39.7207273,27.4200937 C39.9198745,27.8236102 40.3048275,28.1032948 40.7501343,28.1680017 L51.3060014,29.701859 L43.6677042,37.1473585 C43.3454772,37.4614523 43.1984382,37.9139917 43.2745057,38.3574992 L45.0776631,48.8707133 L35.6362086,43.9070469 C35.237914,43.697651 34.762086,43.697651 34.3637914,43.9070469 Z M23.7427414,52.5800939 L35,46.6618028 L46.2572586,52.5800939 C47.2602648,53.1074054 48.4325357,52.2557008 48.2409786,51.138837 L46.0910335,38.6036952 L55.1983471,29.7262586 C56.0097961,28.9352912 55.5620285,27.5572041 54.4406335,27.3942559 L41.8546357,25.5654034 L36.2260064,14.1605547 C35.7245033,13.1443984 34.2754967,13.1443984 33.7739936,14.1605547 L28.1453643,25.5654034 L15.5593665,27.3942559 C14.4379715,27.5572041 13.9902039,28.9352912 14.8016529,29.7262586 L23.9089665,38.6036952 L21.7590214,51.138837 C21.5674643,52.2557008 22.7397352,53.1074054 23.7427414,52.5800939 Z" id="fill" fill="#000000" fill-rule="nonzero" opacity="0.3"></path>
        <path d="M34.3637914,43.9070469 L24.9223369,48.8707133 L26.7254943,38.3574992 C26.8015618,37.9139917 26.6545228,37.4614523 26.3322958,37.1473585 L18.6939986,29.701859 L29.2498657,28.1680017 C29.6951725,28.1032948 30.0801255,27.8236102 30.2792727,27.4200937 L35,17.8548555 L39.7207273,27.4200937 C39.9198745,27.8236102 40.3048275,28.1032948 40.7501343,28.1680017 L51.3060014,29.701859 L43.6677042,37.1473585 C43.3454772,37.4614523 43.1984382,37.9139917 43.2745057,38.3574992 L45.0776631,48.8707133 L35.6362086,43.9070469 C35.237914,43.697651 34.762086,43.697651 34.3637914,43.9070469 Z M23.7427414,52.5800939 L35,46.6618028 L46.2572586,52.5800939 C47.2602648,53.1074054 48.4325357,52.2557008 48.2409786,51.138837 L46.0910335,38.6036952 L55.1983471,29.7262586 C56.0097961,28.9352912 55.5620285,27.5572041 54.4406335,27.3942559 L41.8546357,25.5654034 L36.2260064,14.1605547 C35.7245033,13.1443984 34.2754967,13.1443984 33.7739936,14.1605547 L28.1453643,25.5654034 L15.5593665,27.3942559 C14.4379715,27.5572041 13.9902039,28.9352912 14.8016529,29.7262586 L23.9089665,38.6036952 L21.7590214,51.138837 C21.5674643,52.2557008 22.7397352,53.1074054 23.7427414,52.5800939 Z" id="color" fill="#000000" fill-rule="nonzero"></path>
    </g>
</svg>