<?xml version="1.0" encoding="UTF-8"?>
<svg width="70px" height="70px" viewBox="0 0 70 70" version="1.1" xmlns="http://www.w3.org/2000/svg" xmlns:xlink="http://www.w3.org/1999/xlink">
    <!-- Generator: Sketch 53.2 (72643) - https://sketchapp.com -->
    <title>pack3_ support</title>
    <desc>Created with Sketch.</desc>
    <g id="pack3_-support" stroke="none" stroke-width="1" fill="none" fill-rule="evenodd">
        <path d="M35,70 C15.6700338,70 0,54.3299662 0,35 C0,15.6700338 15.6700338,0 35,0 C54.3299662,0 70,15.6700338 70,35 C70,54.3299662 54.3299662,70 35,70 Z M16.40625,35 C16.40625,24.7309554 24.7309554,16.40625 35,16.40625 C45.2690446,16.40625 53.59375,24.7309554 53.59375,35 C53.59375,43.5597748 47.8096809,50.7686079 39.9367814,52.9312604 C39.6448028,52.6634521 39.255552,52.5 38.828125,52.5 L31.171875,52.5 C30.2657828,52.5 29.53125,53.2345328 29.53125,54.140625 L29.53125,55.234375 C29.53125,56.1404672 30.2657828,56.875 31.171875,56.875 L38.828125,56.875 C39.5966001,56.875 40.2416712,56.3466448 40.4198954,55.6333802 C49.0641277,53.3689422 55.5679633,45.8162105 56.2659623,36.640625 L56.328125,36.640625 C57.2342172,36.640625 57.96875,36.1321023 57.96875,35.5048077 L57.96875,27.9326923 C57.96875,27.3053977 57.7810922,26.796875 56.875,26.796875 L54.6935265,26.796875 C51.4793465,19.0893767 43.8723359,13.671875 35,13.671875 C26.1276641,13.671875 18.5206535,19.0893767 15.3064735,26.796875 L13.671875,26.796875 C12.7657828,26.796875 12.03125,27.3053977 12.03125,27.9326923 L12.03125,35.5048077 C12.03125,36.1321023 12.7657828,36.640625 13.671875,36.640625 L16.40625,36.640625 L16.40625,35 L16.40625,35 Z M27.2829861,31.171875 C28.3568731,31.171875 29.2274306,30.3013176 29.2274306,29.2274306 C29.2274306,28.1535435 28.3568731,27.2829861 27.2829861,27.2829861 C26.2090991,27.2829861 25.3385417,28.1535435 25.3385417,29.2274306 C25.3385417,30.3013176 26.2090991,31.171875 27.2829861,31.171875 Z M42.8385417,31.171875 C43.9124287,31.171875 44.7829861,30.3013176 44.7829861,29.2274306 C44.7829861,28.1535435 43.9124287,27.2829861 42.8385417,27.2829861 C41.7646547,27.2829861 40.8940972,28.1535435 40.8940972,29.2274306 C40.8940972,30.3013176 41.7646547,31.171875 42.8385417,31.171875 Z M24.3359375,38.4626998 C24.0795863,38.467794 23.8213003,38.5405332 23.5885417,38.6871528 C22.9066234,39.1167076 22.7020424,40.0177345 23.1315972,40.6996528 C25.6627551,44.9058503 30.154255,47.5414493 35.0607639,47.6996528 C39.9672727,47.5414493 44.4587727,44.9058503 46.9899306,40.6996528 C47.2678039,40.258529 47.2892327,39.7026702 47.046145,39.2414629 C46.8030572,38.7802557 46.3323837,38.4837684 45.8114226,38.463685 C45.7980644,38.4631701 45.7847252,38.4628388 45.7714081,38.4626897 L45.7714081,38.4617188 L24.3359375,38.4617188 L24.3359375,38.4626998 L24.3359375,38.4626998 Z M27.041961,41.1960938 L43.0795648,41.1960938 C41.0654649,43.4503804 38.1610611,44.7845482 35.0607639,44.7845482 C31.9604669,44.7845482 29.0560633,43.4503806 27.041961,41.1960938 Z" id="fill" fill="#000000" fill-rule="nonzero" opacity="0.3"></path>
        <path d="M16.40625,35 C16.40625,24.7309554 24.7309554,16.40625 35,16.40625 C45.2690446,16.40625 53.59375,24.7309554 53.59375,35 C53.59375,43.5597748 47.8096809,50.7686079 39.9367814,52.9312604 C39.6448028,52.6634521 39.255552,52.5 38.828125,52.5 L31.171875,52.5 C30.2657828,52.5 29.53125,53.2345328 29.53125,54.140625 L29.53125,55.234375 C29.53125,56.1404672 30.2657828,56.875 31.171875,56.875 L38.828125,56.875 C39.5966001,56.875 40.2416712,56.3466448 40.4198954,55.6333802 C49.0641277,53.3689422 55.5679633,45.8162105 56.2659623,36.640625 L56.328125,36.640625 C57.2342172,36.640625 57.96875,36.1321023 57.96875,35.5048077 L57.96875,27.9326923 C57.96875,27.3053977 57.7810922,26.796875 56.875,26.796875 L54.6935265,26.796875 C51.4793465,19.0893767 43.8723359,13.671875 35,13.671875 C26.1276641,13.671875 18.5206535,19.0893767 15.3064735,26.796875 L13.671875,26.796875 C12.7657828,26.796875 12.03125,27.3053977 12.03125,27.9326923 L12.03125,35.5048077 C12.03125,36.1321023 12.7657828,36.640625 13.671875,36.640625 L16.40625,36.640625 L16.40625,35 L16.40625,35 Z M27.2829861,31.171875 C28.3568731,31.171875 29.2274306,30.3013176 29.2274306,29.2274306 C29.2274306,28.1535435 28.3568731,27.2829861 27.2829861,27.2829861 C26.2090991,27.2829861 25.3385417,28.1535435 25.3385417,29.2274306 C25.3385417,30.3013176 26.2090991,31.171875 27.2829861,31.171875 Z M42.8385417,31.171875 C43.9124287,31.171875 44.7829861,30.3013176 44.7829861,29.2274306 C44.7829861,28.1535435 43.9124287,27.2829861 42.8385417,27.2829861 C41.7646547,27.2829861 40.8940972,28.1535435 40.8940972,29.2274306 C40.8940972,30.3013176 41.7646547,31.171875 42.8385417,31.171875 Z M24.3359375,38.4626998 C24.0795863,38.467794 23.8213003,38.5405332 23.5885417,38.6871528 C22.9066234,39.1167076 22.7020424,40.0177345 23.1315972,40.6996528 C25.6627551,44.9058503 30.154255,47.5414493 35.0607639,47.6996528 C39.9672727,47.5414493 44.4587727,44.9058503 46.9899306,40.6996528 C47.2678039,40.258529 47.2892327,39.7026702 47.046145,39.2414629 C46.8030572,38.7802557 46.3323837,38.4837684 45.8114226,38.463685 C45.7980644,38.4631701 45.7847252,38.4628388 45.7714081,38.4626897 L45.7714081,38.4617188 L24.3359375,38.4617188 L24.3359375,38.4626998 L24.3359375,38.4626998 Z M27.041961,41.1960938 L43.0795648,41.1960938 C41.0654649,43.4503804 38.1610611,44.7845482 35.0607639,44.7845482 C31.9604669,44.7845482 29.0560633,43.4503806 27.041961,41.1960938 Z" id="color" fill="#000000" fill-rule="nonzero"></path>
    </g>
</svg>